<svg xmlns="http://www.w3.org/2000/svg" viewBox="0 0 147.66 121.37"><defs><style>.cls-1{fill:#edd0aa;}.cls-2{fill:#00c8e3;}.cls-3{fill:#002bdc;}.cls-4{fill:#1e243a;}</style></defs><title>Blockchain_solurions</title><g id="Warstwa_2" data-name="Warstwa 2"><g id="NETWORK"><polygon class="cls-1" points="131.09 60.05 131.09 60.05 131.1 60.05 131.09 60.05"/><path class="cls-2" d="M131.09,60.05a11.2,11.2,0,0,0-11.18,11.21V86.82h3.65v-15a7.55,7.55,0,0,1,7.56-7.55h0a7.56,7.56,0,0,1,7.59,7.55v15h3.56V71.26A11.2,11.2,0,0,0,131.09,60.05Z"/><rect class="cls-1" x="123.56" y="86.82" width="15.16" height="0.09"/><circle class="cls-3" cx="62.03" cy="49.23" r="2.03"/><circle class="cls-3" cx="62.03" cy="30.45" r="2.03"/><circle class="cls-3" cx="49.25" cy="17.67" r="2.03"/><circle class="cls-3" cx="30.39" cy="17.61" r="2.03"/><path class="cls-3" d="M17.55,28.42a2,2,0,1,0,2,2A2,2,0,0,0,17.55,28.42Z"/><path class="cls-3" d="M17.55,47.2a2,2,0,1,0,2,2A2,2,0,0,0,17.55,47.2Z"/><circle class="cls-3" cx="9.37" cy="42.31" r="2.03"/><circle class="cls-3" cx="2.73" cy="37.2" r="2.03"/><circle class="cls-3" cx="70.14" cy="42.31" r="2.03" transform="translate(-4.64 8.89) rotate(-7.02)"/><circle class="cls-3" cx="76.79" cy="37.2" r="2.03"/><circle class="cls-3" cx="42.32" cy="2.73" r="2.03"/><circle class="cls-3" cx="42.32" cy="77.3" r="2.03"/><circle class="cls-3" cx="37.19" cy="70.13" r="2.03" transform="translate(-15.12 10.42) rotate(-13.28)"/><circle class="cls-3" cx="37.19" cy="9.38" r="2.03"/><circle class="cls-3" cx="49.25" cy="62.13" r="2.03" transform="translate(-10.86 10.43) rotate(-10.9)"/><circle class="cls-3" cx="30.39" cy="62.13" r="2.03" transform="translate(-11.2 6.87) rotate(-10.9)"/><path class="cls-3" d="M143.7,87.2H118.51a3.28,3.28,0,0,0-3.28,3.26V112.2a8.52,8.52,0,0,0,8.49,8.51h14.77A8.51,8.51,0,0,0,147,112.2V90.46A3.26,3.26,0,0,0,143.7,87.2ZM131.11,103a3.59,3.59,0,1,1,3.59-3.59A3.6,3.6,0,0,1,131.11,103Z"/><path class="cls-4" d="M55.32,54.67a.7.7,0,0,1-.7.7H24.85a.7.7,0,0,1-.7-.7V25a.7.7,0,0,1,.7-.7H54.62a.7.7,0,0,1,.7.7ZM25.56,54H53.92V25.7H25.56Z"/><path class="cls-4" d="M60,31.22H49.29a.7.7,0,0,1-.71-.7V19.71a.71.71,0,0,1,1.41,0V29.82H60a.7.7,0,1,1,0,1.4Z"/><path class="cls-4" d="M49.29,60.85a.71.71,0,0,1-.71-.7V49.33a.71.71,0,0,1,.71-.7H60A.71.71,0,0,1,60,50H50V60.15A.71.71,0,0,1,49.29,60.85Z"/><path class="cls-4" d="M30.28,31.22H19.57a.7.7,0,1,1,0-1.4h10V19.71a.71.71,0,0,1,1.41,0V30.52A.7.7,0,0,1,30.28,31.22Z"/><path class="cls-4" d="M30.38,60.75a.7.7,0,0,1-.7-.7V49.94h-10a.7.7,0,0,1,0-1.4H30.38a.7.7,0,0,1,.7.7V60.05A.7.7,0,0,1,30.38,60.75Z"/><path class="cls-4" d="M62,52a2.74,2.74,0,1,1,2.73-2.74A2.74,2.74,0,0,1,62,52Zm0-4.06a1.33,1.33,0,1,0,1.32,1.32A1.32,1.32,0,0,0,62,47.91Z"/><path class="cls-4" d="M62,33.18a2.73,2.73,0,1,1,2.73-2.73A2.74,2.74,0,0,1,62,33.18Zm0-4.06a1.33,1.33,0,1,0,1.32,1.33A1.33,1.33,0,0,0,62,29.12Z"/><path class="cls-4" d="M49.25,20.41A2.74,2.74,0,1,1,52,17.67,2.74,2.74,0,0,1,49.25,20.41Zm0-4.06a1.33,1.33,0,1,0,1.33,1.32A1.33,1.33,0,0,0,49.25,16.35Z"/><path class="cls-4" d="M30.39,20.35a2.74,2.74,0,1,1,2.73-2.74A2.74,2.74,0,0,1,30.39,20.35Zm0-4.06a1.33,1.33,0,1,0,1.32,1.32A1.32,1.32,0,0,0,30.39,16.29Z"/><path class="cls-4" d="M17.55,33.18a2.73,2.73,0,1,1,2.73-2.73A2.73,2.73,0,0,1,17.55,33.18Zm0-4.06a1.33,1.33,0,1,0,1.33,1.33A1.34,1.34,0,0,0,17.55,29.12Z"/><path class="cls-4" d="M17.55,52a2.74,2.74,0,1,1,2.73-2.74A2.74,2.74,0,0,1,17.55,52Zm0-4.06a1.33,1.33,0,1,0,1.33,1.32A1.33,1.33,0,0,0,17.55,47.91Z"/><path class="cls-4" d="M9.37,45a2.73,2.73,0,1,1,2.73-2.73A2.73,2.73,0,0,1,9.37,45Zm0-4.06a1.33,1.33,0,1,0,1.33,1.33A1.34,1.34,0,0,0,9.37,41Z"/><path class="cls-4" d="M2.73,39.93A2.74,2.74,0,1,1,5.46,37.2,2.74,2.74,0,0,1,2.73,39.93Zm0-4.06A1.33,1.33,0,1,0,4.06,37.2,1.33,1.33,0,0,0,2.73,35.87Z"/><path class="cls-4" d="M70.14,45a2.73,2.73,0,1,1,2.74-2.73A2.73,2.73,0,0,1,70.14,45Zm0-4.06a1.33,1.33,0,1,0,1.33,1.33A1.33,1.33,0,0,0,70.14,41Z"/><path class="cls-4" d="M76.79,39.93a2.74,2.74,0,1,1,2.73-2.73A2.74,2.74,0,0,1,76.79,39.93Zm0-4.06a1.33,1.33,0,1,0,1.32,1.33A1.32,1.32,0,0,0,76.79,35.87Z"/><path class="cls-4" d="M42.32,5.46a2.73,2.73,0,1,1,2.73-2.73A2.73,2.73,0,0,1,42.32,5.46Zm0-4.06a1.33,1.33,0,1,0,1.33,1.33A1.34,1.34,0,0,0,42.32,1.4Z"/><path class="cls-4" d="M42.32,80a2.74,2.74,0,1,1,2.73-2.74A2.74,2.74,0,0,1,42.32,80Zm0-4.06a1.33,1.33,0,1,0,1.33,1.32A1.33,1.33,0,0,0,42.32,76Z"/><path class="cls-4" d="M37.19,72.86a2.73,2.73,0,1,1,2.73-2.73A2.73,2.73,0,0,1,37.19,72.86Zm0-4.06a1.33,1.33,0,1,0,1.33,1.33A1.34,1.34,0,0,0,37.19,68.8Z"/><path class="cls-4" d="M37.19,12.11a2.74,2.74,0,1,1,2.73-2.73A2.73,2.73,0,0,1,37.19,12.11Zm0-4.06a1.33,1.33,0,1,0,1.33,1.33A1.33,1.33,0,0,0,37.19,8.05Z"/><path class="cls-4" d="M49.25,64.86A2.73,2.73,0,1,1,52,62.13,2.73,2.73,0,0,1,49.25,64.86Zm0-4.06a1.33,1.33,0,1,0,1.33,1.33A1.34,1.34,0,0,0,49.25,60.8Z"/><path class="cls-4" d="M30.39,64.86a2.73,2.73,0,1,1,2.73-2.73A2.74,2.74,0,0,1,30.39,64.86Zm0-4.06a1.33,1.33,0,1,0,1.32,1.33A1.33,1.33,0,0,0,30.39,60.8Z"/><path class="cls-4" d="M74.79,37.87H42.36a.7.7,0,0,1-.7-.7V4.73a.7.7,0,0,1,1.4,0V36.46H74.79a.71.71,0,0,1,0,1.41Z"/><path class="cls-4" d="M42.36,75.45a.7.7,0,0,1-.7-.7V42.31a.7.7,0,0,1,.7-.7H68.15a.71.71,0,0,1,0,1.41H43.06V74.75A.7.7,0,0,1,42.36,75.45Z"/><path class="cls-4" d="M37.21,68.8a.7.7,0,0,1-.7-.7V43H11.42a.71.71,0,0,1,0-1.41H37.21a.7.7,0,0,1,.7.7V68.1A.7.7,0,0,1,37.21,68.8Z"/><path class="cls-4" d="M37.21,37.87H4.78a.71.71,0,1,1,0-1.41H36.51V11.38a.7.7,0,0,1,1.4,0V37.17A.7.7,0,0,1,37.21,37.87Z"/><path class="cls-4" d="M138.49,121.37H123.72a9.18,9.18,0,0,1-9.17-9.17V90.46a4,4,0,0,1,4-4H143.7a4,4,0,0,1,4,4V112.2A9.18,9.18,0,0,1,138.49,121.37Zm-20-33.47A2.56,2.56,0,0,0,116,90.46V112.2a7.78,7.78,0,0,0,7.77,7.76h14.77a7.78,7.78,0,0,0,7.77-7.76V90.46a2.56,2.56,0,0,0-2.56-2.56Z"/><path class="cls-4" d="M131.11,103.67a4.29,4.29,0,1,1,4.29-4.29A4.3,4.3,0,0,1,131.11,103.67Zm0-7.18A2.89,2.89,0,1,0,134,99.38,2.89,2.89,0,0,0,131.11,96.49Z"/><path class="cls-4" d="M131.09,111a.71.71,0,0,1-.7-.7V103a.71.71,0,1,1,1.41,0v7.3A.71.71,0,0,1,131.09,111Z"/><path class="cls-4" d="M142.32,87.55a.7.7,0,0,1-.7-.7V71.26a10.52,10.52,0,0,0-21,0V86.85a.7.7,0,0,1-1.4,0V71.26a11.92,11.92,0,1,1,23.83,0V86.85A.7.7,0,0,1,142.32,87.55Z"/><path class="cls-4" d="M138.68,87.62a.7.7,0,0,1-.7-.7V71.81a6.88,6.88,0,0,0-13.75,0V86.92a.7.7,0,1,1-1.4,0V71.81a8.28,8.28,0,1,1,16.55,0V86.92A.7.7,0,0,1,138.68,87.62Z"/><path class="cls-4" d="M134.7,92.25H115.79a.7.7,0,0,1,0-1.4H134.7a.7.7,0,0,1,0,1.4Z"/><path class="cls-4" d="M146.59,92.25h-6.37a.7.7,0,0,1,0-1.4h6.37a.7.7,0,1,1,0,1.4Z"/><path class="cls-4" d="M42.36,84.25a.7.7,0,0,1-.7-.7V82.33a.7.7,0,0,1,1.4,0v1.22A.7.7,0,0,1,42.36,84.25Z"/><path class="cls-4" d="M42.36,105.31a.7.7,0,0,1-.7-.7v-2.53a.7.7,0,0,1,1.4,0v2.53A.7.7,0,0,1,42.36,105.31Zm0-7a.7.7,0,0,1-.7-.7V95.06a.7.7,0,0,1,1.4,0v2.53A.7.7,0,0,1,42.36,98.29Zm0-7a.7.7,0,0,1-.7-.7V88a.7.7,0,0,1,1.4,0v2.53A.7.7,0,0,1,42.36,91.27Z"/><path class="cls-4" d="M43.53,111.07H42.36a.7.7,0,0,1-.7-.71v-1.17a.7.7,0,0,1,1.4,0v.47h.47a.71.71,0,0,1,0,1.41Z"/><path class="cls-4" d="M107.18,111.07h-2.25a.71.71,0,0,1,0-1.41h2.25a.71.71,0,0,1,0,1.41Zm-6.37,0H98.57a.71.71,0,0,1,0-1.41h2.24a.71.71,0,1,1,0,1.41Zm-6.36,0H92.2a.71.71,0,0,1,0-1.41h2.25a.71.71,0,0,1,0,1.41Zm-6.37,0H85.84a.71.71,0,0,1,0-1.41h2.24a.71.71,0,1,1,0,1.41Zm-6.36,0H79.47a.71.71,0,0,1,0-1.41h2.25a.71.71,0,0,1,0,1.41Zm-6.37,0H73.11a.71.71,0,0,1,0-1.41h2.24a.71.71,0,1,1,0,1.41Zm-6.36,0H66.74a.71.71,0,0,1,0-1.41H69a.71.71,0,0,1,0,1.41Zm-6.37,0H60.38a.71.71,0,0,1,0-1.41h2.24a.71.71,0,1,1,0,1.41Zm-6.36,0H54a.71.71,0,0,1,0-1.41h2.25a.71.71,0,0,1,0,1.41Zm-6.37,0H47.65a.71.71,0,0,1,0-1.41h2.24a.71.71,0,1,1,0,1.41Z"/><path class="cls-4" d="M112.51,111.07H111.3a.71.71,0,0,1,0-1.41h1.21a.71.71,0,1,1,0,1.41Z"/><path class="cls-4" d="M84.43,37.87H83.31a.71.71,0,0,1,0-1.41h1.12a.71.71,0,1,1,0,1.41Z"/><path class="cls-4" d="M125.43,37.87H123a.71.71,0,0,1,0-1.41h2.43a.71.71,0,0,1,0,1.41Zm-6.83,0h-2.44a.71.71,0,0,1,0-1.41h2.44a.71.71,0,0,1,0,1.41Zm-6.83,0h-2.44a.71.71,0,0,1,0-1.41h2.44a.71.71,0,0,1,0,1.41Zm-6.84,0H102.5a.71.71,0,0,1,0-1.41h2.43a.71.71,0,0,1,0,1.41Zm-6.83,0H95.67a.71.71,0,1,1,0-1.41H98.1a.71.71,0,0,1,0,1.41Zm-6.83,0H88.83a.71.71,0,0,1,0-1.41h2.44a.71.71,0,0,1,0,1.41Z"/><path class="cls-4" d="M131.09,39a.71.71,0,0,1-.7-.7v-.47h-.47a.71.71,0,0,1,0-1.41h1.17a.71.71,0,0,1,.71.71v1.17A.71.71,0,0,1,131.09,39Z"/><path class="cls-4" d="M131.09,52a.71.71,0,0,1-.7-.71V48.91a.71.71,0,0,1,1.41,0v2.34A.71.71,0,0,1,131.09,52Zm0-6.46a.71.71,0,0,1-.7-.71V42.45a.71.71,0,0,1,1.41,0v2.34A.71.71,0,0,1,131.09,45.5Z"/><path class="cls-4" d="M131.09,57.2a.71.71,0,0,1-.7-.7V55.37a.71.71,0,0,1,1.41,0V56.5A.71.71,0,0,1,131.09,57.2Z"/></g></g></svg>