<svg xmlns="http://www.w3.org/2000/svg" xmlns:xlink="http://www.w3.org/1999/xlink" viewBox="0 0 1000.52 912.3"><defs><style>.cls-1{fill:#cfc7c7;}.cls-2{fill:#e1e1e1;}.cls-3{fill:#eee;}.cls-4{clip-path:url(#clip-path);}.cls-5{clip-path:url(#clip-path-2);}.cls-6{fill:#cec7c7;}.cls-7{fill:#e8e6e6;}.cls-8,.cls-9{fill:#fff;}.cls-11,.cls-12,.cls-13,.cls-14,.cls-15,.cls-16,.cls-17,.cls-18,.cls-19,.cls-20,.cls-21,.cls-22,.cls-23,.cls-25,.cls-26,.cls-27,.cls-28,.cls-29,.cls-30,.cls-31,.cls-32,.cls-33,.cls-34,.cls-9{fill-rule:evenodd;}.cls-10{fill:#8ec2ff;stroke:#d6d6d6;}.cls-10,.cls-31{stroke-miterlimit:10;stroke-width:1.06px;}.cls-11{fill:#f8f7f8;}.cls-12{fill:#303e48;}.cls-13{fill:#b4bfe2;}.cls-14,.cls-24{fill:#002bdc;}.cls-15{fill:#187cc5;}.cls-16{fill:url(#linear-gradient);}.cls-17,.cls-38{fill:#99a7d7;}.cls-18,.cls-39{fill:#f2b1b5;}.cls-20{fill:#b78b96;}.cls-21{fill:#471908;}.cls-22{fill:#9aa0dd;}.cls-23,.cls-35{fill:#021658;}.cls-25{fill:#868082;}.cls-26,.cls-45{fill:#00c8e3;}.cls-27{fill:#838383;}.cls-28{fill:#e3e2e2;}.cls-29{fill:#b7b7b7;}.cls-30{fill:#e4f2ff;}.cls-31{fill:none;stroke:#aaa;}.cls-32{fill:#04aebb;}.cls-33{fill:#017ae8;}.cls-34{fill:#d7e8ff;}.cls-36{fill:#737d9b;}.cls-37{fill:#021557;}.cls-40{fill:#424268;}.cls-41{fill:#fdffff;}.cls-42{fill:#b78a95;}.cls-43{fill:#010101;}.cls-44{fill:#bcbcbc;}.cls-46{fill:#7bf6ff;}.cls-47{fill:#aabce5;}.cls-48{fill:#04adba;}.cls-49{fill:#715154;}.cls-50{fill:#2c4482;}.cls-51,.cls-58{fill:#a8c4e5;}.cls-52{fill:#e1eaf4;}.cls-53{fill:#d0e7f4;}.cls-54{fill:#fcfeff;}.cls-55{fill:#af8080;}.cls-56{fill:#283d75;}.cls-57{fill:#d7e8f7;}.cls-58{opacity:0.53;}.cls-59{fill:#c2e3ff;}</style><clipPath id="clip-path"><path class="cls-1" d="M998.85,444l-.22,77.56c0,13-8.58,26-25.66,35.92l.22-77.56C990.27,470,998.81,457,998.85,444Z"/></clipPath><clipPath id="clip-path-2"><path class="cls-1" d="M1.67,520.82l.22-77.57c0,13.19,8.66,26.39,26.09,36.45l-.22,77.56C10.33,547.2,1.63,534,1.67,520.82Z"/></clipPath><linearGradient id="linear-gradient" x1="-372.35" y1="-608.71" x2="30.36" y2="-608.71" gradientTransform="matrix(-0.51, 0.86, -0.87, -0.5, -297.05, 38.44)" gradientUnits="userSpaceOnUse"><stop offset="0" stop-color="#eae8ed"/><stop offset="0.16" stop-color="#fcfcfe"/></linearGradient></defs><title>illustration_02</title><g id="Warstwa_2" data-name="Warstwa 2"><g id="Warstwa_37" data-name="Warstwa 37"><path class="cls-2" d="M971.24,590.64c35.94,20.47,36.15,53.66.44,74.13L566.67,897c-35.71,20.47-93.8,20.46-129.74,0L29.28,664.78c-35.95-20.48-36.14-53.66-.44-74.13l405-232.19c35.7-20.47,93.78-20.47,129.73,0Z"/><path class="cls-3" d="M971.24,483.92c35.94,20.47,36.15,53.66.44,74.13l-405,232.18c-35.71,20.47-93.8,20.46-129.74,0L29.28,558.06c-35.95-20.48-36.14-53.67-.44-74.14l405-232.18c35.7-20.47,93.78-20.47,129.73,0Z"/><path class="cls-1" d="M998.85,444l-.22,77.56c0,13-8.58,26-25.66,35.92l.22-77.56C990.27,470,998.81,457,998.85,444Z"/><g class="cls-4"><path class="cls-1" d="M998.85,444l-.22,77.56c0,13-8.58,26-25.66,35.92l.22-77.56C990.27,470,998.81,457,998.85,444"/></g><path class="cls-1" d="M1.67,520.82l.22-77.57c0,13.19,8.66,26.39,26.09,36.45l-.22,77.56C10.33,547.2,1.63,534,1.67,520.82Z"/><g class="cls-5"><path class="cls-1" d="M28,479.7l-.22,77.56c-8.64-5-15.14-10.74-19.49-16.89l.22-77.56C12.84,469,19.34,474.71,28,479.7"/><path class="cls-1" d="M8.49,462.81l-.22,77.56a33.53,33.53,0,0,1-6.6-19.55l.22-77.57a33.56,33.56,0,0,0,6.6,19.56"/></g><polygon class="cls-1" points="973.18 479.92 972.97 557.48 565.69 796.43 565.91 718.87 973.18 479.92"/><polygon class="cls-6" points="440.85 718.87 440.63 796.43 27.76 557.26 28.09 480.64 440.85 718.87"/><path class="cls-7" d="M501.9,730.14c-24.7,0-48-5.51-65.51-15.5L28.74,482.47C10.93,472.33,1.11,458.78,1.09,444.32s9.65-27.81,27.21-37.88l405-232.19c17.43-10,40.63-15.49,65.31-15.49s48,5.5,65.52,15.5L971.78,406.43c17.8,10.14,27.62,23.69,27.64,38.16s-9.64,27.81-27.2,37.87l-405,232.19C549.78,724.64,526.59,730.14,501.9,730.14Z"/><path class="cls-7" d="M498.62,159.85c23.48,0,47,5.12,65,15.36L971.24,407.38c35.94,20.47,36.15,53.66.44,74.13l-405,232.19C548.82,723.93,525.37,729,501.9,729s-47-5.12-65-15.35L29.28,481.52C-6.67,461-6.86,427.86,28.84,407.39l405-232.19c17.85-10.23,41.29-15.35,64.76-15.35m0-2.19c-24.87,0-48.26,5.56-65.85,15.64l-405,232.19C9.84,415.76,0,429.55,0,444.32s10,28.75,28.2,39.1L435.84,715.59c17.72,10.09,41.18,15.64,66.06,15.64s48.27-5.55,65.86-15.63l405-232.19c17.91-10.27,27.77-24.06,27.75-38.83s-10-28.76-28.2-39.1L564.68,173.31c-17.72-10.09-41.18-15.65-66.06-15.65Z"/><path class="cls-8" d="M501.9,721.38c-24.7,0-48-5.5-65.51-15.5L28.74,473.72C10.93,463.57,1.11,450,1.09,435.56s9.65-27.81,27.21-37.88l405-232.18c17.43-10,40.63-15.5,65.31-15.5s48,5.51,65.52,15.51L971.78,397.68c17.8,10.14,27.62,23.69,27.64,38.15s-9.64,27.81-27.2,37.88l-405,232.18C549.78,715.88,526.59,721.38,501.9,721.38Z"/><path class="cls-7" d="M498.62,151.1c23.48,0,47,5.12,65,15.36L971.24,398.63c35.94,20.47,36.15,53.66.44,74.13l-405,232.18c-17.85,10.24-41.3,15.35-64.77,15.35s-47-5.12-65-15.36L29.28,472.76c-35.95-20.48-36.14-53.66-.44-74.13l405-232.18c17.85-10.24,41.29-15.35,64.76-15.35m0-2.19c-24.87,0-48.26,5.55-65.85,15.64l-405,232.18C9.84,407,0,420.79,0,435.56s10,28.76,28.2,39.11L435.84,706.83c17.72,10.09,41.18,15.65,66.06,15.65s48.27-5.55,65.86-15.64l405-232.18c17.91-10.27,27.77-24.06,27.75-38.83s-10-28.76-28.2-39.11L564.68,164.56c-17.72-10.1-41.18-15.65-66.06-15.65Z"/><path class="cls-1" d="M565.8,718.88l-.22,77.56c-34.39,20-90.33,20-125,0l.22-76.43c36.09,17.41,91.11,17.41,124.95-1.12"/><polygon class="cls-9" points="248.63 377.94 244.4 87.72 385.45 6.11 390.03 55.44 387.63 299.44 248.63 377.94"/><line class="cls-10" x1="267.41" y1="141.1" x2="267.41" y2="333.93"/><line class="cls-10" x1="299.96" y1="124.21" x2="299.96" y2="317.04"/><line class="cls-10" x1="330.66" y1="106.61" x2="330.66" y2="299.44"/><line class="cls-10" x1="363.96" y1="90.75" x2="363.96" y2="283.59"/><line class="cls-10" x1="256.54" y1="196.43" x2="377.12" y2="128.33"/><line class="cls-10" x1="256.54" y1="155.81" x2="377.12" y2="87.71"/><line class="cls-10" x1="256.54" y1="232.97" x2="377.12" y2="164.88"/><line class="cls-10" x1="256.54" y1="264.95" x2="377.12" y2="196.85"/><line class="cls-10" x1="256.54" y1="297.17" x2="377.12" y2="229.08"/><line class="cls-10" x1="256.54" y1="329.82" x2="377.12" y2="261.73"/><path class="cls-11" d="M387.63,125.57v84.8a2.12,2.12,0,0,1,.11.21,10.87,10.87,0,0,1,.85,2.07q.27.48.48,1l-.05.11.93.61a12.38,12.38,0,0,1,.72-1.14l-.08-92.76Z"/><path class="cls-11" d="M387.63,227.68v13.91a30.58,30.58,0,0,1,2.29-2.07l.75-.56v-8.8L389.39,229Z"/><polygon class="cls-12" points="387.63 36.99 250.97 115.89 250.97 115.78 387.63 36.88 387.63 36.99"/><polygon class="cls-11" points="224.43 377.8 224.9 377.73 233.43 364.13 225.32 359.96 216.81 373.15 224.43 377.8"/><path class="cls-13" d="M232.72,362.89,227,359.7a1.24,1.24,0,0,0-1.64.26l7.87,4.42-8.3,13.35L218.25,374l-1,.42a2.58,2.58,0,0,0,.37.16l2.56,1.49,3.24,1.76a1.21,1.21,0,0,0,1.87-.48l7.87-12.72A1.11,1.11,0,0,0,232.72,362.89Z"/><path class="cls-14" d="M230.75,365.17l-1.81-.95a.33.33,0,0,0-.53.1l-1,1.81a.39.39,0,0,0,.11.59l1.8.95c.22.15.4.09.54-.16l1-1.8A.35.35,0,0,0,230.75,365.17Z"/><path class="cls-15" d="M226.34,372.41l-1.81-1a.34.34,0,0,0-.53.11l-1,1.81a.39.39,0,0,0,.11.58l1.81,1c.21.14.39.09.53-.16l1-1.81A.34.34,0,0,0,226.34,372.41Z"/><path class="cls-13" d="M240.22,383.32q-1.82-1.29-1.75-4.47l0-173,0-117.44a12,12,0,0,1,.21-2.23,10.38,10.38,0,0,1,.38-1.7,20.15,20.15,0,0,1,1.65-3.62,15.13,15.13,0,0,1,5.53-5.64L374.49,1.14c2-1.14,3.68-1.42,5.06-.86l-5.16,9,1.17.7L254.37,80a14.61,14.61,0,0,0-5.48,5.69,15,15,0,0,0-2.34,7.45v282l-1.17-.74Z"/><path class="cls-13" d="M375.56,10l-1.17-.7,5.16-9,.05-.05L380,.5a.55.55,0,0,0,.16.1l8,4.63c-1.53-.78-3.35-.57-5.48.64Z"/><path class="cls-16" d="M252.78,388.64a5.07,5.07,0,0,1-3.62-.06l-.53-.32q-2-1.22-2-4.73l-.11-8.41v-282a15,15,0,0,1,2.34-7.45A14.61,14.61,0,0,1,254.37,80L375.56,10l7.18-4.1c2.13-1.21,3.95-1.42,5.48-.64l.43.21q1.86,1.39,1.86,4.69l-.06.42c-.07-2.2-.83-3.7-2.28-4.52s-3.32-.62-5.48.58L255.06,80.77a16.34,16.34,0,0,0-5.48,5.75A14.27,14.27,0,0,0,247.35,94l.16,289.4q0,3.56,2.34,4.79A4.37,4.37,0,0,0,252.78,388.64ZM383.7,313a.43.43,0,0,1,0,.11c-.33.23-.68.45-1,.66l-4.63,2.56,4.95-2.87Z"/><path class="cls-11" d="M382,285.43c.29-.95.55-1.87.79-2.77l-17,9.84L286.5,338.26,251,358.74v-243l136.66-78.9V77.32l2.93-1.68-.05-64.77a.91.91,0,0,1-.06-.32c-.07-2.2-.83-3.7-2.28-4.52s-3.32-.62-5.48.58L255.06,80.77a16.34,16.34,0,0,0-5.48,5.75A14.27,14.27,0,0,0,247.35,94l.16,289.4q0,3.56,2.34,4.79a4.37,4.37,0,0,0,2.93.48,11.51,11.51,0,0,0,2.5-1.07l122.78-71.23,4.95-2.87.69-.46c-.58-2.46-1.14-4.91-1.7-7.36A66.51,66.51,0,0,1,382,285.43ZM315.55,58.8a4.43,4.43,0,0,1,1.65-1.7l18.73-10.91a1.42,1.42,0,0,1,1.54-.21,1.56,1.56,0,0,1,.69,1.44,4.77,4.77,0,0,1-.59,2.23,4.12,4.12,0,0,1-1.64,1.65L317.15,62.21a1.49,1.49,0,0,1-1.55.16A1.4,1.4,0,0,1,315,61,3.89,3.89,0,0,1,315.55,58.8Zm27.93,267a8.93,8.93,0,0,1-4.79,8.3l-22.5,13c-1.88,1.1-3.18,1.22-3.88.37q-1.71-.37-1.71-3.57v-7.44a9.12,9.12,0,0,1,4.79-8.3l22.5-13c1.85-1.07,3.14-1.21,3.89-.43,1.13.32,1.7,1.53,1.7,3.62Z"/><path class="cls-13" d="M246.55,375.12l.11,8.41q-.06,3.51,2,4.73l-7.93-4.57a.66.66,0,0,0-.21-.11l-.32-.21.05-.05,5.16-8.94Z"/><path class="cls-17" d="M337.47,46a1.56,1.56,0,0,1,.69,1.44,4.77,4.77,0,0,1-.59,2.23,4.12,4.12,0,0,1-1.64,1.65L317.15,62.21a1.49,1.49,0,0,1-1.55.16A1.4,1.4,0,0,1,315,61a3.89,3.89,0,0,1,.58-2.18,4.43,4.43,0,0,1,1.65-1.7l18.73-10.91A1.42,1.42,0,0,1,337.47,46Zm4.31,268.76c1.13.32,1.7,1.53,1.7,3.62v7.45a8.93,8.93,0,0,1-4.79,8.3l-22.5,13c-1.88,1.1-3.18,1.22-3.88.37q-1.71-.37-1.71-3.57v-7.44a9.12,9.12,0,0,1,4.79-8.3l22.5-13C339.74,314.1,341,314,341.78,314.74Z"/><path class="cls-18" d="M190.53,360.07a.94.94,0,0,1-.16.48v.1a1.57,1.57,0,0,0-.48.48,1.34,1.34,0,0,0,0,.69,1.58,1.58,0,0,1,.16.59.27.27,0,0,1,.11.21.76.76,0,0,1-.37.11,1.45,1.45,0,0,1-.59-.8,3.56,3.56,0,0,1,.16-.8,1.37,1.37,0,0,0,.11-.48.59.59,0,0,1,.21-.26A.62.62,0,0,1,190.53,360.07Z"/><path class="cls-18" d="M223.73,370.49a1.39,1.39,0,0,1-1,1,6.07,6.07,0,0,0-1.17.59l-.11.11a6.18,6.18,0,0,0-.8.48.22.22,0,0,1-.16.1,7.55,7.55,0,0,1-2.18,1.23h-.1l-1,.42a2.05,2.05,0,0,0,.37.16l2.56,1.49a1.62,1.62,0,0,1-.8.21l-1.81.22a2.18,2.18,0,0,0-.43.05c-.06,0-.1,0-.1.11a1.3,1.3,0,0,1-.16.21,5.46,5.46,0,0,1-.43.48,1.89,1.89,0,0,0,0-.85,3.07,3.07,0,0,0-.21-1.12c-.21-.53-.43-1.09-.69-1.65-.06-.14-.14-.3-.21-.48a1.84,1.84,0,0,0-1.28-1.06,9.05,9.05,0,0,1,.43-1.39,6.53,6.53,0,0,1,.37-.9,7.89,7.89,0,0,1,.69-.59l.37-.26h.11V369a3,3,0,0,0,.37-.21q.48-.32.69-.48a9.17,9.17,0,0,1,1.76-.27,10.51,10.51,0,0,0,1.28-.21v.11L219,369.64a.29.29,0,0,1,.11.22.47.47,0,0,0,.48.26,2.06,2.06,0,0,0,1.86-.37,2.61,2.61,0,0,1,2-.32.58.58,0,0,1,.27.43A.5.5,0,0,1,223.73,370.49Z"/><path class="cls-19" d="M408.11,223.51a6.83,6.83,0,0,1-.05.85v.21l-.16.69-.53,2.34c-.25.61-.51,1.19-.8,1.76s-.88,1.41-1.38,2.23a5.11,5.11,0,0,1-.69.53,3.72,3.72,0,0,1-.38.22l-.9.37a.29.29,0,0,0-.21.11l-1,.26-.05.11a.63.63,0,0,0-.22.05,8.71,8.71,0,0,1-8.08-2.34,10.16,10.16,0,0,0-.16-1,6.62,6.62,0,0,0-1.65-3.67l.37,2.29-.59-.54-1-2.81-.58-1.65a2.71,2.71,0,0,0-.05-.59,15.37,15.37,0,0,1-.54-2.45v-.05a2.39,2.39,0,0,0-.1-.64c0-.74-.09-1.46-.16-2.13v-.79a4.49,4.49,0,0,1,.53-2.19l.19-.34a12.35,12.35,0,0,1,.71-1.14q3.54-4.94,9.58-1.28Q408.49,217,408.11,223.51Z"/><path class="cls-18" d="M182.93,366.61c-1.67-.46-3.28-.85-4.85-1.17a.29.29,0,0,1-.1.21,1.63,1.63,0,0,0-.11.59v.1c0,.08-.09.2-.16.38a.54.54,0,0,1-.05.21v.58a1.21,1.21,0,0,0,.42,1.23,8.49,8.49,0,0,0,3.2,2l.9.37a6.62,6.62,0,0,0,1.17.11c.82.07,1.62.1,2.39.1a5.63,5.63,0,0,0,2.19-.21,1.58,1.58,0,0,0,.85-.27,4.08,4.08,0,0,0-1.07-1.38A8.87,8.87,0,0,0,182.93,366.61Z"/><path class="cls-19" d="M198.94,344.37l-.11,1.17a4,4,0,0,1-.37,1.07c-.22.24-.44.53-.69.85a3.23,3.23,0,0,0-.48,1.17,9.85,9.85,0,0,1-.59,1.76.48.48,0,0,0-.11.31,10,10,0,0,1-.69,1.39,4.62,4.62,0,0,1-1.43,1.06c-.71.46-1.17.78-1.39,1,.26.39.48.74.7,1.06a2.12,2.12,0,0,1,.21,1.12v.16a8.36,8.36,0,0,1-.32,1.38L191.54,361c-.21-.1-.4-.19-.58-.26a4.05,4.05,0,0,0-.11-1.65,5.6,5.6,0,0,0-1.65,1.06,2.39,2.39,0,0,0-.69,1.28l-.93,1q-.24.22-.45.45a2.91,2.91,0,0,1-1.28.79,8.44,8.44,0,0,0-1.28.38,4.32,4.32,0,0,1-3-.11l-1.17-.48a1.65,1.65,0,0,0-.42-.16q-.58-.42-1.17-.9c-.46-.46-.94-.93-1.44-1.39a.5.5,0,0,0-.21,0,10.61,10.61,0,0,1-2.56-4.09,2.33,2.33,0,0,1-.16-.7v-.1h-.1V356a1.58,1.58,0,0,1-.11-.58,6.13,6.13,0,0,1-.11-.73,3.62,3.62,0,0,1,.11-.92v-.22a7.65,7.65,0,0,1,.85-2.82,15,15,0,0,1,5.32-5.95c.43-.32,1.33-.94,2.72-1.87a3.41,3.41,0,0,1,1.06-.47l1.17-.32a3.74,3.74,0,0,0,.9-.59,4,4,0,0,1,.86-.37.39.39,0,0,1,.31-.11,6.09,6.09,0,0,0,1.44.48,1.26,1.26,0,0,0,.8-.05,3.55,3.55,0,0,0,.69-.43c.26-.1.69-.34,1.33-.69a6.4,6.4,0,0,1,1.76-.58,4.23,4.23,0,0,0,0,1c.07.63,0,1.06-.27,1.27.53,0,.82,0,.85-.1l.32-.32c.18-.08.21-.11.11-.11a6.64,6.64,0,0,0,1.54-.85,5.07,5.07,0,0,1,1.54-.37,5.51,5.51,0,0,0-.64,1.81c-.21.85-.38,1.51-.53,2v.22l.11.1a5.63,5.63,0,0,0,1-.1Z"/><path class="cls-18" d="M191,360.76l.29.13a4.41,4.41,0,0,0-1.55,4,2.31,2.31,0,0,1-1-.33,2,2,0,0,1,.42-1.07,1.53,1.53,0,0,1-.32-.35v0a5.42,5.42,0,0,1-.26-1.28v-.37a2.39,2.39,0,0,1,.69-1.28,5.6,5.6,0,0,1,1.65-1.06A4.05,4.05,0,0,1,191,360.76Z"/><path class="cls-18" d="M196.38,353.74V354a17.47,17.47,0,0,1-1.65,5.22,2.13,2.13,0,0,1,.43.21,7.91,7.91,0,0,0-3.2,1l1.71-2.57a8.36,8.36,0,0,0,.32-1.38v-.16a2.12,2.12,0,0,0-.21-1.12c-.22-.32-.44-.67-.7-1.06.22-.18.68-.5,1.39-1a4.62,4.62,0,0,0,1.43-1.06,10,10,0,0,0,.69-1.39A11.92,11.92,0,0,1,196.38,353.74Z"/><path class="cls-20" d="M188.67,364.54a1.85,1.85,0,0,1,.43-1.07,1.27,1.27,0,0,1-.32-.34v0a4.86,4.86,0,0,1-.27-1.28v-.37l-.93,1-.45.45a3.07,3.07,0,0,1-1.28.79,8.12,8.12,0,0,0-1.28.38,4.3,4.3,0,0,1-3-.11l-1.17-.48a2.85,2.85,0,0,0-.43-.16q-.58-.42-1.17-.9-.69-.69-1.44-1.38a.42.42,0,0,0-.21-.06,8.49,8.49,0,0,1,.9,4.47c1.57.32,3.18.71,4.85,1.17a8.87,8.87,0,0,1,4.78,2.82,4.08,4.08,0,0,1,1.07,1.38.65.65,0,0,0,.42-.32s0-.24-.1-.74a.36.36,0,0,1,.26.11,8.47,8.47,0,0,1,.11-4.21l.42-.32.38-.26-.11-.22A2.17,2.17,0,0,1,188.67,364.54Z"/><path class="cls-21" d="M197.56,340.28s0,.05.1.05a4.19,4.19,0,0,1,.21,2l-.37,2a5.81,5.81,0,0,1-1,.1l-.11-.1v-.22c.15-.46.32-1.11.54-2A5.29,5.29,0,0,1,197.56,340.28Zm-4.1-.53.11-.06.9,1.81c.11,0,.07,0-.11.11l-.32.32c0,.07-.32.1-.85.1.25-.21.34-.64.27-1.27A4.24,4.24,0,0,1,193.46,339.75Zm-6,1.27a.29.29,0,0,0,.16-.1l.69.1h2.07a4.71,4.71,0,0,1-.69.43,1.33,1.33,0,0,1-.8.05A5.86,5.86,0,0,1,187.45,341Z"/><path class="cls-22" d="M176,366.82a7.47,7.47,0,0,1,1.76-.58,1.75,1.75,0,0,1-.06.48.54.54,0,0,1-.05.21v.58a1.21,1.21,0,0,0,.42,1.23,8.49,8.49,0,0,0,3.2,2l.9.37a6.12,6.12,0,0,1-1.28-.27,9.6,9.6,0,0,1-2.18-.9,5,5,0,0,1-1.06-.85,3.07,3.07,0,0,0-.48-.48.61.61,0,0,1-.21-.43,4.91,4.91,0,0,0-.59-.85,1,1,0,0,1-.16-.21A1.59,1.59,0,0,0,176,366.82Z"/><polygon class="cls-9" points="373.48 186.59 337.31 201.35 337.31 166.24 373.48 153.47 373.48 186.59"/><path class="cls-23" d="M182.18,371.08a6.62,6.62,0,0,0,1.17.11c.82.07,1.62.1,2.39.1a5.63,5.63,0,0,0,2.19-.21,1.58,1.58,0,0,0,.85-.27.65.65,0,0,0,.42-.32l2.45.8.85,2.13a17.24,17.24,0,0,0-2.34-.37h-5.27a14.64,14.64,0,0,1-2.55-.22c-.5-.1-1-.23-1.44-.37a8.88,8.88,0,0,1-2.34-1.06,13,13,0,0,1-2.18-1.38,6.35,6.35,0,0,1-.85-1.07,2,2,0,0,1-.32-1.38.57.57,0,0,1,.21-.37,1.53,1.53,0,0,1,.59-.38,1.59,1.59,0,0,1,.21.27,1,1,0,0,0,.16.21,4.91,4.91,0,0,1,.59.85.61.61,0,0,0,.21.43,3.07,3.07,0,0,1,.48.48,5,5,0,0,0,1.06.85,9.6,9.6,0,0,0,2.18.9A6.12,6.12,0,0,0,182.18,371.08Z"/><path class="cls-18" d="M199.31,365.44a4.08,4.08,0,0,1-.48,1.38,8.72,8.72,0,0,1-.61,1.79l-.08.13a.34.34,0,0,1-.06.21l-.31.37a9.55,9.55,0,0,1-.86.54,11.68,11.68,0,0,1-4.68-1.49c-1.42-.88-2.2-1.8-2.32-2.77a2.45,2.45,0,0,1,0-.27l.37-.26-.1-.21a1.78,1.78,0,0,1-.46,0,4.41,4.41,0,0,1,1.55-4l.29.13.42-.62a7.91,7.91,0,0,1,3.2-1,3.44,3.44,0,0,1,.58.41,11.11,11.11,0,0,1,2.4,3.15,6.87,6.87,0,0,1,.69,1.17A5.45,5.45,0,0,1,199.31,365.44Z"/><path class="cls-23" d="M225.33,385.82a25.35,25.35,0,0,0-3.46-3.52l-.3-.24c-1.23-1-3-2.3-5.24-3.91s-5.07-3.72-8.4-6.06a2.94,2.94,0,0,0-.37-.32c-1.63-1.28-3.39-2.69-5.27-4.26a17.07,17.07,0,0,0-2.87-2.28l-.11.21a4.08,4.08,0,0,1-.48,1.38,8.51,8.51,0,0,1-.61,1.79l-.08.13a.54.54,0,0,1,0,.21l-.32.37c-.32.22-.6.39-.85.54a1.85,1.85,0,0,0-.69.47.52.52,0,0,0-.22.59c-.07,0,0,.12.32.37a10.85,10.85,0,0,1,1.76,1.65,3.54,3.54,0,0,0,.37.43q2.92,3.3,4.68,5.53l.8,1q-10.27-3.35-12.24,1.92a18.31,18.31,0,0,0-.64,2.82,12.53,12.53,0,0,0,.48,5.1q.75,2.82,4.79,3.51a15.69,15.69,0,0,0,6.33-.69,3.34,3.34,0,0,1,.8.11,36.79,36.79,0,0,1,4.47.8c1.7.42,3.39.86,5,1.33a22.42,22.42,0,0,0,5.7,1.06,22.72,22.72,0,0,0,3.77.11,5.15,5.15,0,0,0,4.9-3.09,5.36,5.36,0,0,0-.38-5.58A6,6,0,0,0,225.33,385.82Z"/><path class="cls-24" d="M202.56,404.7a8.09,8.09,0,0,1-.11-4.52,28.65,28.65,0,0,0,1-7.5,3.34,3.34,0,0,0-.8-.11,15.69,15.69,0,0,1-6.33.69q-4-.69-4.79-3.51a12.53,12.53,0,0,1-.48-5.1,18.31,18.31,0,0,1,.64-2.82q2-5.28,12.24-1.92l-.8-1q-1.75-2.23-4.68-5.53a3.54,3.54,0,0,1-.37-.43,2.91,2.91,0,0,1-1.17-.26c-1.92-.68-3.85-1.33-5.8-2a3.5,3.5,0,0,0-1.76-.85.36.36,0,0,0-.26-.11c.1.5.14.74.1.74l2.45.8.85,2.13a17.24,17.24,0,0,0-2.34-.37h-5.27a14.64,14.64,0,0,1-2.55-.22c-.5-.1-1-.23-1.44-.37a8.88,8.88,0,0,1-2.34-1.06,13,13,0,0,1-2.18-1.38,6.35,6.35,0,0,1-.85-1.07,2,2,0,0,1-.32-1.38.57.57,0,0,1,.21-.37,1.53,1.53,0,0,1,.59-.38,7.47,7.47,0,0,1,1.76-.58,1.75,1.75,0,0,1-.06.48c.07-.18.13-.3.16-.38v-.1a1.63,1.63,0,0,1,.11-.59q-2.29-.69-4.68-1.17-4.63-1-6.28.64a9,9,0,0,0-2.24,3.14,13.33,13.33,0,0,0-.58,4.57,5.54,5.54,0,0,0,1.17,3.62v1a27.34,27.34,0,0,0,.85,6.55q.69,1.8,2.66,6c1.17,2.51,2,4.52,2.55,6a.94.94,0,0,0,.11.42c.25,1.42.46,2.88.64,4.36s.39,2.79.53,4.21v1.17c0,1.63,0,3.26-.1,4.89v.59l0,.16v.08a3.18,3.18,0,0,0,.13,1.14,7.85,7.85,0,0,0,1.17,2.93,14.25,14.25,0,0,0,6,4.84,25.68,25.68,0,0,0,5.75,2.18,9.22,9.22,0,0,0,1.75.37,17.18,17.18,0,0,0,13.78-3.14,7.37,7.37,0,0,0,3.3-6.33,6.62,6.62,0,0,0-.11-1.17A40.72,40.72,0,0,0,202.56,404.7Z"/><path class="cls-24" d="M216.55,376.51a3.09,3.09,0,0,0-.22-1.12q-.32-.79-.69-1.65-.1-.21-.21-.48a1.84,1.84,0,0,0-1.28-1.06h-.05a12.73,12.73,0,0,0-5.91-.22.36.36,0,0,0-.26.11q5,3.51,8.4,6.06a2.18,2.18,0,0,0,.16-.79A2.46,2.46,0,0,0,216.55,376.51Z"/><path class="cls-17" d="M206.65,432.58a23.12,23.12,0,0,0-.26-2.93q-.44-1.54-2.34-11a7.88,7.88,0,0,0,.47-2.71c0-.54,0-1.23-.1-2.08a7.37,7.37,0,0,1-3.3,6.33,17.18,17.18,0,0,1-13.78,3.14,9.22,9.22,0,0,1-1.75-.37,25.68,25.68,0,0,1-5.75-2.18,14.25,14.25,0,0,1-6-4.84,7.85,7.85,0,0,1-1.17-2.93,3.18,3.18,0,0,1-.13-1.14,7.53,7.53,0,0,1-.19,1.14v.85a37.5,37.5,0,0,0-1.06,6.44,23.19,23.19,0,0,0,.37,8c.6,2.2,1,3.73,1.17,4.58a21,21,0,0,1,.69,4.36,28.42,28.42,0,0,1,.11,5.48,23.31,23.31,0,0,1-.8,5.11,50.34,50.34,0,0,1-1.75,5.85,43.23,43.23,0,0,0-1.28,4.68,20.13,20.13,0,0,0-.16,5.64q.38,3,1,6.06.48,2.71.79,5.54t.75,5.79c.24,1.54.45,3.1.61,4.69,0,.28.05.57.08.85a13.22,13.22,0,0,1,.21,2.34,5.56,5.56,0,0,0,.7,2.92,4.24,4.24,0,0,0,2.23,1.71,6.58,6.58,0,0,0,4.2-.7,22,22,0,0,0,3.73-2.55,5.31,5.31,0,0,0,.58-.69,31.56,31.56,0,0,1-.32,3.94v1.65a18.65,18.65,0,0,0,.11,2c.07.28.14.55.21.79a3.39,3.39,0,0,0,1.65,2l.11.06h.05a5.59,5.59,0,0,0,1.86.31,10.91,10.91,0,0,0,8.89-4.2,15.94,15.94,0,0,0,1.06-1.65l.21-.32a.35.35,0,0,0-.1-.26,3.34,3.34,0,0,0-.11-.8,36.92,36.92,0,0,1-.37-5.37v-.4q0-5.82.37-11.68v-.11l.53-6.06a38.69,38.69,0,0,1,2.5-11.33c1.46-3.76,2.8-7.43,4.05-11a35,35,0,0,0,1.43-7.5A37.09,37.09,0,0,0,206.65,432.58Z"/><path class="cls-17" d="M172.61,411.32l0,.46,0-.16Z"/><path class="cls-14" d="M183.94,502.69a1.86,1.86,0,0,0,.85,1.07,9.39,9.39,0,0,0,4.47.58,4.74,4.74,0,0,0,1-.1l1.86-.27,1.65-.32a5.47,5.47,0,0,0,1.65-.27c.85-.07,1.82-.1,2.92-.1H200c1.7-.14,3-.28,3.83-.43h.11c.64-.07,1.26-.16,1.86-.26a.18.18,0,0,1,.16-.11c.39-.14.78-.27,1.17-.37a9.65,9.65,0,0,0,3-1.86,3.66,3.66,0,0,0,.8-1,1.24,1.24,0,0,1,.11.54,3.67,3.67,0,0,1-.22,1.22q-2.07,2.55-6.91,3.25a36,36,0,0,1-5.27.37,27.64,27.64,0,0,0-5.21.53l-.37,1.22a21.55,21.55,0,0,1-4.21.59,8.47,8.47,0,0,1-4.2-.59c-.64-.17-1-.69-1-1.54a9.61,9.61,0,0,0,0-2.07Zm.26-8.3v1.18a1.59,1.59,0,0,0-.95.69,1.51,1.51,0,0,0-.59,1.06c-.21.5-.37.85-.48,1.06q-2.76,2.72-5,2.34l-2.13-.47a4.79,4.79,0,0,1-1.86-1.17c-.07-.78-.11-1.48-.11-2.08a4.34,4.34,0,0,1,.27-1.06,3.34,3.34,0,0,1,.21.58l.22.21a1,1,0,0,0,.26.27,3.16,3.16,0,0,0,1.17.69,9.05,9.05,0,0,0,2.18.48c1.56.28,3.09-.35,4.58-1.91A11.39,11.39,0,0,1,184.2,494.39Z"/><polygon class="cls-9" points="425.62 90.75 425.62 70.61 377.12 96.68 381.3 115.89 425.62 90.75"/><path class="cls-25" d="M312.09,421.3l.16.11h-.16ZM315,406.93l.1.11H315Zm-2.77,8h-.16v-.1Z"/><path class="cls-26" d="M346.43,362.36c-1.49-.15-3.08-.27-4.76-.38q-17.61-1.17-17.61,3.09a38.54,38.54,0,0,0,.75,5.85,33.88,33.88,0,0,0,1.27,5.32v3.51a21.14,21.14,0,0,1-4.25.53c-5.89-.39-9.35-.56-10.38-.53a1.41,1.41,0,0,0-1.38.85,10.5,10.5,0,0,0-.21,2.72c0,1.73,1,5.78,3.08,12.12.82,2.44,1.54,4.51,2.18,6.2v0l44.77-30.54,1.94-1.35.06,0-15.32-7.39Z"/><path class="cls-26" d="M299.06,379a6,6,0,0,0-3.57-1.07A5.74,5.74,0,0,0,292,379a3.41,3.41,0,0,0-1.49,2.44v.38a3.25,3.25,0,0,0,1.49,2.39,5.74,5.74,0,0,0,3.51,1.06,6,6,0,0,0,3.57-1.06,3.1,3.1,0,0,0,1.43-2.45v-.26A3.24,3.24,0,0,0,299.06,379Z"/><path class="cls-27" d="M312.25,416.46l-36-20.75,1.43-.74,34.42,19.84v.1h.22l50.32-29.15,1.33.75ZM364,380l-51.71,29.89-36-20.69,1-.53L315,406.93V407h.16L359,377.25Z"/><path class="cls-28" d="M276.24,395.71l36,20.75v5l-.16-.11-35.85-20.75Zm35.85,19.1L277.67,395l-1.43-.91v-4.84l36,20.69v5ZM275.6,383.53l38.89,18.56.63,5-.1-.11-37.77-18.24-1-.43-.35-2.47Z"/><path class="cls-29" d="M315.12,401.67l44.77-30.54,2-1.33.74,4.84L359,377.25,315.18,407h-.06l-.63-5,.53-.37ZM364,380v5l-1.33.74-50.32,29.15h-.06v-5Zm-51.71,36.44L364,386.51v5L312.25,421.3Z"/><polygon class="cls-30" points="312.25 421.3 363.96 391.51 363.96 386.51 362.63 385.76 363.96 385.02 363.96 381.88 372.05 386.51 372.05 391.51 320.44 421.41 320.23 421.41 320.23 421.3 312.25 421.41 312.25 421.3"/><path class="cls-14" d="M315.12,401.67l-.1.05-.53.32L275.65,383.5l0,0,47.56-32.39,7,3.38,16.39,7.9h-.14c-1.49-.15-3.08-.27-4.76-.38q-17.61-1.17-17.61,3.09a38.54,38.54,0,0,0,.75,5.85,33.88,33.88,0,0,0,1.27,5.32v3.51a21.14,21.14,0,0,1-4.25.53c-5.89-.39-9.35-.56-10.38-.53a1.41,1.41,0,0,0-1.38.85,10.5,10.5,0,0,0-.21,2.72c0,1.73,1,5.78,3.08,12.12.82,2.44,1.54,4.51,2.18,6.2ZM299.06,379a6,6,0,0,0-3.57-1.07A5.74,5.74,0,0,0,292,379a3.41,3.41,0,0,0-1.49,2.44v.38a3.25,3.25,0,0,0,1.49,2.39,5.74,5.74,0,0,0,3.51,1.06,6,6,0,0,0,3.57-1.06,3.1,3.1,0,0,0,1.43-2.45v-.26A3.24,3.24,0,0,0,299.06,379Z"/><path class="cls-31" d="M379,49.92l-13.89,7.92V61.2l13.89-8Zm0,13.56-13.89,8v3.3L379,66.84Zm0-6.7-13.89,8v3.35l13.89-8Zm3.72-12.71V71.68L255,145V117.37Zm-84.69,56.87a3.31,3.31,0,0,0-3.46.31,9.4,9.4,0,0,0-3.4,3.62,9.7,9.7,0,0,0-1.44,4.84,3.21,3.21,0,0,0,1.44,3.09c.92.57,2.05.46,3.4-.32a9.75,9.75,0,0,0,3.46-3.62,9.57,9.57,0,0,0,1.43-4.79C299.48,102.51,299,101.47,298.05,100.94Zm-13,11.81c0-1.56-.47-2.61-1.43-3.14a3.29,3.29,0,0,0-3.46.32,9.39,9.39,0,0,0-3.41,3.61,9.79,9.79,0,0,0-1.43,4.84,3.22,3.22,0,0,0,1.43,3.09c.93.57,2.06.46,3.41-.32a9.68,9.68,0,0,0,3.46-3.62A9.56,9.56,0,0,0,285,112.75Zm-22.76,14.31a3.2,3.2,0,0,0,1.43,3.08c.92.57,2.06.46,3.41-.32a10.72,10.72,0,0,0,4.89-8.4c0-1.56-.48-2.61-1.44-3.14a3.27,3.27,0,0,0-3.45.32,9.28,9.28,0,0,0-3.41,3.62A9.65,9.65,0,0,0,262.25,127.06Z"/><path class="cls-26" d="M430.78,57.79h0a2.86,2.86,0,0,0-2.5.48L374.44,89.34a6.51,6.51,0,0,0-3.46,6v30.27a3.34,3.34,0,0,0,.64,2.34,1.24,1.24,0,0,0,.53.26,3.12,3.12,0,0,0,1.92-.42l.37-.16,3.46-2v16.91l9.73-16.91,3-5.14,1.89-3.27,35.75-20.64a6.5,6.5,0,0,0,3.45-6V60.29C431.68,58.94,431.38,58.11,430.78,57.79Zm-39,45.38a9.1,9.1,0,0,1-3.35,3.51A3.25,3.25,0,0,1,385,107a3.15,3.15,0,0,1-1.44-3A9,9,0,0,1,385,99.29a9.15,9.15,0,0,1,3.35-3.57c1.31-.74,2.41-.85,3.3-.32a3.2,3.2,0,0,1,1.43,3.09A9.54,9.54,0,0,1,391.73,103.17Zm15.06-8.4a9.26,9.26,0,0,1-3.36,3.51,3.24,3.24,0,0,1-3.35.31,3.16,3.16,0,0,1-1.43-3,10.76,10.76,0,0,1,4.78-8.24c1.32-.75,2.42-.85,3.3-.32a3.2,3.2,0,0,1,1.44,3.08A9.6,9.6,0,0,1,406.79,94.77ZM421,86.41a9.1,9.1,0,0,1-3.35,3.51,3.23,3.23,0,0,1-3.35.32,3.15,3.15,0,0,1-1.44-3A10.85,10.85,0,0,1,417.64,79c1.31-.74,2.41-.85,3.3-.31a3.22,3.22,0,0,1,1.43,3.08A9.54,9.54,0,0,1,421,86.41Z"/><path class="cls-32" d="M371.62,127.91l-3.4-1.92-.22-.1c-.56-.36-.85-1.19-.85-2.5V93.12a6.44,6.44,0,0,1,3.46-6l17-9.84,2.93-1.68L424.4,56.09c1.27-.75,2.19-.85,2.76-.32l3.57,2a2.86,2.86,0,0,0-2.5.48L374.44,89.34a6.51,6.51,0,0,0-3.46,6v30.27A3.34,3.34,0,0,0,371.62,127.91Zm6.28,14.57-3.83-2.18V127.75l.37-.16,3.46-2Z"/><path class="cls-33" d="M279.16,154.4a10.77,10.77,0,0,0-.32,4.63A3.73,3.73,0,0,0,280.7,162a3.22,3.22,0,0,0,2.82-.32,7.82,7.82,0,0,0,2.93-2.88,13.2,13.2,0,0,0,2.13-5.8,7.7,7.7,0,0,0-.75-4.78,2.18,2.18,0,0,0-2.6-.7,8.51,8.51,0,0,0-3.3,1.92,11.64,11.64,0,0,0-1.76,2.29A9.21,9.21,0,0,0,279.16,154.4Zm-11.75,2.34a8.7,8.7,0,0,1,4.68-8l23.19-13.4Q300,132.65,300,138v26.81a8.81,8.81,0,0,1-4.68,8.14l-23.19,13.36q-4.68,2.72-4.68-2.72Zm23.72,2.93c-.42,0-1-.07-1.75-.11a12.57,12.57,0,0,1-1.76,0,24.47,24.47,0,0,1-1.91,2.13,10.44,10.44,0,0,1-2,1.7,5,5,0,0,1-2,.64,6.69,6.69,0,0,1-2,.05l-2.23,2.72a14.5,14.5,0,0,0-2.08,2.87c-.42,1-.86,2.3-1.33,3.83-.31.85-.7,2.14-1.17,3.88a2,2,0,0,0-.1,1.55c.21.39.55.44,1,.16q3.45-1.87,9.31-5.27,6.81-4,9.26-5.37a14.23,14.23,0,0,0,1.49-1,3,3,0,0,0,.85-1.7,7.24,7.24,0,0,0-.64-2.08l-1-1.7c-.32-.71-.57-1.24-.74-1.6A1.57,1.57,0,0,0,291.13,159.67Z"/><path class="cls-34" d="M279.16,154.4a9.21,9.21,0,0,1,1-2.71,11.64,11.64,0,0,1,1.76-2.29,8.51,8.51,0,0,1,3.3-1.92,2.18,2.18,0,0,1,2.6.7,7.7,7.7,0,0,1,.75,4.78,13.2,13.2,0,0,1-2.13,5.8,7.82,7.82,0,0,1-2.93,2.88,3.22,3.22,0,0,1-2.82.32,3.73,3.73,0,0,1-1.86-2.93A10.77,10.77,0,0,1,279.16,154.4Zm12,5.27a1.57,1.57,0,0,1,1.23.74c.17.36.42.89.74,1.6l1,1.7a7.24,7.24,0,0,1,.64,2.08,3,3,0,0,1-.85,1.7,14.23,14.23,0,0,1-1.49,1q-2.46,1.38-9.26,5.37-5.85,3.41-9.31,5.27c-.46.28-.8.23-1-.16a2,2,0,0,1,.1-1.55c.47-1.74.86-3,1.17-3.88.47-1.53.91-2.8,1.33-3.83a14.5,14.5,0,0,1,2.08-2.87l2.23-2.72a6.69,6.69,0,0,0,2-.05,5,5,0,0,0,2-.64,10.44,10.44,0,0,0,2-1.7,24.47,24.47,0,0,0,1.91-2.13,12.57,12.57,0,0,0,1.76,0C290.12,159.6,290.71,159.63,291.13,159.67Z"/><path class="cls-14" d="M373.48,151.79c-.56-.28-1.4-.1-2.5.54l-10.42,6.06v0l-2.45,1.43v.06l-13.67,7.82a6.49,6.49,0,0,0-3.46,6V204a6.19,6.19,0,0,0,0,.63.36.36,0,0,1,0-.1,25.75,25.75,0,0,1,1.86-4.95,6.83,6.83,0,0,1,1.33-.59,4.06,4.06,0,0,1,1.39-.26l.21,2.34a12.21,12.21,0,0,1,1.22,1.81c.22.39.42.8.62,1.22l4.49-2.61v.06l11.23-6.49V195l5.32-3,.61-.35c-2.68-1.14-3.79-2.37-3.33-3.67.25-.6.73-.78,1.44-.53a4.84,4.84,0,0,1,.69-1.23,1.89,1.89,0,0,0-.9-2.66l.21.06-1.6-2c.05-.08.11-.15.16-.22a18.08,18.08,0,0,0-2.18-1.75.76.76,0,0,0-.16-.11,12.81,12.81,0,0,0-1.49-.64c-.35,0-.62.16-.8.59s-1.08,2.41-2.39,5.74a19.13,19.13,0,0,1-1.49,2.24l-1.81-1c-.35-.36-1.22-1.09-2.6-2.18a23.13,23.13,0,0,0-2.88-2q-2.34-1.11-6.22,8.78c-.43,1-.8,1.88-1.12,2.77V173.71c.07-2.2.82-3.7,2.24-4.52L370.13,155q2.13-.85,2.34,2.18V181.9a21.55,21.55,0,0,1,1.92,1.84V154.35C374.39,153,374.09,152.11,373.48,151.79Z"/><path class="cls-14" d="M368.16,167.75a2.32,2.32,0,0,0-2.44.27,6.57,6.57,0,0,0-1.92,1.78c-.18.26-.36.53-.53.83a6.27,6.27,0,0,0-1.06,3.35,2.24,2.24,0,0,0,1.06,2.23,2.2,2.2,0,0,0,.53.22,2.85,2.85,0,0,0,1.92-.43,7.63,7.63,0,0,0,2.44-2.61,6.73,6.73,0,0,0,1-3.4A2.35,2.35,0,0,0,368.16,167.75Z"/><path class="cls-23" d="M341,204.67a10.61,10.61,0,0,0-.24,1.2l-2.61-1.57a.71.71,0,0,1-.48-.26l-.8-.46-2.6-1.51q-1.17-.27-1.17-2.61V169a6.32,6.32,0,0,1,1.7-4.57,7.11,7.11,0,0,1,1.7-1.33l26.55-15.38c1.17-.64,2-.8,2.6-.48h.06l3.88,2.29,3.88,2.23c-.56-.28-1.4-.1-2.5.54l-10.42,6.06v0l-2.45,1.43v.06l-13.67,7.82a6.49,6.49,0,0,0-3.46,6V204A6.19,6.19,0,0,0,341,204.67Zm28.59-55.11a1.33,1.33,0,0,1-.24-.11,1.18,1.18,0,0,0,.19.11Z"/><path class="cls-18" d="M406.46,233.19a.22.22,0,0,0,0,.16.22.22,0,0,0-.11.21,12,12,0,0,1-5.12,4.26,13.68,13.68,0,0,1-5.73,1,8.74,8.74,0,0,1,2.4-3.08,16.37,16.37,0,0,1,3.35-2.13,2.19,2.19,0,0,1,.58-.32.63.63,0,0,1,.22-.05l.05-.11,1-.26a.29.29,0,0,1,.21-.11,4.84,4.84,0,0,1,2.23-.21,4.3,4.3,0,0,0,.48.05Z"/><path class="cls-20" d="M395.45,238.77a10.69,10.69,0,0,1-2.07-.21l.53-1.91-.56-4.29-.13-.93.48-.53c2.52,2.23,5.21,3,8.09,2.34a1.88,1.88,0,0,0-.59.32,16.37,16.37,0,0,0-3.35,2.13A8.65,8.65,0,0,0,395.45,238.77Zm10.48-6.22a4,4,0,0,1-.47-.05,4.86,4.86,0,0,0-2.24.21l.91-.37c.12-.06.24-.14.37-.22a4.55,4.55,0,0,0,.69-.53l.16.27Z"/><path class="cls-18" d="M393.54,229.89a6.62,6.62,0,0,0-1.65-3.67l.37,2.29-.59-.54a4.68,4.68,0,0,0,1.12,2.93,1.73,1.73,0,0,0,.43.53l.48-.53A10.16,10.16,0,0,0,393.54,229.89Z"/><path class="cls-24" d="M413.28,228.83a10,10,0,0,0-1.49-1,.85.85,0,0,1-.38-.16,18.53,18.53,0,0,1-2.71-1.81c-.26-.22-.52-.43-.8-.64l-.53,2.34c-.25.6-.51,1.19-.8,1.76l-1.38,2.23.16.27c.28-.22.55-.41.8-.59l2.13-1.11a15.73,15.73,0,0,1,2.18-.75,7.6,7.6,0,0,1,3.16-.26C413.5,229,413.39,228.92,413.28,228.83Z"/><path class="cls-24" d="M392.79,230.9a4.53,4.53,0,0,1-1.11-2.92l-1-2.82-.59-1.65a3.51,3.51,0,0,0-.05-.59,14.11,14.11,0,0,1-.53-2.45v-.05a2.45,2.45,0,0,0-.11-.64c0-.74-.09-1.45-.16-2.13v-.79a4.49,4.49,0,0,1,.53-2.19l.19-.34-.93-.61.05-.11q-.21-.48-.48-1a10.87,10.87,0,0,0-.85-2.07,2.12,2.12,0,0,0-.11-.21c-.78-1.53-1.58-3.05-2.39-4.58q-1.65-3.45-3.4-6.86t-3.52-6.86a10,10,0,0,0-1.17-.22,6.84,6.84,0,0,0-5.37,1.07l-.21.16a6.41,6.41,0,0,0-1.33,4.36c.1.28.3.81.58,1.59q.92,2.57,1.81,5.32t2.08,5.22q1.07,2.72,2.23,5.32a53.85,53.85,0,0,0,2.93,5.74,10.77,10.77,0,0,0,2.71,3.41l2.39,1.7a17.67,17.67,0,0,1,2,1.38l.69.56,1.76,1.36,1.28,1.12c.62.53,1.24,1,1.86,1.54.27.23.54.45.82.66l-.13-.93A1.6,1.6,0,0,1,392.79,230.9Z"/><path class="cls-18" d="M377.15,191.85a6.81,6.81,0,0,0-5.37,1.07,4,4,0,0,0-1.23-.8c-.44-.16-.86-.32-1.24-.48q-4-1.72-3.33-3.67c.26-.61.73-.78,1.44-.53a5.22,5.22,0,0,1,.69-1.23,1.88,1.88,0,0,0-.91-2.66l.22.06-1.6-2c.05-.08.11-.15.16-.22a2.68,2.68,0,0,1,2.34-.85l3.83,1.12.32.26a21.52,21.52,0,0,1,1.92,1.85,6.39,6.39,0,0,1,2.07,3.79A15.46,15.46,0,0,0,377.15,191.85Z"/><path class="cls-24" d="M390.56,245.37a9.69,9.69,0,0,0-1.33-1.54l-.37-.27a10.65,10.65,0,0,0-1.65-.85,1.81,1.81,0,0,0-.32-.05l-.19-.08a15.39,15.39,0,0,1-2.68-1.47q-1.81-1.17-3.78-2.28a45.7,45.7,0,0,0-6.92-3,26.47,26.47,0,0,1-4.62-1.72c-.47-.23-.93-.47-1.39-.72l-3.24-1.68-.72-.34-.29-.16.05-.16a4.56,4.56,0,0,0-.59-.85,16.94,16.94,0,0,0-1.06-2q-1.54-2.22-3-4.46l-.93-1.47-1.73-2.68c-.49-.77-1-1.53-1.49-2.29l-.4-.61L352.1,214c-.7-1-1.39-2.08-2.08-3.12-.43-.05-.85-.09-1.25-.1a6.5,6.5,0,0,0-5.29,1.81,1.36,1.36,0,0,0-.13.24,6.21,6.21,0,0,0-.72,4.23l.74,1.49c.06.12.11.24.16.37.45.94.91,1.91,1.36,2.9l.88,1.89.64,1.22c.48,1,1,1.9,1.49,2.85.16.29.32.58.47.87q1.33,2.55,2.77,5.06c.7,1.2,1.42,2.34,2.15,3.4q.7,1,1.41,1.92l.51.69a8.78,8.78,0,0,0,2.63,2.45c.85.49,1.69,1,2.5,1.38l.86.42c.46.27.89.53,1.27.8q.9.59,2.61,1.65c1.17.75,2.32,1.51,3.46,2.29l.16.11c1.36.88,2.75,1.71,4.15,2.5a17.81,17.81,0,0,0,2.23,1.06,24.64,24.64,0,0,1,3.62,2,8.91,8.91,0,0,0,2.76,1.2,9.74,9.74,0,0,0,2,.23,10.81,10.81,0,0,0,5.8-1,4.37,4.37,0,0,0,2.61-4.68A10.15,10.15,0,0,0,390.56,245.37Z"/><path class="cls-18" d="M348.78,210.74a6.49,6.49,0,0,0-5.3,1.81,1.83,1.83,0,0,0-.13.24c0-.08-.1-.17-.14-.24a15.52,15.52,0,0,0-1.54-2.18,6.07,6.07,0,0,1-1-3.62c0-.3.06-.6.1-.87.07-.43.15-.82.25-1.21,0,0,0-.07,0-.1a26.43,26.43,0,0,1,1.86-4.95,6.28,6.28,0,0,1,1.33-.59,3.83,3.83,0,0,1,1.38-.26l.22,2.34a11,11,0,0,1,1.22,1.81c.21.39.42.8.62,1.22s.45,1,.66,1.54a9.24,9.24,0,0,1,.32,2.13C348.67,208.8,348.71,209.77,348.78,210.74Z"/><path class="cls-35" d="M413.81,256.86l.05-.16c.39-.67.8-1.4,1.23-2.18q4.41-9.9,3.45-16.28c-.64-4.29-1.66-7.06-3.08-8.3a4.08,4.08,0,0,0-1.84-.79,7.6,7.6,0,0,0-3.16.26,15.73,15.73,0,0,0-2.18.75l-2.13,1.11c-.25.18-.52.37-.8.59l.58.69.54.64a.2.2,0,0,0-.06.16c-.07,0-.1.1-.1.21a12,12,0,0,1-5.14,4.26,13.61,13.61,0,0,1-5.72,1,10.69,10.69,0,0,1-2.07-.21l.53-1.91q-1.74,1.18-3.24,2.31l-.75.56a30.58,30.58,0,0,0-2.29,2.07l-.26.27c-.24.24-.46.48-.67.72l.19.08a1.81,1.81,0,0,1,.32.05,10.65,10.65,0,0,1,1.65.85l.37.27a9.69,9.69,0,0,1,1.33,1.54,10.15,10.15,0,0,1,1.28,4.68,4.37,4.37,0,0,1-2.61,4.68,10.81,10.81,0,0,1-5.8,1,9.74,9.74,0,0,1-2-.23,26.72,26.72,0,0,0,.32,7.9,10.12,10.12,0,0,0,.53,2.07l.32,1a6,6,0,0,1,.8,1.17,5.74,5.74,0,0,1,.37,1.65,21.12,21.12,0,0,1,.16,8.35c0,.24-.09.49-.13.74-.27,1.35-.62,2.78-1,4.31-.24.9-.5,1.82-.79,2.77a13.53,13.53,0,0,0,8.72,3.24c.42,0,.84,0,1.28,0,.92-.07,1.86-.16,2.82-.26,1.52-.32,3-.68,4.36-1.07a34.57,34.57,0,0,0,6.81-2.76A23.39,23.39,0,0,0,411,281a20.24,20.24,0,0,0,3.51-4.36q-.74-5.85-1.81-11.55a10.71,10.71,0,0,1-.26-2.28,10.12,10.12,0,0,1,.32-2.88C413.4,258.23,413.74,257.22,413.81,256.86Z"/><path class="cls-24" d="M422.69,331.29a185.27,185.27,0,0,0-5.53-23.89,18.75,18.75,0,0,1-.8-4.79q-.21-4.78-.53-9.52c0-1.88-.11-3.71-.21-5.48-.07-.74-.13-1.49-.16-2.23q-.37-4.47-.91-8.78A20.24,20.24,0,0,1,411,281a23.39,23.39,0,0,1-5.05,3.62,34.57,34.57,0,0,1-6.81,2.76c-1.38.39-2.84.75-4.36,1.07-1,.1-1.9.19-2.82.26-.44,0-.86,0-1.28,0a13.53,13.53,0,0,1-8.72-3.24,66.51,66.51,0,0,0,0,20.22c.56,2.45,1.12,4.9,1.7,7.36a.43.43,0,0,1,0,.11q1.08,4.59,2.19,9.18.94,4,1.94,8a181.91,181.91,0,0,1,3.38,18c.29,2.21.55,4.42.77,6.65a7.42,7.42,0,0,1,.1,2.18,32.42,32.42,0,0,1-.58,4.84l-1.17.69q-.11,7.56,8.94,9.21c.7.17,1.34.35,1.91.53l.64-.05,4.63-.27a5.14,5.14,0,0,0,1.59-3.78q-.63-9.78-1.65-18.67l-.16-1.54-.9-7.45c0-.11-.06-.21-.08-.32l-.24-.9A68.63,68.63,0,0,1,402,318c0-2.66.09-5.31.16-7.93a4.73,4.73,0,0,0,.1-.9q1.71,6.22,3.62,12.55a1.83,1.83,0,0,0,.21.53l.75,2.77q.59,2.44,1.06,4.95c0,.28.09.6.16,1v.59a.67.67,0,0,1,.06.32,7,7,0,0,1,.16,1.49.68.68,0,0,1,.16.37,3,3,0,0,1,.05.48c.1,1.2.21,2.45.32,3.72v2.4l-.85,3.3a17,17,0,0,0,1.91,4.62,15.88,15.88,0,0,0,1.6,2.34q2.65,4.05,6.59,4.42a11.59,11.59,0,0,0,2.93-.27,1.62,1.62,0,0,0,1.17-.21,60.18,60.18,0,0,0,1.3-9.26A62.5,62.5,0,0,0,422.69,331.29Z"/><path class="cls-19" d="M406.25,348.1l5.22,2.44q2.65,4.05,6.59,4.42a11.59,11.59,0,0,0,2.93-.27,1.62,1.62,0,0,0,1.17-.21,2.93,2.93,0,0,1-1.81,2.4,3.84,3.84,0,0,1-2.66.1,3.22,3.22,0,0,1-1.33-.85,36.19,36.19,0,0,0-9.95-6.49Zm-27.34,19.95c1.84,2.83,4.91,4.15,9.2,3.93a91.25,91.25,0,0,1,13.09.43l.64-.05,4.63-.27A7,7,0,0,1,402,375.6a10.47,10.47,0,0,1-5.38-.53l-.58-1.65a10.27,10.27,0,0,0-3.57.64Q381.83,376.67,378.91,368.05Z"/><path class="cls-18" d="M191.25,360.89a5.86,5.86,0,0,1,.71-.49l-.42.62Z"/><path class="cls-36" d="M493.65,460.88l28.85,22.29c4.71,2.88,8.25,0,8.24-4.94l.55-8.07c0-5-3.86-11.37-8.57-14.25L493.63,438.1c-4.71-2.89-8.56-1.19-8.55,3.77v4.76C485.08,451.58,488.94,458,493.65,460.88Z"/><path class="cls-37" d="M439.81,536.48h0a1.72,1.72,0,0,1-1.44-1.94l6.95-46.81a1.71,1.71,0,0,1,1.94-1.44h0a1.72,1.72,0,0,1,1.44,1.94L441.75,535A1.71,1.71,0,0,1,439.81,536.48Z"/><path class="cls-38" d="M494.74,458.66l-14.58-38.55c-2.39-6.34-9.06-9.12-14.44-6l-21.49,12.43a11.92,11.92,0,0,0-5.41,11.9l6.38,50.17Z"/><path class="cls-38" d="M483.57,505.52l41.27-23.83c3.83-2.21,2.28-7.05-3.44-10.77l-14.83-9.63c-5.72-3.71-13.53-4.94-17.35-2.73l-41.28,23.83c-3.82,2.21-2.28,7.05,3.44,10.76l14.84,9.64C471.94,506.5,479.74,507.73,483.57,505.52Z"/><path class="cls-38" d="M452.78,496.6l29.09,17.81c4.71,2.89,8.35,1.53,8.09-3l-.25-4.36c-.26-4.54-4.33-10.61-9-13.49l-29.09-17.81c-4.71-2.89-8.35-1.53-8.09,3l.25,4.37C444,487.64,448.07,493.72,452.78,496.6Z"/><rect class="cls-37" x="870.95" y="270.53" width="6.35" height="188.77" transform="translate(1748.24 729.84) rotate(-180)"/><rect class="cls-37" x="794.24" y="225.59" width="6.35" height="188.77" transform="translate(1594.83 639.95) rotate(-180)"/><path class="cls-38" d="M878,195.07l-69.38-40.88c-.32-.19-.65-.36-1-.52l-.6-.28-.27-.11-14-8.22c-8.54-5-19.71.7-20.83,10.69L752.63,327.63A13.15,13.15,0,0,0,759,340.51l69.37,40.88a12.73,12.73,0,0,0,1.82.89l14,8.24c8.55,5,19.72-.7,20.85-10.69L884.33,208A13.19,13.19,0,0,0,878,195.07ZM851.76,381.18,779.49,337l0-.12-10.4-6.35-9.35-5.71,19.35-172.07,10.78,6.08,78.17,44.08,3.51,2Z"/><polygon class="cls-8" points="779.12 152.77 871.58 204.91 851.76 381.18 759.77 324.84 779.12 152.77"/><path class="cls-37" d="M808.88,405.25h0c-2.3-1.33-5.78-1.47-7.77-.32l-21,12.12c-2,1.15-1.75,3.16.55,4.49h0c2.3,1.32,5.78,1.47,7.77.32l21-12.13C811.43,408.58,811.18,406.58,808.88,405.25Z"/><path class="cls-37" d="M888.23,451h0c-2.3-1.33-5.78-1.47-7.77-.32l-21,12.12c-2,1.15-1.75,3.16.55,4.49h0c2.3,1.33,5.78,1.47,7.77.32l21-12.12C890.78,454.33,890.53,452.32,888.23,451Z"/><path class="cls-39" d="M486.55,410.63l-.18-.37a4.36,4.36,0,0,0-2.56-2,4.44,4.44,0,0,0-3.31.43,4.35,4.35,0,0,0-2,2.57,4.8,4.8,0,0,0,.44,3.3l.18.37a4.29,4.29,0,0,0,2.56,2,4.37,4.37,0,0,0,3.3-.43,4.32,4.32,0,0,0,2-2.56,4.77,4.77,0,0,0-.43-3.31Z"/><path class="cls-39" d="M523.52,458.05c-3.58-4-7.57-7.15-11.61-10.6-3.64-3.1-5.56-6.87-7.41-11.23-.54-1.29-.94-3.12-1.9-4.13l-.82-1.34c-.28,1.3-.43,1.23-.46-.22a59.74,59.74,0,0,0-4.53-5.77,70.47,70.47,0,0,1-5.57-6.27c-.44-.59-2.62-3.4-2.36-3a20.79,20.79,0,0,0-1.23-2.76c-2.65-4.84-10.06-.51-7.4,4.33l0-1.15.15,1.14c.58,1,1,2,1.61,3a52,52,0,0,0,3.91,5.41c2.61,3.21,5.72,6,8.3,9.21l-1.26-3c0,1.42.79,2.27,1.48,3.41a51.83,51.83,0,0,1,3,6.28,35.68,35.68,0,0,0,5.13,8.87c4.33,5.19,10.35,8.82,14.92,13.88,3.7,4.11,9.75-2,6.06-6.06Z"/><path class="cls-37" d="M498.68,415.81l7.67,19.51c.89,6.06-12.65,8.48-13.83,3.59l-5.74-19.37a6.23,6.23,0,0,1,4-7.35h0A6.25,6.25,0,0,1,498.68,415.81Z"/><path class="cls-40" d="M479.08,415.56h0Z"/><path class="cls-40" d="M475.7,421.65c.2-.11.42-.23.66-.39a4.29,4.29,0,0,1-.45.33Z"/><path class="cls-40" d="M478.6,417.32l.52-1.53c-.38,2.88-1.48,4.42-2.48,5.24a6.71,6.71,0,0,0,1.66-2.6Z"/><path class="cls-40" d="M479.14,415.59s0,0,0,0a.09.09,0,0,1-.06,0A.07.07,0,0,1,479.14,415.59Z"/><path class="cls-40" d="M479.18,415.63l-.06.16a1.24,1.24,0,0,0,0-.18Z"/><path class="cls-24" d="M502.6,467l.13-.08A.14.14,0,0,1,502.6,467Z"/><path class="cls-24" d="M479.08,415.56h0Z"/><path class="cls-24" d="M475.62,421.68h0l.11,0c.2-.11.42-.23.66-.39a4.29,4.29,0,0,1-.45.33l-.14.07h-.15Z"/><path class="cls-24" d="M476.64,421a6.71,6.71,0,0,0,1.66-2.6l.3-1.11.52-1.53C478.74,418.67,477.64,420.21,476.64,421Z"/><path class="cls-24" d="M479.14,415.59s0,0,0,0a.09.09,0,0,1-.06,0A.07.07,0,0,1,479.14,415.59Z"/><path class="cls-24" d="M479.18,415.63l-.06.16a1.24,1.24,0,0,0,0-.18Z"/><path class="cls-24" d="M502.59,467l-15.52,9.18h0L474,483.9,472.75,485c-4.6,2.75-12.29-6.2-13.69-10.86-5.26-17.48-1.55-20.54.08-30.57L455.5,445s-3.66-8.91-.47-14.74h0a8.23,8.23,0,0,1,2.31-2.67l6.2-4.67,7.65,6.6A1.77,1.77,0,0,0,474,429l2.47-6.12,5.29,2.89a1.55,1.55,0,0,0,2.26-1.14l.6-4.67a11.94,11.94,0,0,0-.12-4v0a5.19,5.19,0,0,0-.18-.78,3.37,3.37,0,0,0-.1-.34,9.09,9.09,0,0,0,4.74-5.2,11.25,11.25,0,0,1,7.28,3.21l0,0c1.85,1.84,2,4.39,2.13,6.91a13.36,13.36,0,0,1-.56,4.3c-.3,2.63-.49,5.17-.61,7.62h0c-.15,3.47-.15,6.76,0,9.82C497.83,457,501.57,467,502.59,467Z"/><path class="cls-40" d="M470.18,420.43a12.33,12.33,0,0,1-1.78-1.22,17.55,17.55,0,0,1-2.34-2.22,37.07,37.07,0,0,1,4.63-3.48l-1.34,5,0,0C469.15,419,469.5,419.76,470.18,420.43Z"/><path class="cls-41" d="M484.59,420l-.6,4.67a1.55,1.55,0,0,1-2.26,1.14l-5.29-2.89L474,429a1.77,1.77,0,0,1-2.78.51l-7.65-6.6-.05,0c-.59-.51-.56-.59-.34-1.26l2.91-4.61a17.55,17.55,0,0,0,2.34,2.22,12.33,12.33,0,0,0,1.78,1.22,8.82,8.82,0,0,0,5.37,1.26h.22l.14-.07a4.29,4.29,0,0,0,.45-.33,1.3,1.3,0,0,0,.23-.18l.05-.05c1-.82,2.1-2.36,2.48-5.24l.06-.16,0,0s0,0,0,0c.31,0,.62.06.94.07a8.44,8.44,0,0,0,1.82-.13,8.63,8.63,0,0,0,2-.59l.26-.13a3.37,3.37,0,0,1,.1.34,5.19,5.19,0,0,1,.18.78v0A11.94,11.94,0,0,1,484.59,420Z"/><path class="cls-8" d="M475.7,421.65c.2-.11.42-.23.66-.39a4.29,4.29,0,0,1-.45.33l-.14.07h-.15Z"/><path class="cls-8" d="M479.18,415.63l-.06.16a1.24,1.24,0,0,0,0-.18Z"/><path class="cls-42" d="M476.36,421.26a4.29,4.29,0,0,1-.45.33l-.14.07h-.18l.11,0C475.9,421.54,476.12,421.42,476.36,421.26Z"/><path class="cls-42" d="M479.08,415.56h0Z"/><path class="cls-39" d="M489.77,396.92l-.33,10a9,9,0,0,1-5.25,7.91l-.26.13a8.63,8.63,0,0,1-2,.59,8.44,8.44,0,0,1-1.82.13c-.32,0-.63,0-.94-.07a.07.07,0,0,0-.06,0h0a8.9,8.9,0,0,1-3.49-1.29h0a3.5,3.5,0,0,1-.35-.23,8.84,8.84,0,0,1-2-1.88,8.22,8.22,0,0,1-1.05-1.69v0a1.58,1.58,0,0,0,0-1.26c-.06-.14-.12-.3-.18-.46s-.07-.21-.1-.33a1.16,1.16,0,0,1-.34.12,2.1,2.1,0,0,1-1.81-.54,4.4,4.4,0,0,1-1.31-4.5,1.82,1.82,0,0,1,3-.88l.12.09a4.22,4.22,0,0,1,1.12,1.56,6.37,6.37,0,0,1,1.74-1.45,3,3,0,0,0,1.26-2.23,3.86,3.86,0,0,1,5-3.18,11.53,11.53,0,0,0,7.88.17A5.66,5.66,0,0,0,489.77,396.92Z"/><path class="cls-43" d="M489.77,396.92a5.66,5.66,0,0,1-1.19.63,11.53,11.53,0,0,1-7.88-.17,3.86,3.86,0,0,0-5,3.18,3,3,0,0,1-1.26,2.23,6.37,6.37,0,0,0-1.74,1.45,4.22,4.22,0,0,0-1.12-1.56l-.12-.09a1.82,1.82,0,0,0-3,.88,4.4,4.4,0,0,0,1.31,4.5,2.1,2.1,0,0,0,1.81.54,1.16,1.16,0,0,0,.34-.12c0,.12.07.23.1.33s.12.32.18.46a1.58,1.58,0,0,1,0,1.26v0a1.78,1.78,0,0,1-.38.53l0,0a1.58,1.58,0,0,1-.5.32,1.5,1.5,0,0,1-1.14,0c-7-2.83-5.51-15.33-5.51-15.33.34-10.12,9.94-14.66,18.8-11.07,3.12,1.27,6.87,2.51,8.34,3.87C494.15,391.06,492.54,395.08,489.77,396.92Z"/><path class="cls-42" d="M479.14,415.61a1.24,1.24,0,0,1,0,.18l-.52,1.53-.3,1.11a6.71,6.71,0,0,1-1.66,2.6l-.05.05a1.3,1.3,0,0,1-.23.18c-.24.16-.46.28-.66.39l-.11,0h0a8.82,8.82,0,0,1-5.37-1.26c-.68-.67-1-1.41-.85-1.91l0,0,1.34-5,.58-2.16a1.58,1.58,0,0,0,.5-.32l0,0a1.78,1.78,0,0,0,.38-.53,8.22,8.22,0,0,0,1.05,1.69,8.84,8.84,0,0,0,2,1.88,3.5,3.5,0,0,0,.35.23h0a8.9,8.9,0,0,0,3.49,1.29h0A.09.09,0,0,0,479.14,415.61Z"/><path class="cls-42" d="M479.18,415.63l-.06.16a1.24,1.24,0,0,0,0-.18Z"/><path class="cls-39" d="M760.68,268c0,1.52-1.5,2.66-2.41,3.33a12.37,12.37,0,0,1-3.6,1.79,34.28,34.28,0,0,1-4.37,1,5.33,5.33,0,0,1-1.86.14c-1.46-.22-2.72-1.52-3.87-2.74a1.51,1.51,0,0,1-.27-.39,1,1,0,0,1,.19-.91,3.32,3.32,0,0,1,.93-1,25.22,25.22,0,0,1,3-2.93,4.74,4.74,0,0,1,2.69-1.13,14,14,0,0,1,5.18.22c.31,0,.64-.05,1-.05a5,5,0,0,1,2.08.37l-2.08.93c-.08.87-1.25,1.61-2,2.1a15.48,15.48,0,0,1-6.6,1.87,1,1,0,0,0-.16,1.08,1,1,0,0,0,1.33.51l10.85-4.86A3.7,3.7,0,0,1,760.68,268Z"/><path class="cls-39" d="M760.64,267.42l-10.85,4.86a1,1,0,0,1-1.33-.51,1,1,0,0,1,.16-1.08,15.48,15.48,0,0,0,6.6-1.87c.79-.49,2-1.23,2-2.1l2.08-.93h0A2.13,2.13,0,0,1,760.64,267.42Z"/><polygon class="cls-44" points="852.44 279.39 833.75 268.8 834.46 262.62 852.44 279.39"/><polygon class="cls-45" points="852.44 279.39 833.75 267.71 835.85 245.59 854.55 257.27 852.44 279.39"/><polygon class="cls-46" points="853.77 262.49 835.32 251.19 835.85 245.59 854.55 257.27 854.04 262.62 853.77 262.49"/><polygon class="cls-44" points="825.45 262.49 806.75 251.91 807.46 245.72 825.45 262.49"/><polygon class="cls-45" points="825.45 262.49 806.75 250.81 808.86 228.69 827.55 240.37 825.45 262.49"/><polygon class="cls-46" points="826.77 245.59 808.32 234.29 808.86 228.69 827.55 240.37 827.05 245.72 826.77 245.59"/><polygon class="cls-44" points="800.2 247 781.5 236.41 782.21 230.24 800.2 247"/><polygon class="cls-45" points="800.2 247 781.5 235.32 783.6 213.2 802.3 224.88 800.2 247"/><polygon class="cls-46" points="801.52 230.1 783.07 218.8 783.6 213.2 802.3 224.88 801.79 230.24 801.52 230.1"/><polygon class="cls-44" points="856.34 244.8 837.64 234.21 838.35 228.03 856.34 244.8"/><polygon class="cls-45" points="856.34 244.8 837.64 233.12 839.75 211 858.44 222.68 856.34 244.8"/><polygon class="cls-46" points="857.66 227.9 839.21 216.6 839.75 211 858.44 222.68 857.93 228.03 857.66 227.9"/><polygon class="cls-44" points="829.34 227.9 810.64 217.32 811.35 211.14 829.34 227.9"/><polygon class="cls-45" points="829.34 227.9 810.64 216.22 812.75 194.1 831.45 205.78 829.34 227.9"/><polygon class="cls-46" points="830.67 211 812.22 199.7 812.75 194.1 831.45 205.78 830.94 211.14 830.67 211"/><polygon class="cls-44" points="804.09 212.41 785.39 201.83 786.1 195.65 804.09 212.41"/><polygon class="cls-45" points="804.09 212.41 785.39 200.73 787.5 178.62 806.2 190.29 804.09 212.41"/><polygon class="cls-46" points="805.42 195.51 786.97 184.21 787.5 178.62 806.2 190.29 805.69 195.65 805.42 195.51"/><path class="cls-47" d="M798.46,314.49c.29,14,10.4,30.75,22.58,37.45s21.82.8,21.53-13.19S832.17,308,820,301.3,798.17,300.5,798.46,314.49Zm36.84,20.27c.2,9.38-6.27,13.34-14.44,8.84s-14.94-15.74-15.13-25.12,6.27-13.33,14.43-8.84S835.11,325.38,835.3,334.76Z"/><path class="cls-48" d="M820,301.3c-7.45-4.1-14-3.48-17.81.83l6.12,8c2.6-2.81,6.92-3.19,11.86-.47,6.76,3.72,12.57,12.06,14.48,20.15l7,1.88C838.88,319.51,830.16,306.89,820,301.3Z"/><path class="cls-45" d="M804.34,334.31l5.43-2.36a29.54,29.54,0,0,1-4-13.47c-.09-4,1-7,2.94-8.74L803,301.32c-2.94,2.67-4.64,7.17-4.52,13.17C798.59,320.92,800.81,328,804.34,334.31Z"/><path class="cls-45" d="M789,296.39l-12.53-7.24a4.89,4.89,0,0,1-2-3.89h0c0-1.5.92-2.19,2-1.54L789,291a4.91,4.91,0,0,1,2,3.9h0C791,296.34,790.12,297,789,296.39Z"/><path class="cls-45" d="M786.8,311.49l-12.53-7.24a4.89,4.89,0,0,1-2-3.89h0c0-1.5.92-2.19,2-1.54l12.53,7.23a4.91,4.91,0,0,1,2,3.9h0C788.84,311.44,787.92,312.14,786.8,311.49Z"/><path class="cls-45" d="M784.6,326.59l-12.53-7.24a4.89,4.89,0,0,1-2-3.89h0c0-1.5.92-2.19,2-1.54l12.53,7.23a4.91,4.91,0,0,1,2,3.9h0C786.64,326.54,785.72,327.24,784.6,326.59Z"/><path class="cls-49" d="M783.46,257.2l-22.82,10.22-10.85,4.86a1,1,0,0,1-1.33-.51,1,1,0,0,1,.16-1.08,15.48,15.48,0,0,0,6.6-1.87c.79-.49,2-1.23,2-2.1l2.08-.93h0l23.29-10.43a1,1,0,0,1,.42-.09,1,1,0,0,1,.4,1.93Z"/><path d="M725.39,376.75l-11.5-5.52-6,.2c-.37,7.93.31,6.84,2.91,8.32l9.75,3.6c5,1.25,6.5,1.22,8.92-.48h0C730.73,380.83,728.76,378.93,725.39,376.75Z"/><path class="cls-50" d="M692.48,398.05l-3.9-12.15-4.28-4.21c-6,5.21-4.74,4.95-4,7.85l4.1,9.56c2.55,4.48,3.6,5.56,6.5,6.13h0C693.21,404.74,693.23,402,692.48,398.05Z"/><path class="cls-37" d="M691.08,294.37c5,15.25,4.26,32.2,2.95,48-.62,7.37-1.51,14.7-2.41,22-.57,4.69-2.09,13.8-2,18.54.07,6.94-10,6.73-10-.21a181.1,181.1,0,0,1,1.31-18.33c.86-7.06,1.72-14.12,2.33-21.21,1.3-15.1,2.27-31.31-2.49-45.94-2.15-6.61,8.25-9.44,10.39-2.86Z"/><path class="cls-37" d="M714.63,291.94c2.48,9,3.62,18.39,4.56,27.68.57,5.6,1.47,11.23.91,16.85-1.06,10.73-3,21.64-3,32.45,0,6.93-10.72,6.94-10.77,0-.08-10.66,1.85-21.41,2.92-32,.54-5.3-.19-10.47-.71-15.77-.87-8.87-2-17.75-4.33-26.37-1.85-6.69,8.55-9.55,10.39-2.86Z"/><path class="cls-37" d="M709.64,308.94h0c-1,1.11.39-4.2-.89-3.43-2.67,1.61-17.62,11.77-20.74,11.82-3.76.07-1.56-3.57-4.36-6.08s-3.28-6.25-3.54-9.81a4.72,4.72,0,0,1,2.42-5.23c6.65-5,19.72-17.48,29-13.5C722.26,287.31,714.4,303.6,709.64,308.94Z"/><path class="cls-51" d="M478.2,483.27v-1.34l1.72.67.37-.85,43.09-24.88a2.3,2.3,0,0,1,2,.08L544,467.66v-.29l3.43,1.37v1.43h0a.66.66,0,0,1-.33.36l-44.84,25.9a2.27,2.27,0,0,1-2-.09l-21.49-12.41a.81.81,0,0,1-.49-.66Z"/><path class="cls-52" d="M502.24,495l44.85-25.89c.52-.3.45-.83-.15-1.18l-21.49-12.4a2.25,2.25,0,0,0-2-.09l-44.85,25.9c-.52.3-.45.82.15,1.17l21.49,12.41A2.28,2.28,0,0,0,502.24,495Z"/><path class="cls-51" d="M499.18,478.33,510,472.07c.13-.07.11-.2,0-.29l-5.21-3a.56.56,0,0,0-.49,0L493.45,475c-.13.07-.11.2,0,.28l5.2,3A.52.52,0,0,0,499.18,478.33Z"/><path class="cls-40" d="M687.76,241.32l19.1-7.27-2.31-8c-4.89-.34-7.4.56-11.52,3.1Z"/><path class="cls-42" d="M702.81,233.41l2.1-13.09-9.31,2.87-1.7,10.69C693.46,235.62,700.88,240.13,702.81,233.41Z"/><path class="cls-53" d="M716.13,239.3a7.1,7.1,0,0,1-.7,2.87,7.08,7.08,0,0,1-4.86,3.82l-2,.51-.34.08-4.54,1.18-3.53.92-3.93,1-1.1.28-1.41.37-9.32,2.42a34.82,34.82,0,0,1-2.3-4c-1.87-3.78-3.61-9.21.43-11.32l2.82-1.5c.88-.47,1.83-1,2.78-1.49l2-1.09,2-1.07,1.93-1.07a9,9,0,0,0,5.54,3.21h.07c.21,0,.42,0,.62,0h0l.09,0a.52.52,0,0,0,.16-.06.34.34,0,0,0,.16-.08l.16-.08h0a.71.71,0,0,0,.18-.12h0c1-.65,2.18-2.06,2.55-5.15,0-.16,0-.32.05-.49l1.34-.16-.15-.6a12,12,0,0,1,7,1.68,10.25,10.25,0,0,1,2.74,2.54A7.56,7.56,0,0,1,716,234.7,17.48,17.48,0,0,1,716.13,239.3Z"/><path class="cls-8" d="M716,290c-1,1.18-2-33.52,0-55.34L679.21,250c.09,16.53,6.56,33.75,4.44,53.77Z"/><path class="cls-37" d="M686.85,232.69s10.64,12.45,12.55,41.05c.79,11.8,2.17,27.7-.39,28.94-4,1.94-9.06,5.26-14.18,4.21-2.09-.42-6.33-2.33-6.41-4.39,1.62-17.28-1.46-35.77.2-54.77l.87-7.38c.13-.76-1.23-1.43-.67-2.06Z"/><path class="cls-37" d="M717.88,290.58a3.74,3.74,0,0,1-1.83,3.34,43.88,43.88,0,0,1-4.6,2.45,2.14,2.14,0,0,1-3-2.07c0-.37.07-.73.1-1.09.89-10.64,1.19-19.81,1.11-27.6,0-.18,0-.36,0-.55-.07-7.4-.49-13.56-1-18.56-.34-3.23-.74-6-1.15-8.25-.15-.85-.29-1.64-.44-2.36a47.52,47.52,0,0,0-1.74-6.68h0c-.17,0-.8-.11-1.6-.25,0-.16,0-.32.05-.49l1.34-.16-.15-.6c0-.16-.08-.31-.11-.47h1a11.91,11.91,0,0,1,4.59.89h0a8.54,8.54,0,0,1,1.34.71c6.62,4.11,5.66,14.87,5.66,14.87S717.5,281.22,717.88,290.58Z"/><path class="cls-45" d="M701.31,241.28h0a3.67,3.67,0,0,1-4.15-2.76l-.66-3a5.12,5.12,0,0,0,6.67-1.79l.78,3.58A3.25,3.25,0,0,1,701.31,241.28Z"/><path class="cls-45" d="M699.52,239.82,701.74,269a1.39,1.39,0,0,0,.39.87l2.4,2.48a1.37,1.37,0,0,0,2.16-.18l1.3-2.19a1.26,1.26,0,0,0,.15-.93L702,239.29Z"/><path class="cls-8" d="M707.43,234.09l-.41,1.8-.22.93-.19.82s0,0,0,0a1.21,1.21,0,0,1-1.86.63l-.72-.5L701,235.66l-.15-.1,0,0-1.25-.87h0l.15,0h.12l.08,0,.31-.07a0,0,0,0,1,0,0l.09,0s0,0,0,0h0l.09,0a.52.52,0,0,0,.16-.06.34.34,0,0,0,.16-.08l.16-.08h0l.19-.11c1-.65,2.18-2.06,2.55-5.15,0-.16,0-.32.05-.49l1.34-.16,1.09-.13c.34.27,1,.1,1.42,2.2A9.14,9.14,0,0,1,707.43,234.09Z"/><path class="cls-54" d="M706.61,237.68l-.05.22a1,1,0,0,1-1.61.57l-.92-.64-3.14-2.14-.11-.08-.06,0-1.33-.91h.11a.28.28,0,0,0,.13,0h.12l.08,0,.31-.07a0,0,0,0,1,0,0l.09,0,.06,0h0s0,0,.07,0a.52.52,0,0,0,.16-.06.34.34,0,0,0,.16-.08.35.35,0,0,0,.16-.08h0a.71.71,0,0,0,.18-.12h0l1.13.73,1.38.9,3,1.94Z"/><path class="cls-8" d="M701.36,234.38l-.61,1.14,0,0-.13.24L698.36,240a.8.8,0,0,1-.22.26,1.47,1.47,0,0,1-2-.14l0,0-3.39-3.55-2.25-2.36c-.34-.36-.39-.47-.29-.76l.12-.26,1.93-2.38.71-.88a14,14,0,0,0,1.14,1.38,9,9,0,0,0,5.54,3.21h.07l.45,0a0,0,0,0,1,0,0A4.3,4.3,0,0,0,701.36,234.38Z"/><path class="cls-54" d="M701.46,234.36l-.66,1.2,0,.05-.09.16-2.44,4.47a.23.23,0,0,1,0,.07,1.25,1.25,0,0,1-1.89,0l-.18-.19v0l1-1.7,1.37-2.34.93-1.58h.25c.21,0,.42,0,.62,0h0l1-.08Z"/><path class="cls-24" d="M714.24,247l-3.09-.64,1.76,5.73-3.29,21.71s.15-3.08,0-8.21c0-.18,0-.36,0-.55-.12-4.77-.47-11.19-1.37-18.48-.32-2.61-.71-5.35-1.19-8.17-.1-.53-.18-1.06-.28-1.59-.45-2.49-1-5-1.56-7.62-.06-.3-.14-.6-.21-.9l-.15-.6c0-.16-.08-.31-.11-.47l-.22-.89a11.57,11.57,0,0,1,5.8,1.79h0l1.34.71a5,5,0,0,0,.11.53c.39,2.11.92,4.31,1.39,6.47a48.87,48.87,0,0,1,1.27,7.77A11.86,11.86,0,0,1,714.24,247Z"/><path class="cls-24" d="M684.73,233.82l5,16.57,4.13-.41-1.13,6.34L699.39,275a126.29,126.29,0,0,0-4.67-31.25c-1.24-4.31-3.29-10-2.33-13.88C689.51,231,687.33,231.55,684.73,233.82Z"/><path class="cls-39" d="M701.9,230.6l2.7.24a7.18,7.18,0,0,0,7.95-6.7l.67-13.41a7.89,7.89,0,0,0-7.21-8.06l-2.71-.24a7.18,7.18,0,0,0-7.94,6.71l-.8,9.77C694.36,223,697.73,230.23,701.9,230.6Z"/><path d="M702.43,212.39c2.81,1.46,4.53,1.46,7.69.45,3.42-1.09,4.08-5.32,1.44-7.9-1.42-1.4-1.5-2.16-4.56-3.55-8.68-3.95-19,.21-19.53,9.92,0,0-.39,12.78,7.54,15.19l.6-4a1.69,1.69,0,0,1,0-2.9,11.43,11.43,0,0,1,2.31-1.53c1.14-.61,1.42-2.16,1.34-3.79A2.12,2.12,0,0,1,702.43,212.39Z"/><path class="cls-39" d="M693.16,222.75c1.2,1.05,2.59.79,3.11-.59a4.31,4.31,0,0,0-1.22-4.4c-1.2-1-2.6-.79-3.12.59A4.32,4.32,0,0,0,693.16,222.75Z"/><path class="cls-55" d="M712.63,218.94a7.19,7.19,0,0,1-8,6.71l-2.7-.24c-2.59-.23-3.89-3.38-5-6.88h0a1.11,1.11,0,0,1-1.52-.42l-.18-.3.19,3.23c-.2,4.06,2.24,9.77,6.41,10.14l2.7.24a7.19,7.19,0,0,0,7.95-6.71l.67-13.4a7.69,7.69,0,0,0-.12-1.67Z"/><path class="cls-39" d="M681.54,296.83c-.33.15-7.44-4.42-4-8.09s8.23,2.49,8.23,2.49S684.43,295.5,681.54,296.83Z"/><path class="cls-24" d="M681.53,289.37a2,2,0,0,0-.22-2.83c-3.52-3.24-5.39-7.58-5.74-12.87-.74-11.47,2.12-20.29,8.35-29.29,3.12-4.5-3.66-8.81-6.77-4.33-7.59,11-12.18,21.63-10.41,35.6a27.48,27.48,0,0,0,6,14.68,21.94,21.94,0,0,0,2.54,2.56,2.28,2.28,0,0,0,3.15-.12Z"/><path class="cls-24" d="M746.85,268.84a1.72,1.72,0,0,0-2.37-1.1c-5.1,2.31-19.4,7.85-22-1.22-5.23-18.2-5.91-30.65-5.91-30.65l-2.69,32.28c3.22,7.85,7.76,14,13.93,12.74,11.19-2.31,17-4.73,19.34-5.88a1.71,1.71,0,0,0,.89-2Z"/><path class="cls-8" d="M503.38,465.87a4.88,4.88,0,0,1,2.07-3.12L550,437.44a1.11,1.11,0,0,1,1-.15h0a.58.58,0,0,1,.23.18l1.47,1.55-1.34-.12-4.23,27.36a4.87,4.87,0,0,1-2.06,3.12l-42.11,23.93-1.36,1.53-.16.37c-.86.19-2.9-1.26-2.9-1.26Z"/><path class="cls-36" d="M611.94,391.17l28.85,22.28c4.71,2.89,8.24,0,8.24-4.93l.55-8.07c0-5-3.86-11.38-8.57-14.26l-29.09-17.81c-4.71-2.88-8.56-1.19-8.56,3.77v4.76C603.37,381.87,607.23,388.28,611.94,391.17Z"/><path class="cls-56" d="M558.1,466.76h0a1.71,1.71,0,0,1-1.44-1.94L563.6,418a1.71,1.71,0,0,1,1.94-1.43h0a1.69,1.69,0,0,1,1.44,1.94L560,465.32A1.71,1.71,0,0,1,558.1,466.76Z"/><path class="cls-38" d="M611.83,390.15l-14.57-38.54c-2.4-6.35-9.06-9.12-14.44-6L561.33,358a11.94,11.94,0,0,0-5.42,11.89L562,413.39Z"/><path class="cls-38" d="M601.85,435.8,643.13,412c3.83-2.21,2.28-7.05-3.44-10.76l-14.84-9.64c-5.71-3.71-13.52-4.94-17.35-2.73l-41.27,23.83c-3.83,2.21-2.28,7.05,3.44,10.76l14.83,9.64C590.22,436.78,598,438,601.85,435.8Z"/><path class="cls-38" d="M571.07,426.88l29.08,17.81c4.71,2.89,8.35,1.53,8.09-3l-.25-4.37c-.26-4.53-4.32-10.61-9-13.49L569.87,406c-4.71-2.88-8.35-1.53-8.09,3l.25,4.36C562.29,417.93,566.35,424,571.07,426.88Z"/><path d="M582.8,343.28v0Z"/><path class="cls-39" d="M608.17,354.87c.8,5.07,1.75,10.09,4.17,14.66,2,3.88,4.46,9,7.91,11.77s7.65,3.76,11.27,5.93a28.7,28.7,0,0,1,10.56,11.53c2.22,4.17-4.13,7.89-6.35,3.71-3-5.65-7-8.66-12.67-11.29-3.95-1.82-7.68-3.74-10.46-7.2a57.41,57.41,0,0,1-11.52-27.15c-.72-4.63,6.36-6.62,7.09-2Z"/><path class="cls-48" d="M607.69,353.07c1.53,4.47,2.62,9.13,4.27,13.55,1.26,3.37,3.54,6.06,5.88,8.74,4.14,4.73-2.77,11.68-6.93,6.93-3.15-3.6-6.1-7.21-7.88-11.69-1.92-4.84-3.1-10-4.79-14.93-2-6,7.41-8.54,9.45-2.6Z"/><path class="cls-24" d="M609.15,392.22c16.8,10.66,27.05,20.4,26.42,25,0,0-8.37-4.64-14.94-.82-9.73,5.65-.59,10.88-.59,10.88s-35.66,2.12-37.54-17.45c-1.19-12.39,0-11.72,0-11.72S600,404.15,609.15,392.22Z"/><path class="cls-45" d="M589.18,396.08l-1.84,1.63L586,395.6C586.94,395.77,588,395.94,589.18,396.08Z"/><path class="cls-45" d="M596.45,349.34l-.4.23a2.26,2.26,0,0,0-.11-.22Z"/><path class="cls-45" d="M596.47,363a8.78,8.78,0,0,1-2.1,1.13,19.76,19.76,0,0,1,2.21,4.09,1.9,1.9,0,0,1-2.93,2.18,26.45,26.45,0,0,0-6.93-4c-.76-.28-1.49-.57-2.16-.89l3.21-1.35,5-2.12L593,362l1.1-.46,4.65-2C598.66,360.88,598,361.91,596.47,363Z"/><path class="cls-45" d="M609.15,376.47a61.34,61.34,0,0,0-1.68,12.62,19.9,19.9,0,0,0,.09,2.06,16,16,0,0,0,.37,2.5,0,0,0,0,1,0,0c.58,2.35-.5,1.33-.92.87l-.16-.18c0,.12,0,.22,0,.34h0c-.3,2.46-3.65,2.63-3.65,2.63a4.89,4.89,0,0,1-.71.23h0c-9.45,3.17-19.65-.39-19.65-.39l-.4-1h0l-7-17.28v0l-.19-.49L574,376.63a2.86,2.86,0,0,1-1.1-1.74c-.84-4.77-3.59-6.8,1.15-15.31a11.05,11.05,0,0,1,2.65-2.07l.34-.22c.63-.4,1.34-.83,2.12-1.27,3.32,2.86,8.83,7.3,13.54,6L593,362l1.1-.46,4.65-2a8.17,8.17,0,0,0-.24-2.31c-.13-.57-.25-1.14-.39-1.74a22.65,22.65,0,0,0-2.07-5.93l.4-.23h0a9.25,9.25,0,0,1,8.21,5.12,46.82,46.82,0,0,1,2.32,6.65c0,.2,0,.38,0,.56,1.69,3,3.47,7,3.28,10.05A16.78,16.78,0,0,1,609.15,376.47Z"/><path class="cls-37" d="M610.28,392.94a1.73,1.73,0,0,1-.38.75c-1.57,1.75-5.88,5.67-13.68,6.27-6.68.5-10.78-.23-12.8-.78a1.69,1.69,0,0,1-1.12-1,1.59,1.59,0,0,1-.14-1l.09-.54a1.55,1.55,0,0,1,.14-.43h0a1.72,1.72,0,0,1,1.94-1c.48.11,1,.23,1.68.34.93.17,2,.34,3.17.48,4.16.49,9.43.57,13.15-1.35a19.9,19.9,0,0,0,5-3.44.62.62,0,0,1,.19-.14,1.71,1.71,0,0,1,2.66.76A1.81,1.81,0,0,1,610.28,392.94Z"/><path class="cls-42" d="M595.62,362.57a5.24,5.24,0,0,1-1.59,1.07c-2.55-3.46-5.71-5.6-8-8.09a11.41,11.41,0,0,1-2.28-3.59l.26-5.63a9.18,9.18,0,0,0,10.31,3.93l.09,0a4.36,4.36,0,0,1,.64.58,13.73,13.73,0,0,1,2.53,4.5A6.75,6.75,0,0,1,595.62,362.57Z"/><path class="cls-8" d="M595.43,355.15a20.16,20.16,0,0,0-1.7-4.72,1.31,1.31,0,0,1-.18-.62l.87-.22a8.14,8.14,0,0,1,1.52-.24,2.26,2.26,0,0,1,.11.22,22.65,22.65,0,0,1,2.07,5.93c.14.6.26,1.17.39,1.74a8.17,8.17,0,0,1,.24,2.31l-4.65,2C597.19,359.87,596.23,357.92,595.43,355.15Z"/><path class="cls-8" d="M594.42,349.59l-.87.22a1.25,1.25,0,0,1,2.3-.62c0,.06.07.11.09.16A8.14,8.14,0,0,0,594.42,349.59Z"/><path class="cls-8" d="M598.75,359.55c-.09,1.33-.74,2.36-2.28,3.45a8.78,8.78,0,0,1-2.1,1.13,9.9,9.9,0,0,1-6.6.07c-3.87-1.19-7.57-4.08-10.39-6.52a1.24,1.24,0,0,1-.31-.39,1.27,1.27,0,0,1,2-1.34.71.71,0,0,1,.09.07c3.32,2.86,8.83,7.3,13.54,6L593,362a4.74,4.74,0,0,0,.92-.36l.18-.1Z"/><path class="cls-39" d="M582.8,343.28v0Z"/><path class="cls-39" d="M578.28,372c-1,6.51-2.64,12.94-3.49,19.48-.81,6.18-2.36,12.7,3.16,17,8.13,6.3,18.34,8.41,20.62,20,.91,4.62-6.17,6.6-7.09,1.95-2.29-11.58-16.87-11.74-22.54-20.9-3.47-5.61-2.21-12.49-1.41-18.67.89-7,2.55-13.82,3.66-20.75.75-4.66,7.83-2.69,7.09,1.95Z"/><path class="cls-48" d="M581.36,366.77A86.89,86.89,0,0,0,575.21,401c.08,6.31-9.72,6.31-9.8,0a94.23,94.23,0,0,1,6.5-36.87c2.29-5.79,11.77-3.27,9.45,2.61Z"/><path d="M582.8,343.28v0Z"/><path d="M582.8,343.28v0Z"/><path class="cls-39" d="M586.43,332.83c-.07.17-.15.36-.24.6Q586.32,333.07,586.43,332.83Z"/><rect class="cls-37" x="770.67" y="423.8" width="4.98" height="93.7" rx="2.49" transform="translate(1619.19 792.38) rotate(169.49)"/><rect class="cls-57" x="764.38" y="418.49" width="15.93" height="9.25" transform="translate(1544.68 846.22) rotate(-180)"/><rect class="cls-57" x="474.82" y="477.63" width="15.93" height="9.25" transform="translate(965.57 964.5) rotate(-180)"/><path class="cls-57" d="M581.58,544.43,778.27,430.87c3.09-1.78,2.7-4.89-.86-6.95l-91.78-53c-3.56-2.06-9-2.28-12-.5L476.9,484c-3.08,1.78-2.69,4.89.87,6.95l91.78,53C573.11,546,578.5,546.21,581.58,544.43Z"/><path class="cls-41" d="M581.58,535.56,778.27,422c3.09-1.78,2.7-4.89-.86-6.94l-91.78-53c-3.56-2.06-9-2.28-12-.5L476.9,475.12c-3.08,1.78-2.69,4.89.87,6.95l91.78,53C573.11,537.11,578.5,537.34,581.58,535.56Z"/><rect class="cls-37" x="429.61" y="505.84" width="6.06" height="91.16" rx="3.03" transform="translate(73.75 -50.61) rotate(7.32)"/><path class="cls-37" d="M537.52,662.4h0a3,3,0,0,0,2.74-3.25l-11.8-137a3,3,0,0,0-3.25-2.73h0a3,3,0,0,0-2.73,3.25l11.79,137A3,3,0,0,0,537.52,662.4Z"/><rect class="cls-57" x="707.82" y="451.02" width="15.93" height="9.25" transform="translate(1431.57 911.28) rotate(-180)"/><rect class="cls-57" x="418.27" y="510.16" width="15.93" height="9.25" transform="translate(852.46 1029.56) rotate(-180)"/><path class="cls-57" d="M525,577,721.72,463.4c3.08-1.78,2.7-4.89-.87-6.95l-91.78-53c-3.56-2.06-8.94-2.28-12-.5L420.35,516.52c-3.08,1.78-2.7,4.89.86,7l91.78,53C516.55,578.51,521.94,578.74,525,577Z"/><path class="cls-41" d="M525,568.09,723.8,453.59c3.08-1.78.62-4-2.95-6l-91.78-53c-3.56-2.06-8.94-2.28-12-.5L420.35,507.65c-3.08,1.78-2.7,4.89.86,7l91.78,53C516.55,569.64,521.94,569.87,525,568.09Z"/><polygon class="cls-58" points="489.97 490.38 517.02 505.77 562.72 480.24 535.27 464.2 489.97 490.38"/><path class="cls-51" d="M478.38,483.49v-1.34l1.73.67.37-.85,43.09-24.89a2.27,2.27,0,0,1,2,.09l18.55,10.71v-.3l3.43,1.38v1.42h0a.64.64,0,0,1-.33.37L502.4,496.64a2.3,2.3,0,0,1-2-.08l-21.49-12.41a.82.82,0,0,1-.49-.66Z"/><path class="cls-24" d="M502.42,495.23l44.85-25.9c.52-.3.45-.82-.15-1.17l-21.49-12.41a2.28,2.28,0,0,0-2-.08l-44.85,25.89c-.52.3-.45.83.15,1.18l21.49,12.4A2.25,2.25,0,0,0,502.42,495.23Z"/><path class="cls-51" d="M499.36,478.55l10.85-6.27c.13-.07.11-.2,0-.28L505,469a.5.5,0,0,0-.49,0l-10.85,6.26c-.13.08-.11.2,0,.29l5.2,3A.59.59,0,0,0,499.36,478.55Z"/><path class="cls-8" d="M503.56,466.09a4.93,4.93,0,0,1,2.07-3.13l44.53-25.3a1.09,1.09,0,0,1,1-.16h0a.66.66,0,0,1,.23.17l1.47,1.55-1.34-.12-4.23,27.37a4.89,4.89,0,0,1-2.06,3.12l-42.11,23.93-1.36,1.52-.16.38c-.86.18-2.9-1.26-2.9-1.26Z"/><path class="cls-37" d="M502.09,496.34,546.62,471a4.87,4.87,0,0,0,2.06-3.12L553,440.25c.18-1.18-.45-1.7-1.4-1.15L507,464.4a4.9,4.9,0,0,0-2.07,3.12l-4.27,27.67C500.5,496.37,501.13,496.88,502.09,496.34Z"/><path class="cls-8" d="M524.73,467.58c-.23,1.47,1.1,1.8,3,.73s3.58-3.11,3.8-4.58-1.1-1.8-3-.74S525,466.11,524.73,467.58Z"/><path class="cls-39" d="M452.66,458.06c0,9.4,3.51,17.2,13.18,19.59,9.91,2.44,20.08,1.16,29.49,5.9,4.91,2.48,9.26-4.91,4.32-7.4-8.25-4.15-16.9-5-25.95-5.92-3-.3-6.66-.5-9.21-2.25-3.19-2.18-3.27-6.42-3.26-9.92,0-5.52-8.56-5.52-8.57,0Z"/><path class="cls-37" d="M464.18,436.19l-1.39,20.92c-1.78,5.86-15.06,2.27-14-2.65l3.07-20a6.25,6.25,0,0,1,6.8-4.93h0A6.26,6.26,0,0,1,464.18,436.19Z"/><rect class="cls-37" x="689.23" y="501.36" width="3.6" height="49.36" rx="1.8" transform="translate(84.95 -95.98) rotate(8.46)"/><path class="cls-37" d="M772.76,553.42h0a1.73,1.73,0,0,0,1.46-2L766,496.27a1.74,1.74,0,0,0-2-1.46h0a1.73,1.73,0,0,0-1.46,2L770.78,552A1.73,1.73,0,0,0,772.76,553.42Z"/><path class="cls-37" d="M732.63,576.89h0a1.87,1.87,0,0,0,1.57-2.12l-9.56-64.44a1.86,1.86,0,0,0-2.12-1.57h0a1.86,1.86,0,0,0-1.57,2.11l9.56,64.45A1.86,1.86,0,0,0,732.63,576.89Z"/><path class="cls-38" d="M723.88,525.2l38.75-22.38c3.59-2.07,2.14-6.62-3.23-10.1l-13.93-9c-5.36-3.49-12.69-4.64-16.28-2.57l-38.75,22.37c-3.59,2.07-2.14,6.62,3.23,10.11l13.93,9C713,526.12,720.29,527.27,723.88,525.2Z"/><path class="cls-37" d="M734.59,484.34l27.08,20.92c4.42,2.71,7.74,0,7.74-4.63l.51-7.58c0-4.65-3.62-10.67-8-13.38L734.57,463c-4.42-2.71-8-1.11-8,3.54V471C726.54,475.61,730.17,481.64,734.59,484.34Z"/><path class="cls-24" d="M726.53,531.32l39.27-22.76a16.57,16.57,0,0,0,5.72-6.36c1.37-3.17-1.91-5.46-5.59-3.33l-36,21.21c-3.68,2.12-5.07,4.34-4.47,7C725.43,527.06,721.87,533.73,726.53,531.32Z"/><path class="cls-24" d="M692.32,514.46l27.3,16.72c4.42,2.7,7.84,1.43,7.6-2.83l-.24-4.09c-.24-4.26-4.06-10-8.48-12.67l-27.31-16.72c-4.42-2.71-7.84-1.44-7.59,2.82l.23,4.1C684.07,506.05,687.89,511.75,692.32,514.46Z"/><path class="cls-24" d="M771.49,501.62l6.84-42.75c1.16-6.32-3.57-8.43-10.24-4.56l-26.66,15.47a28.76,28.76,0,0,0-11.41,13l-11.25,27.76c-3.23,8,3.74,15.79,10.47,11.78Z"/><path class="cls-56" d="M613,551.77,640,572.69c4.42,2.71,7.74,0,7.74-4.63l.51-7.58c0-4.65-3.62-10.67-8-13.38l-27.31-16.72c-4.42-2.71-8-1.12-8,3.54v4.47C604.91,543,608.54,549.06,613,551.77Z"/><path d="M555.29,606.48l13.05,2.66,1.76,4.53c.42,3.24.39,5-1.76,6.68-1.81,1.44-5.5.33-7.43-.57l-8.38-5c-6.21-3.42-5.74-6-5.07-8h0C548.45,604.34,551.32,604.89,555.29,606.48Z"/><path d="M580.05,595.18l11.89,2.41,1.6,4.12c.38,2.95.36,4.52-1.6,6.08-1.65,1.31-5,.3-6.77-.51l-7.63-4.58c-5.66-3.12-5.23-5.42-4.62-7.33h0C573.82,593.24,576.44,593.73,580.05,595.18Z"/><path class="cls-59" d="M581.9,585.18c2.86,2.24,9,8.62,11,5.49.13,1.66.23,3.32.28,5,.2,6.78-10.33,7.38-10.54.57C582.56,594.89,582,586.52,581.9,585.18Z"/><path class="cls-38" d="M571.33,588.79c-.76,5.58-1.56,12.42-1.18,18.4a6.2,6.2,0,0,1-3.58,5.72,6.29,6.29,0,0,1-2.87.72,5.9,5.9,0,0,1-.86-.06c-3.07-.41-4.4-3.13-4.6-6.34a121.23,121.23,0,0,1,1-24.32c.23-1.63.48-3.27.71-4.91l.12-.8,0-.18c0-.14,0-.26.07-.4.55-3.35.27-7.07,1.05-10.41a11.84,11.84,0,0,1,.8-2.42c2-4.37,2.34-5.28,3.94-6a6.22,6.22,0,0,0-2.61,3.63c-.89,3.25,1.1,7.49,4.63,8.14l.3.07c1.6,9,2.45,14.41,3.22,18C571.42,588,571.37,588.39,571.33,588.79Z"/><path class="cls-38" d="M599.93,571.22l-.42-.27c-1.58-1.06-7.32-4.78-10.82-5.89-1.82-.56-11.5,1.76-11.9,2.2l-.29.34c-.4.58-1.21,1.92-1.47,2.4,0,0-.42.94-.5,1.09h0c-.09.2-.15.4-.22.6s-.13.37-.19.56-.14.48-.22.72a56.63,56.63,0,0,0-1.68,8.89c-.22,1.79-.44,3.63-.7,5.56a.88.88,0,0,0,0,.17c-.77-3.6-1.62-9-3.22-18l-.3-.07c-3.53-.65-5.52-4.89-4.63-8.14a6.22,6.22,0,0,1,2.61-3.63l.16-.07.12-.05c.6-.26,1.35-.51,2.37-.9h0c.28-.09.57-.2.89-.33,3-1.17,7.42.1,12,2.3a95.9,95.9,0,0,1,18.06,12.1C600.19,571.33,600.35,571.52,599.93,571.22Z"/><path class="cls-38" d="M616,575.81a184.48,184.48,0,0,0-19.95-11.16c-5.31-2.62-3.51-2.09-9.22-3.66-3.5-1-9.64,11.51-11.48-3.63.62-6.73,4-9.84,8.79-11.05a117.69,117.69,0,0,1,17.68,6.84,172.65,172.65,0,0,1,20.69,11.52c6.9,4.56.44,15.74-6.51,11.14Z"/><path class="cls-38" d="M598.13,581l-1.34,5.37c-5.4-3.09-12.25-8.64-17.88-11.28a33,33,0,0,1-4.8-2.86,15.34,15.34,0,0,0-4.87-2.44c-.31-.08-.63-.17-1-.23l-.3-.07c-3.53-.65-5.52-4.89-4.63-8.14a6.22,6.22,0,0,1,2.61-3.63l.16-.09.11-.08a7,7,0,0,1,2.38-.85h0a8.11,8.11,0,0,1,2.86,0c2.55.47,4.62.6,7.22,1.13a22.5,22.5,0,0,1,2.81.79,57.35,57.35,0,0,1,5.35,2.29c6,2.79,12.21,5.35,17.95,8.63C612.21,573.83,605.54,585.28,598.13,581Z"/><path class="cls-39" d="M584.32,522c-4.57,3.47-8.29,8.32-13.13,11.38-3.32,2.1-8.8,3-12,.24-9-7.77,12.11-20.26,17-22.7,4.42-2.2,8.33,4.44,3.89,6.65a48.25,48.25,0,0,0-11.81,7.91c-1,.91-2,3-3.08,3.64-.17.09-1.59,4.19-.87-1.2.13-1-1.2.16.47-.33a12.19,12.19,0,0,0,5.52-3.48,121,121,0,0,1,10.15-8.76c3.94-3,7.78,3.69,3.89,6.65Z"/><path class="cls-42" d="M602,502.26l-.76-13.11-8.56,3.93.43,11.88C593.06,506.87,601.88,506.64,602,502.26Z"/><path class="cls-39" d="M590.87,468.23s-7.38-.2-6.55,13c.57,9.21,5.9,12.09,13.69,15.16,4.86,1.91,10.41-1.34,10.35-5.94.66-6.76.25-13-2.31-18.23-.07-5.55-3.73-3.32-10.32-3.23Z"/><path d="M590.45,494.94s-9.27-2.74-9.28-15.51c0-13.82,12.72-13.5,19.71-14.66,3.09-.51,5.23-1.11,8.61,1.52,3.08,2.39.76,8.38-3.37,9-1.64.27-.58,4.66-.81,6.2-.4,2.76-2,4.2-2.45,6.87s-3.82,6.67-6.18,7.11C592.47,496.29,590.45,494.94,590.45,494.94Z"/><path class="cls-39" d="M605.57,486.34c.33,2.17-.65,4.11-2.2,4.35a1.75,1.75,0,0,1-.51,0c-1.36-.12-2.6-1.57-2.9-3.5-.34-2.16.64-4.11,2.19-4.35S605.23,484.18,605.57,486.34Z"/><path class="cls-45" d="M623.75,559.72l-23,11.42a11.2,11.2,0,0,1-16.18-10.25,169.35,169.35,0,0,0-2.08-33c-.11-.16-.5-.73-1-1.58l-9.08,7.47c-5.07,3.09-10.59-6.23-6.61-9.13l15.57-13.74a6.28,6.28,0,0,1,1.17-.67,12.6,12.6,0,0,1,1.68-.89,40.5,40.5,0,0,0,5.42-2.84h0c2.67-1.65,5-3.46,7.37-5.19h0a8.21,8.21,0,0,0,5.51-3.4,23.15,23.15,0,0,1,3.9-1.44c5-1.34,10.15-.78,13.86,3.24a8.13,8.13,0,0,1,2.33,4.44h0c.11.6.17,1.25.24,2C625.48,528.24,626,558.91,623.75,559.72Z"/><path class="cls-8" d="M606.74,496.58c-.82,13.6-7.79,8.2-17.07,9.91h0l-.26,0,1.9-3.59a2.83,2.83,0,0,1,2.77-1.49,12.1,12.1,0,0,0,3-.16h0a8.21,8.21,0,0,0,5.51-3.4,1.59,1.59,0,0,0,.13-.22,2.92,2.92,0,0,1,2.56-1.47,3.09,3.09,0,0,1,1.21.25Z"/><path class="cls-24" d="M602.4,603.73,641.66,581a16.57,16.57,0,0,0,5.72-6.36c1.38-3.17-1.91-5.46-5.59-3.33l-36,21.21c-3.69,2.12-5.08,4.34-4.48,7C601.29,599.47,597.73,606.14,602.4,603.73Z"/><path class="cls-37" d="M648.62,625.84h0a1.75,1.75,0,0,0,1.46-2l-8.18-55.18a1.74,1.74,0,0,0-2-1.46h0a1.73,1.73,0,0,0-1.46,2l8.18,55.18A1.75,1.75,0,0,0,648.62,625.84Z"/><path class="cls-37" d="M608.49,649.3h0a1.86,1.86,0,0,0,1.57-2.11l-9.56-64.45a1.86,1.86,0,0,0-2.12-1.57h0a1.87,1.87,0,0,0-1.57,2.12l9.56,64.44A1.86,1.86,0,0,0,608.49,649.3Z"/><path class="cls-24" d="M647.36,574l6.83-42.76c1.16-6.32-3.57-8.43-10.24-4.56l-26.66,15.47a28.68,28.68,0,0,0-11.4,13L594.63,583c-3.23,8,3.74,15.79,10.47,11.78Z"/><path class="cls-37" d="M572.06,575.83a2.28,2.28,0,0,1,0,.26l-1.79,12-3.68,24.78-1.25,8.43a1.8,1.8,0,1,1-3.56-.52l1.08-7.25L566.92,586l1.56-10.45a1.79,1.79,0,0,1,2-1.52A1.83,1.83,0,0,1,572.06,575.83Z"/><path class="cls-24" d="M603.08,600.76c.15,2.61-1.07,4.09-3.05,4.25a8.13,8.13,0,0,1-4.55-1.42l-24.15-14.8-1.08-.66-2.07-1.27a11.24,11.24,0,0,1-1.26-.86,20.11,20.11,0,0,1-6.76-9.38l0,0h0a10.12,10.12,0,0,1-.45-2.39l-.24-4.08c-.11-2,.57-3.31,1.76-3.9,1.38-.69,3.47-.38,5.84,1.07l7.25,4.43,20,12.25.07,0a17.49,17.49,0,0,1,2.9,2.28,20.32,20.32,0,0,1,4.83,7.14,12.34,12.34,0,0,1,.64,2.29,8.4,8.4,0,0,1,.11.95l.17,3Z"/><path class="cls-39" d="M600.82,342.27a6,6,0,0,1-.06.61.25.25,0,0,0,0,.12c0,.2-.08.39-.13.6s-.14.52-.23.78-.16.43-.24.64-.21.47-.33.7-.18.33-.28.49a8.84,8.84,0,0,1-1.48,1.86l-.4.37-.13.1-.37.3c-.25.18-.49.34-.76.5a9,9,0,0,1-2.09.92A9.19,9.19,0,0,1,584,346.33a4.85,4.85,0,0,1-.29-.49,1.62,1.62,0,0,1-1,.49h-.17a2.37,2.37,0,0,1-1.19-.25A4.44,4.44,0,0,1,579,342a1.86,1.86,0,0,1,2.88-1.55,4.28,4.28,0,0,1,1.76,1.67c0-.23.09-.47.14-.7s.16-.74.25-1.09c.17-.73.35-1.46.55-2.14.09-.31.17-.59.27-.89s.18-.62.27-.9.1-.29.14-.43c.13-.43.27-.83.41-1.19,0-.11.07-.23.1-.33s.08-.2.11-.29a2.15,2.15,0,0,1,.1-.27q.09-.27.18-.48c.08-.24.17-.43.23-.6.13-.34.21-.55.25-.63v0c1.18-1.82,3.36-2,5.53-2a24.07,24.07,0,0,1,6.73,3.3l1.61,5.48A8.93,8.93,0,0,1,600.82,342.27Z"/><path class="cls-43" d="M601.61,330.92c-.12-.2-.23-.4-.33-.58a10.55,10.55,0,0,0-3.77-6.32,11.43,11.43,0,0,0-1.91-1.73,12.37,12.37,0,0,0-6.54-2.29c-8.44-.94-15.44,3.92-14.59,12.24a1.15,1.15,0,0,1,0,.17c0,.06,0,.13,0,.22s0,.1,0,.16c.05.4.13.81.22,1.22,0,0,0,.35,0,.95,0,0,0,0,0,.05.13,1.21.3,2.74.48,4.43.75,6.67,1.23,15.87,1.38,17.78,0,.09,0,.19,0,.29.35,2.64,3,5.78,7.83,8,.67.32,1.39.61,2.16.89a26.62,26.62,0,0,1,6.93,4,1.9,1.9,0,0,0,2.92-2.18,19.74,19.74,0,0,0-2.2-4.09c-.11-.17-.22-.33-.34-.49-.41-.55-.83-1.07-1.27-1.56l0,0c-2.27-2.58-4.79-4.42-6.66-6.5a11.26,11.26,0,0,1-2.29-3.59l.27-5.63a4.85,4.85,0,0,1-.29-.49,1.62,1.62,0,0,1-1,.49h-.17a2.37,2.37,0,0,1-1.19-.25A4.44,4.44,0,0,1,579,342a1.86,1.86,0,0,1,2.88-1.55,4.28,4.28,0,0,1,1.76,1.67c0-.23.09-.47.14-.7s.16-.74.25-1.09c.17-.73.35-1.46.55-2.14.09-.31.17-.59.27-.89s.18-.62.27-.9.1-.29.14-.43c.13-.43.27-.83.41-1.19,0-.11.07-.23.1-.33s.08-.2.11-.29.06-.18.1-.27.12-.34.18-.48.17-.43.23-.6c.13-.34.21-.55.25-.63v0c1.18-1.82,3.36-2,5.53-2a24.07,24.07,0,0,1,6.73,3.3l1.61,5.48a8.93,8.93,0,0,1,.33,3.35,6,6,0,0,1-.06.61.25.25,0,0,0,0,.12c0,.2-.08.39-.13.6s-.14.52-.23.78a4.93,4.93,0,0,1-.24.64c-.11.24-.21.47-.33.7s-.18.33-.28.49a8.84,8.84,0,0,1-1.48,1.86l-.4.37-.13.1a3.47,3.47,0,0,1-.37.3c-.25.18-.49.34-.76.5a9.11,9.11,0,0,1,4.31,1.1c1.29-3.26,2.63-6.89,2.75-7.16C604.85,340.08,603.11,333.6,601.61,330.92Z"/></g></g></svg>