<svg xmlns="http://www.w3.org/2000/svg" viewBox="0 0 144.62 121.14"><defs><style>.cls-1{fill:#002bdc;}.cls-2{fill:#00c8e3;}.cls-3{fill:#1e243a;}</style></defs><title>Mobile_Applications</title><g id="Warstwa_2" data-name="Warstwa 2"><g id="NETWORK"><path class="cls-1" d="M71.16,48.41A15.8,15.8,0,0,0,70.84,80a14.77,14.77,0,0,1-8.36-3.19,8.69,8.69,0,0,1,8.68-8.69h0a6.52,6.52,0,1,1,6.51-6.52,6.53,6.53,0,0,1-6.51,6.52h0a8.69,8.69,0,0,1,8.68,8.69A14.83,14.83,0,0,1,71.42,80a15.8,15.8,0,0,0-.26-31.6Z"/><path class="cls-2" d="M35.14,71.4H32.39a1.3,1.3,0,0,1-1.25-1,13.66,13.66,0,0,0-.82-2.21,1.31,1.31,0,0,1,.25-1.49l1.87-1.87a1,1,0,0,0,0-1.44l-3-3a1,1,0,0,0-1.44,0l-1.62,1.62a1.28,1.28,0,0,1-1.56.19,14.13,14.13,0,0,0-2.44-1.12,1.3,1.3,0,0,1-.89-1.23V57.79a1,1,0,0,0-1-1H16.32a1,1,0,0,0-1,1v1.87a1.32,1.32,0,0,1-1,1.26A13.68,13.68,0,0,0,11.63,62a1.32,1.32,0,0,1-1.53-.23l-1.3-1.3a1,1,0,0,0-1.44,0l-3,3a1,1,0,0,0,0,1.44l1.31,1.31a1.28,1.28,0,0,1,.24,1.5A15.36,15.36,0,0,0,4.8,70.48a1.3,1.3,0,0,1-1.25.94H1.68a1,1,0,0,0-1,1v4.2a1,1,0,0,0,1,1H3.82a1.3,1.3,0,0,1,1.23.89A13.79,13.79,0,0,0,6.17,81,1.28,1.28,0,0,1,6,82.53L4.33,84.17a1,1,0,0,0,0,1.45l3,3a1,1,0,0,0,1.45,0l1.89-1.9a1.29,1.29,0,0,1,1.48-.24,14,14,0,0,0,2.21.82,1.31,1.31,0,0,1,1,1.25v2.74a1,1,0,0,0,1,1h4.2a1,1,0,0,0,1-1v-3A1.31,1.31,0,0,1,22.42,87a11.66,11.66,0,0,0,1.9-.81,1.32,1.32,0,0,1,1.53.23L28,88.58a1,1,0,0,0,1.44,0l3-3a1,1,0,0,0,0-1.44L30.31,82a1.3,1.3,0,0,1-.22-1.53,12.45,12.45,0,0,0,.82-1.92,1.3,1.3,0,0,1,1.23-.89h3a1,1,0,0,0,1-1v-4.2A1,1,0,0,0,35.14,71.4ZM23.8,79.9a8.28,8.28,0,1,1,0-11.71A8.28,8.28,0,0,1,23.8,79.9Z"/><path class="cls-3" d="M93.37,121.14H48.92a3.45,3.45,0,0,1-3.44-3.44V31.34a3.45,3.45,0,0,1,3.44-3.44H93.37a3.45,3.45,0,0,1,3.44,3.44V117.7A3.45,3.45,0,0,1,93.37,121.14ZM48.92,29.21a2.13,2.13,0,0,0-2.12,2.13V117.7a2.13,2.13,0,0,0,2.12,2.13H93.37a2.13,2.13,0,0,0,2.12-2.13V31.34a2.13,2.13,0,0,0-2.12-2.13Z"/><path class="cls-3" d="M96.18,41.93h-50a.66.66,0,0,1,0-1.32h50a.66.66,0,0,1,0,1.32Z"/><path class="cls-3" d="M95.62,108.52H46.15a.66.66,0,1,1,0-1.32H95.62a.66.66,0,0,1,0,1.32Z"/><path class="cls-3" d="M75.68,35.63H66.74a.66.66,0,0,1,0-1.32h8.94a.66.66,0,1,1,0,1.32Z"/><path class="cls-3" d="M71.2,117.06a2.89,2.89,0,1,1,2.89-2.89A2.9,2.9,0,0,1,71.2,117.06Zm0-4.47a1.58,1.58,0,1,0,1.58,1.58A1.58,1.58,0,0,0,71.2,112.59Z"/><path class="cls-3" d="M71.16,80.72A16.51,16.51,0,1,1,87.67,64.21,16.52,16.52,0,0,1,71.16,80.72Zm0-31.6A15.09,15.09,0,1,0,86.25,64.21,15.11,15.11,0,0,0,71.16,49.12Z"/><path class="cls-3" d="M71.16,68.82a7.22,7.22,0,1,1,7.22-7.22A7.23,7.23,0,0,1,71.16,68.82Zm0-13A5.81,5.81,0,1,0,77,61.6,5.81,5.81,0,0,0,71.16,55.8Z"/><path class="cls-3" d="M79.84,77.5a.71.71,0,0,1-.71-.71,8,8,0,1,0-15.94,0,.71.71,0,0,1-.71.71.7.7,0,0,1-.7-.71,9.39,9.39,0,0,1,18.77,0A.71.71,0,0,1,79.84,77.5Z"/><path class="cls-3" d="M82.83,87.36H59.5a.7.7,0,0,1-.7-.71.7.7,0,0,1,.7-.7H82.83a.7.7,0,0,1,.7.7A.7.7,0,0,1,82.83,87.36Z"/><path class="cls-3" d="M67.12,95.26H51.6a.7.7,0,0,1-.7-.71.7.7,0,0,1,.7-.7H67.12a.7.7,0,0,1,.7.7A.7.7,0,0,1,67.12,95.26Z"/><path class="cls-3" d="M90.73,95.26H75.21a.71.71,0,0,1-.71-.71.7.7,0,0,1,.71-.7H90.73a.7.7,0,0,1,.7.7A.7.7,0,0,1,90.73,95.26Z"/><path class="cls-3" d="M67.12,101.65H51.6a.7.7,0,0,1-.7-.7.7.7,0,0,1,.7-.71H67.12a.7.7,0,0,1,.7.71A.7.7,0,0,1,67.12,101.65Z"/><path class="cls-3" d="M90.73,101.65H75.21a.7.7,0,0,1-.71-.7.71.71,0,0,1,.71-.71H90.73a.7.7,0,0,1,.7.71A.7.7,0,0,1,90.73,101.65Z"/><path class="cls-3" d="M117,32.45h-4.09a.7.7,0,0,1-.7-.7v-4.1a.7.7,0,0,1,.7-.7.7.7,0,0,1,.71.7V31H117a.71.71,0,1,1,0,1.41Z"/><path class="cls-3" d="M133.43,32.45H123.34a.71.71,0,1,1,0-1.41h10.09a.71.71,0,1,1,0,1.41Z"/><path class="cls-3" d="M143.9,32.45h-4.09a.71.71,0,0,1,0-1.41h3.39V27.65a.7.7,0,0,1,.7-.7.7.7,0,0,1,.71.7v4.1A.71.71,0,0,1,143.9,32.45Z"/><path class="cls-3" d="M143.9,22a.7.7,0,0,1-.7-.71V11.18a.7.7,0,0,1,.7-.71.71.71,0,0,1,.71.71V21.27A.71.71,0,0,1,143.9,22Z"/><path class="cls-3" d="M143.9,5.5a.7.7,0,0,1-.7-.7V1.41h-3.39a.71.71,0,0,1,0-1.41h4.09a.71.71,0,0,1,.71.71V4.8A.7.7,0,0,1,143.9,5.5Z"/><path class="cls-3" d="M133.43,1.41H123.34a.71.71,0,0,1-.71-.7.71.71,0,0,1,.71-.71h10.09a.71.71,0,0,1,.71.71A.71.71,0,0,1,133.43,1.41Z"/><path class="cls-3" d="M112.86,5.5a.7.7,0,0,1-.7-.7V.71a.7.7,0,0,1,.7-.71H117a.71.71,0,0,1,.71.71.71.71,0,0,1-.71.7h-3.38V4.8A.7.7,0,0,1,112.86,5.5Z"/><path class="cls-3" d="M112.86,22a.7.7,0,0,1-.7-.71V11.18a.7.7,0,0,1,.7-.71.71.71,0,0,1,.71.71V21.27A.71.71,0,0,1,112.86,22Z"/><path class="cls-3" d="M117,120.89h-4.09a.7.7,0,0,1-.7-.71v-4.09a.7.7,0,0,1,.7-.7.7.7,0,0,1,.71.7v3.39H117a.7.7,0,0,1,.71.7A.71.71,0,0,1,117,120.89Z"/><path class="cls-3" d="M133.44,120.89H123.35a.71.71,0,0,1-.71-.71.7.7,0,0,1,.71-.7h10.09a.7.7,0,0,1,.71.7A.71.71,0,0,1,133.44,120.89Z"/><path class="cls-3" d="M143.91,120.89h-4.09a.7.7,0,0,1-.7-.71.7.7,0,0,1,.7-.7h3.39v-3.39a.7.7,0,0,1,.7-.7.7.7,0,0,1,.71.7v4.09A.71.71,0,0,1,143.91,120.89Z"/><path class="cls-3" d="M143.91,110.42a.7.7,0,0,1-.7-.71V99.62a.7.7,0,0,1,.7-.71.71.71,0,0,1,.71.71v10.09A.71.71,0,0,1,143.91,110.42Z"/><path class="cls-3" d="M143.91,93.94a.7.7,0,0,1-.7-.7V89.85h-3.39a.7.7,0,0,1-.7-.71.7.7,0,0,1,.7-.7h4.09a.7.7,0,0,1,.71.7v4.1A.7.7,0,0,1,143.91,93.94Z"/><path class="cls-3" d="M133.44,89.85H123.35a.71.71,0,0,1-.71-.71.7.7,0,0,1,.71-.7h10.09a.7.7,0,0,1,.71.7A.71.71,0,0,1,133.44,89.85Z"/><path class="cls-3" d="M112.87,93.94a.7.7,0,0,1-.7-.7v-4.1a.7.7,0,0,1,.7-.7H117a.7.7,0,0,1,.71.7.71.71,0,0,1-.71.71h-3.38v3.39A.7.7,0,0,1,112.87,93.94Z"/><path class="cls-3" d="M112.87,110.42a.7.7,0,0,1-.7-.71V99.62a.7.7,0,0,1,.7-.71.71.71,0,0,1,.71.71v10.09A.71.71,0,0,1,112.87,110.42Z"/><path class="cls-3" d="M108.22,16H107a.7.7,0,0,1-.71-.7.71.71,0,0,1,.71-.71h1.22a.7.7,0,0,1,.7.71A.7.7,0,0,1,108.22,16Z"/><path class="cls-3" d="M103.05,16h-2.17a.7.7,0,0,1-.7-.7.7.7,0,0,1,.7-.71h2.17a.7.7,0,0,1,.7.71A.7.7,0,0,1,103.05,16Zm-6.12,0H94.77a.7.7,0,0,1-.71-.7.71.71,0,0,1,.71-.71h2.16a.71.71,0,0,1,.71.71A.7.7,0,0,1,96.93,16Zm-6.11,0H88.66a.7.7,0,0,1-.71-.7.71.71,0,0,1,.71-.71h2.16a.71.71,0,0,1,.71.71A.7.7,0,0,1,90.82,16Zm-6.11,0H82.54a.7.7,0,0,1-.7-.7.7.7,0,0,1,.7-.71h2.17a.7.7,0,0,1,.7.71A.7.7,0,0,1,84.71,16Zm-6.12,0H76.43a.7.7,0,0,1-.71-.7.71.71,0,0,1,.71-.71h2.16a.71.71,0,0,1,.71.71A.7.7,0,0,1,78.59,16Z"/><path class="cls-3" d="M71.12,17.15a.71.71,0,0,1-.71-.71V15.27a.71.71,0,0,1,.71-.71h1.17a.71.71,0,0,1,.71.71.7.7,0,0,1-.71.7h-.47v.47A.7.7,0,0,1,71.12,17.15Z"/><path class="cls-3" d="M71.12,22.13a.7.7,0,0,1-.71-.7V19.64a.7.7,0,0,1,.71-.7.7.7,0,0,1,.7.7v1.79A.7.7,0,0,1,71.12,22.13Z"/><path class="cls-3" d="M71.12,26.46a.71.71,0,0,1-.71-.71V24.63a.71.71,0,0,1,.71-.71.7.7,0,0,1,.7.71v1.12A.7.7,0,0,1,71.12,26.46Z"/><path class="cls-3" d="M128.39,84.39a.7.7,0,0,1-.7-.7V82.56a.7.7,0,0,1,.7-.7.7.7,0,0,1,.71.7v1.13A.7.7,0,0,1,128.39,84.39Z"/><path class="cls-3" d="M128.39,78.56a.7.7,0,0,1-.7-.7V75.22a.7.7,0,0,1,.7-.7.71.71,0,0,1,.71.7v2.64A.7.7,0,0,1,128.39,78.56Z"/><path class="cls-3" d="M128.39,71.23a.7.7,0,0,1-.7-.71v-.47h-.47a.7.7,0,0,1-.71-.7.71.71,0,0,1,.71-.71h1.17a.71.71,0,0,1,.71.71v1.17A.71.71,0,0,1,128.39,71.23Z"/><path class="cls-3" d="M122.8,70.05h-2.45a.7.7,0,0,1-.7-.7.7.7,0,0,1,.7-.71h2.45a.7.7,0,0,1,.7.71A.7.7,0,0,1,122.8,70.05Zm-6.87,0h-2.44a.7.7,0,0,1-.71-.7.71.71,0,0,1,.71-.71h2.44a.71.71,0,0,1,.71.71A.7.7,0,0,1,115.93,70.05Zm-6.86,0h-2.45a.7.7,0,0,1-.71-.7.71.71,0,0,1,.71-.71h2.45a.7.7,0,0,1,.7.71A.7.7,0,0,1,109.07,70.05Z"/><path class="cls-3" d="M102.29,70.05h-1.12a.7.7,0,0,1-.71-.7.71.71,0,0,1,.71-.71h1.12a.71.71,0,0,1,.71.71A.7.7,0,0,1,102.29,70.05Z"/><path class="cls-3" d="M17.94,83a8.94,8.94,0,0,1-6.33-15.26h0A8.94,8.94,0,1,1,17.94,83ZM12.55,68.65a7.63,7.63,0,1,0,5.39-2.23,7.62,7.62,0,0,0-5.39,2.23Z"/><path class="cls-3" d="M20.51,92.93h-4.2a1.68,1.68,0,0,1-1.68-1.67V88.51a.65.65,0,0,0-.48-.62A14.32,14.32,0,0,1,11.83,87a.65.65,0,0,0-.74.12L9.2,89A1.66,1.66,0,0,1,8,89.53,1.64,1.64,0,0,1,6.83,89l-3-3a1.67,1.67,0,0,1,0-2.37l1.64-1.64a.65.65,0,0,0,.09-.77,14.41,14.41,0,0,1-1.17-2.56.66.66,0,0,0-.61-.44H1.68A1.69,1.69,0,0,1,0,76.63V72.44a1.65,1.65,0,0,1,.49-1.19,1.67,1.67,0,0,1,1.19-.5H3.56a.64.64,0,0,0,.61-.46A14.7,14.7,0,0,1,5.3,67.45a.66.66,0,0,0-.12-.74L3.87,65.4a1.67,1.67,0,0,1,0-2.37l3-3a1.7,1.7,0,0,1,2.38,0l1.3,1.3a.62.62,0,0,0,.75.11,15.15,15.15,0,0,1,2.84-1.13.65.65,0,0,0,.48-.61V57.8a1.69,1.69,0,0,1,1.68-1.69h4.2a1.65,1.65,0,0,1,1.18.5,1.62,1.62,0,0,1,.49,1.18v2.14a.66.66,0,0,0,.44.61,14.41,14.41,0,0,1,2.56,1.17.62.62,0,0,0,.76-.09L27.57,60A1.7,1.7,0,0,1,30,60l2.95,3a1.68,1.68,0,0,1,0,2.38L31,67.21a.65.65,0,0,0-.11.74,14.79,14.79,0,0,1,.85,2.31.65.65,0,0,0,.62.48h2.76a1.68,1.68,0,0,1,1.18.49,1.66,1.66,0,0,1,.49,1.19v4.2a1.69,1.69,0,0,1-1.68,1.68h-3a.66.66,0,0,0-.61.44,12.91,12.91,0,0,1-.86,2,.65.65,0,0,0,.11.76l2.12,2.12a1.68,1.68,0,0,1,0,2.38l-3,3a1.69,1.69,0,0,1-2.38,0l-2.12-2.12a.63.63,0,0,0-.76-.11,14.7,14.7,0,0,1-2,.85.63.63,0,0,0-.44.61v3a1.69,1.69,0,0,1-1.68,1.69Zm-9-7.28a2,2,0,0,1,.86.19,11.74,11.74,0,0,0,2.1.78,2,2,0,0,1,1.44,1.89v2.73a.37.37,0,0,0,.36.37h4.2a.36.36,0,0,0,.26-.11.36.36,0,0,0,.11-.25v-3a2,2,0,0,1,1.34-1.86,12,12,0,0,0,1.8-.77,2,2,0,0,1,2.3.34l2.13,2.13a.36.36,0,0,0,.51,0l3-3a.35.35,0,0,0,0-.51l-2.12-2.12a1.94,1.94,0,0,1-.34-2.3,12.86,12.86,0,0,0,.77-1.83A2,2,0,0,1,32.14,77h3a.39.39,0,0,0,.25-.1.36.36,0,0,0,.11-.26v-4.2a.36.36,0,0,0-.11-.26.39.39,0,0,0-.25-.1H32.39a2,2,0,0,1-1.89-1.45,13.12,13.12,0,0,0-.77-2.1,2,2,0,0,1,.37-2.23L32,64.41a.36.36,0,0,0,0-.52l-2.95-3a.36.36,0,0,0-.52,0l-1.62,1.61a1.93,1.93,0,0,1-2.35.3,13.61,13.61,0,0,0-2.33-1.07,2,2,0,0,1-1.32-1.85V57.79a.34.34,0,0,0-.11-.25.36.36,0,0,0-.26-.11H16.32a.36.36,0,0,0-.26.11.36.36,0,0,0-.11.25v1.87a2,2,0,0,1-1.45,1.89,13.27,13.27,0,0,0-2.57,1,2,2,0,0,1-2.3-.34l-1.3-1.3a.35.35,0,0,0-.51,0l-3,3a.36.36,0,0,0,0,.51l1.31,1.31a2,2,0,0,1,.36,2.27,13.79,13.79,0,0,0-1,2.61,2,2,0,0,1-1.88,1.42H1.68a.36.36,0,0,0-.26.11.35.35,0,0,0-.1.25v4.2a.38.38,0,0,0,.36.36H3.82a2,2,0,0,1,1.85,1.32,13.27,13.27,0,0,0,1.07,2.33A2,2,0,0,1,6.44,83L4.8,84.64a.36.36,0,0,0,0,.51l3,3a.36.36,0,0,0,.51,0l1.89-1.89A2,2,0,0,1,11.54,85.65Z"/></g></g></svg>