<svg xmlns="http://www.w3.org/2000/svg" viewBox="0 0 148.75 119.89"><defs><style>.cls-1{fill:#00c8e3;}.cls-2{fill:#002bdc;}</style></defs><title>Product_design</title><g id="Warstwa_2" data-name="Warstwa 2"><g id="NETWORK"><path class="cls-1" d="M133.36,78.37A14.71,14.71,0,0,0,123,103.53a9.46,9.46,0,0,1,2.76,6.71v1a3.19,3.19,0,0,0,3.19,3.19h8.87a3.19,3.19,0,0,0,3.19-3.19v-1a9.48,9.48,0,0,1,2.76-6.71,14.73,14.73,0,0,0-10.4-25.16Z"/><rect class="cls-2" x="2.5" y="40.71" width="10.47" height="41.55"/><path class="cls-1" d="M109.84,4.58H39.12a2.3,2.3,0,0,0-2.3,2.3V9.39h75.32V6.88A2.3,2.3,0,0,0,109.84,4.58Z"/><path class="cls-1" d="M36.81,57.83a2.58,2.58,0,0,0,2.57,2.58h70.18a2.59,2.59,0,0,0,2.58-2.58V54.77H36.81Z"/><path d="M109.8,61.07H39.15a3,3,0,0,1-3-3V6.91a3,3,0,0,1,3-3H109.8a3,3,0,0,1,3,3V58.08A3,3,0,0,1,109.8,61.07ZM39.15,5.24a1.67,1.67,0,0,0-1.67,1.67V58.08a1.67,1.67,0,0,0,1.67,1.67H109.8a1.68,1.68,0,0,0,1.68-1.67V6.91a1.68,1.68,0,0,0-1.68-1.67Z"/><path d="M49.8,5a.66.66,0,0,1-.65-.66V1.75a.44.44,0,0,0-.44-.43H45a.43.43,0,0,0-.43.43V4.33a.66.66,0,1,1-1.32,0V1.75A1.76,1.76,0,0,1,45,0h3.75a1.75,1.75,0,0,1,1.75,1.75V4.38A.66.66,0,0,1,49.8,5Z"/><path d="M49,79.41H44.65A1.45,1.45,0,0,1,43.21,78V60.59a.66.66,0,0,1,1.32,0V78a.12.12,0,0,0,.12.12H49a.12.12,0,0,0,.13-.12V60.59a.66.66,0,1,1,1.31,0V78A1.44,1.44,0,0,1,49,79.41Z"/><path d="M104.3,79.41H99.93A1.45,1.45,0,0,1,98.49,78V60.59a.66.66,0,1,1,1.32,0V78a.12.12,0,0,0,.12.12h4.37a.12.12,0,0,0,.13-.12V60.67a.66.66,0,1,1,1.31,0V78A1.44,1.44,0,0,1,104.3,79.41Z"/><path d="M99.15,5a.67.67,0,0,1-.66-.66V1.75A1.76,1.76,0,0,1,100.25,0H104a1.75,1.75,0,0,1,1.75,1.75V4.33a.66.66,0,1,1-1.31,0V1.75a.44.44,0,0,0-.44-.43h-3.74a.43.43,0,0,0-.44.43V4.38A.67.67,0,0,1,99.15,5Z"/><path d="M99,73.22H49.9a.66.66,0,0,1,0-1.32H99a.66.66,0,1,1,0,1.32Z"/><path d="M99,70.4H49.9a.66.66,0,0,1,0-1.32H99a.66.66,0,0,1,0,1.32Z"/><path d="M93.26,47.35a.66.66,0,0,1-.45-.18L64.64,20.85,37.27,46.37a.66.66,0,0,1-.93,0,.65.65,0,0,1,0-.93L64.19,19.46a.67.67,0,0,1,.9,0L93.71,46.21a.65.65,0,0,1,0,.93A.64.64,0,0,1,93.26,47.35Z"/><path d="M87.33,41.42a.65.65,0,0,1-.49-.23.66.66,0,0,1,.06-.93l12.42-10.8a.65.65,0,0,1,.86,0l11.84,10a.66.66,0,1,1-.84,1l-11.42-9.6-12,10.43A.67.67,0,0,1,87.33,41.42Z"/><path d="M86.22,24.68a5.57,5.57,0,1,1,5.57-5.57A5.58,5.58,0,0,1,86.22,24.68Zm0-9.82a4.26,4.26,0,1,0,4.25,4.25A4.25,4.25,0,0,0,86.22,14.86Z"/><path d="M100.45,10.05H36.81a.66.66,0,1,1,0-1.32h63.64a.66.66,0,0,1,0,1.32Z"/><path d="M111.65,10.05h-3.1a.66.66,0,1,1,0-1.32h3.1a.66.66,0,0,1,0,1.32Z"/><path d="M100.45,55.43H36.81a.66.66,0,1,1,0-1.32h63.64a.66.66,0,0,1,0,1.32Z"/><path d="M111.65,55.43h-3.1a.66.66,0,0,1,0-1.32h3.1a.66.66,0,0,1,0,1.32Z"/><path d="M7.82,93.22a1.85,1.85,0,0,1-1.7-1.1l-4.05-9a4.35,4.35,0,0,1-.37-1.74V40.71a.66.66,0,0,1,.66-.66H13.28a.66.66,0,0,1,.66.66V81.39a4.35,4.35,0,0,1-.37,1.74l-4.05,9A1.85,1.85,0,0,1,7.82,93.22ZM3,41.37v40a2.76,2.76,0,0,0,.26,1.2l4,9a.55.55,0,0,0,1,0l4-9a2.91,2.91,0,0,0,.26-1.2v-40Z"/><path d="M13.14,41.37H2.5A2.49,2.49,0,0,1,0,38.87V27.2A2.49,2.49,0,0,1,2.5,24.71H13.14a2.5,2.5,0,0,1,2.49,2.49V38.87A2.5,2.5,0,0,1,13.14,41.37ZM2.5,26A1.17,1.17,0,0,0,1.32,27.2V38.87A1.18,1.18,0,0,0,2.5,40.05H13.14a1.18,1.18,0,0,0,1.18-1.18V27.2A1.17,1.17,0,0,0,13.14,26Z"/><path d="M12.14,82.92H3.29a.66.66,0,0,1,0-1.32h8.85a.66.66,0,1,1,0,1.32Z"/><path d="M9.23,90.64H6.31a.66.66,0,1,1,0-1.32H9.23a.66.66,0,0,1,0,1.32Z"/><path d="M12.81,26h-10a.67.67,0,0,1-.66-.66V20.31a2.14,2.14,0,0,1,2.14-2.14h7a2.14,2.14,0,0,1,2.14,2.14v5.06A.67.67,0,0,1,12.81,26ZM3.49,24.71h8.66v-4.4a.82.82,0,0,0-.82-.82h-7a.82.82,0,0,0-.82.82Z"/><path d="M5.27,48.84a.67.67,0,0,1-.66-.66V40.74a.66.66,0,0,1,1.32,0v7.44A.66.66,0,0,1,5.27,48.84Z"/><path d="M10.36,67.76a.65.65,0,0,1-.66-.66V40.74a.66.66,0,1,1,1.31,0V67.1A.65.65,0,0,1,10.36,67.76Z"/><path d="M10.36,82.35a.65.65,0,0,1-.66-.66V77.93a.66.66,0,1,1,1.31,0v3.76A.65.65,0,0,1,10.36,82.35Z"/><path d="M5.27,82.35a.66.66,0,0,1-.66-.66V69.27a.66.66,0,0,1,1.32,0V81.69A.65.65,0,0,1,5.27,82.35Z"/><path d="M14.69,37.73H12.8a.66.66,0,0,1,0-1.32h1.89a.66.66,0,0,1,0,1.32Z"/><path d="M8.66,37.73h-8a.66.66,0,0,1,0-1.32h8a.66.66,0,1,1,0,1.32Z"/><path d="M8.66,29.54h-8a.66.66,0,0,1,0-1.32h8a.66.66,0,0,1,0,1.32Z"/><path d="M14.31,29.54H12.8a.66.66,0,0,1,0-1.32h1.51a.66.66,0,0,1,0,1.32Z"/><path d="M137.81,115.13h-8.87a3.86,3.86,0,0,1-3.85-3.85v-1a8.86,8.86,0,0,0-2.57-6.24,15.38,15.38,0,1,1,21.7,0,8.85,8.85,0,0,0-2.56,6.24v1A3.86,3.86,0,0,1,137.81,115.13ZM133.36,79a14.06,14.06,0,0,0-9.91,24,10.19,10.19,0,0,1,3,7.18v1a2.53,2.53,0,0,0,2.53,2.53h8.87a2.53,2.53,0,0,0,2.53-2.53v-1a10.18,10.18,0,0,1,2.95-7.17,14.07,14.07,0,0,0-9.93-24Z"/><path d="M135.61,115.11h0a.67.67,0,0,1-.66-.67,51.6,51.6,0,0,1,1.37-11.7,28.91,28.91,0,0,1,2.79-7.25,13.54,13.54,0,0,1-11.47,0,28.59,28.59,0,0,1,2.77,7.22,50.4,50.4,0,0,1,1.37,11.69.66.66,0,0,1-.65.66.67.67,0,0,1-.67-.65c-.08-8.71-2-15.93-5.32-20.33a.66.66,0,0,1,.88-1c4.89,3.11,9.7,3.11,14.7,0a.67.67,0,0,1,.84.11.68.68,0,0,1,0,.85c-3.35,4.4-5.24,11.64-5.33,20.35A.67.67,0,0,1,135.61,115.11Z"/><path d="M136,96.26a.67.67,0,0,1-.66-.66,2,2,0,1,0-3.91,0,.66.66,0,1,1-1.32,0,3.28,3.28,0,1,1,6.55,0A.66.66,0,0,1,136,96.26Z"/><path d="M136.58,119.89h-6.42a2,2,0,0,1-2-2v-3.37a.66.66,0,0,1,1.32,0v3.37a.7.7,0,0,0,.7.7h6.42a.7.7,0,0,0,.69-.7v-3.37a.66.66,0,0,1,1.32,0v3.37A2,2,0,0,1,136.58,119.89Z"/><path d="M137.73,117.56H129a.66.66,0,0,1,0-1.32h8.76a.66.66,0,1,1,0,1.32Z"/><path d="M7.72,17.39a.66.66,0,0,1-.66-.65V15.61a.66.66,0,0,1,1.32,0v1.13A.66.66,0,0,1,7.72,17.39Z"/><path d="M7.72,11.28a.67.67,0,0,1-.66-.66V9.39a.67.67,0,0,1,.66-.66H8.85a.66.66,0,1,1,0,1.32H8.38v.57A.67.67,0,0,1,7.72,11.28Z"/><path d="M26.45,10.05H24.38a.66.66,0,1,1,0-1.32h2.07a.66.66,0,1,1,0,1.32Zm-5.83,0H18.55a.66.66,0,1,1,0-1.32h2.07a.66.66,0,1,1,0,1.32Zm-5.84,0H12.71a.66.66,0,0,1,0-1.32h2.07a.66.66,0,1,1,0,1.32Z"/><path d="M31.54,10.05H30.31a.66.66,0,1,1,0-1.32h1.23a.66.66,0,0,1,0,1.32Z"/><path d="M133.4,75.76a.66.66,0,0,1-.66-.66V74a.66.66,0,0,1,1.32,0V75.1A.66.66,0,0,1,133.4,75.76Z"/><path d="M133.4,70a.67.67,0,0,1-.66-.66V66.82a.66.66,0,0,1,1.32,0v2.54A.67.67,0,0,1,133.4,70Zm0-7.15a.67.67,0,0,1-.66-.66V59.66a.66.66,0,0,1,1.32,0v2.55A.67.67,0,0,1,133.4,62.87Zm0-7.16a.66.66,0,0,1-.66-.66V52.51a.66.66,0,0,1,1.32,0v2.54A.66.66,0,0,1,133.4,55.71Zm0-7.15a.67.67,0,0,1-.66-.66V45.35a.66.66,0,0,1,1.32,0V47.9A.67.67,0,0,1,133.4,48.56Zm0-7.16a.66.66,0,0,1-.66-.66V38.2a.66.66,0,1,1,1.32,0v2.54A.66.66,0,0,1,133.4,41.4Z"/><path d="M133.4,34.34a.67.67,0,0,1-.66-.66v-.56h-.56a.66.66,0,1,1,0-1.32h1.22a.66.66,0,0,1,.66.66v1.22A.67.67,0,0,1,133.4,34.34Z"/><path d="M128.22,33.12H126a.66.66,0,1,1,0-1.32h2.26a.66.66,0,0,1,0,1.32Zm-6.31,0h-2.26a.66.66,0,0,1,0-1.32h2.26a.66.66,0,0,1,0,1.32Z"/><path d="M115.7,33.12h-1.13a.66.66,0,1,1,0-1.32h1.13a.66.66,0,0,1,0,1.32Z"/></g></g></svg>