<svg xmlns="http://www.w3.org/2000/svg" xmlns:xlink="http://www.w3.org/1999/xlink" viewBox="0 0 1000.74 998.72"><defs><style>.cls-1{fill:#cfc7c7;}.cls-2{fill:none;}.cls-3{isolation:isolate;}.cls-4{fill:#e1e1e1;}.cls-5{fill:#eee;}.cls-6{clip-path:url(#clip-path);}.cls-7{clip-path:url(#clip-path-2);}.cls-8{fill:#cec7c7;}.cls-9{fill:#e8e6e6;}.cls-10,.cls-74{fill:#fff;}.cls-11,.cls-12,.cls-120,.cls-121,.cls-122,.cls-131{mix-blend-mode:multiply;}.cls-12{fill:url(#radial-gradient);}.cls-13{fill:#e5e9f4;}.cls-14{fill:#04aebb;}.cls-15{fill:#fafbfd;}.cls-16,.cls-20,.cls-21,.cls-22,.cls-23,.cls-24,.cls-25,.cls-26,.cls-27,.cls-28,.cls-29,.cls-30,.cls-31,.cls-32,.cls-33,.cls-34,.cls-35,.cls-36,.cls-37,.cls-38,.cls-39,.cls-40,.cls-41,.cls-42,.cls-43,.cls-44,.cls-45,.cls-46,.cls-47,.cls-48,.cls-49,.cls-50,.cls-51,.cls-52,.cls-53,.cls-54,.cls-55,.cls-56,.cls-57,.cls-58,.cls-59,.cls-60{fill:#00c8e3;}.cls-17{fill:#002bdc;}.cls-18{fill:#edf0f8;}.cls-19,.cls-69{fill:#48486a;}.cls-19{opacity:0.09;}.cls-20,.cls-74{opacity:0;}.cls-21,.cls-75{opacity:0.02;}.cls-22,.cls-76{opacity:0.05;}.cls-23,.cls-77{opacity:0.07;}.cls-24,.cls-78{opacity:0.1;}.cls-25,.cls-79{opacity:0.12;}.cls-26,.cls-80{opacity:0.15;}.cls-27,.cls-81{opacity:0.17;}.cls-28,.cls-82{opacity:0.2;}.cls-29,.cls-83{opacity:0.22;}.cls-30,.cls-84{opacity:0.24;}.cls-31,.cls-85{opacity:0.27;}.cls-32,.cls-86{opacity:0.29;}.cls-33,.cls-87{opacity:0.32;}.cls-34,.cls-88{opacity:0.34;}.cls-35,.cls-89{opacity:0.37;}.cls-36,.cls-90{opacity:0.39;}.cls-37,.cls-91{opacity:0.41;}.cls-38,.cls-92{opacity:0.44;}.cls-39,.cls-93{opacity:0.46;}.cls-40,.cls-94{opacity:0.49;}.cls-41,.cls-95{opacity:0.51;}.cls-42,.cls-96{opacity:0.54;}.cls-43,.cls-97{opacity:0.56;}.cls-44,.cls-98{opacity:0.59;}.cls-45,.cls-99{opacity:0.61;}.cls-100,.cls-46{opacity:0.63;}.cls-101,.cls-47{opacity:0.66;}.cls-102,.cls-48{opacity:0.68;}.cls-103,.cls-49{opacity:0.71;}.cls-104,.cls-50{opacity:0.73;}.cls-105,.cls-51{opacity:0.76;}.cls-106,.cls-52{opacity:0.78;}.cls-107,.cls-53{opacity:0.8;}.cls-108,.cls-54{opacity:0.83;}.cls-109,.cls-55{opacity:0.85;}.cls-110,.cls-56{opacity:0.88;}.cls-111,.cls-57{opacity:0.9;}.cls-112,.cls-58{opacity:0.93;}.cls-113,.cls-59{opacity:0.95;}.cls-114,.cls-60{opacity:0.98;}.cls-61{fill:url(#linear-gradient);}.cls-62{fill:#f9f7f9;}.cls-63{fill:#ebe9ec;}.cls-64,.cls-65{fill:#d3daed;}.cls-64{opacity:0.35;}.cls-66{fill:#f2b1b5;}.cls-67{fill:url(#Gradient_bez_nazwy_4);}.cls-68{fill:#021658;}.cls-70{fill:#f7d0d3;}.cls-71{fill:url(#linear-gradient-2);}.cls-72{fill:#6d6d88;}.cls-136,.cls-73{fill:#ef9ea3;}.cls-75{fill:#fbfbfb;}.cls-76{fill:#f6f6f8;}.cls-77{fill:#f2f2f4;}.cls-78{fill:#ededf0;}.cls-79{fill:#e9e9ed;}.cls-80{fill:#e4e4e9;}.cls-81{fill:#e0e0e6;}.cls-82{fill:#dbdbe2;}.cls-83{fill:#d7d7de;}.cls-84{fill:#d2d2db;}.cls-85{fill:#ceced7;}.cls-86{fill:#c9c9d3;}.cls-87{fill:#c5c5d0;}.cls-88{fill:#c1c1cc;}.cls-89{fill:#bcbcc8;}.cls-90{fill:#b8b8c5;}.cls-91{fill:#b3b3c1;}.cls-92{fill:#afafbe;}.cls-93{fill:#aaaaba;}.cls-94{fill:#a6a6b6;}.cls-95{fill:#a1a1b3;}.cls-96{fill:#9d9daf;}.cls-97{fill:#9898ab;}.cls-98{fill:#9494a8;}.cls-99{fill:#8f8fa4;}.cls-100{fill:#8b8ba1;}.cls-101{fill:#86869d;}.cls-102{fill:#828299;}.cls-103{fill:#7e7e96;}.cls-104{fill:#797992;}.cls-105{fill:#75758e;}.cls-106{fill:#70708b;}.cls-107{fill:#6c6c87;}.cls-108{fill:#676783;}.cls-109{fill:#636380;}.cls-110{fill:#5e5e7c;}.cls-111{fill:#5a5a79;}.cls-112{fill:#555575;}.cls-113{fill:#515171;}.cls-114{fill:#4c4c6e;}.cls-115{fill:url(#linear-gradient-3);}.cls-116{fill:url(#linear-gradient-4);}.cls-117{fill:#f7f7f7;}.cls-118{opacity:0.2;}.cls-119{fill:#2ec5f6;}.cls-120{fill:url(#radial-gradient-2);}.cls-121{fill:url(#radial-gradient-3);}.cls-122{fill:url(#radial-gradient-4);}.cls-123{fill:#c2cae8;}.cls-124{fill:#d6dcef;}.cls-125{fill:url(#linear-gradient-5);}.cls-126{fill:#99a7d8;}.cls-127{fill:#e6e7e8;}.cls-128{clip-path:url(#clip-path-3);}.cls-129{opacity:0.22;}.cls-130{fill:url(#linear-gradient-6);}.cls-131{opacity:0.4;}.cls-132{fill:url(#linear-gradient-7);}.cls-133{fill:url(#linear-gradient-8);}.cls-134{fill:#363650;}.cls-135{fill:#f5c5c8;}.cls-136{opacity:0.2;}</style><clipPath id="clip-path"><path class="cls-1" d="M999.07,530.3l-.22,77.58c0,13-8.58,26-25.67,35.93l.22-77.57C990.49,556.31,999,543.32,999.07,530.3Z"/></clipPath><clipPath id="clip-path-2"><path class="cls-1" d="M1.67,607.14l.22-77.58C1.85,542.75,10.55,556,28,566l-.22,77.58C10.33,633.53,1.63,620.32,1.67,607.14Z"/></clipPath><radialGradient id="radial-gradient" cx="-6078.34" cy="8588.58" r="37.84" gradientTransform="matrix(-1, 0, 0, 0.52, -5675.8, -3833.35)" gradientUnits="userSpaceOnUse"><stop offset="0.09" stop-color="#48486a"/><stop offset="0.12" stop-color="#505070"/><stop offset="0.35" stop-color="#8d8da3"/><stop offset="0.56" stop-color="#bebeca"/><stop offset="0.75" stop-color="#e2e2e7"/><stop offset="0.9" stop-color="#f7f7f9"/><stop offset="1" stop-color="#fff"/></radialGradient><linearGradient id="linear-gradient" x1="-5996.46" y1="457.09" x2="-5829.18" y2="457.09" gradientTransform="matrix(-1, 0, 0, 1, -5675.8, 0)" gradientUnits="userSpaceOnUse"><stop offset="0" stop-color="#ebe9ec"/><stop offset="1" stop-color="#99a7d8"/></linearGradient><radialGradient id="Gradient_bez_nazwy_4" cx="-282.62" cy="492.85" r="27.65" gradientTransform="translate(537.39) scale(1.18 1)" gradientUnits="userSpaceOnUse"><stop offset="0.09" stop-color="#48486a"/><stop offset="0.36" stop-color="#9090a5" stop-opacity="0.61"/><stop offset="0.63" stop-color="#ccccd6" stop-opacity="0.28"/><stop offset="0.86" stop-color="#f1f1f4" stop-opacity="0.07"/><stop offset="1" stop-color="#fff" stop-opacity="0"/></radialGradient><linearGradient id="linear-gradient-2" x1="-6297.98" y1="630.21" x2="-6130.7" y2="630.21" xlink:href="#linear-gradient"/><linearGradient id="linear-gradient-3" x1="1707.57" y1="605.94" x2="1742.83" y2="605.94" gradientTransform="translate(-1182.29)" xlink:href="#linear-gradient"/><linearGradient id="linear-gradient-4" x1="1684.3" y1="627.45" x2="1741.87" y2="627.45" gradientTransform="translate(-1182.29)" gradientUnits="userSpaceOnUse"><stop offset="0" stop-color="#fff"/><stop offset="1" stop-color="#99a7d8"/></linearGradient><radialGradient id="radial-gradient-2" cx="487.1" cy="8033.46" r="20.8" gradientTransform="matrix(1, -0.01, 0.01, 0.54, 333.63, -3729.75)" gradientUnits="userSpaceOnUse"><stop offset="0.2" stop-color="#48486a"/><stop offset="0.22" stop-color="#505070"/><stop offset="0.43" stop-color="#8d8da3"/><stop offset="0.61" stop-color="#bebeca"/><stop offset="0.78" stop-color="#e2e2e7"/><stop offset="0.91" stop-color="#f7f7f9"/><stop offset="1" stop-color="#fff"/></radialGradient><radialGradient id="radial-gradient-3" cx="460.15" cy="8008.47" r="22.19" xlink:href="#radial-gradient-2"/><radialGradient id="radial-gradient-4" cx="432.93" cy="7980.01" r="20.8" xlink:href="#radial-gradient-2"/><linearGradient id="linear-gradient-5" x1="981.61" y1="464.72" x2="1026.79" y2="464.72" gradientTransform="translate(-240.33)" gradientUnits="userSpaceOnUse"><stop offset="0" stop-color="#d3daed"/><stop offset="1" stop-color="#99a7d8"/></linearGradient><clipPath id="clip-path-3"><polygon class="cls-2" points="752.83 471.51 752.88 453.9 767.87 462.55 767.82 480.16 752.83 471.51"/></clipPath><linearGradient id="linear-gradient-6" x1="556.69" y1="245.34" x2="813.32" y2="245.34" gradientTransform="translate(-91.94)" xlink:href="#linear-gradient"/><linearGradient id="linear-gradient-7" x1="-6276.91" y1="320.69" x2="-6139.77" y2="320.69" gradientTransform="matrix(-1, 0, 0, 1, -5675.8, 0)" gradientUnits="userSpaceOnUse"><stop offset="0" stop-color="#99a7d8"/><stop offset="1" stop-color="#ebe9ec"/></linearGradient><linearGradient id="linear-gradient-8" x1="-6481.08" y1="338.21" x2="-6343.93" y2="338.21" xlink:href="#linear-gradient-7"/></defs><title>illustration_01</title><g class="cls-3"><g id="Warstwa_2" data-name="Warstwa 2"><g id="Warstwa_37" data-name="Warstwa 37"><path class="cls-4" d="M971.46,677c35.95,20.47,36.15,53.68.44,74.15L566.79,983.37c-35.71,20.47-93.82,20.46-129.76,0L29.29,751.13c-36-20.48-36.16-53.67-.44-74.15L434,444.75c35.72-20.47,93.8-20.48,129.77,0Z"/><path class="cls-5" d="M971.46,570.23c35.95,20.48,36.15,53.68.44,74.15L566.79,876.62c-35.71,20.47-93.82,20.46-129.76,0L29.29,644.39c-36-20.49-36.16-53.68-.44-74.15L434,338c35.72-20.47,93.8-20.47,129.77,0Z"/><path class="cls-1" d="M999.07,530.3l-.22,77.58c0,13-8.58,26-25.67,35.93l.22-77.57C990.49,556.31,999,543.32,999.07,530.3Z"/><g class="cls-6"><path class="cls-1" d="M999.07,530.3l-.22,77.58c0,13-8.58,26-25.67,35.93l.22-77.57c17.09-9.93,25.64-22.92,25.67-35.94"/></g><path class="cls-1" d="M1.67,607.14l.22-77.58C1.85,542.75,10.55,556,28,566l-.22,77.58C10.33,633.53,1.63,620.32,1.67,607.14Z"/><g class="cls-7"><path class="cls-1" d="M28,566l-.22,77.58c-8.64-5-15.14-10.76-19.49-16.9l.22-77.58C12.85,555.27,19.35,561,28,566"/><path class="cls-1" d="M8.5,549.12,8.28,626.7a33.5,33.5,0,0,1-6.61-19.56l.22-77.58A33.5,33.5,0,0,0,8.5,549.12"/></g><polygon class="cls-1" points="973.4 566.24 973.18 643.81 565.82 882.82 566.04 805.24 973.4 566.24"/><polygon class="cls-8" points="440.95 805.24 440.73 882.82 27.77 643.6 28.1 566.96 440.95 805.24"/><path class="cls-9" d="M502,816.51c-24.7,0-48-5.51-65.53-15.5L28.75,568.78C10.94,558.64,1.12,545.09,1.1,530.62s9.64-27.82,27.21-37.89L433.41,260.5c17.43-10,40.63-15.5,65.32-15.5s48,5.51,65.53,15.51L972,492.73c17.81,10.14,27.63,23.69,27.65,38.16s-9.65,27.82-27.21,37.89L567.34,801C549.91,811,526.71,816.51,502,816.51Z"/><path class="cls-9" d="M498.73,246.09c23.49,0,47,5.12,65,15.37L971.46,493.68c35.95,20.47,36.15,53.67.44,74.15L566.79,800.06c-17.85,10.24-41.3,15.36-64.78,15.36s-47-5.13-65-15.37L29.29,567.83c-36-20.48-36.16-53.67-.44-74.15L434,261.45c17.86-10.24,41.31-15.36,64.78-15.36m0-2.19c-24.87,0-48.27,5.56-65.87,15.65L27.76,491.78C9.84,502.06,0,515.85,0,530.62s10,28.77,28.21,39.12L435.94,802c17.72,10.09,41.18,15.64,66.07,15.64s48.28-5.55,65.87-15.64L973,569.73c17.91-10.27,27.77-24.07,27.75-38.84s-10-28.77-28.2-39.11L564.8,259.56c-17.72-10.1-41.18-15.66-66.07-15.66Z"/><path class="cls-10" d="M502,807.75c-24.7,0-48-5.5-65.53-15.5L28.75,560C10.94,549.88,1.12,536.33,1.1,521.87S10.74,494.05,28.31,484l405.1-232.24c17.43-10,40.63-15.5,65.32-15.5s48,5.51,65.53,15.51L972,484c17.81,10.14,27.63,23.7,27.65,38.17S990,550,972.44,560L567.34,792.26C549.91,802.25,526.71,807.75,502,807.75Z"/><path class="cls-9" d="M498.73,237.34c23.49,0,47,5.12,65,15.36L971.46,484.92c35.95,20.48,36.15,53.68.44,74.15L566.79,791.31c-17.85,10.23-41.3,15.35-64.78,15.35s-47-5.12-65-15.36L29.29,559.08c-36-20.49-36.16-53.68-.44-74.15L434,252.69c17.86-10.23,41.31-15.35,64.78-15.35m0-2.19c-24.87,0-48.27,5.55-65.87,15.64L27.76,483C9.84,493.3,0,507.1,0,521.87S10,550.63,28.21,561L435.94,793.2c17.72,10.09,41.18,15.65,66.07,15.65s48.28-5.56,65.87-15.64L973,561c17.91-10.27,27.77-24.06,27.75-38.84s-10-28.76-28.2-39.11L564.8,250.8c-17.72-10.09-41.18-15.65-66.07-15.65Z"/><path class="cls-1" d="M565.93,805.25l-.22,77.58c-34.4,20-90.36,20-125,0l.22-76.45c36.1,17.41,91.13,17.41,125-1.12"/><g class="cls-11"><ellipse class="cls-12" cx="402.53" cy="608.67" rx="37.48" ry="21.64"/><path class="cls-13" d="M376.24,600.4h3a19.37,19.37,0,0,1,4.82-3.81c10.43-6,27.5-6,37.93,0a19.37,19.37,0,0,1,4.82,3.81h3v7.08h0c0,4-2.58,8-7.82,11-10.43,6-27.5,6-37.93,0-5.24-3-7.84-7-7.82-11h0Z"/><path class="cls-14" d="M422,596.59a19.37,19.37,0,0,1,4.82,3.81h3v7.08h0c0,4-2.58,8-7.82,11l-.49.27v-7.14l-5.15-17.51A30,30,0,0,1,422,596.59Z"/><path class="cls-15" d="M422,589.45c-10.43-6-27.5-6-37.93,0s-10.43,15.87,0,21.9,27.5,6,37.93,0S432.42,595.47,422,589.45Z"/><path class="cls-16" d="M403,584.93c6.88,0,13.75,1.51,19,4.52,10.43,6,10.43,15.87,0,21.9l-.49.27L403,602.82Z"/><path class="cls-17" d="M429.45,602.82H403V584.93c6.88,0,13.75,1.51,19,4.52C428.27,593.08,430.74,598.09,429.45,602.82Z"/></g><path class="cls-18" d="M326.85,565.86c.3.4.14.87-.4,1.18L323,569a1,1,0,0,0,0,1.83l5.53,3.18a3.5,3.5,0,0,0,3.18,0l3.4-1.95a3,3,0,0,1,2.13-.2c.44.12.88.22,1.33.32.74.16,1.26.55,1.25,1V576c0,.72,1,1.3,2.24,1.3h7.83c1.24,0,2.25-.58,2.25-1.29v-2.79c0-.44.46-.84,1.17-1l1.47-.34a3,3,0,0,1,2.05.23l3.42,2a3.53,3.53,0,0,0,3.18,0l5.54-3.18c.88-.51.88-1.33,0-1.83l-3.39-2c-.56-.32-.68-.81-.35-1.23.2-.25.38-.5.55-.76a2.14,2.14,0,0,1,1.76-.72h4.81c1.24,0,2.25-.57,2.25-1.29l0-4.5c0-.71-1-1.29-2.24-1.3h-4.85a2.13,2.13,0,0,1-1.73-.68c-.17-.26-.38-.57-.59-.85s-.14-.87.4-1.18l3.43-2a1,1,0,0,0,0-1.83l-5.52-3.19a3.53,3.53,0,0,0-3.18,0L357,549.54a3,3,0,0,1-2.13.2c-.46-.12-.92-.23-1.39-.33-.75-.16-1.26-.56-1.26-1v-2.77c0-.71-1-1.29-2.25-1.29h-7.82c-1.24,0-2.25.58-2.25,1.29v2.79c0,.44-.46.84-1.18,1l-1.47.34a2.92,2.92,0,0,1-2-.22l-3.42-2a3.5,3.5,0,0,0-3.18,0l-5.54,3.18a1,1,0,0,0,0,1.83l3.39,1.95c.57.33.69.81.35,1.23-.19.25-.38.51-.55.76a2.11,2.11,0,0,1-1.75.73h-4.81c-1.24,0-2.25.58-2.25,1.3V563c0,.71,1,1.29,2.24,1.29h6.14S326.35,565.19,326.85,565.86Zm23.19.89c-6.44,1.43-13.61-.82-14.91-4.8-1-3,2-6,6.91-7.1,6.44-1.43,13.61.82,14.91,4.8C357.92,562.62,354.94,565.67,350,566.75Z"/><path class="cls-19" d="M200.85,462.5c7.35-4.24,19.37-4.24,26.72,0l87.57,50.56c7.35,4.24,7.42,11.3.15,15.68l-40.64,24.53c-7.27,4.38-19.22,4.51-26.57.27l-89.22-51.38c-7.35-4.23-7.35-11.17,0-15.41Z"/><path class="cls-20" d="M207.31,466.7c6-3.49,15.91-3.49,21.95,0l71.93,41.53c6,3.48,6.1,9.28.13,12.88l-33.39,20.15c-6,3.6-15.79,3.7-21.83.22l-73.29-42.21c-6-3.47-6-9.17,0-12.65Z"/><path class="cls-21" d="M246.1,540.6l-73.29-42.21c-6-3.47-6-9.17,0-12.65l34.5-19.93c6-3.48,15.91-3.48,21.95,0l71.93,41.54c6,3.48,6.1,9.28.13,12.88l-33.39,20.15C262,544,252.14,544.08,246.1,540.6Z"/><path class="cls-22" d="M246.1,539.72l-73.29-42.21c-6-3.48-6-9.17,0-12.66l34.5-19.92c6-3.48,15.91-3.48,21.95,0l71.93,41.54c6,3.48,6.1,9.28.13,12.88L267.93,539.5C262,543.1,252.14,543.2,246.1,539.72Z"/><path class="cls-23" d="M246.1,538.84l-73.29-42.21c-6-3.48-6-9.17,0-12.66l34.5-19.92c6-3.48,15.91-3.48,21.95,0l71.93,41.54c6,3.48,6.1,9.28.13,12.88l-33.39,20.15C262,542.22,252.14,542.32,246.1,538.84Z"/><path class="cls-24" d="M246.1,538l-73.29-42.21c-6-3.48-6-9.17,0-12.66l34.5-19.92c6-3.48,15.91-3.48,21.95,0l71.93,41.54c6,3.48,6.1,9.28.13,12.88l-33.39,20.15C262,541.34,252.14,541.44,246.1,538Z"/><path class="cls-25" d="M246.1,537.08l-73.29-42.21c-6-3.48-6-9.17,0-12.66l34.5-19.92c6-3.48,15.91-3.48,21.95,0l71.93,41.53c6,3.49,6.1,9.28.13,12.88l-33.39,20.15C262,540.45,252.14,540.55,246.1,537.08Z"/><path class="cls-26" d="M246.1,536.2,172.81,494c-6-3.48-6-9.18,0-12.66l34.5-19.92c6-3.49,15.91-3.49,21.95,0l71.93,41.53c6,3.49,6.1,9.28.13,12.88L267.93,536C262,539.57,252.14,539.67,246.1,536.2Z"/><path class="cls-27" d="M246.1,535.31l-73.29-42.2c-6-3.48-6-9.18,0-12.66l34.5-19.92c6-3.49,15.91-3.49,21.95,0l71.93,41.53c6,3.49,6.1,9.28.13,12.88l-33.39,20.15C262,538.69,252.14,538.79,246.1,535.31Z"/><path class="cls-28" d="M246.1,534.43l-73.29-42.2c-6-3.48-6-9.18,0-12.66l34.5-19.92c6-3.49,15.91-3.49,21.95,0l71.93,41.53c6,3.49,6.1,9.28.13,12.88l-33.39,20.15C262,537.81,252.14,537.91,246.1,534.43Z"/><path class="cls-29" d="M246.1,533.55l-73.29-42.21c-6-3.47-6-9.17,0-12.65l34.5-19.92c6-3.49,15.91-3.49,21.95,0l71.93,41.53c6,3.48,6.1,9.28.13,12.88l-33.39,20.15C262,536.93,252.14,537,246.1,533.55Z"/><path class="cls-30" d="M246.1,532.67l-73.29-42.21c-6-3.47-6-9.17,0-12.65l34.5-19.93c6-3.48,15.91-3.48,21.95,0l71.93,41.54c6,3.48,6.1,9.28.13,12.88l-33.39,20.15C262,536.05,252.14,536.15,246.1,532.67Z"/><path class="cls-31" d="M246.1,531.79l-73.29-42.21c-6-3.48-6-9.17,0-12.66L207.31,457c6-3.48,15.91-3.48,21.95,0l71.93,41.54c6,3.48,6.1,9.28.13,12.88l-33.39,20.15C262,535.17,252.14,535.27,246.1,531.79Z"/><path class="cls-32" d="M246.1,530.91,172.81,488.7c-6-3.48-6-9.17,0-12.66l34.5-19.92c6-3.48,15.91-3.48,21.95,0l71.93,41.54c6,3.48,6.1,9.28.13,12.88l-33.39,20.15C262,534.29,252.14,534.39,246.1,530.91Z"/><path class="cls-33" d="M246.1,530l-73.29-42.21c-6-3.48-6-9.17,0-12.66l34.5-19.92c6-3.48,15.91-3.48,21.95,0l71.93,41.54c6,3.48,6.1,9.28.13,12.88L267.93,529.8C262,533.4,252.14,533.51,246.1,530Z"/><path class="cls-34" d="M246.1,529.15l-73.29-42.21c-6-3.48-6-9.18,0-12.66l34.5-19.92c6-3.48,15.91-3.48,21.95,0l71.93,41.53c6,3.49,6.1,9.28.13,12.88l-33.39,20.15C262,532.52,252.14,532.62,246.1,529.15Z"/><path class="cls-35" d="M246.1,528.27l-73.29-42.21c-6-3.48-6-9.18,0-12.66l34.5-19.92c6-3.49,15.91-3.49,21.95,0L301.19,495c6,3.49,6.1,9.28.13,12.88L267.93,528C262,531.64,252.14,531.74,246.1,528.27Z"/><path class="cls-36" d="M246.1,527.38l-73.29-42.2c-6-3.48-6-9.18,0-12.66l34.5-19.92c6-3.49,15.91-3.49,21.95,0l71.93,41.53c6,3.49,6.1,9.28.13,12.88l-33.39,20.15C262,530.76,252.14,530.86,246.1,527.38Z"/><path class="cls-37" d="M246.1,526.5l-73.29-42.21c-6-3.47-6-9.17,0-12.65l34.5-19.92c6-3.49,15.91-3.49,21.95,0l71.93,41.53c6,3.48,6.1,9.28.13,12.88l-33.39,20.15C262,529.88,252.14,530,246.1,526.5Z"/><path class="cls-38" d="M246.1,525.62l-73.29-42.21c-6-3.47-6-9.17,0-12.65l34.5-19.92c6-3.49,15.91-3.49,21.95,0l71.93,41.53c6,3.48,6.1,9.28.13,12.88L267.93,525.4C262,529,252.14,529.1,246.1,525.62Z"/><path class="cls-39" d="M246.1,524.74l-73.29-42.21c-6-3.48-6-9.17,0-12.66L207.31,450c6-3.48,15.91-3.48,21.95,0l71.93,41.54c6,3.48,6.1,9.28.13,12.88l-33.39,20.15C262,528.12,252.14,528.22,246.1,524.74Z"/><path class="cls-40" d="M246.1,523.86l-73.29-42.21c-6-3.48-6-9.17,0-12.66l34.5-19.92c6-3.48,15.91-3.48,21.95,0l71.93,41.54c6,3.48,6.1,9.28.13,12.88l-33.39,20.15C262,527.24,252.14,527.34,246.1,523.86Z"/><path class="cls-41" d="M246.1,523l-73.29-42.21c-6-3.48-6-9.17,0-12.66l34.5-19.92c6-3.48,15.91-3.48,21.95,0l71.93,41.54c6,3.48,6.1,9.28.13,12.88l-33.39,20.15C262,526.36,252.14,526.46,246.1,523Z"/><path class="cls-42" d="M246.1,522.1l-73.29-42.21c-6-3.48-6-9.17,0-12.66l34.5-19.92c6-3.48,15.91-3.48,21.95,0l71.93,41.53c6,3.49,6.1,9.29.13,12.89l-33.39,20.14C262,525.47,252.14,525.57,246.1,522.1Z"/><path class="cls-43" d="M246.1,521.22,172.81,479c-6-3.48-6-9.18,0-12.66l34.5-19.92c6-3.48,15.91-3.48,21.95,0L301.19,488c6,3.49,6.1,9.28.13,12.88L267.93,521C262,524.59,252.14,524.69,246.1,521.22Z"/><path class="cls-44" d="M246.1,520.33l-73.29-42.2c-6-3.48-6-9.18,0-12.66l34.5-19.92c6-3.49,15.91-3.49,21.95,0l71.93,41.53c6,3.49,6.1,9.28.13,12.88l-33.39,20.15C262,523.71,252.14,523.81,246.1,520.33Z"/><path class="cls-45" d="M246.1,519.45l-73.29-42.2c-6-3.48-6-9.18,0-12.66l34.5-19.92c6-3.49,15.91-3.49,21.95,0l71.93,41.53c6,3.49,6.1,9.28.13,12.88l-33.39,20.15C262,522.83,252.14,522.93,246.1,519.45Z"/><path class="cls-46" d="M246.1,518.57l-73.29-42.21c-6-3.47-6-9.17,0-12.65l34.5-19.92c6-3.49,15.91-3.49,21.95,0l71.93,41.53c6,3.48,6.1,9.28.13,12.88l-33.39,20.15C262,522,252.14,522.05,246.1,518.57Z"/><path class="cls-47" d="M246.1,517.69l-73.29-42.21c-6-3.47-6-9.17,0-12.65l34.5-19.93c6-3.48,15.91-3.48,21.95,0l71.93,41.54c6,3.48,6.1,9.28.13,12.88l-33.39,20.15C262,521.07,252.14,521.17,246.1,517.69Z"/><path class="cls-48" d="M246.1,516.81,172.81,474.6c-6-3.48-6-9.17,0-12.66L207.31,442c6-3.48,15.91-3.48,21.95,0l71.93,41.54c6,3.48,6.1,9.28.13,12.88l-33.39,20.15C262,520.19,252.14,520.29,246.1,516.81Z"/><path class="cls-49" d="M246.1,515.93l-73.29-42.21c-6-3.48-6-9.17,0-12.66l34.5-19.92c6-3.48,15.91-3.48,21.95,0l71.93,41.54c6,3.48,6.1,9.28.13,12.88l-33.39,20.15C262,519.31,252.14,519.41,246.1,515.93Z"/><path class="cls-50" d="M246.1,515.05l-73.29-42.21c-6-3.48-6-9.17,0-12.66l34.5-19.92c6-3.48,15.91-3.48,21.95,0l71.93,41.54c6,3.48,6.1,9.28.13,12.88l-33.39,20.15C262,518.43,252.14,518.53,246.1,515.05Z"/><path class="cls-51" d="M246.1,514.17,172.81,472c-6-3.48-6-9.17,0-12.66l34.5-19.92c6-3.48,15.91-3.48,21.95,0l71.93,41.53c6,3.49,6.1,9.28.13,12.88l-33.39,20.15C262,517.54,252.14,517.64,246.1,514.17Z"/><path class="cls-52" d="M246.1,513.29l-73.29-42.21c-6-3.48-6-9.18,0-12.66l34.5-19.92c6-3.49,15.91-3.49,21.95,0L301.19,480c6,3.49,6.1,9.28.13,12.88l-33.39,20.15C262,516.66,252.14,516.76,246.1,513.29Z"/><path class="cls-53" d="M246.1,512.4l-73.29-42.2c-6-3.48-6-9.18,0-12.66l34.5-19.92c6-3.49,15.91-3.49,21.95,0l71.93,41.53c6,3.49,6.1,9.28.13,12.88l-33.39,20.15C262,515.78,252.14,515.88,246.1,512.4Z"/><path class="cls-54" d="M246.1,511.52l-73.29-42.2c-6-3.48-6-9.18,0-12.66l34.5-19.92c6-3.49,15.91-3.49,21.95,0l71.93,41.53c6,3.49,6.1,9.28.13,12.88L267.93,511.3C262,514.9,252.14,515,246.1,511.52Z"/><path class="cls-55" d="M246.1,510.64l-73.29-42.21c-6-3.47-6-9.17,0-12.65l34.5-19.92c6-3.49,15.91-3.49,21.95,0l71.93,41.53c6,3.48,6.1,9.28.13,12.88l-33.39,20.15C262,514,252.14,514.12,246.1,510.64Z"/><path class="cls-56" d="M246.1,509.76l-73.29-42.21c-6-3.47-6-9.17,0-12.65L207.31,435c6-3.48,15.91-3.48,21.95,0l71.93,41.54c6,3.48,6.1,9.28.13,12.88l-33.39,20.15C262,513.14,252.14,513.24,246.1,509.76Z"/><path class="cls-57" d="M246.1,508.88l-73.29-42.21c-6-3.48-6-9.17,0-12.66l34.5-19.92c6-3.48,15.91-3.48,21.95,0l71.93,41.54c6,3.48,6.1,9.28.13,12.88l-33.39,20.15C262,512.26,252.14,512.36,246.1,508.88Z"/><path class="cls-58" d="M246.1,508l-73.29-42.21c-6-3.48-6-9.17,0-12.66l34.5-19.92c6-3.48,15.91-3.48,21.95,0l71.93,41.54c6,3.48,6.1,9.28.13,12.88l-33.39,20.15C262,511.38,252.14,511.48,246.1,508Z"/><path class="cls-59" d="M246.1,507.12l-73.29-42.21c-6-3.48-6-9.17,0-12.66l34.5-19.92c6-3.48,15.91-3.48,21.95,0l71.93,41.54c6,3.48,6.1,9.28.13,12.88l-33.39,20.14C262,510.49,252.14,510.6,246.1,507.12Z"/><path class="cls-60" d="M246.1,506.24,172.81,464c-6-3.48-6-9.18,0-12.66l34.5-19.92c6-3.48,15.91-3.48,21.95,0L301.19,473c6,3.49,6.1,9.28.13,12.88L267.93,506C262,509.61,252.14,509.71,246.1,506.24Z"/><path class="cls-16" d="M207.31,430.57c6-3.49,15.91-3.49,21.95,0l71.93,41.53c6,3.49,6.1,9.28.13,12.88l-33.39,20.15c-6,3.6-15.79,3.7-21.83.23l-73.29-42.21c-6-3.48-6-9.18,0-12.66Z"/><path class="cls-61" d="M200.85,411.61c7.35-4.24,19.37-4.24,26.72,0l93.08,53.07v7.59a4,4,0,0,1-1.93,3.43l-44.07,26.68c-7.27,4.38-19.22,4.5-26.57.27l-91.22-52.53a7,7,0,0,1-3.49-6v-5.62Z"/><path class="cls-62" d="M200.85,407c7.35-4.24,19.37-4.24,26.72,0l87.57,50.56c7.35,4.24,7.42,11.3.15,15.68l-40.64,24.53c-7.27,4.38-19.22,4.5-26.57.27l-89.22-51.38c-7.35-4.23-7.35-11.17,0-15.41Z"/><path class="cls-63" d="M203.21,425.26a13,13,0,0,1,11.77,0l64,36.61c3.23,1.86,3.26,5,.07,6.9L261.1,479.58a12.75,12.75,0,0,1-11.7.12l-64.69-37c-3.24-1.87-3.24-4.92,0-6.79Z"/><path class="cls-64" d="M338.11,413.43c0,3.07-2.16,4.31-4.8,2.74L277.23,383a11,11,0,0,1-4.87-8.44l-.51-46.23c0-3.07,2.11-4.31,4.76-2.76l56.68,33.29a10.8,10.8,0,0,1,4.82,8.41Z"/><path class="cls-64" d="M329.44,427.33c0,3.63-2.55,5.08-5.67,3.24l-66.14-39.19a13,13,0,0,1-5.74-9.95l-.6-54.52c0-3.62,2.49-5.09,5.61-3.25l66.86,39.25a12.8,12.8,0,0,1,5.68,9.93Z"/><path class="cls-64" d="M320.67,445.58c0,4.27-3,6-6.67,3.8L236.2,403.3a15.36,15.36,0,0,1-6.76-11.71l-.7-64.13c-.05-4.27,2.92-6,6.6-3.83L314,369.8a15,15,0,0,1,6.69,11.68Z"/><path class="cls-65" d="M314,369.8l-78.64-46.17c-2.55-1.5-4.76-1.12-5.86.67a5.55,5.55,0,0,1,3.54.88l78.63,46.17A15,15,0,0,1,318.34,383v64.1a7.28,7.28,0,0,1-.2,1.76,4.59,4.59,0,0,1-.57,1.37v0l.05,0h0a1.28,1.28,0,0,0,.28-.07h0c1.67-.42,2.77-2,2.77-4.61v-64.1A15,15,0,0,0,314,369.8Z"/><path class="cls-16" d="M229,350.54c0,.68,3.13,3.44,3.67,4.14,1.16,1.49,2.41,3,3.53,4.49,2.13,2.86,2.78,6.88,4.7,10a16.39,16.39,0,0,0,8,7,28.13,28.13,0,0,0,7.31,1.18,17.7,17.7,0,0,1,7.16,1.76c4.46,2.5,4.91,9.07,6.23,13.48a16.19,16.19,0,0,0,2.67,5.91,15.13,15.13,0,0,0,5.23,3.59,27.37,27.37,0,0,0,5.66,2.18c3.82.88,7.83.27,11.73.71a21.94,21.94,0,0,1,14.83,8.49,62,62,0,0,1,3.47,5.54,78,78,0,0,0,5.87,8.44c1.81,2.28,1.73,3.33,1.66,6.12-.11,4,0,8,0,12,0,4.27-3,6-6.67,3.8L236.2,403.3a15.36,15.36,0,0,1-6.76-11.71Z"/><path class="cls-66" d="M195,425.34h0a3.07,3.07,0,0,0,3.07-3.07V408.09h-6.14v14.18A3.06,3.06,0,0,0,195,425.34Z"/><polygon class="cls-67" points="174.41 462.82 233.49 491.66 232.44 522.88 178.38 495.24 174.41 462.82"/><path class="cls-68" d="M207.83,590.23l4.77-2.79v-2.15l5-.71,11.2-6.49a3.81,3.81,0,0,0-.61-6.88h0a8.41,8.41,0,0,0-6.56.35L213,575.75,201,580.13l.24,4.36a6.09,6.09,0,0,0,6.08,5.74Z"/><path class="cls-69" d="M206,588.84h.47l4.77-2.8V583.9l4.95-.72,11.2-6.49a3.77,3.77,0,0,0,1.38-5.16,3.79,3.79,0,0,1,0,6.56l-11.2,6.49-5,.71v2.15l-4.77,2.79h-.47a6.09,6.09,0,0,1-5-2.58A6,6,0,0,0,206,588.84Z"/><path class="cls-68" d="M189.56,577.73l4.77-2.79v-2.15l4.95-.71,11.2-6.49a3.8,3.8,0,0,0-.61-6.87h0a8.4,8.4,0,0,0-6.56.34l-8.61,4.19-11.94,4.39L183,572a6.09,6.09,0,0,0,6.08,5.74Z"/><path class="cls-69" d="M187.69,576.34h.47l4.77-2.79V571.4l5-.71,11.2-6.49a3.78,3.78,0,0,0,1.37-5.16,3.78,3.78,0,0,1,0,6.55l-11.2,6.49-4.95.71v2.15l-4.77,2.79h-.47a6.05,6.05,0,0,1-5-2.58A6,6,0,0,0,187.69,576.34Z"/><path class="cls-17" d="M189,572c3.47,0,6.27-1.42,6.27-4.88l3.49-92.92c0-3.47-6.29-6.27-9.76-6.27a6.27,6.27,0,0,0-6.27,6.27v92.92C182.76,570.62,185.57,572,189,572Z"/><path class="cls-17" d="M206.88,582.72c3.24,0,6-.39,6.25-3.68l3.52-54.36,0-.46-3.49-50.93a6.25,6.25,0,0,0-6.69-5.83c-3.45.24-14.77,3.32-14.53,6.78l10.53,50.45L200.62,578c-.28,3.45,2.3,4.39,5.75,4.66A4.35,4.35,0,0,0,206.88,582.72Z"/><path class="cls-14" d="M223.05,438.38a4.41,4.41,0,0,1-.52.45v0a4.84,4.84,0,0,1-2.42.93c-.9.12-1.8.17-2.7.22-14.72.5-22.77.73-29-12.81a4.88,4.88,0,0,1,8.85-4.1c4.86,10.57,10.25,8.26,21.8,7a4.77,4.77,0,0,1,2.58.4,4.89,4.89,0,0,1,2.8,3.9,3.91,3.91,0,0,1-.1,1.53A4.67,4.67,0,0,1,223.05,438.38Z"/><path class="cls-16" d="M182.19,424c.86-5.95,6.42-9.83,11.7-7h0q.86.49,1.68,1c15.16,9.67,18.61,22.26,18.61,35.86l-.28,11.5L216,494.87a14.51,14.51,0,0,1-8.66,2.05c-.31,0-2-9.79-2.32-9.82-.75-.06-1.52,9.6-2.29,9.47-8.87-1.54-17.17-5.24-20.53-11.88l1-34.68S180.77,433.86,182.19,424Z"/><path class="cls-66" d="M199.7,391h6.57a0,0,0,0,1,0,0v26.48a0,0,0,0,1,0,0H187.73a0,0,0,0,1,0,0V402.94A12,12,0,0,1,199.7,391Z" transform="translate(394 808.41) rotate(-180)"/><path class="cls-70" d="M204.53,406.52V391h1.74v15.55a10.92,10.92,0,0,1-10.93,10.92h-1.73A10.92,10.92,0,0,0,204.53,406.52Z"/><path d="M181.67,404.59c0-.69.05-1.38,0-2.07a49.05,49.05,0,0,1,.13-8c.5-3.34,2.19-6.77,5.26-8.16a14.31,14.31,0,0,1,6-.82l12.34.08c1.81,0,3.79.07,5.34,1.11,2.91,2,1.48,5.73-.27,8a10.15,10.15,0,0,1-3.51,3c-1.34.64-3.61.1-4.48,1.46-1.19,1.87,1.07,7.83-1.54,8.56-2,.56-1.75-1.53-2.07-2.69a1.85,1.85,0,0,0-1.51-1.5c-1-.05-1.58,1-1.75,1.93-.35,1.85.19,3.73.42,5.6s.05,4-1.37,5.24a5.36,5.36,0,0,1-1.77,1c-1.86.68-5.27,1.5-7,.15-2.43-1.92-4-3.88-4.28-7.06A45.65,45.65,0,0,1,181.67,404.59Z"/><path class="cls-66" d="M253.37,455.54l-2.89.16.85-.84a1.41,1.41,0,0,0,0-2,1.38,1.38,0,0,0-1-.41,1.44,1.44,0,0,0-1,.39l-2.78,2.67a1,1,0,0,0-.18.22.22.22,0,0,0-.06.13h.24a4.61,4.61,0,0,1,1.73,1.8,5,5,0,0,1,.61,2,4.86,4.86,0,0,1-2.39,4.56l7.2-.38a4.18,4.18,0,1,0-.41-8.34Z"/><path class="cls-14" d="M246.45,455.76a.22.22,0,0,0-.06.13h.24A.83.83,0,0,0,246.45,455.76Z"/><path class="cls-16" d="M249,459.7a4.86,4.86,0,0,1-2.39,4.56,4.92,4.92,0,0,1-2.12.65l-5.74.44c-.92.07-1.81.09-2.73.09a36.71,36.71,0,0,1-33.89-22.55l-2.87-6.83a4.88,4.88,0,0,1,9-3.79l2.87,6.83A27,27,0,0,0,238,455.61l5.76-.42a4.73,4.73,0,0,1,2.69.57.22.22,0,0,0-.06.13h.24a4.61,4.61,0,0,1,1.73,1.8A5,5,0,0,1,249,459.7Z"/><path class="cls-66" d="M229.44,438.33l-.86-.45,1.17-.13a4.19,4.19,0,0,0-.89-8.33l-7.24.78a4.94,4.94,0,0,1,2.8,3.91,3.86,3.86,0,0,1-.1,1.52,4.71,4.71,0,0,1-1.29,2.45,4.41,4.41,0,0,1-.52.45l1.14-.11,4.49,2.36a1.38,1.38,0,0,0,1.87-.59l.05-.13A1.35,1.35,0,0,0,229.44,438.33Z"/><path class="cls-20" d="M508.83,639.82c6-3.48,15.91-3.48,21.95,0l71.93,41.54c6,3.48,6.1,9.28.13,12.88l-33.39,20.15c-6,3.6-15.79,3.7-21.83.22L474.33,672.4c-6-3.48-6-9.17,0-12.66Z"/><path class="cls-21" d="M547.62,713.73l-73.29-42.21c-6-3.48-6-9.17,0-12.66l34.5-19.92c6-3.48,15.91-3.48,21.95,0l71.93,41.54c6,3.48,6.1,9.28.13,12.88l-33.39,20.15C563.48,717.11,553.66,717.21,547.62,713.73Z"/><path class="cls-22" d="M547.62,712.85l-73.29-42.21c-6-3.48-6-9.17,0-12.66l34.5-19.92c6-3.48,15.91-3.48,21.95,0l71.93,41.53c6,3.49,6.1,9.29.13,12.89l-33.39,20.14C563.48,716.22,553.66,716.32,547.62,712.85Z"/><path class="cls-23" d="M547.62,712l-73.29-42.21c-6-3.48-6-9.18,0-12.66l34.5-19.92c6-3.48,15.91-3.48,21.95,0l71.93,41.53c6,3.49,6.1,9.28.13,12.88l-33.39,20.15C563.48,715.34,553.66,715.44,547.62,712Z"/><path class="cls-24" d="M547.62,711.09l-73.29-42.21c-6-3.48-6-9.18,0-12.66l34.5-19.92c6-3.49,15.91-3.49,21.95,0l71.93,41.53c6,3.49,6.1,9.28.13,12.88l-33.39,20.15C563.48,714.46,553.66,714.56,547.62,711.09Z"/><path class="cls-25" d="M547.62,710.2,474.33,668c-6-3.48-6-9.18,0-12.66l34.5-19.92c6-3.49,15.91-3.49,21.95,0L602.71,677c6,3.49,6.1,9.28.13,12.88L569.45,710C563.48,713.58,553.66,713.68,547.62,710.2Z"/><path class="cls-26" d="M547.62,709.32l-73.29-42.21c-6-3.47-6-9.17,0-12.65l34.5-19.92c6-3.49,15.91-3.49,21.95,0l71.93,41.53c6,3.48,6.1,9.28.13,12.88L569.45,709.1C563.48,712.7,553.66,712.8,547.62,709.32Z"/><path class="cls-27" d="M547.62,708.44l-73.29-42.21c-6-3.47-6-9.17,0-12.65l34.5-19.92c6-3.49,15.91-3.49,21.95,0l71.93,41.53c6,3.48,6.1,9.28.13,12.88l-33.39,20.15C563.48,711.82,553.66,711.92,547.62,708.44Z"/><path class="cls-28" d="M547.62,707.56l-73.29-42.21c-6-3.48-6-9.17,0-12.66l34.5-19.92c6-3.48,15.91-3.48,21.95,0l71.93,41.54c6,3.48,6.1,9.28.13,12.88l-33.39,20.15C563.48,710.94,553.66,711,547.62,707.56Z"/><path class="cls-29" d="M547.62,706.68l-73.29-42.21c-6-3.48-6-9.17,0-12.66l34.5-19.92c6-3.48,15.91-3.48,21.95,0l71.93,41.54c6,3.48,6.1,9.28.13,12.88l-33.39,20.15C563.48,710.06,553.66,710.16,547.62,706.68Z"/><path class="cls-30" d="M547.62,705.8l-73.29-42.21c-6-3.48-6-9.17,0-12.66L508.83,631c6-3.48,15.91-3.48,21.95,0l71.93,41.54c6,3.48,6.1,9.28.13,12.88l-33.39,20.15C563.48,709.18,553.66,709.28,547.62,705.8Z"/><path class="cls-31" d="M547.62,704.92l-73.29-42.21c-6-3.48-6-9.17,0-12.66l34.5-19.92c6-3.48,15.91-3.48,21.95,0l71.93,41.53c6,3.49,6.1,9.28.13,12.89l-33.39,20.14C563.48,708.29,553.66,708.39,547.62,704.92Z"/><path class="cls-32" d="M547.62,704l-73.29-42.21c-6-3.48-6-9.18,0-12.66l34.5-19.92c6-3.48,15.91-3.48,21.95,0l71.93,41.53c6,3.49,6.1,9.28.13,12.88l-33.39,20.15C563.48,707.41,553.66,707.51,547.62,704Z"/><path class="cls-33" d="M547.62,703.15,474.33,661c-6-3.48-6-9.18,0-12.66l34.5-19.92c6-3.49,15.91-3.49,21.95,0l71.93,41.53c6,3.49,6.1,9.28.13,12.88l-33.39,20.15C563.48,706.53,553.66,706.63,547.62,703.15Z"/><path class="cls-34" d="M547.62,702.27l-73.29-42.2c-6-3.48-6-9.18,0-12.66l34.5-19.92c6-3.49,15.91-3.49,21.95,0L602.71,669c6,3.49,6.1,9.28.13,12.88l-33.39,20.15C563.48,705.65,553.66,705.75,547.62,702.27Z"/><path class="cls-35" d="M547.62,701.39l-73.29-42.21c-6-3.47-6-9.17,0-12.65l34.5-19.92c6-3.49,15.91-3.49,21.95,0l71.93,41.53c6,3.48,6.1,9.28.13,12.88l-33.39,20.15C563.48,704.77,553.66,704.87,547.62,701.39Z"/><path class="cls-36" d="M547.62,700.51,474.33,658.3c-6-3.47-6-9.17,0-12.65l34.5-19.93c6-3.48,15.91-3.48,21.95,0l71.93,41.54c6,3.48,6.1,9.28.13,12.88l-33.39,20.15C563.48,703.89,553.66,704,547.62,700.51Z"/><path class="cls-37" d="M547.62,699.63l-73.29-42.21c-6-3.48-6-9.17,0-12.66l34.5-19.92c6-3.48,15.91-3.48,21.95,0l71.93,41.54c6,3.48,6.1,9.28.13,12.88l-33.39,20.15C563.48,703,553.66,703.11,547.62,699.63Z"/><path class="cls-38" d="M547.62,698.75l-73.29-42.21c-6-3.48-6-9.17,0-12.66L508.83,624c6-3.48,15.91-3.48,21.95,0l71.93,41.54c6,3.48,6.1,9.28.13,12.88l-33.39,20.15C563.48,702.13,553.66,702.23,547.62,698.75Z"/><path class="cls-39" d="M547.62,697.87l-73.29-42.21c-6-3.48-6-9.17,0-12.66l34.5-19.92c6-3.48,15.91-3.48,21.95,0l71.93,41.54c6,3.48,6.1,9.28.13,12.88l-33.39,20.14C563.48,701.25,553.66,701.35,547.62,697.87Z"/><path class="cls-40" d="M547.62,697l-73.29-42.21c-6-3.48-6-9.17,0-12.66l34.5-19.92c6-3.48,15.91-3.48,21.95,0l71.93,41.53c6,3.49,6.1,9.28.13,12.88l-33.39,20.15C563.48,700.36,553.66,700.46,547.62,697Z"/><path class="cls-41" d="M547.62,696.11,474.33,653.9c-6-3.48-6-9.18,0-12.66l34.5-19.92c6-3.49,15.91-3.49,21.95,0l71.93,41.53c6,3.49,6.1,9.28.13,12.88l-33.39,20.15C563.48,699.48,553.66,699.58,547.62,696.11Z"/><path class="cls-42" d="M547.62,695.22,474.33,653c-6-3.48-6-9.18,0-12.66l34.5-19.92c6-3.49,15.91-3.49,21.95,0L602.71,662c6,3.49,6.1,9.28.13,12.88L569.45,695C563.48,698.6,553.66,698.7,547.62,695.22Z"/><path class="cls-43" d="M547.62,694.34l-73.29-42.2c-6-3.48-6-9.18,0-12.66l34.5-19.92c6-3.49,15.91-3.49,21.95,0l71.93,41.53c6,3.48,6.1,9.28.13,12.88l-33.39,20.15C563.48,697.72,553.66,697.82,547.62,694.34Z"/><path class="cls-44" d="M547.62,693.46l-73.29-42.21c-6-3.47-6-9.17,0-12.65l34.5-19.92c6-3.49,15.91-3.49,21.95,0l71.93,41.53c6,3.48,6.1,9.28.13,12.88l-33.39,20.15C563.48,696.84,553.66,696.94,547.62,693.46Z"/><path class="cls-45" d="M547.62,692.58l-73.29-42.21c-6-3.47-6-9.17,0-12.65l34.5-19.93c6-3.48,15.91-3.48,21.95,0l71.93,41.54c6,3.48,6.1,9.28.13,12.88l-33.39,20.15C563.48,696,553.66,696.06,547.62,692.58Z"/><path class="cls-46" d="M547.62,691.7l-73.29-42.21c-6-3.48-6-9.17,0-12.66l34.5-19.92c6-3.48,15.91-3.48,21.95,0l71.93,41.54c6,3.48,6.1,9.28.13,12.88l-33.39,20.15C563.48,695.08,553.66,695.18,547.62,691.7Z"/><path class="cls-47" d="M547.62,690.82l-73.29-42.21c-6-3.48-6-9.17,0-12.66L508.83,616c6-3.48,15.91-3.48,21.95,0l71.93,41.54c6,3.48,6.1,9.28.13,12.88L569.45,690.6C563.48,694.2,553.66,694.3,547.62,690.82Z"/><path class="cls-48" d="M547.62,689.94l-73.29-42.21c-6-3.48-6-9.17,0-12.66l34.5-19.92c6-3.48,15.91-3.48,21.95,0l71.93,41.53c6,3.49,6.1,9.29.13,12.89l-33.39,20.14C563.48,693.31,553.66,693.41,547.62,689.94Z"/><path class="cls-49" d="M547.62,689.06l-73.29-42.21c-6-3.48-6-9.18,0-12.66l34.5-19.92c6-3.48,15.91-3.48,21.95,0l71.93,41.53c6,3.49,6.1,9.28.13,12.88l-33.39,20.15C563.48,692.43,553.66,692.53,547.62,689.06Z"/><path class="cls-50" d="M547.62,688.17,474.33,646c-6-3.48-6-9.18,0-12.66l34.5-19.92c6-3.49,15.91-3.49,21.95,0l71.93,41.53c6,3.49,6.1,9.28.13,12.88L569.45,688C563.48,691.55,553.66,691.65,547.62,688.17Z"/><path class="cls-51" d="M547.62,687.29l-73.29-42.2c-6-3.48-6-9.18,0-12.66l34.5-19.92c6-3.49,15.91-3.49,21.95,0L602.71,654c6,3.49,6.1,9.28.13,12.88l-33.39,20.15C563.48,690.67,553.66,690.77,547.62,687.29Z"/><path class="cls-52" d="M547.62,686.41,474.33,644.2c-6-3.47-6-9.17,0-12.65l34.5-19.92c6-3.49,15.91-3.49,21.95,0l71.93,41.53c6,3.48,6.1,9.28.13,12.88l-33.39,20.15C563.48,689.79,553.66,689.89,547.62,686.41Z"/><path class="cls-53" d="M547.62,685.53l-73.29-42.21c-6-3.47-6-9.17,0-12.65l34.5-19.93c6-3.48,15.91-3.48,21.95,0l71.93,41.54c6,3.48,6.1,9.28.13,12.88l-33.39,20.15C563.48,688.91,553.66,689,547.62,685.53Z"/><path class="cls-54" d="M547.62,684.65l-73.29-42.21c-6-3.48-6-9.17,0-12.66l34.5-19.92c6-3.48,15.91-3.48,21.95,0l71.93,41.54c6,3.48,6.1,9.28.13,12.88l-33.39,20.15C563.48,688,553.66,688.13,547.62,684.65Z"/><path class="cls-55" d="M547.62,683.77l-73.29-42.21c-6-3.48-6-9.17,0-12.66L508.83,609c6-3.48,15.91-3.48,21.95,0l71.93,41.54c6,3.48,6.1,9.28.13,12.88l-33.39,20.15C563.48,687.15,553.66,687.25,547.62,683.77Z"/><path class="cls-56" d="M547.62,682.89l-73.29-42.21c-6-3.48-6-9.17,0-12.66l34.5-19.92c6-3.48,15.91-3.48,21.95,0l71.93,41.54c6,3.48,6.1,9.28.13,12.88l-33.39,20.15C563.48,686.27,553.66,686.37,547.62,682.89Z"/><path class="cls-57" d="M547.62,682,474.33,639.8c-6-3.48-6-9.17,0-12.66l34.5-19.92c6-3.48,15.91-3.48,21.95,0l71.93,41.53c6,3.49,6.1,9.28.13,12.89l-33.39,20.14C563.48,685.38,553.66,685.48,547.62,682Z"/><path class="cls-58" d="M547.62,681.13l-73.29-42.21c-6-3.48-6-9.18,0-12.66l34.5-19.92c6-3.48,15.91-3.48,21.95,0l71.93,41.53c6,3.49,6.1,9.28.13,12.88L569.45,680.9C563.48,684.5,553.66,684.6,547.62,681.13Z"/><path class="cls-59" d="M547.62,680.24,474.33,638c-6-3.48-6-9.18,0-12.66l34.5-19.92c6-3.49,15.91-3.49,21.95,0L602.71,647c6,3.49,6.1,9.28.13,12.88L569.45,680C563.48,683.62,553.66,683.72,547.62,680.24Z"/><path class="cls-60" d="M547.62,679.36l-73.29-42.2c-6-3.48-6-9.18,0-12.66l34.5-19.92c6-3.49,15.91-3.49,21.95,0l71.93,41.53c6,3.49,6.1,9.28.13,12.88l-33.39,20.15C563.48,682.74,553.66,682.84,547.62,679.36Z"/><path class="cls-16" d="M508.83,603.7c6-3.49,15.91-3.49,21.95,0l71.93,41.53c6,3.48,6.1,9.28.13,12.88l-33.39,20.15c-6,3.6-15.79,3.7-21.83.22l-73.29-42.21c-6-3.47-6-9.17,0-12.65Z"/><path class="cls-19" d="M502.37,635.63c7.35-4.24,19.37-4.24,26.72,0l87.57,50.56c7.35,4.24,7.42,11.3.15,15.68L576.17,726.4c-7.27,4.38-19.22,4.5-26.57.27l-89.22-51.38c-7.35-4.23-7.35-11.17,0-15.41Z"/><path class="cls-71" d="M502.37,584.73c7.35-4.24,19.37-4.24,26.72,0l93.08,53.07v7.6a4,4,0,0,1-1.93,3.42L576.17,675.5c-7.27,4.39-19.22,4.51-26.57.27l-91.22-52.52a7,7,0,0,1-3.49-6V611.6Z"/><path class="cls-62" d="M502.37,580.11c7.35-4.24,19.37-4.24,26.72,0l87.57,50.56c7.35,4.24,7.42,11.3.15,15.68l-40.64,24.53c-7.27,4.38-19.22,4.5-26.57.27l-89.22-51.38c-7.35-4.24-7.35-11.17,0-15.41Z"/><path class="cls-64" d="M619.4,498.13l-40.66-23.61a.76.76,0,0,0-1.15.66v49.58a2.27,2.27,0,0,0,1.13,2l40.66,23.61a.76.76,0,0,0,1.15-.66V500.09A2.27,2.27,0,0,0,619.4,498.13Z"/><path class="cls-64" d="M610.2,504.39l-60.46-35.12a1.14,1.14,0,0,0-1.71,1V544a3.36,3.36,0,0,0,1.67,2.9L610.16,582a1.14,1.14,0,0,0,1.71-1V507.29A3.36,3.36,0,0,0,610.2,504.39Z"/><path class="cls-64" d="M602.21,507.69l-82.79-48.08a1.55,1.55,0,0,0-2.33,1.34V561.9a4.62,4.62,0,0,0,2.28,4L602.16,614a1.55,1.55,0,0,0,2.33-1.35V511.66A4.59,4.59,0,0,0,602.21,507.69Z"/><polygon class="cls-72" points="583.43 538.8 583.04 538.8 583.04 602.86 583.43 603.08 583.43 538.8"/><polygon class="cls-72" points="531.05 572.66 531.43 572.88 531.43 517.32 531.05 517.32 531.05 572.66"/><polygon class="cls-72" points="546.76 581.78 547.14 582 547.14 524.9 546.76 524.9 546.76 581.78"/><polygon class="cls-72" points="565.33 592.57 565.71 592.79 565.71 517.32 565.33 517.32 565.33 592.57"/><ellipse class="cls-72" cx="531.24" cy="517.32" rx="0.59" ry="0.78"/><ellipse class="cls-72" cx="546.95" cy="524.9" rx="0.59" ry="0.78"/><ellipse class="cls-72" cx="565.52" cy="517.32" rx="0.59" ry="0.78"/><path class="cls-72" d="M583.82,538.8c0,.43-.26.78-.58.78s-.59-.35-.59-.78.26-.78.59-.78S583.82,538.37,583.82,538.8Z"/><path class="cls-65" d="M602.37,614v-101a4.6,4.6,0,0,0-2.28-4L517.3,461l-.21-.09a1.55,1.55,0,0,1,2.33-1.32l82.79,48.08a4.59,4.59,0,0,1,2.28,4V612.61a1.54,1.54,0,0,1-2.12,1.43Z"/><path class="cls-68" d="M462.75,735.76l3.89-2.28,4.05-2.34,9.14-5.29a3.11,3.11,0,0,0-.5-5.61h0a6.82,6.82,0,0,0-5.35.28l-7,3.42-8.54,3.13a1.76,1.76,0,0,0-1.13,1.73l.13,2.27a5,5,0,0,0,5,4.69Z"/><path class="cls-68" d="M492.91,752.08l4.23-2.47,4.38-2.53,9.91-5.75a3.37,3.37,0,0,0-.53-6.08h0a7.47,7.47,0,0,0-5.81.3l-7.63,3.71-9.26,3.4a1.89,1.89,0,0,0-1.22,1.87l.14,2.47a5.38,5.38,0,0,0,5.38,5.08Z"/><path class="cls-66" d="M471.1,721.92l-1.84.89,15-31.21-5.15-41.94a5.24,5.24,0,0,0-5.82-4.55c-2.86.35-8,3-7.67,5.82l7.91,38.91-14.6,34.81c-1.25,2.6-2.23,5.72.37,7a5.14,5.14,0,0,0,2.25.52,5.22,5.22,0,0,0,3.18-1.14l.29-.17,6.18-3.53A3.08,3.08,0,0,0,471.1,721.92Z"/><path class="cls-66" d="M502,737.07l-4.51,2.19-.6.15V646.29a5.22,5.22,0,0,0-5.22-5.22c-2.89,0-9.7,3.93-9.7,6.82l4.53,48.91,1,45.54a5,5,0,0,0,.12,1.1h0c-.25.31.08.91.65,1.6a5.22,5.22,0,0,0,2.92,2.27l.24.07.47.1a4.23,4.23,0,0,0,.5,0,3.16,3.16,0,0,0,.32,0,4.13,4.13,0,0,0,1.5-.28l.18-.06.3-.14a3.78,3.78,0,0,0,.35-.17l.33-.19,6.7-3.82A3.35,3.35,0,0,0,502,737.07Z"/><path class="cls-73" d="M476,643.54a4.1,4.1,0,0,0,2-.51,4.17,4.17,0,0,0,1.67-5.66L465.91,612.2a6.18,6.18,0,0,1,1.95-8.09l18-12.28a4.18,4.18,0,1,0-4.72-6.89l-18,12.27a14.51,14.51,0,0,0-4.56,19l13.74,25.17A4.16,4.16,0,0,0,476,643.54Z"/><path class="cls-17" d="M500,688.62a14.7,14.7,0,0,1-8.73,2c-.31,0-3.85-.22-4.64-.35-8.93-1.55-17.27-2.14-20.67-8.82l-1.31-16.94a100.19,100.19,0,0,1,3.83-34.35L466,576.6a8,8,0,0,1,9.79-7.77c.68.15-4.2,7.13-3.55,7.48l5.65-6.69c.81.46-3.62,6.5-3.14,7.31s1.59.34,2.55,0c8.42-3,20.93,11.84,20.93,24.14l-3.11,23.82,3.68,23.25Z"/><path class="cls-16" d="M482,639.37a50,50,0,0,1-15.19-2.31c.5-2.29,1.05-4.58,1.71-6.84l-.06-1.43a43.29,43.29,0,0,0,27.28-.07L497,637.1A50,50,0,0,1,482,639.37Z"/><path class="cls-66" d="M532.09,550.85a4.15,4.15,0,0,0-2.23-.33l1.59-4.14a1.16,1.16,0,1,0-2.16-.84l-3.21,8.31s0,.1,0,.15l-3,6.53a47.46,47.46,0,0,1-35.39,27.15l-4.22.71a4.17,4.17,0,0,0,.69,8.29,4,4,0,0,0,.69-.06l4.22-.7A55.85,55.85,0,0,0,530.67,564l3.48-7.63A4.17,4.17,0,0,0,532.09,550.85Z"/><path class="cls-17" d="M484.15,597.73a5.31,5.31,0,0,0,.87-.08l4.21-.7a57.73,57.73,0,0,0,9.53-2.46,5.22,5.22,0,0,0-3.48-9.85,45.94,45.94,0,0,1-7.77,2l-4.22.71a5.22,5.22,0,0,0,.86,10.37Z"/><path class="cls-66" d="M481.93,560.55l.23,16.38c-.59-.84-5.85,1.26-6.4.34s2.91-7.19,2.1-7.65l-.11,0a7.76,7.76,0,0,0-2-.74v-8.28Z"/><path class="cls-66" d="M472.57,570.25l6.2.82c4.56.6,8.77-3.13,8.25-7.71a5,5,0,0,0-.12-.74L483.73,548l-15.27,3.32Z"/><path d="M460.35,586.81a8.77,8.77,0,0,0,1.31-3.28c.24-2.46-1.78-4.56-2.27-7-.73-3.6,1.77-6.89,1.62-10.47-.16-4-1.22-7.26,0-11.27.18-.59.39-1.18.63-1.76,2.14-5.12,7.13-7.7,12.39-8.56a23.48,23.48,0,0,1,6.8-.18,10.56,10.56,0,0,1,3.87,1,3.41,3.41,0,0,1,1.33,1.1,4.41,4.41,0,0,1,.61,2.55c-.2,2-2.75,2.7-3,4.6-.11,1,.52,2,.6,3a7.35,7.35,0,0,1-.62,3.7c-1,2.18-3.06,4-2.95,6.41a30.3,30.3,0,0,0,.69,3.11c.54,3.74-3.38,6.59-2.35,10.37.66,2.43,3.42,4.2,3.16,6.71-.1,1-.71,1.91-.88,2.91-.35,2.06,1.16,4.29.25,6.17-3.12,6.46-13.95,5.34-18.95,2.53a8.27,8.27,0,0,1-3.2-2.8C457.79,593,458.88,589.54,460.35,586.81Z"/><g class="cls-11"><path class="cls-74" d="M522.88,610.79,500,623.86a.75.75,0,0,0,0,1.29l35.6,20.55a2.94,2.94,0,0,0,2.94,0l22.87-13.07a.74.74,0,0,0,0-1.29l-35.6-20.55A2.94,2.94,0,0,0,522.88,610.79Z"/><path class="cls-75" d="M522.93,610.84l-22.77,13a.73.73,0,0,0,0,1.28l35.46,20.47a2.93,2.93,0,0,0,2.92,0l22.78-13a.74.74,0,0,0,0-1.28l-35.46-20.47A2.92,2.92,0,0,0,522.93,610.84Z"/><path class="cls-76" d="M523,610.89l-22.69,13a.73.73,0,0,0,0,1.27l35.32,20.39a2.93,2.93,0,0,0,2.91,0l22.68-13a.74.74,0,0,0,0-1.28L525.9,610.9A2.91,2.91,0,0,0,523,610.89Z"/><path class="cls-77" d="M523,610.94l-22.59,12.91a.73.73,0,0,0,0,1.27l35.17,20.31a2.91,2.91,0,0,0,2.9,0l22.59-12.92a.73.73,0,0,0,0-1.27L525.94,611A2.89,2.89,0,0,0,523,610.94Z"/><path class="cls-78" d="M523.09,611l-22.5,12.86a.73.73,0,0,0,0,1.27l35,20.22a2.9,2.9,0,0,0,2.89,0L561,632.48a.72.72,0,0,0,0-1.26L526,611A2.92,2.92,0,0,0,523.09,611Z"/><path class="cls-79" d="M523.14,611l-22.4,12.81a.73.73,0,0,0,0,1.26l34.89,20.14a2.9,2.9,0,0,0,2.88,0l22.4-12.8a.73.73,0,0,0,0-1.26L526,611A2.9,2.9,0,0,0,523.14,611Z"/><path class="cls-80" d="M523.19,611.09l-22.31,12.75a.73.73,0,0,0,0,1.26l34.74,20.06a2.88,2.88,0,0,0,2.87,0l22.31-12.75a.72.72,0,0,0,0-1.26l-34.74-20.06A2.88,2.88,0,0,0,523.19,611.09Z"/><path class="cls-81" d="M523.25,611.14,501,623.84a.72.72,0,0,0,0,1.25l34.6,20a2.86,2.86,0,0,0,2.86,0l22.22-12.7a.72.72,0,0,0,0-1.25l-34.6-20A2.85,2.85,0,0,0,523.25,611.14Z"/><path class="cls-82" d="M523.3,611.19l-22.13,12.65a.71.71,0,0,0,0,1.24L535.62,645a2.87,2.87,0,0,0,2.85,0l22.13-12.65a.71.71,0,0,0,0-1.24l-34.46-19.9A2.83,2.83,0,0,0,523.3,611.19Z"/><path class="cls-83" d="M523.35,611.24l-22,12.59a.71.71,0,0,0,0,1.24l34.31,19.81a2.85,2.85,0,0,0,2.84,0l22-12.6a.72.72,0,0,0,0-1.24l-34.32-19.81A2.83,2.83,0,0,0,523.35,611.24Z"/><path class="cls-84" d="M523.4,611.29l-21.94,12.54a.72.72,0,0,0,0,1.24l34.17,19.72a2.81,2.81,0,0,0,2.82,0l21.95-12.55a.71.71,0,0,0,0-1.23l-34.17-19.73A2.84,2.84,0,0,0,523.4,611.29Z"/><path class="cls-85" d="M523.46,611.34,501.6,623.83a.71.71,0,0,0,0,1.23l34,19.64a2.8,2.8,0,0,0,2.8,0l21.86-12.49a.71.71,0,0,0,0-1.23l-34-19.65A2.8,2.8,0,0,0,523.46,611.34Z"/><path class="cls-86" d="M523.51,611.38l-21.76,12.44a.71.71,0,0,0,0,1.23l33.89,19.56a2.81,2.81,0,0,0,2.79,0l21.77-12.44a.71.71,0,0,0,0-1.23l-33.88-19.56A2.83,2.83,0,0,0,523.51,611.38Z"/><path class="cls-87" d="M523.56,611.43l-21.67,12.39a.7.7,0,0,0,0,1.22l33.74,19.48a2.79,2.79,0,0,0,2.78,0l21.67-12.39a.7.7,0,0,0,0-1.22l-33.74-19.48A2.81,2.81,0,0,0,523.56,611.43Z"/><path class="cls-88" d="M523.61,611.48,502,623.82a.7.7,0,0,0,0,1.21l33.6,19.4a2.77,2.77,0,0,0,2.77,0L560,632.1a.7.7,0,0,0,0-1.21l-33.59-19.4A2.79,2.79,0,0,0,523.61,611.48Z"/><path class="cls-89" d="M523.66,611.53l-21.48,12.29a.69.69,0,0,0,0,1.2l33.45,19.32a2.8,2.8,0,0,0,2.76,0l21.49-12.29a.7.7,0,0,0,0-1.21l-33.45-19.31A2.79,2.79,0,0,0,523.66,611.53Z"/><path class="cls-90" d="M523.72,611.58l-21.4,12.23a.7.7,0,0,0,0,1.21l33.31,19.23a2.76,2.76,0,0,0,2.75,0L559.77,632a.69.69,0,0,0,0-1.2l-33.31-19.23A2.78,2.78,0,0,0,523.72,611.58Z"/><path class="cls-91" d="M523.77,611.63l-21.3,12.18a.69.69,0,0,0,0,1.2l33.17,19.15a2.74,2.74,0,0,0,2.74,0L559.67,632a.69.69,0,0,0,0-1.2l-33.16-19.15A2.76,2.76,0,0,0,523.77,611.63Z"/><path class="cls-92" d="M523.82,611.68l-21.21,12.13a.69.69,0,0,0,0,1.19l33,19.07a2.74,2.74,0,0,0,2.73,0L559.57,632a.69.69,0,0,0,0-1.2l-33-19.06A2.74,2.74,0,0,0,523.82,611.68Z"/><path class="cls-93" d="M523.87,611.73,502.76,623.8a.69.69,0,0,0,0,1.19l32.88,19a2.75,2.75,0,0,0,2.72,0l21.12-12.07a.69.69,0,0,0,0-1.19l-32.88-19A2.72,2.72,0,0,0,523.87,611.73Z"/><path class="cls-94" d="M523.93,611.78l-21,12a.68.68,0,0,0,0,1.18l32.73,18.9a2.71,2.71,0,0,0,2.71,0l21-12a.68.68,0,0,0,0-1.18l-32.74-18.9A2.69,2.69,0,0,0,523.93,611.78Z"/><path class="cls-95" d="M524,611.83,503,623.8a.68.68,0,0,0,0,1.18l32.59,18.81a2.71,2.71,0,0,0,2.7,0l20.93-12a.68.68,0,0,0,0-1.18l-32.59-18.81A2.69,2.69,0,0,0,524,611.83Z"/><path class="cls-96" d="M524,611.88l-20.84,11.91a.68.68,0,0,0,0,1.18l32.45,18.73a2.7,2.7,0,0,0,2.68,0l20.84-11.92a.68.68,0,0,0,0-1.17l-32.45-18.73A2.7,2.7,0,0,0,524,611.88Z"/><path class="cls-97" d="M524.08,611.93l-20.75,11.86a.68.68,0,0,0,0,1.17l32.31,18.65a2.66,2.66,0,0,0,2.66,0l20.75-11.86a.67.67,0,0,0,0-1.17l-32.31-18.65A2.68,2.68,0,0,0,524.08,611.93Z"/><path class="cls-98" d="M524.13,612l-20.65,11.81a.67.67,0,0,0,0,1.16l32.17,18.57a2.67,2.67,0,0,0,2.65,0L559,631.72a.67.67,0,0,0,0-1.16L526.79,612A2.69,2.69,0,0,0,524.13,612Z"/><path class="cls-99" d="M524.19,612l-20.57,11.76a.66.66,0,0,0,0,1.15l32,18.49a2.67,2.67,0,0,0,2.64,0l20.57-11.76a.67.67,0,0,0,0-1.16l-32-18.49A2.65,2.65,0,0,0,524.19,612Z"/><path class="cls-100" d="M524.24,612.08l-20.48,11.7a.67.67,0,0,0,0,1.15l31.88,18.41a2.63,2.63,0,0,0,2.63,0l20.48-11.7a.67.67,0,0,0,0-1.15l-31.88-18.41A2.63,2.63,0,0,0,524.24,612.08Z"/><path class="cls-101" d="M524.29,612.13l-20.38,11.65a.66.66,0,0,0,0,1.15l31.73,18.32a2.61,2.61,0,0,0,2.62,0l20.38-11.65a.65.65,0,0,0,0-1.14l-31.74-18.33A2.63,2.63,0,0,0,524.29,612.13Z"/><path class="cls-102" d="M524.34,612.18l-20.29,11.6a.66.66,0,0,0,0,1.14l31.59,18.24a2.62,2.62,0,0,0,2.61,0l20.29-11.6a.66.66,0,0,0,0-1.14L527,612.18A2.64,2.64,0,0,0,524.34,612.18Z"/><path class="cls-103" d="M524.4,612.23l-20.2,11.54a.66.66,0,0,0,0,1.14l31.45,18.16a2.62,2.62,0,0,0,2.6,0l20.2-11.54a.66.66,0,0,0,0-1.14L527,612.23A2.6,2.6,0,0,0,524.4,612.23Z"/><path class="cls-104" d="M524.45,612.28l-20.11,11.49a.65.65,0,0,0,0,1.13L535.64,643a2.6,2.6,0,0,0,2.59,0l20.1-11.49a.65.65,0,0,0,0-1.13L527,612.28A2.58,2.58,0,0,0,524.45,612.28Z"/><path class="cls-105" d="M524.5,612.33l-20,11.44a.64.64,0,0,0,0,1.12l31.17,18a2.57,2.57,0,0,0,2.57,0l20-11.44a.65.65,0,0,0,0-1.13l-31.16-18A2.57,2.57,0,0,0,524.5,612.33Z"/><path class="cls-106" d="M524.55,612.38l-19.92,11.38a.66.66,0,0,0,0,1.13l31,17.9a2.57,2.57,0,0,0,2.56,0l19.92-11.39a.65.65,0,0,0,0-1.12l-31-17.91A2.55,2.55,0,0,0,524.55,612.38Z"/><path class="cls-107" d="M524.6,612.43l-19.83,11.33a.65.65,0,0,0,0,1.12l30.88,17.82a2.55,2.55,0,0,0,2.55,0L558,631.37a.64.64,0,0,0,0-1.11l-30.88-17.83A2.55,2.55,0,0,0,524.6,612.43Z"/><path class="cls-108" d="M524.66,612.47l-19.74,11.29a.64.64,0,0,0,0,1.11l30.73,17.74a2.56,2.56,0,0,0,2.54,0l19.73-11.29a.64.64,0,0,0,0-1.11l-30.74-17.74A2.54,2.54,0,0,0,524.66,612.47Z"/><path class="cls-109" d="M524.71,612.52l-19.65,11.23a.64.64,0,0,0,0,1.11l30.59,17.66a2.55,2.55,0,0,0,2.52,0l19.65-11.23a.64.64,0,0,0,0-1.11l-30.59-17.66A2.55,2.55,0,0,0,524.71,612.52Z"/><path class="cls-110" d="M524.76,612.57l-19.55,11.18a.63.63,0,0,0,0,1.1l30.45,17.58a2.53,2.53,0,0,0,2.51,0l19.56-11.18a.64.64,0,0,0,0-1.1l-30.45-17.58A2.53,2.53,0,0,0,524.76,612.57Z"/><path class="cls-111" d="M524.81,612.62l-19.46,11.13a.63.63,0,0,0,0,1.09l30.3,17.5a2.48,2.48,0,0,0,2.5,0l19.47-11.12a.64.64,0,0,0,0-1.1l-30.31-17.49A2.51,2.51,0,0,0,524.81,612.62Z"/><path class="cls-112" d="M524.87,612.67,505.5,623.75a.63.63,0,0,0,0,1.09l30.16,17.41a2.51,2.51,0,0,0,2.49,0l19.37-11.07a.63.63,0,0,0,0-1.09l-30.15-17.41A2.49,2.49,0,0,0,524.87,612.67Z"/><path class="cls-113" d="M524.92,612.72l-19.28,11a.63.63,0,0,0,0,1.09l30,17.33a2.49,2.49,0,0,0,2.48,0l19.28-11a.62.62,0,0,0,0-1.08l-30-17.33A2.49,2.49,0,0,0,524.92,612.72Z"/><path class="cls-114" d="M525,612.77l-19.19,11a.63.63,0,0,0,0,1.08l29.87,17.25a2.48,2.48,0,0,0,2.47,0l19.19-11a.62.62,0,0,0,0-1.08l-29.87-17.24A2.48,2.48,0,0,0,525,612.77Z"/><path class="cls-69" d="M525,612.82l-19.09,10.92a.61.61,0,0,0,0,1.07L535.66,642a2.46,2.46,0,0,0,2.45,0l19.09-10.91a.62.62,0,0,0,0-1.08l-29.73-17.16A2.48,2.48,0,0,0,525,612.82Z"/></g><path class="cls-115" d="M559.8,602.05,526.29,582.7a.68.68,0,0,0-1,.59v25.26a1.46,1.46,0,0,0,.74,1.27l33.51,19.35a.68.68,0,0,0,1-.59V603.33A1.47,1.47,0,0,0,559.8,602.05Z"/><path class="cls-69" d="M559.37,602.34,525.86,583a.68.68,0,0,0-1,.59v25.26a1.46,1.46,0,0,0,.74,1.27l33.51,19.35a.68.68,0,0,0,1-.59V603.62A1.47,1.47,0,0,0,559.37,602.34Z"/><polygon class="cls-16" points="558.12 603.93 526.59 585.62 526.59 608.73 558.12 627.04 558.12 603.93"/><path class="cls-116" d="M523.48,611.33,502,622.65s-.12,1.68.34,1.94l32.88,19a2.71,2.71,0,0,0,2.71,0l21.12-12.07c.87-.54.35-2,.35-2l-33.23-18.22A2.71,2.71,0,0,0,523.48,611.33Z"/><path class="cls-117" d="M523.48,610,502.36,622.1a.69.69,0,0,0,0,1.19l32.88,19a2.71,2.71,0,0,0,2.71,0l21.12-12.07a.69.69,0,0,0,0-1.19l-32.88-19A2.71,2.71,0,0,0,523.48,610Z"/><path class="cls-13" d="M521.61,625.66,516,628.84a.19.19,0,0,0,0,.32l8.67,5a.7.7,0,0,0,.71,0L531,631a.18.18,0,0,0,0-.31l-8.67-5A.75.75,0,0,0,521.61,625.66Z"/><path class="cls-65" d="M525.81,611.88l1.82,1a.1.1,0,0,1,0,.18l-.91.52a.24.24,0,0,1-.23,0l-1.82-1a.11.11,0,0,1,0-.19l.9-.51A.21.21,0,0,1,525.81,611.88Z"/><path class="cls-65" d="M528.47,613.46l1.82,1a.11.11,0,0,1,0,.19l-.9.52a.24.24,0,0,1-.23,0l-1.82-1.05a.11.11,0,0,1,0-.19l.9-.52A.24.24,0,0,1,528.47,613.46Z"/><path class="cls-65" d="M531.15,615l1.82,1a.11.11,0,0,1,0,.19l-.9.51a.21.21,0,0,1-.24,0L530,615.67a.1.1,0,0,1,0-.18l.91-.52A.2.2,0,0,1,531.15,615Z"/><path class="cls-65" d="M533.91,616.52l1.82,1.05a.11.11,0,0,1,0,.19l-.91.52a.24.24,0,0,1-.23,0l-1.82-1a.11.11,0,0,1,0-.19l.9-.52A.25.25,0,0,1,533.91,616.52Z"/><path class="cls-65" d="M536.55,618l1.82,1a.1.1,0,0,1,0,.18l-.9.52a.2.2,0,0,1-.23,0l-1.82-1a.11.11,0,0,1,0-.19l.9-.51A.2.2,0,0,1,536.55,618Z"/><path class="cls-65" d="M539.13,619.58l1.82,1a.11.11,0,0,1,0,.19l-.91.52a.24.24,0,0,1-.23,0L538,620.29a.11.11,0,0,1,0-.19l.9-.52A.25.25,0,0,1,539.13,619.58Z"/><path class="cls-65" d="M541.82,621.07l1.82,1a.11.11,0,0,1,0,.19l-.9.52a.24.24,0,0,1-.23,0l-1.82-1.05a.11.11,0,0,1,0-.19l.9-.52A.24.24,0,0,1,541.82,621.07Z"/><path class="cls-65" d="M544.48,622.65l1.82,1.05a.11.11,0,0,1,0,.19l-.9.52a.25.25,0,0,1-.24,0l-1.82-1a.11.11,0,0,1,0-.19l.91-.52A.24.24,0,0,1,544.48,622.65Z"/><path class="cls-65" d="M547.09,624.19l1.82,1a.11.11,0,0,1,0,.19l-.9.52a.25.25,0,0,1-.24,0L546,624.9a.11.11,0,0,1,0-.19l.91-.52A.24.24,0,0,1,547.09,624.19Z"/><path class="cls-65" d="M549.84,625.78l1.82,1.05a.11.11,0,0,1,0,.19l-.9.52a.25.25,0,0,1-.24,0l-1.81-1.06a.1.1,0,0,1,0-.18l.9-.52A.24.24,0,0,1,549.84,625.78Z"/><path class="cls-65" d="M552.52,627.28l1.82,1.05a.11.11,0,0,1,0,.19l-.91.52a.24.24,0,0,1-.23,0L551.38,628a.1.1,0,0,1,0-.18l.9-.52A.25.25,0,0,1,552.52,627.28Z"/><path class="cls-65" d="M522.11,613.85l1.23-.72a.53.53,0,0,1,.52,0l1.2.7a.26.26,0,0,1,0,.44l-1.2.73a.53.53,0,0,1-.53,0l-1.23-.71A.26.26,0,0,1,522.11,613.85Z"/><path class="cls-65" d="M524.87,615.44l1.23-.72a.53.53,0,0,1,.52,0l1.2.69a.26.26,0,0,1,0,.44l-1.2.74a.53.53,0,0,1-.53,0l-1.23-.71A.26.26,0,0,1,524.87,615.44Z"/><path class="cls-65" d="M527.55,617l1.23-.73a.53.53,0,0,1,.52,0l1.2.7a.26.26,0,0,1,0,.44l-1.2.73a.51.51,0,0,1-.53,0l-1.23-.71A.25.25,0,0,1,527.55,617Z"/><path class="cls-65" d="M530.4,618.5l1.23-.72a.49.49,0,0,1,.52,0l1.2.69a.26.26,0,0,1,0,.44l-1.2.74a.51.51,0,0,1-.53,0l-1.23-.71A.25.25,0,0,1,530.4,618.5Z"/><path class="cls-65" d="M532.91,620l1.23-.72a.53.53,0,0,1,.52,0l1.2.7a.25.25,0,0,1,0,.44l-1.2.73a.51.51,0,0,1-.52,0l-1.24-.71A.26.26,0,0,1,532.91,620Z"/><path class="cls-65" d="M535.46,621.55l1.23-.72a.53.53,0,0,1,.52,0l1.21.7a.26.26,0,0,1,0,.44l-1.19.73a.53.53,0,0,1-.53,0l-1.24-.71A.26.26,0,0,1,535.46,621.55Z"/><path class="cls-65" d="M538.19,623.05l1.23-.72a.49.49,0,0,1,.52,0l1.2.69a.26.26,0,0,1,0,.44l-1.2.74a.51.51,0,0,1-.53,0l-1.23-.71A.25.25,0,0,1,538.19,623.05Z"/><path class="cls-65" d="M540.86,624.56l1.23-.72a.53.53,0,0,1,.52,0l1.2.69a.26.26,0,0,1,0,.44l-1.2.74a.53.53,0,0,1-.53,0l-1.23-.71A.26.26,0,0,1,540.86,624.56Z"/><path class="cls-65" d="M543.48,626.17l1.23-.72a.51.51,0,0,1,.52,0l1.21.69a.26.26,0,0,1,0,.44l-1.2.74a.51.51,0,0,1-.52,0l-1.24-.72A.25.25,0,0,1,543.48,626.17Z"/><path class="cls-65" d="M546.34,627.85l1.23-.72a.53.53,0,0,1,.52,0l1.2.7a.26.26,0,0,1,0,.44l-1.2.73a.53.53,0,0,1-.53,0l-1.23-.71A.26.26,0,0,1,546.34,627.85Z"/><path class="cls-65" d="M548.92,629.26l1.24-.73a.52.52,0,0,1,.51,0l1.21.7a.25.25,0,0,1,0,.44l-1.19.73a.51.51,0,0,1-.53,0l-1.24-.71A.25.25,0,0,1,548.92,629.26Z"/><path class="cls-65" d="M519.36,615.35l1.23-.72a.51.51,0,0,1,.52,0l1.21.7a.25.25,0,0,1,0,.44l-1.19.74a.53.53,0,0,1-.53,0l-1.24-.71A.25.25,0,0,1,519.36,615.35Z"/><path class="cls-65" d="M522.12,616.94l1.23-.73a.53.53,0,0,1,.52,0l1.21.7a.25.25,0,0,1,0,.44l-1.19.73a.53.53,0,0,1-.53,0l-1.24-.71A.25.25,0,0,1,522.12,616.94Z"/><path class="cls-65" d="M524.8,618.44l1.23-.72a.49.49,0,0,1,.52,0l1.21.69a.26.26,0,0,1,0,.44l-1.2.74a.49.49,0,0,1-.52,0l-1.24-.71A.25.25,0,0,1,524.8,618.44Z"/><path class="cls-65" d="M527.65,620l1.23-.72a.53.53,0,0,1,.52,0l1.21.69a.25.25,0,0,1,0,.44l-1.19.74a.53.53,0,0,1-.53,0l-1.24-.71A.26.26,0,0,1,527.65,620Z"/><path class="cls-65" d="M530.16,621.47l1.24-.72a.49.49,0,0,1,.51,0l1.21.7a.25.25,0,0,1,0,.44l-1.19.74a.53.53,0,0,1-.53,0l-1.24-.71A.25.25,0,0,1,530.16,621.47Z"/><path class="cls-65" d="M532.71,623.05l1.24-.72a.51.51,0,0,1,.52,0l1.2.7a.26.26,0,0,1,0,.44l-1.2.74a.53.53,0,0,1-.53,0l-1.23-.71A.26.26,0,0,1,532.71,623.05Z"/><path class="cls-65" d="M535.44,624.54l1.23-.72a.53.53,0,0,1,.52,0l1.21.69a.26.26,0,0,1,0,.44l-1.19.74a.53.53,0,0,1-.53,0l-1.24-.71A.26.26,0,0,1,535.44,624.54Z"/><path class="cls-65" d="M538.11,626.06l1.23-.73a.53.53,0,0,1,.52,0l1.2.7a.25.25,0,0,1,0,.44l-1.2.73a.51.51,0,0,1-.52,0l-1.24-.71A.25.25,0,0,1,538.11,626.06Z"/><path class="cls-65" d="M540.73,627.66l1.24-.72a.52.52,0,0,1,.51,0l1.21.7a.25.25,0,0,1,0,.44l-1.19.73a.53.53,0,0,1-.53,0l-1.23-.71A.26.26,0,0,1,540.73,627.66Z"/><path class="cls-65" d="M543.59,629.35l1.23-.72a.51.51,0,0,1,.52,0l1.21.7a.25.25,0,0,1,0,.44l-1.19.73a.51.51,0,0,1-.53,0l-1.24-.71A.25.25,0,0,1,543.59,629.35Z"/><path class="cls-65" d="M546.18,630.75l1.23-.72a.49.49,0,0,1,.52,0l1.2.69a.26.26,0,0,1,0,.44l-1.2.74a.51.51,0,0,1-.53,0l-1.23-.71A.25.25,0,0,1,546.18,630.75Z"/><path class="cls-65" d="M516.62,616.84l1.23-.72a.53.53,0,0,1,.52,0l1.2.69a.26.26,0,0,1,0,.44l-1.2.74a.53.53,0,0,1-.53,0l-1.23-.72A.25.25,0,0,1,516.62,616.84Z"/><path class="cls-65" d="M519.38,618.43l1.23-.72a.49.49,0,0,1,.52,0l1.2.69a.26.26,0,0,1,0,.44l-1.2.74a.51.51,0,0,1-.53,0l-1.23-.71A.25.25,0,0,1,519.38,618.43Z"/><path class="cls-65" d="M522.05,619.93l1.24-.72a.53.53,0,0,1,.52,0l1.2.69a.27.27,0,0,1,0,.45l-1.2.73a.53.53,0,0,1-.53,0l-1.23-.71A.26.26,0,0,1,522.05,619.93Z"/><path class="cls-65" d="M524.91,621.49l1.23-.73a.53.53,0,0,1,.52,0l1.2.7a.26.26,0,0,1,0,.44l-1.2.73a.53.53,0,0,1-.53,0l-1.23-.71A.25.25,0,0,1,524.91,621.49Z"/><path class="cls-65" d="M527.42,623l1.23-.72a.53.53,0,0,1,.52,0l1.2.69a.26.26,0,0,1,0,.44l-1.2.74a.53.53,0,0,1-.53,0l-1.23-.71A.26.26,0,0,1,527.42,623Z"/><path class="cls-65" d="M530,624.54l1.23-.72a.53.53,0,0,1,.52,0l1.2.69a.25.25,0,0,1,0,.44l-1.2.74a.51.51,0,0,1-.52,0L530,625A.25.25,0,0,1,530,624.54Z"/><path class="cls-65" d="M532.7,626l1.23-.73a.53.53,0,0,1,.52,0l1.2.7a.26.26,0,0,1,0,.44l-1.2.73a.53.53,0,0,1-.53,0l-1.23-.71A.25.25,0,0,1,532.7,626Z"/><path class="cls-65" d="M535.36,627.55l1.24-.72a.47.47,0,0,1,.51,0l1.21.69a.25.25,0,0,1,0,.44l-1.19.74a.53.53,0,0,1-.53,0l-1.23-.71A.25.25,0,0,1,535.36,627.55Z"/><path class="cls-65" d="M538,629.16l1.23-.72a.51.51,0,0,1,.52,0l1.2.7a.26.26,0,0,1,0,.44l-1.2.73a.51.51,0,0,1-.53,0L538,629.6A.25.25,0,0,1,538,629.16Z"/><path class="cls-65" d="M540.85,630.84l1.23-.72a.53.53,0,0,1,.52,0l1.2.69a.26.26,0,0,1,0,.44l-1.2.74a.53.53,0,0,1-.53,0l-1.23-.72A.25.25,0,0,1,540.85,630.84Z"/><path class="cls-65" d="M543.43,632.24l1.23-.72a.53.53,0,0,1,.52,0l1.21.7a.26.26,0,0,1,0,.44l-1.2.73a.51.51,0,0,1-.52,0l-1.24-.71A.26.26,0,0,1,543.43,632.24Z"/><path class="cls-65" d="M513.87,618.33l1.23-.72a.53.53,0,0,1,.52,0l1.2.7a.25.25,0,0,1,0,.44l-1.2.73a.51.51,0,0,1-.52,0l-1.24-.71A.26.26,0,0,1,513.87,618.33Z"/><path class="cls-65" d="M516.63,619.92l1.23-.72a.53.53,0,0,1,.52,0l1.2.69a.26.26,0,0,1,0,.45l-1.2.73a.51.51,0,0,1-.52,0l-1.24-.71A.26.26,0,0,1,516.63,619.92Z"/><path class="cls-65" d="M519.31,621.43l1.23-.73a.53.53,0,0,1,.52,0l1.2.7a.25.25,0,0,1,0,.44l-1.2.73a.49.49,0,0,1-.52,0l-1.24-.71A.25.25,0,0,1,519.31,621.43Z"/><path class="cls-65" d="M522.16,623l1.23-.72a.49.49,0,0,1,.52,0l1.2.69a.25.25,0,0,1,0,.44l-1.2.74a.49.49,0,0,1-.52,0l-1.24-.71A.25.25,0,0,1,522.16,623Z"/><path class="cls-65" d="M524.91,624.62l1.23-.72a.49.49,0,0,1,.52,0l6.26,3.61a.26.26,0,0,1,0,.45l-1.2.73a.51.51,0,0,1-.52,0l-6.3-3.64A.25.25,0,0,1,524.91,624.62Z"/><path class="cls-65" d="M532.62,629l1.23-.72a.53.53,0,0,1,.52,0l1.2.69a.26.26,0,0,1,0,.44l-1.2.74a.53.53,0,0,1-.53,0l-1.23-.71A.26.26,0,0,1,532.62,629Z"/><path class="cls-65" d="M535.24,630.65l1.23-.72a.53.53,0,0,1,.52,0l1.21.69a.26.26,0,0,1,0,.44l-1.2.74a.51.51,0,0,1-.52,0l-1.24-.72A.25.25,0,0,1,535.24,630.65Z"/><path class="cls-65" d="M538.1,632.33l1.23-.72a.53.53,0,0,1,.52,0l1.2.7a.25.25,0,0,1,0,.44l-1.2.73a.51.51,0,0,1-.52,0l-1.24-.71A.26.26,0,0,1,538.1,632.33Z"/><path class="cls-65" d="M540.68,633.74l1.24-.72a.51.51,0,0,1,.52,0l1.2.7a.25.25,0,0,1,0,.44l-1.19.73a.51.51,0,0,1-.53,0l-1.23-.71A.25.25,0,0,1,540.68,633.74Z"/><path class="cls-118" d="M596.8,555.65c.19,1,.36,2,.53,2.9.88,5.06,1.65,9.41,4,10.79v-1.78c-1-.56-1.65-3.61-2.22-6.76-1.11-1-1.81-2.88-2.36-5.15m1-2c.15.77.31,1.53.47,2.23-.14-.74-.3-1.49-.47-2.23m-5.92-10.9c-5.76-3.33-7.7,3.71-9.41,9.91-1.11,4.07-2.27,8.26-4.18,7.16-2.13-1.23-2.95-4-4-8.1,0-.22-.1-.44-.16-.66a20.13,20.13,0,0,1-2.43-6,4.6,4.6,0,0,0-1.25-1.08c-2.82-1.63-3.5,2.09-4.16,5.71-.84,4.55-1.63,7.66-4.3,6.12s-4.28-5.11-6.1-9.2c-2-4.52-4.29-9.65-8.64-12.16a13,13,0,0,0-9-1.63c-2,.21-3.82.4-5.87-.78a10.26,10.26,0,0,1-2-1.52l-.5,1.41a13,13,0,0,0,2.51,1.93c2.42,1.4,4.48,1.18,6.63.94a11.87,11.87,0,0,1,8.24,1.43c3.54,2,5.4,6.22,7.36,10.65,1.89,4.26,3.84,8.67,7.38,10.71,4.16,2.41,5-2.44,5.82-6.7.57-3.09,1.1-6,2.64-5.13,1,.6,1.61,2.64,2.37,5.69.9,3.64,2,8.19,5.45,10.15,3.1,1.8,4.29-2.55,5.68-7.61,1.57-5.66,3.34-12.08,7.91-9.44,2.22,1.28,3.47,4.6,4.35,8.35-.14-.75-.28-1.54-.42-2.34-.28-1.56-.57-3.19-.91-4.76a8.82,8.82,0,0,0-3-3"/><path class="cls-119" d="M590.33,534.67c-5.76-3.32-7.7,3.71-9.41,9.92-1.12,4-2.28,8.25-4.19,7.15-2.12-1.23-3-4-4-8.1-.79-3.17-1.62-6.45-3.84-7.74-2.82-1.63-3.5,2.1-4.16,5.69-.84,4.57-1.63,7.67-4.3,6.13s-4.28-5.1-6.11-9.19c-2-4.54-4.28-9.67-8.63-12.17a13,13,0,0,0-9-1.62c-2,.21-3.81.41-5.86-.77a10.48,10.48,0,0,1-2-1.54l-.5,1.42a13.36,13.36,0,0,0,2.49,1.93c2.44,1.4,4.5,1.18,6.65,1,2.39-.26,4.87-.54,8.24,1.41,3.53,2,5.38,6.23,7.36,10.67,1.89,4.26,3.84,8.66,7.37,10.71,4.17,2.4,5-2.45,5.83-6.73.56-3.09,1.1-6,2.64-5.1,1,.59,1.61,2.63,2.36,5.66.13.54.27,1.09.42,1.66a20.13,20.13,0,0,0,2.43,6,8,8,0,0,0,2.59,2.51c3.11,1.79,4.31-2.57,5.7-7.6,1.57-5.68,3.33-12.1,7.9-9.47,2.41,1.39,3.67,5.16,4.56,9.3.34,1.57.63,3.2.91,4.76.14.8.28,1.59.42,2.34.18,1,.38,1.93.59,2.8.55,2.27,1.25,4.1,2.36,5.15a3.72,3.72,0,0,0,.68.52v-1.78c-.64-.37-1.15-1.84-1.6-3.71-.16-.7-.32-1.46-.47-2.23s-.32-1.75-.47-2.61c-1.09-6.1-2.42-13.69-7-16.32"/><path class="cls-120" d="M898,575.58c8.23-4.9,8.12-12.74-.25-17.41s-21.94-4.48-30.17.43-8.11,12.75.25,17.42S889.8,580.49,898,575.58Z"/><path class="cls-121" d="M871.91,563.15c8.77-5.23,8.65-13.59-.27-18.58s-23.41-4.77-32.19.47-8.65,13.6.27,18.58S863.13,568.39,871.91,563.15Z"/><path class="cls-122" d="M843.46,547.73c8.22-4.91,8.11-12.75-.25-17.42s-22-4.47-30.17.44-8.12,12.75.25,17.42S835.23,552.64,843.46,547.73Z"/><path class="cls-123" d="M868.4,484.24H841v69.34h0c.12,2,1.47,3.88,4.07,5.33,5.38,3,14.12,2.88,19.42-.28,2.38-1.42,3.67-3.22,3.89-5h0Z"/><path class="cls-124" d="M864.47,490.13c5.3-3.16,5.23-8.2-.16-11.21s-14.13-2.88-19.43.28-5.22,8.21.17,11.21S859.17,493.29,864.47,490.13Z"/><path class="cls-14" d="M840.88,448.32H813.44V537.1h0c-.06,2.1,1.29,4.2,4.07,5.75,5.39,3,14.13,2.88,19.43-.28,2.56-1.53,3.85-3.5,3.91-5.47h0Z"/><path class="cls-16" d="M837,453.79c5.3-3.16,5.22-8.21-.16-11.22s-14.13-2.88-19.43.28-5.22,8.21.16,11.22S831.66,457,837,453.79Z"/><path class="cls-13" d="M896.21,566.54h0l-.29-43.9H868.49l.64,44.29h0c-.13,2.16,1.2,4.32,4,5.91,5.32,3,14,2.88,19.19-.28C895.14,570.89,896.41,568.69,896.21,566.54Z"/><path class="cls-18" d="M892,528.31c5.3-3.17,5.23-8.21-.16-11.22s-14.13-2.88-19.43.28-5.22,8.21.17,11.22S886.71,531.47,892,528.31Z"/><path class="cls-125" d="M742.38,408.86l-.39.63c-.52.37-.71,2.68-.71,3.31v80.93c0,3.88,2.62,8.86,6,10.81L777.52,522a6.28,6.28,0,0,0,2.82.59l3.94-1.38a3.25,3.25,0,0,0,2.18-3.07V434.52a13.6,13.6,0,0,0-6.12-10.6L752.75,408C749.34,406.05,745.6,406.63,742.38,408.86Z"/><path class="cls-62" d="M747.18,408.93c-3.37-1.94-6.12-.35-6.12,3.54v81.69a13.55,13.55,0,0,0,6.12,10.59l29.63,17.11c3.36,1.94,6.12.35,6.12-3.53V436.64a13.6,13.6,0,0,0-6.12-10.6Z"/><polygon class="cls-65" points="744.49 422.28 744.49 488.3 779.5 508.52 779.5 442.5 744.49 422.28"/><path class="cls-126" d="M766.63,428a.73.73,0,0,1-.35-.09L757,422.59a.71.71,0,1,1,.71-1.22l9.27,5.35a.71.71,0,0,1,.26,1A.72.72,0,0,1,766.63,428Z"/><path class="cls-127" d="M762,501.13c-2-1.19-3.69-.24-3.69,2.13A8.23,8.23,0,0,0,762,509.7c2,1.18,3.69.22,3.69-2.13A8.32,8.32,0,0,0,762,501.13Z"/><path id="KRYG" class="cls-10" d="M761.26,455.2c-5.78-3.34-10.51-.61-10.51,6.06s4.73,14.87,10.51,18.21,10.51.6,10.51-6.07S767,458.53,761.26,455.2Z"/><g id="GEAR"><g class="cls-3"><g class="cls-128"><path class="cls-14" d="M760.34,470.44a6.56,6.56,0,0,1-2.85-4.44c-.25-1.74.54-2.91,1.82-2.76a2.76,2.76,0,0,1,1.05.37,6.56,6.56,0,0,1,2.85,4.46c.25,1.73-.54,2.91-1.82,2.75a3,3,0,0,1-1-.38m1.06-11.63-2-1.18c-.32-.19-.59,0-.59.35v1.5c0,.23-.12.37-.31.35l-.39,0a.4.4,0,0,1-.2-.07,1,1,0,0,1-.34-.36l-.89-1.56a1.13,1.13,0,0,0-.41-.45.41.41,0,0,0-.42,0l-1.46.87c-.22.13-.23.57,0,1l.89,1.56a.85.85,0,0,1,.09.71,3.31,3.31,0,0,0-.15.33c-.07.18-.25.24-.46.12l-1.26-.73c-.32-.18-.59,0-.59.35v2.41a1.32,1.32,0,0,0,.59,1l1.6.92s.15.54.27,1c.08.26,0,.49-.1.57l-.9.54c-.23.13-.23.57,0,1l1.44,2.54a1.23,1.23,0,0,0,.42.45.41.41,0,0,0,.41,0l.9-.53a.33.33,0,0,1,.34,0,.87.87,0,0,1,.22.18c.11.13.23.25.34.37a1.11,1.11,0,0,1,.33.73v1.48a1.32,1.32,0,0,0,.59,1l2.05,1.18c.32.19.59,0,.59-.35v-1.49c0-.23.12-.38.31-.35l.38,0a.49.49,0,0,1,.19.07.91.91,0,0,1,.34.36l.9,1.58a1.19,1.19,0,0,0,.42.44.39.39,0,0,0,.41,0l1.46-.86c.23-.14.23-.57,0-1l-.89-1.56a.78.78,0,0,1-.09-.71,3.09,3.09,0,0,0,.14-.32c.08-.19.26-.24.47-.12l1.25.72c.33.19.59,0,.6-.34v-2.41a1.32,1.32,0,0,0-.58-1L766,468.4a1.06,1.06,0,0,1-.45-.62c0-.17-.1-.36-.15-.54s0-.49.1-.57l.91-.53c.23-.14.23-.57,0-1L765,462.62a1.13,1.13,0,0,0-.41-.45.43.43,0,0,0-.42,0l-.89.52a.33.33,0,0,1-.34,0,.77.77,0,0,1-.22-.19l-.37-.38a1.16,1.16,0,0,1-.33-.74v-1.48a1.32,1.32,0,0,0-.59-1"/></g></g></g><polygon class="cls-14" points="757.7 473.77 757.69 463.61 755.6 462.4 760.36 459.37 765.1 467.82 762.85 466.56 762.83 476.74 757.7 473.77"/><g id="SHADOW" class="cls-129"><polygon class="cls-74" points="721.38 489.35 666.81 520.79 410.04 372.54 463.44 340.2 721.38 489.35"/><polygon class="cls-75" points="721.38 489.35 668.07 520.06 411.26 371.8 463.44 340.2 721.38 489.35"/><polygon class="cls-76" points="721.38 489.35 669.32 519.34 412.49 371.06 463.44 340.2 721.38 489.35"/><polygon class="cls-77" points="721.38 489.35 670.57 518.62 413.71 370.32 463.44 340.2 721.38 489.35"/><polygon class="cls-78" points="721.38 489.35 671.83 517.89 414.93 369.57 463.44 340.2 721.38 489.35"/><polygon class="cls-79" points="721.38 489.35 673.08 517.17 416.15 368.83 463.44 340.2 721.38 489.35"/><polygon class="cls-80" points="721.38 489.35 674.34 516.45 417.38 368.09 463.44 340.2 721.38 489.35"/><polygon class="cls-81" points="721.38 489.35 675.59 515.72 418.6 367.35 463.44 340.2 721.38 489.35"/><polygon class="cls-82" points="721.38 489.35 676.85 515 419.82 366.61 463.44 340.2 721.38 489.35"/><polygon class="cls-83" points="721.38 489.35 678.1 514.28 421.05 365.87 463.44 340.2 721.38 489.35"/><polygon class="cls-84" points="721.38 489.35 679.35 513.55 422.27 365.13 463.44 340.2 721.38 489.35"/><polygon class="cls-85" points="721.38 489.35 680.61 512.83 423.5 364.38 463.44 340.2 721.38 489.35"/><polygon class="cls-86" points="721.38 489.35 681.86 512.11 424.72 363.64 463.44 340.2 721.38 489.35"/><polygon class="cls-87" points="721.38 489.35 683.12 511.38 425.94 362.9 463.44 340.2 721.38 489.35"/><polygon class="cls-88" points="721.38 489.35 684.37 510.66 427.17 362.16 463.44 340.2 721.38 489.35"/><polygon class="cls-89" points="721.38 489.35 685.63 509.93 428.39 361.42 463.44 340.2 721.38 489.35"/><polygon class="cls-90" points="721.38 489.35 686.88 509.21 429.61 360.68 463.44 340.2 721.38 489.35"/><polygon class="cls-91" points="721.38 489.35 688.13 508.49 430.84 359.94 463.44 340.2 721.38 489.35"/><polygon class="cls-92" points="721.38 489.35 689.39 507.76 432.06 359.19 463.44 340.2 721.38 489.35"/><polygon class="cls-93" points="721.38 489.35 690.64 507.04 433.28 358.45 463.44 340.2 721.38 489.35"/><polygon class="cls-94" points="721.38 489.35 691.9 506.32 434.51 357.71 463.44 340.2 721.38 489.35"/><polygon class="cls-95" points="721.38 489.35 693.15 505.59 435.73 356.97 463.44 340.2 721.38 489.35"/><polygon class="cls-96" points="721.38 489.35 694.41 504.87 436.95 356.23 463.44 340.2 721.38 489.35"/><polygon class="cls-97" points="721.38 489.35 695.66 504.15 438.18 355.49 463.44 340.2 721.38 489.35"/><polygon class="cls-98" points="721.38 489.35 696.92 503.42 439.4 354.75 463.44 340.2 721.38 489.35"/><polygon class="cls-99" points="721.38 489.35 698.17 502.7 440.62 354 463.44 340.2 721.38 489.35"/><polygon class="cls-100" points="721.38 489.35 699.42 501.98 441.85 353.26 463.44 340.2 721.38 489.35"/><polygon class="cls-101" points="721.38 489.35 700.68 501.25 443.07 352.52 463.44 340.2 721.38 489.35"/><polygon class="cls-102" points="721.38 489.35 701.93 500.53 444.29 351.78 463.44 340.2 721.38 489.35"/><polygon class="cls-103" points="721.38 489.35 703.19 499.81 445.52 351.04 463.44 340.2 721.38 489.35"/><polygon class="cls-104" points="721.38 489.35 704.44 499.08 446.74 350.3 463.44 340.2 721.38 489.35"/><polygon class="cls-105" points="721.38 489.35 705.7 498.36 447.96 349.56 463.44 340.2 721.38 489.35"/><polygon class="cls-106" points="721.38 489.35 706.95 497.63 449.19 348.81 463.44 340.2 721.38 489.35"/><polygon class="cls-107" points="721.38 489.35 708.21 496.91 450.41 348.07 463.44 340.2 721.38 489.35"/><polygon class="cls-108" points="721.38 489.35 709.46 496.19 451.63 347.33 463.44 340.2 721.38 489.35"/><polygon class="cls-109" points="721.38 489.35 710.71 495.46 452.86 346.59 463.44 340.2 721.38 489.35"/><polygon class="cls-110" points="721.38 489.35 711.97 494.74 454.08 345.85 463.44 340.2 721.38 489.35"/><polygon class="cls-111" points="721.38 489.35 713.22 494.02 455.3 345.11 463.44 340.2 721.38 489.35"/><polygon class="cls-112" points="721.38 489.35 714.48 493.29 456.53 344.37 463.44 340.2 721.38 489.35"/><polygon class="cls-113" points="721.38 489.35 715.73 492.57 457.75 343.62 463.44 340.2 721.38 489.35"/><polygon class="cls-114" points="721.38 489.35 716.99 491.85 458.97 342.88 463.44 340.2 721.38 489.35"/><polygon class="cls-69" points="721.38 489.35 718.24 491.12 460.2 342.14 463.44 340.2 721.38 489.35"/></g><g id="CARD"><path class="cls-130" d="M721.38,151.77a13.52,13.52,0,0,0-6.07-10.54L473.05.64a4.71,4.71,0,0,0-4.52-.12l-3.78,2,1.72,329.78a13.54,13.54,0,0,0,6.07,10.54L717.62,488.5l3.76,2.18Z"/><path class="cls-62" d="M717.62,154.53A13.54,13.54,0,0,0,711.55,144L468.78,3c-3.33-1.94-6.06-.37-6.06,3.49v334l254.9,148Z"/><path class="cls-17" d="M711.55,144,468.78,3c-3.33-1.94-6.06-.37-6.06,3.49V22.35l254.9,148V154.53A13.54,13.54,0,0,0,711.55,144Z"/><path class="cls-10" d="M682,137c-1.09-.63-2-.11-2,1.15a4.37,4.37,0,0,0,2,3.42c1.09.63,2,.12,2-1.14A4.44,4.44,0,0,0,682,137Z"/><path class="cls-10" d="M690.59,142.08c-1.09-.63-2-.11-2,1.15a4.4,4.4,0,0,0,2,3.43c1.08.62,2,.11,2-1.15A4.39,4.39,0,0,0,690.59,142.08Z"/><path class="cls-10" d="M699.21,147.19c-1.08-.63-2-.11-2,1.15a4.39,4.39,0,0,0,2,3.43c1.09.63,2,.11,2-1.15A4.39,4.39,0,0,0,699.21,147.19Z"/><polygon class="cls-18" points="482.75 60.83 482.75 157.3 695.56 279.76 695.56 183.91 482.75 60.83"/><polygon class="cls-18" points="482.45 287.31 695.56 411.13 695.56 403.78 482.45 279.92 482.45 287.31"/><polygon class="cls-18" points="482.45 307.36 695.56 431.17 695.56 423.82 482.45 299.96 482.45 307.36"/><polygon class="cls-18" points="482.45 328.4 695.56 452.21 695.56 444.87 482.45 321 482.45 328.4"/><polygon class="cls-18" points="543.93 208.57 482.75 172.02 482.75 248.95 543.93 285 543.93 208.57"/><polygon class="cls-18" points="634.38 336.41 695.56 372.47 695.56 296.03 634.38 259.48 634.38 336.41"/><polygon class="cls-18" points="558.57 215.99 558.57 292.92 619.74 328.97 619.74 252.54 558.57 215.99"/></g><g class="cls-131"><path class="cls-74" d="M614,302,468.79,218.38a2.72,2.72,0,0,0-4.09,2.36V324a8,8,0,0,0,4,7l145.2,84.34a2.73,2.73,0,0,0,4.1-2.36V309A8.08,8.08,0,0,0,614,302Z"/><path class="cls-75" d="M613.54,302.26,469.11,219a2.71,2.71,0,0,0-4.07,2.34V324.06a8,8,0,0,0,4,6.93l144.43,83.89a2.71,2.71,0,0,0,4.07-2.35V309.19A8,8,0,0,0,613.54,302.26Z"/><path class="cls-76" d="M613.09,302.47,469.43,219.7a2.7,2.7,0,0,0-4.05,2.33V324.16a8,8,0,0,0,4,6.89L613,414.49a2.71,2.71,0,0,0,4.06-2.34V309.36A8,8,0,0,0,613.09,302.47Z"/><path class="cls-77" d="M612.63,302.68,469.75,220.36a2.68,2.68,0,0,0-4,2.32V324.26a7.94,7.94,0,0,0,3.95,6.85l142.88,83a2.68,2.68,0,0,0,4-2.31V309.54A7.93,7.93,0,0,0,612.63,302.68Z"/><path class="cls-78" d="M612.18,302.9,470.07,221a2.67,2.67,0,0,0-4,2.31v101a7.89,7.89,0,0,0,3.93,6.82l142.1,82.53a2.67,2.67,0,0,0,4-2.3V309.72A7.88,7.88,0,0,0,612.18,302.9Z"/><path class="cls-79" d="M611.72,303.11,470.39,221.68a2.65,2.65,0,0,0-4,2.3V324.45a7.83,7.83,0,0,0,3.9,6.78l141.33,82.08a2.64,2.64,0,0,0,4-2.29V309.89A7.84,7.84,0,0,0,611.72,303.11Z"/><path class="cls-80" d="M611.27,303.33l-140.56-81a2.64,2.64,0,0,0-4,2.28v99.93a7.8,7.8,0,0,0,3.88,6.74l140.55,81.63a2.64,2.64,0,0,0,4-2.28V310.07A7.79,7.79,0,0,0,611.27,303.33Z"/><path class="cls-81" d="M610.81,303.54,471,223a2.63,2.63,0,0,0-3.94,2.27v99.37a7.76,7.76,0,0,0,3.86,6.71l139.78,81.18a2.62,2.62,0,0,0,3.94-2.27v-100A7.76,7.76,0,0,0,610.81,303.54Z"/><path class="cls-82" d="M610.36,303.75l-139-80.09a2.61,2.61,0,0,0-3.92,2.26v98.82a7.7,7.7,0,0,0,3.84,6.67l139,80.73a2.61,2.61,0,0,0,3.92-2.25V310.42A7.72,7.72,0,0,0,610.36,303.75Z"/><path class="cls-83" d="M609.9,304,471.67,224.32a2.6,2.6,0,0,0-3.9,2.25v98.27a7.68,7.68,0,0,0,3.82,6.63l138.23,80.28a2.59,2.59,0,0,0,3.9-2.24V310.6A7.68,7.68,0,0,0,609.9,304Z"/><path class="cls-84" d="M609.44,304.18,472,225a2.58,2.58,0,0,0-3.88,2.23v97.72a7.64,7.64,0,0,0,3.8,6.6l137.46,79.83a2.57,2.57,0,0,0,3.87-2.23V310.78A7.62,7.62,0,0,0,609.44,304.18Z"/><path class="cls-85" d="M609,304.39,472.31,225.64a2.57,2.57,0,0,0-3.86,2.22V325a7.59,7.59,0,0,0,3.78,6.56L608.91,411a2.56,2.56,0,0,0,3.85-2.22V311A7.58,7.58,0,0,0,609,304.39Z"/><path class="cls-86" d="M608.53,304.61,472.63,226.3a2.55,2.55,0,0,0-3.83,2.21v96.62a7.55,7.55,0,0,0,3.75,6.52l135.91,78.93a2.55,2.55,0,0,0,3.83-2.21V311.13A7.53,7.53,0,0,0,608.53,304.61Z"/><path class="cls-87" d="M608.08,304.82,473,227a2.54,2.54,0,0,0-3.81,2.2v96.06a7.49,7.49,0,0,0,3.73,6.49L608,410.19a2.54,2.54,0,0,0,3.81-2.19V311.31A7.49,7.49,0,0,0,608.08,304.82Z"/><path class="cls-88" d="M607.62,305,473.27,227.62a2.53,2.53,0,0,0-3.79,2.18v95.52a7.46,7.46,0,0,0,3.71,6.45l134.36,78a2.52,2.52,0,0,0,3.78-2.18V311.48A7.44,7.44,0,0,0,607.62,305Z"/><path class="cls-89" d="M607.17,305.25l-133.58-77a2.51,2.51,0,0,0-3.77,2.17v95a7.43,7.43,0,0,0,3.69,6.41l133.58,77.58a2.51,2.51,0,0,0,3.77-2.17V311.66A7.43,7.43,0,0,0,607.17,305.25Z"/><path class="cls-90" d="M606.71,305.46l-132.8-76.52a2.5,2.5,0,0,0-3.75,2.16v94.41a7.38,7.38,0,0,0,3.67,6.38L606.64,409a2.49,2.49,0,0,0,3.74-2.16v-95A7.38,7.38,0,0,0,606.71,305.46Z"/><path class="cls-91" d="M606.26,305.68l-132-76.08a2.49,2.49,0,0,0-3.73,2.15v93.86a7.34,7.34,0,0,0,3.65,6.34l132,76.68a2.48,2.48,0,0,0,3.72-2.15V312A7.31,7.31,0,0,0,606.26,305.68Z"/><path class="cls-92" d="M605.8,305.89,474.55,230.26a2.47,2.47,0,0,0-3.7,2.13v93.32a7.28,7.28,0,0,0,3.62,6.29l131.26,76.24a2.47,2.47,0,0,0,3.7-2.13V312.19A7.27,7.27,0,0,0,605.8,305.89Z"/><path class="cls-93" d="M605.35,306.1,474.87,230.92a2.45,2.45,0,0,0-3.68,2.12V325.8a7.23,7.23,0,0,0,3.6,6.26l130.48,75.79a2.45,2.45,0,0,0,3.68-2.12V312.36A7.24,7.24,0,0,0,605.35,306.1Z"/><path class="cls-94" d="M604.89,306.32l-129.7-74.74a2.44,2.44,0,0,0-3.66,2.11V325.9a7.18,7.18,0,0,0,3.58,6.22l129.71,75.33a2.42,2.42,0,0,0,3.65-2.1V312.54A7.19,7.19,0,0,0,604.89,306.32Z"/><path class="cls-95" d="M604.44,306.53,475.51,232.24a2.43,2.43,0,0,0-3.64,2.1V326a7.15,7.15,0,0,0,3.56,6.18l128.93,74.88A2.42,2.42,0,0,0,608,405V312.72A7.17,7.17,0,0,0,604.44,306.53Z"/><path class="cls-96" d="M604,306.74,475.83,232.9a2.41,2.41,0,0,0-3.62,2.09v91.1a7.1,7.1,0,0,0,3.54,6.15l128.16,74.43a2.4,2.4,0,0,0,3.61-2.08v-91.7A7.13,7.13,0,0,0,604,306.74Z"/><path class="cls-97" d="M603.53,307,476.15,233.57a2.39,2.39,0,0,0-3.6,2.06v90.56a7.05,7.05,0,0,0,3.52,6.11l127.38,74a2.38,2.38,0,0,0,3.59-2.06V313.07A7.07,7.07,0,0,0,603.53,307Z"/><path class="cls-98" d="M603.07,307.17l-126.6-72.94a2.38,2.38,0,0,0-3.58,2.05v90a7,7,0,0,0,3.5,6.07L603,405.89a2.38,2.38,0,0,0,3.57-2.05V313.25A7,7,0,0,0,603.07,307.17Z"/><path class="cls-99" d="M602.62,307.39l-125.84-72.5a2.35,2.35,0,0,0-3.54,2v89.45a7,7,0,0,0,3.47,6L602.54,405.5a2.36,2.36,0,0,0,3.55-2v-90A7,7,0,0,0,602.62,307.39Z"/><path class="cls-100" d="M602.16,307.6,477.1,235.55a2.34,2.34,0,0,0-3.52,2v88.9a6.93,6.93,0,0,0,3.45,6l125.06,72.63a2.34,2.34,0,0,0,3.52-2V313.6A6.93,6.93,0,0,0,602.16,307.6Z"/><path class="cls-101" d="M601.7,307.81l-124.28-71.6a2.33,2.33,0,0,0-3.5,2v88.36a6.9,6.9,0,0,0,3.43,6l124.28,72.18a2.34,2.34,0,0,0,3.51-2V313.78A6.91,6.91,0,0,0,601.7,307.81Z"/><path class="cls-102" d="M601.25,308,477.74,236.87a2.31,2.31,0,0,0-3.48,2v87.8a6.86,6.86,0,0,0,3.41,5.93l123.51,71.73a2.32,2.32,0,0,0,3.48-2V314A6.84,6.84,0,0,0,601.25,308Z"/><path class="cls-103" d="M600.79,308.24,478.06,237.53a2.3,2.3,0,0,0-3.46,2v87.25a6.81,6.81,0,0,0,3.39,5.89l122.73,71.28a2.3,2.3,0,0,0,3.46-2V314.13A6.81,6.81,0,0,0,600.79,308.24Z"/><path class="cls-104" d="M600.34,308.45l-122-70.26a2.29,2.29,0,0,0-3.44,2v86.7a6.78,6.78,0,0,0,3.37,5.85l122,70.83a2.29,2.29,0,0,0,3.44-2V314.31A6.79,6.79,0,0,0,600.34,308.45Z"/><path class="cls-105" d="M599.88,308.67,478.7,238.85a2.27,2.27,0,0,0-3.41,2V327a6.73,6.73,0,0,0,3.34,5.82l121.18,70.38a2.28,2.28,0,0,0,3.42-2V314.48A6.71,6.71,0,0,0,599.88,308.67Z"/><path class="cls-106" d="M599.43,308.88,479,239.51a2.25,2.25,0,0,0-3.39,2v85.6a6.68,6.68,0,0,0,3.32,5.78l120.41,69.93a2.26,2.26,0,0,0,3.39-2V314.66A6.68,6.68,0,0,0,599.43,308.88Z"/><path class="cls-107" d="M599,309.1,479.34,240.17a2.24,2.24,0,0,0-3.37,1.94v85.05a6.65,6.65,0,0,0,3.3,5.74L598.9,402.38a2.25,2.25,0,0,0,3.38-1.95V314.84A6.62,6.62,0,0,0,599,309.1Z"/><path class="cls-108" d="M598.52,309.31,479.66,240.83a2.23,2.23,0,0,0-3.35,1.93v84.49a6.61,6.61,0,0,0,3.28,5.71l118.86,69a2.23,2.23,0,0,0,3.35-1.93V315A6.59,6.59,0,0,0,598.52,309.31Z"/><path class="cls-109" d="M598.06,309.52,480,241.49a2.22,2.22,0,0,0-3.33,1.92v83.94a6.56,6.56,0,0,0,3.26,5.67L598,401.6a2.22,2.22,0,0,0,3.33-1.92V315.19A6.56,6.56,0,0,0,598.06,309.52Z"/><path class="cls-110" d="M597.61,309.74,480.3,242.15a2.2,2.2,0,0,0-3.31,1.9v83.4a6.53,6.53,0,0,0,3.24,5.63L597.54,401.2a2.2,2.2,0,0,0,3.31-1.9V315.37A6.52,6.52,0,0,0,597.61,309.74Z"/><path class="cls-111" d="M597.15,310,480.62,242.81a2.18,2.18,0,0,0-3.28,1.89v82.84a6.47,6.47,0,0,0,3.21,5.6l116.53,67.67a2.19,2.19,0,0,0,3.29-1.89V315.54A6.48,6.48,0,0,0,597.15,310Z"/><path class="cls-112" d="M596.7,310.16,480.94,243.47a2.17,2.17,0,0,0-3.26,1.88v82.29a6.39,6.39,0,0,0,3.19,5.55l115.76,67.23a2.17,2.17,0,0,0,3.26-1.88V315.72A6.42,6.42,0,0,0,596.7,310.16Z"/><path class="cls-113" d="M596.24,310.38l-115-66.25A2.15,2.15,0,0,0,478,246v81.74a6.38,6.38,0,0,0,3.17,5.51l115,66.78a2.16,2.16,0,0,0,3.25-1.86V315.89A6.37,6.37,0,0,0,596.24,310.38Z"/><path class="cls-114" d="M595.79,310.59l-114.21-65.8a2.14,2.14,0,0,0-3.22,1.85v81.19a6.33,6.33,0,0,0,3.15,5.48l114.21,66.33a2.14,2.14,0,0,0,3.22-1.85V316.07A6.34,6.34,0,0,0,595.79,310.59Z"/><path class="cls-69" d="M595.33,310.81,481.9,245.45a2.13,2.13,0,0,0-3.2,1.84v80.64a6.28,6.28,0,0,0,3.13,5.44l113.43,65.88a2.13,2.13,0,0,0,3.2-1.84V316.25A6.28,6.28,0,0,0,595.33,310.81Z"/></g><path class="cls-10" d="M597.52,307.47,467.6,232.61a2.44,2.44,0,0,0-3.67,2.11v92.37a7.21,7.21,0,0,0,3.59,6.23l129.92,75.46a2.44,2.44,0,0,0,3.67-2.11v-93A7.22,7.22,0,0,0,597.52,307.47Z"/><path class="cls-132" d="M598,408.75v-93a7.18,7.18,0,0,0-3.59-6.23L464.47,234.7a2.69,2.69,0,0,0-.51-.2,2.44,2.44,0,0,1,3.64-1.89l129.92,74.86a7.22,7.22,0,0,1,3.59,6.24v93a2.43,2.43,0,0,1-3.17,2.31A1.81,1.81,0,0,0,598,408.75Z"/><g id="_1" data-name="1"><path class="cls-16" d="M570.93,316.12l-1.69-2.42a8.36,8.36,0,0,0-3.28,5.74l2.91.48A5.52,5.52,0,0,1,570.93,316.12Z"/><path class="cls-16" d="M578.93,314.14a10.64,10.64,0,0,0-6.75-1.6l.44,2.92a7.66,7.66,0,0,1,4.83,1.24c5.53,3.19,10.2,11.28,10.2,17.66,0,2.81-.88,4.87-2.47,5.79s-3.82.65-6.25-.75L577.45,342a11.28,11.28,0,0,0,5.6,1.69,7.06,7.06,0,0,0,3.6-.94c2.55-1.47,4-4.43,4-8.34C590.6,326.93,585.37,317.86,578.93,314.14Z"/><path class="cls-16" d="M565.78,321.73c0,5.78,3.17,12.74,7.88,17.32l2.06-2.12c-4.12-4-7-10.24-7-15.2Z"/></g><g id="_2" data-name="2"><path class="cls-16" d="M540.11,306.15c0-2.81.88-4.87,2.47-5.79s3.82-.66,6.25.75c3.4,2,6.58,5.79,8.5,10.25l2.71-1.17c-2.16-5-5.8-9.37-9.73-11.64-3.39-1.95-6.65-2.22-9.2-.75s-4,4.44-4,8.35c0,6.37,3.9,14.17,9.28,18.56l1.86-2.29C543.56,318.55,540.11,311.7,540.11,306.15Z"/><path class="cls-16" d="M558.32,314.1a17.05,17.05,0,0,1,.71,4.67c0,2.81-.88,4.87-2.47,5.79s-3.82.66-6.25-.75l-1.48,2.56a11.34,11.34,0,0,0,5.6,1.68,7.15,7.15,0,0,0,3.6-.93c2.55-1.47,4-4.44,4-8.35a20.18,20.18,0,0,0-.82-5.48Z"/></g><g id="_3" data-name="3"><path class="cls-16" d="M528.75,309.67c-1.58.75-3.7.43-6-.89-4.84-2.79-9-9.23-10-15.3l-2.91.46c1.09,6.88,5.9,14.2,11.44,17.4A11.42,11.42,0,0,0,526.9,313a7.28,7.28,0,0,0,3.11-.68,8,8,0,0,0,4.25-6.29l-2.91-.48C531,307.61,530.11,309,528.75,309.67Z"/><path class="cls-16" d="M515.05,285.33c1.59-.92,3.81-.65,6.24.75a15.77,15.77,0,0,1,2.64,1.94l2-2.2a19.14,19.14,0,0,0-3.13-2.3c-3.39-1.95-6.65-2.22-9.2-.75s-4,4.44-4,8.35h3C512.57,288.31,513.45,286.25,515.05,285.33Z"/><path class="cls-16" d="M525.76,289.88c3.48,4,5.73,9.46,5.73,13.87h3c0-5.16-2.47-11.21-6.45-15.8Z"/></g><polygon class="cls-62" points="509.62 344.78 509.62 350.63 588.32 396.1 588.32 390.29 509.62 344.78"/><polygon class="cls-62" points="471.19 305.59 471.19 311.43 588.32 379.47 588.32 373.67 471.19 305.59"/><polygon class="cls-62" points="471.19 289.76 471.19 295.6 588.32 363.64 588.32 357.84 471.19 289.76"/><g class="cls-131"><path class="cls-74" d="M719.29,372.46,660.18,337a7.56,7.56,0,0,1-3.77-6.54V233.6a2.56,2.56,0,0,1,3.85-2.21l59,35Z"/><path class="cls-75" d="M719.28,372.1l-58.75-35.21a7.51,7.51,0,0,1-3.73-6.49V234.18a2.54,2.54,0,0,1,3.81-2.2l58.67,34.73Z"/><path class="cls-76" d="M719.27,371.74l-58.38-35a7.44,7.44,0,0,1-3.7-6.43V234.75a2.52,2.52,0,0,1,3.78-2.18L719.27,267Z"/><path class="cls-77" d="M719.27,371.39l-58-34.81a7.38,7.38,0,0,1-3.67-6.38V235.32a2.5,2.5,0,0,1,3.75-2.16l57.94,34.18Z"/><path class="cls-78" d="M719.26,371l-57.65-34.61A7.32,7.32,0,0,1,658,330.1V235.89a2.48,2.48,0,0,1,3.72-2.14l57.57,33.91Z"/><path class="cls-79" d="M719.25,370.67,662,336.27a7.27,7.27,0,0,1-3.61-6.27V236.47a2.46,2.46,0,0,1,3.69-2.12L719.25,268Z"/><path class="cls-80" d="M719.24,370.31l-56.91-34.2a7.2,7.2,0,0,1-3.58-6.21V237a2.43,2.43,0,0,1,3.65-2.1l56.84,33.35Z"/><path class="cls-81" d="M719.24,370l-56.55-34a7.11,7.11,0,0,1-3.55-6.15V237.61a2.41,2.41,0,0,1,3.62-2.08l56.48,33.08Z"/><path class="cls-82" d="M719.23,369.6l-56.18-33.8a7.05,7.05,0,0,1-3.52-6.1V238.18a2.39,2.39,0,0,1,3.59-2.06l56.11,32.81Z"/><path class="cls-83" d="M719.22,369.24l-55.81-33.6a7,7,0,0,1-3.49-6V238.76a2.37,2.37,0,0,1,3.56-2l55.74,32.53Z"/><path class="cls-84" d="M719.21,368.89l-55.45-33.4a7,7,0,0,1-3.45-6V239.33a2.35,2.35,0,0,1,3.53-2l55.37,32.26Z"/><path class="cls-85" d="M719.2,368.53l-55.08-33.2a6.87,6.87,0,0,1-3.41-5.94V239.9a2.32,2.32,0,0,1,3.49-2l55,32Z"/><path class="cls-86" d="M719.2,368.17l-54.72-33a6.82,6.82,0,0,1-3.38-5.89V240.47a2.3,2.3,0,0,1,3.45-2l54.65,31.71Z"/><path class="cls-87" d="M719.19,367.81,664.84,335a6.74,6.74,0,0,1-3.35-5.83V241.05a2.28,2.28,0,0,1,3.42-2l54.28,31.44Z"/><path class="cls-88" d="M719.18,367.46l-54-32.6a6.66,6.66,0,0,1-3.32-5.77V241.62a2.26,2.26,0,0,1,3.39-2l53.91,31.17Z"/><path class="cls-89" d="M719.17,367.1l-53.61-32.39a6.6,6.6,0,0,1-3.29-5.72v-86.8a2.24,2.24,0,0,1,3.36-1.93l53.54,30.88Z"/><path class="cls-90" d="M719.17,366.74l-53.25-32.19a6.54,6.54,0,0,1-3.26-5.66V242.76a2.21,2.21,0,0,1,3.33-1.91l53.18,30.61Z"/><path class="cls-91" d="M719.16,366.38l-52.88-32a6.49,6.49,0,0,1-3.23-5.61V243.34a2.19,2.19,0,0,1,3.3-1.9l52.81,30.33Z"/><path class="cls-92" d="M719.15,366l-52.51-31.79a6.42,6.42,0,0,1-3.2-5.55V243.91A2.17,2.17,0,0,1,666.7,242l52.45,30.06Z"/><path class="cls-93" d="M719.14,365.67,667,334.09a6.36,6.36,0,0,1-3.16-5.5V244.48a2.15,2.15,0,0,1,3.23-1.86l52.08,29.79Z"/><path class="cls-94" d="M719.14,365.31l-51.79-31.38a6.29,6.29,0,0,1-3.13-5.44V245.05a2.13,2.13,0,0,1,3.2-1.84l51.72,29.51Z"/><path class="cls-95" d="M719.13,365l-51.42-31.18a6.24,6.24,0,0,1-3.1-5.4V245.63a2.11,2.11,0,0,1,3.17-1.83L719.13,273Z"/><path class="cls-96" d="M719.12,364.6l-51-31a6.17,6.17,0,0,1-3.07-5.34V246.2a2.09,2.09,0,0,1,3.14-1.81l51,29Z"/><path class="cls-97" d="M719.11,364.24l-50.68-30.78a6.1,6.1,0,0,1-3-5.28V246.77a2.07,2.07,0,0,1,3.1-1.79l50.62,28.69Z"/><path class="cls-98" d="M719.11,363.88l-50.32-30.57a6,6,0,0,1-3-5.23V247.34a2,2,0,0,1,3.07-1.76L719.11,274Z"/><path class="cls-99" d="M719.1,363.53l-50-30.38a6,6,0,0,1-3-5.17V247.92a2,2,0,0,1,3-1.75l49.89,28.14Z"/><path class="cls-100" d="M719.09,363.17,669.51,333a5.91,5.91,0,0,1-3-5.12V248.49a2,2,0,0,1,3-1.73l49.52,27.86Z"/><path class="cls-101" d="M719.08,362.81l-49.21-30a5.84,5.84,0,0,1-2.92-5.06V249.06a2,2,0,0,1,3-1.71l49.15,27.59Z"/><path class="cls-102" d="M719.08,362.46l-48.86-29.77a5.81,5.81,0,0,1-2.88-5V249.63a2,2,0,0,1,2.95-1.69l48.79,27.32Z"/><path class="cls-103" d="M719.07,362.1l-48.49-29.57a5.73,5.73,0,0,1-2.85-4.95V250.21a1.94,1.94,0,0,1,2.91-1.68l48.43,27Z"/><path class="cls-104" d="M719.06,361.74l-48.12-29.36a5.69,5.69,0,0,1-2.82-4.9v-76.7a1.92,1.92,0,0,1,2.88-1.66l48.06,26.77Z"/><path class="cls-105" d="M719.05,361.38,671.3,332.22a5.61,5.61,0,0,1-2.79-4.84v-76a1.9,1.9,0,0,1,2.85-1.64l47.69,26.49Z"/><path class="cls-106" d="M719.05,361l-47.39-29a5.53,5.53,0,0,1-2.76-4.79V251.92a1.88,1.88,0,0,1,2.82-1.62l47.33,26.22Z"/><path class="cls-107" d="M719,360.67l-47-28.76a5.47,5.47,0,0,1-2.73-4.74V252.5a1.86,1.86,0,0,1,2.79-1.61l47,25.95Z"/><path class="cls-108" d="M719,360.31l-46.65-28.56a5.41,5.41,0,0,1-2.7-4.68v-74a1.84,1.84,0,0,1,2.76-1.58L719,277.15Z"/><path class="cls-109" d="M719,360,672.74,331.6a5.36,5.36,0,0,1-2.67-4.63V253.64a1.81,1.81,0,0,1,2.72-1.56L719,277.47Z"/><path class="cls-110" d="M719,359.6,673.1,331.44a5.28,5.28,0,0,1-2.63-4.57V254.21a1.78,1.78,0,0,1,2.68-1.54L719,277.79Z"/><path class="cls-111" d="M719,359.24l-45.56-27.95a5.25,5.25,0,0,1-2.59-4.52v-72a1.76,1.76,0,0,1,2.65-1.53L719,278.1Z"/><path class="cls-112" d="M719,358.88l-45.19-27.75a5.14,5.14,0,0,1-2.56-4.46V255.36a1.74,1.74,0,0,1,2.62-1.51L719,278.42Z"/><path class="cls-113" d="M719,358.53,674.17,331a5.11,5.11,0,0,1-2.53-4.41V255.93a1.72,1.72,0,0,1,2.59-1.49L719,278.74Z"/><path class="cls-114" d="M719,358.17l-44.46-27.35a5,5,0,0,1-2.5-4.35v-70a1.7,1.7,0,0,1,2.55-1.47l44.41,24Z"/><path class="cls-69" d="M719,357.81l-44.09-27.15a5,5,0,0,1-2.47-4.29V257.08a1.68,1.68,0,0,1,2.52-1.46l44,23.75Z"/></g><path class="cls-10" d="M801.68,325,671.76,250.13a2.44,2.44,0,0,0-3.66,2.11v92.37a7.21,7.21,0,0,0,3.59,6.23L801.61,426.3a2.44,2.44,0,0,0,3.66-2.11v-93A7.22,7.22,0,0,0,801.68,325Z"/><path class="cls-133" d="M802.14,426.27v-93a7.21,7.21,0,0,0-3.59-6.23L668.63,252.22a2.37,2.37,0,0,0-.5-.2,2.43,2.43,0,0,1,3.63-1.89L801.68,325a7.22,7.22,0,0,1,3.59,6.24v93a2.43,2.43,0,0,1-3.16,2.31A1.81,1.81,0,0,0,802.14,426.27Z"/><path class="cls-16" d="M798.83,360.78,676.27,290.92l0-2.74,122.59,69.87Zm0-17.12-23.52-13.4,0,4.11,23.56,13.41Zm-.26,26.3L676,300.09l0,2.74,122.55,69.86Zm-.25,11.91L675.73,312l0,2.74L798.32,384.6Zm-.25,11.92L675.48,323.92l0,2.74,122.55,69.85Zm0,12-69.62-39.68,0,2.74,69.58,39.69Z"/><path class="cls-68" d="M476.31,484.23l-2-.58a11.12,11.12,0,0,0-9.52,1.64l-2.09-1.54-2.13,4.9-10.26-.87,2.24,9.11a1.67,1.67,0,0,0,1.16,1.22l4.22,1.24a10.25,10.25,0,0,0,10-2.42l9.35-8.9A2.26,2.26,0,0,0,476.31,484.23Z"/><path class="cls-10" d="M476.31,484.23l-2-.58a11.12,11.12,0,0,0-9.52,1.64l-2.09-1.54-2.13,4.9-10.26-.87,1.16,4.73a6.07,6.07,0,0,0,4.18,4.37l1.8.53a10.25,10.25,0,0,0,10-2.42l9.35-8.9a1,1,0,0,0-.45-1.86Z"/><path class="cls-68" d="M461.88,487.67c2.15-2.05,1.57-4.4-1.28-5.23a10.4,10.4,0,0,0-9.08,2.23c-2.13,2-1.56,4.4,1.28,5.22A10.39,10.39,0,0,0,461.88,487.67Z"/><path class="cls-73" d="M456.25,488a3.38,3.38,0,0,1-3.39-3.38V471.54a3.39,3.39,0,1,1,6.78,0V484.6A3.38,3.38,0,0,1,456.25,488Z"/><path class="cls-16" d="M456.25,483.93H456c-2.94-.13-5.21,1.23-5.08-1.7l1.45-33.87-1.45-51.13a5.33,5.33,0,0,1,5.17-5.47c2.92-.1,6.84,2.23,6.92,5.17v51.71l-1.45,34.07C461.44,485.55,459.08,483.93,456.25,483.93Z"/><path class="cls-68" d="M490.52,497.25l-1.81-1a11.08,11.08,0,0,0-9.64-.68l-1.66-2-3.23,4.25-9.75-3.29v9.38a1.7,1.7,0,0,0,.84,1.47l3.8,2.2a10.25,10.25,0,0,0,10.25,0l11.2-6.43A2.25,2.25,0,0,0,490.52,497.25Z"/><path class="cls-10" d="M490.52,497.25l-1.81-1a11.08,11.08,0,0,0-9.64-.68l-1.66-2-3.23,4.25-9.75-3.29v4.87a6.06,6.06,0,0,0,3,5.24l1.63.94a10.25,10.25,0,0,0,10.25,0l11.2-6.43a2.2,2.2,0,0,0,.89-1A2.27,2.27,0,0,0,490.52,497.25Z"/><path class="cls-68" d="M475.69,497.16c2.57-1.48,2.57-3.9,0-5.38a10.4,10.4,0,0,0-9.35,0c-2.56,1.48-2.56,3.9,0,5.38A10.4,10.4,0,0,0,475.69,497.16Z"/><path class="cls-73" d="M471,496.61a3.39,3.39,0,0,1-3.39-3.39V480.17a3.39,3.39,0,1,1,6.77,0v13.05A3.38,3.38,0,0,1,471,496.61Z"/><path class="cls-16" d="M471,493.78a3.31,3.31,0,0,1-.44,0c-2.93-.24-5.11.08-4.87-2.85l2.87-38.86L457,401.72c-.19-2.93,10.76-.87,13.69-1.06a5.34,5.34,0,0,1,5.65,5l2.92,46.51-2.93,39.63C476.08,494.56,473.75,493.78,471,493.78Z"/><path class="cls-68" d="M456.25,406A3.87,3.87,0,0,1,452.9,404l-7-12.12a29.06,29.06,0,0,1,7.54-37.58l1.92-1.46a3.87,3.87,0,0,1,4.69,6.16l-1.92,1.46a21.3,21.3,0,0,0-5.53,27.55l7,12.12a3.88,3.88,0,0,1-3.35,5.81Z"/><path class="cls-17" d="M449.9,334.05l16.71,9.64a24,24,0,0,1,12,20.74V412c-6.79,4.75-25-1.86-28.69-9.3L451,392.29a72.24,72.24,0,0,0,.62-12.47Z"/><path class="cls-68" d="M480,380.73a11.38,11.38,0,0,1-3.35-.5,11.14,11.14,0,0,1-7.88-9.33l-1.56-12.09a3.87,3.87,0,0,1,7.67-1l1.56,12.09a3.53,3.53,0,0,0,6.14,1.87L493.74,359a3.87,3.87,0,0,1,5.81,5.11l-11.2,12.74A11.14,11.14,0,0,1,480,380.73Z"/><path class="cls-66" d="M499.23,355.81l3.5-3.68a.75.75,0,0,0-.05-1.05l-.41-.42a.75.75,0,0,0-1,0l-6.29,6.61a.68.68,0,0,0-.17.31,4.12,4.12,0,0,0-.59,1,1.82,1.82,0,0,0-.44.4l-1.84,2.1,5.43,5.56,1.4-1.6a4.68,4.68,0,0,0,.51-9.3Z"/><path class="cls-66" d="M456.39,321.8h19.68a0,0,0,0,1,0,0v8.62A14.11,14.11,0,0,1,462,344.53h-5.57a0,0,0,0,1,0,0V321.8A0,0,0,0,1,456.39,321.8Z"/><path d="M476.37,324.59c-2.52,2.32-7,6-8,9.33-1.68,5.29,1.07,10.86,1.51,16.37.4,5.12-1.79,13.09-6.13,16.38a5.38,5.38,0,0,1-1.73.85,8,8,0,0,1-1.24.29l-.5.06-.79.07-.73,0-.45,0a17.59,17.59,0,0,1-7.82-2c-3.16-1.88-4.14-6.61-5.7-9.65-2.6-5.15-1.42-8.32,1.06-13.27a25.26,25.26,0,0,0,2.6-11.21,29.12,29.12,0,0,1,.07-5c1-6.57,7.77-8.61,13.2-10.34a26.3,26.3,0,0,1,9.64-1.25h.07a11.86,11.86,0,0,1,1.35.19,11.1,11.1,0,0,1,1.35.33,7.28,7.28,0,0,1,3.35,2.15C479.74,320.5,478.6,322.53,476.37,324.59Z"/><g id="NOGI"><path class="cls-68" d="M709.56,621.47c-2.34-1.34-5.11-3.36-7.62-3a26.38,26.38,0,0,1-3.54.36l-5.12.7,4.09-86.21c0-3.65-7.1-6.61-10.75-6.61a6.61,6.61,0,0,0-6.61,6.61l2.77,45.48-2,41h-.09v7a4.83,4.83,0,0,0,2.4,4.17l.94.68a13.51,13.51,0,0,0,13.25.2l12.27-6.65A2.1,2.1,0,0,0,709.56,621.47Z"/><path class="cls-134" d="M709.51,623.54l-12.27,6.65A13.53,13.53,0,0,1,684,630l-.94-.68a4.83,4.83,0,0,1-2.4-4.17v1.59a4.83,4.83,0,0,0,2.4,4.17l.94.68a13.51,13.51,0,0,0,13.25.2l12.27-6.65a2.07,2.07,0,0,0,.92-2.64A2.07,2.07,0,0,1,709.51,623.54Z"/><path class="cls-10" d="M700.45,622.84l1.43-.7-1.71-3.46a14.06,14.06,0,0,1-1.72.12Z"/><polygon class="cls-10" points="697.55 623.55 698.98 622.84 697.07 618.98 695.4 619.21 697.55 623.55"/><path class="cls-68" d="M729.46,635.44c-2.33-1.34-5.1-3.36-7.62-3a27.79,27.79,0,0,1-3.53.37l-4.5.61V547.44a6.61,6.61,0,0,0-6.61-6.61c-3.65,0-10.75,3-10.75,6.61l5,42.6-.83,43.71h-.05v7a4.84,4.84,0,0,0,2.4,4.18l.94.68a13.53,13.53,0,0,0,13.25.2l12.26-6.65A2.1,2.1,0,0,0,729.46,635.44Z"/><path class="cls-134" d="M729.41,637.51l-12.26,6.65a13.51,13.51,0,0,1-13.25-.2l-.94-.68a4.81,4.81,0,0,1-2.4-4.17v1.59a4.84,4.84,0,0,0,2.4,4.18l.94.68a13.53,13.53,0,0,0,13.25.2l12.26-6.65a2.09,2.09,0,0,0,.93-2.65A2,2,0,0,1,729.41,637.51Z"/><path class="cls-10" d="M720.35,636.82l1.43-.71-1.71-3.46a14,14,0,0,1-1.71.12Z"/><polygon class="cls-10" points="717.45 637.52 718.88 636.82 716.97 632.96 715.31 633.18 717.45 637.52"/></g><g id="sheja"><path class="cls-66" d="M696.78,486.62a3.78,3.78,0,0,1-3.78-3.78V468a3.78,3.78,0,0,1,7.56,0v14.84A3.78,3.78,0,0,1,696.78,486.62Z"/></g><path id="RYKA" class="cls-68" d="M684.84,532.93a3.75,3.75,0,0,1-2.62-1.06L675.15,525a25.32,25.32,0,0,1,1.69-37.91l7.84-6.33a3.78,3.78,0,1,1,4.74,5.88L681.58,493a17.76,17.76,0,0,0-1.18,26.6l7.07,6.83a3.78,3.78,0,0,1-2.63,6.49Z"/><g id="telo"><path class="cls-16" d="M682.08,525.79l-2.83,21a7.44,7.44,0,0,0,3.72,6.44l17.24,9.68a6.92,6.92,0,0,0,10.37-6V514.28c0-2.66,5.53-.83,3.23-2.16l-24.18-14C685,495.5,682.08,520.47,682.08,525.79Z"/><path class="cls-17" d="M679.78,492l1.31,20.36c-.44,4.33-.29,8.67-.73,13-.25,2.5-1.63,18.5-1.13,20.93.33,1.56,4.61,5,10.33,7.93.52.28,1.06-13,1.61-12.74s1,14,1.53,14.26c7.27,3.26,15.93,5.35,21.79,2.52l-.68-24.88L715,517.91c.74-10.63,2.79-24.82-7.66-31.34-.45-.27-.9-.54-1.36-.79l-11.13-6.07a8.45,8.45,0,0,0-8.48,0h0A13.26,13.26,0,0,0,679.78,492Z"/></g><g id="RYKA-2" data-name="RYKA"><path class="cls-66" d="M754.45,468l-2,3.59a4.16,4.16,0,0,0-2.15-4,4,4,0,0,0-4.33.18l1-1.93a1,1,0,0,1,.11-.28l4.62-8.06a.72.72,0,0,1,1-.26.72.72,0,0,1,.28,1l-2.39,4.19a3.86,3.86,0,0,1,2.33.45A3.76,3.76,0,0,1,754.45,468Z"/><path class="cls-68" d="M752.46,471.55a4.29,4.29,0,0,1-.5,1.68L740.81,493.5a18.83,18.83,0,0,1-15.8,9.68l-19,.61h-.13a4.17,4.17,0,0,1-.15-8.34l19-.63a10.44,10.44,0,0,0,8.75-5.35l11.14-20.29a3.88,3.88,0,0,1,1.34-1.44,4,4,0,0,1,4.33-.18A4.16,4.16,0,0,1,752.46,471.55Z"/></g><g id="GOLOVA"><path class="cls-66" d="M693.55,453.48h18.62a0,0,0,0,1,0,0v12.78a12.37,12.37,0,0,1-12.37,12.37h0a6.25,6.25,0,0,1-6.25-6.25v-18.9A0,0,0,0,1,693.55,453.48Z" transform="translate(9.5 -14.03) rotate(1.15)"/><path class="cls-135" d="M711,453.64l-.26,13.06a12.08,12.08,0,0,1-12.32,11.84l1.38,0a12.08,12.08,0,0,0,12.32-11.84l.27-13.06Z"/><path class="cls-134" d="M716.75,448.77c-.9-1.93-3-3.27-5.18-2.22-1,.49-1.71.75-2.68.13-1.29-.82-1.61-1.34-3.37-1.13-.71.09-1.66.69-2.33.66-1.42-.06-2.33-1.2-4-.74a4.86,4.86,0,0,1-2.79.24,5.06,5.06,0,0,0-2.67.17c-1.7.66-1.62,1.92-2.61,3.06-.84.95-2,.28-3,1.17a2.77,2.77,0,0,0-.68,3.11c.21.49.58,1,.37,1.51-.15.34-.53.51-.8.78-1,.95-.25,2.6.47,3.77a1.4,1.4,0,0,1,.27.75,1.73,1.73,0,0,1-.52.9,3.45,3.45,0,0,0,.36,4.53c.57.52,1.38.94,1.48,1.71a3.18,3.18,0,0,1-.24,1.24,3.76,3.76,0,0,0,1.79,4.19c1.69.91.07,4,2.69,4.26,2.06.24,4-2.29,4.47-4-.07.26,1.34-.44,1.46-.56a4.77,4.77,0,0,0,.66-1.69,12.6,12.6,0,0,0,.74-3.36c0-.42.05-5.25.5-5.26a8.17,8.17,0,0,0,2.7-.33c2-.74,1.22-2.08,2-3.49.39-.68,1.28-.81,1.7-1.5a4.17,4.17,0,0,0,.28-2.61c1.8.42,4,.85,5.81.14,1.44-.59,3.46-1.57,3.53-3.29A4.61,4.61,0,0,0,716.75,448.77Z"/><path class="cls-136" d="M717.19,450.9c-.07,1.72-2.09,2.7-3.53,3.29a6.89,6.89,0,0,1-3.24.32,5.35,5.35,0,0,0,1.65-.36c1.44-.58,3.45-1.56,3.53-3.28a4.74,4.74,0,0,0-.44-2.13,4.42,4.42,0,0,0-2.79-2.47,4,4,0,0,1,4.38,2.5A4.61,4.61,0,0,1,717.19,450.9Z"/><g id="exo"><path class="cls-66" d="M704.47,467.7a2.74,2.74,0,1,1-2.73-2.74A2.73,2.73,0,0,1,704.47,467.7Z"/></g></g></g></g></g></svg>