<?xml version="1.0" encoding="utf-8"?>
<!-- Generator: Adobe Illustrator 19.0.0, SVG Export Plug-In . SVG Version: 6.00 Build 0)  -->
<svg version="1.1" id="Layer_1" xmlns="http://www.w3.org/2000/svg" xmlns:xlink="http://www.w3.org/1999/xlink" x="0px" y="0px"
	 width="1116.7775879px" height="200.1533203px" viewBox="0 0 1116.7775879 200.1533203"
	 style="enable-background:new 0 0 1116.7775879 200.1533203;" xml:space="preserve">
<style type="text/css">
	.st0{fill:#02507F;}
	.st1{fill:#40B9EA;}
</style>
<g>
	<path class="st0" d="M889.8894653,148.4854584c0.0021362,15.160614-0.1503296,30.3236847,0.093811,45.4803925
		c0.074585,4.6303101-1.5337524,6.2675171-6.0386353,6.0751648c-5.6542358-0.2414246-11.3291016-0.1757202-16.9896851-0.031189
		c-3.8896484,0.0993347-5.420166-1.6333618-5.2824707-5.4075317c0.1335449-3.6601257,0.0713501-7.3304443-0.0126953-10.9938354
		c-0.0327148-1.4298401,0.6483765-3.3325195-0.8733521-4.1394348c-1.6426392-0.8710022-2.6300049,0.9672546-3.7219238,1.8519287
		c-14.9296875,12.0957336-32.1607056,18.5437927-51.1931763,18.4385376
		c-25.3035278-0.1398621-46.5272827-10.2552795-63.1865234-29.4676819
		c-29.8273926-34.398468-28.6742554-88.0067825,2.6170044-121.0211487
		c9.4564819-9.9772491,20.5961914-17.3500824,33.5579224-21.9233093c4.9915161-1.7611542,5.6392822-1.3341446,5.7064819,3.725975
		c0.0862427,6.4962311-0.0505371,12.9955521,0.0487671,19.4914169c0.0452881,2.9611816-0.9036255,4.9531555-3.6790161,6.4053192
		c-34.9122314,18.2669029-43.1591187,67.5898285-14.3864136,98.0236664
		c24.557312,25.975174,67.2834473,20.6903229,86.2114258-10.5239868
		c17.2944946-28.5207138,9.9884033-70.4302139-22.4613647-87.473114c-2.7503052-1.4444733-3.793396-3.3721466-3.7441406-6.3623505
		c0.1070557-6.4956055-0.0316162-12.9949875,0.0480957-19.4913788c0.0628662-5.1119919,0.7251587-5.6156998,5.6438599-3.8131409
		c24.3873901,8.9371262,41.2111816,25.7664948,51.2102051,49.5633202
		c4.3052979,10.2462006,6.5087891,20.9469604,6.4468994,32.1082153
		C889.831604,122.1623154,889.8873901,135.3240356,889.8894653,148.4854584z"/>
	<path class="st1" d="M408.2129517,127.1025467c-14.6631775,0.0020905-29.3276978,0.1118622-43.9888-0.0631104
		c-4.54776-0.0542908-6.0458984,1.4903488-4.9686279,5.9505692c0.8574524,3.5498505,1.0041504,7.2749176,1.9069824,10.8096466
		c4.4891052,17.575119,17.46698,28.6699219,35.5404358,31.2416687c17.953186,2.5546265,35.1669617-0.3210449,52.0737305-6.1286316
		c5.3612976-1.8416443,5.6917419-1.7162933,6.7016296,3.9834595c0.4358215,2.4595947,0.823822,4.9278259,1.2759705,7.3843689
		c1.7110596,9.2958984,1.7953186,9.5266113-6.9308777,12.4519043c-19.539978,6.550415-39.6100769,9.3591614-60.0625,5.9871826
		c-28.5275879-4.7032776-48.0583496-20.6945801-56.5670471-48.5831451
		c-8.3842468-27.4806595-6.4780273-54.325386,7.7289124-79.7576981
		c18.5593872-33.223896,64.7642822-44.0544777,96.0383911-22.4555168
		c13.3051147,9.1889648,19.7306824,22.6712303,22.461853,38.1276817c2.0209656,11.437027,1.2782898,22.8539734-0.6324768,34.2890625
		c-0.8375549,5.0124969-2.7374878,7.0192108-8.0907593,6.8827362
		C436.5456543,126.8618698,422.3762512,127.1004562,408.2129517,127.1025467z M395.1523438,104.0203476
		c10.3122253,0,20.6282349-0.1642151,30.934906,0.0749207c4.5940857,0.1065826,6.412262-1.8577271,6.3274841-6.1533356
		c-0.1285706-6.5150299-0.8995056-12.9376068-3.0829163-19.1131439
		c-2.7297668-7.7207336-7.4471741-13.8638763-15.2183228-16.8816338
		c-12.5595398-4.8772125-24.826355-4.2579956-36.1170959,3.5968742
		c-11.6097412,8.0767975-16.2440491,20.1311798-18.5575562,33.4923401c-0.6687927,3.862381,0.4957581,5.0815125,4.2785339,5.0305176
		C374.1940002,103.9256668,384.6737976,104.0179672,395.1523438,104.0203476z"/>
	<path class="st1" d="M1065.590332,110.487114c0,11.9978027-0.0004883,23.9955978,0.0013428,35.9934006
		c0.0001221,0.8331146,0.0123291,1.6663513,0.0286865,2.4993439c0.4094238,20.9156647,10.8199463,29.7294617,31.5222168,26.5888977
		c4.1107178-0.6235962,8.2286377-1.3612976,12.2381592-2.437439c2.8974609-0.7776489,4.5383301-0.2699585,4.9118652,2.8464966
		c0.6141357,5.1240234,1.1806641,10.2538452,1.8221436,15.3743286c0.2902832,2.3167419-0.9914551,3.3925171-2.9407959,3.9433289
		c-15.5722656,4.4003296-31.3068848,7.0964966-47.2418213,2.2766418
		c-14.2655029-4.3149414-22.8269043-14.5182495-27.012085-28.4701233
		c-2.3018799-7.6743622-3.3557129-15.6150055-3.3493652-23.6704865c0.0195313-24.6621475,0.0089111-49.3243179-0.0008545-73.9864731
		c-0.0029297-7.3029785-0.0192871-7.3096008-7.0976563-7.3293304c-5.3324585-0.0148773-10.6665649-0.0971069-15.9963989,0.0180664
		c-3.2974854,0.0712433-4.9812012-1.1142693-4.8986816-4.6202049c0.1177979-4.9962006,0.0961914-9.9983826,0.008667-14.9957886
		c-0.0560303-3.1972809,1.4134521-4.499733,4.5396729-4.4655762c6.1645508,0.067337,12.3334351-0.1116333,18.4951782,0.033638
		c3.6695557,0.086525,5.0324707-1.4399261,4.9869385-5.053154c-0.1235352-9.8299026,0.0994873-19.6650696-0.0916748-29.492775
		c-0.0809326-4.1600571,1.5421143-5.6440964,5.5959473-5.5113449c6.1589355,0.2016907,12.3366699,0.2369766,18.4925537-0.0067368
		c4.6627197-0.1845932,6.1166992,1.860733,6.0246582,6.2709198c-0.1945801,9.327507,0.0969238,18.6654892-0.1185303,27.9920654
		c-0.0997314,4.3174362,1.4368896,5.8999481,5.795166,5.8354034c12.994751-0.1924438,25.9967041,0.0775833,38.9904785-0.1410294
		c4.6237793-0.0777893,6.8280029,1.2250519,6.4372559,6.1967468c-0.3254395,4.1404266-0.2486572,8.3364868-0.0196533,12.4896851
		c0.2293701,4.157959-1.5043945,5.5540123-5.5695801,5.5024834c-12.8288574-0.1625824-25.6612549-0.0664368-38.4921875-0.0505219
		c-6.9892578,0.0086823-7.0623779,0.0733643-7.0718994,6.87677c-0.0184326,13.1642456-0.0053711,26.3285065-0.0053711,39.4927673
		C1065.5799561,110.487114,1065.585083,110.487114,1065.590332,110.487114z"/>
	<path class="st1" d="M664.5906982,111.0010147c0,12.6610718,0.0263672,25.3222427-0.0169678,37.9831619
		c-0.012085,3.5258331,0.446167,6.9756775,1.2099609,10.39711c2.2965088,10.2875824,9.1922607,16.0635681,19.7168579,16.5749817
		c7.5648804,0.3675842,14.9926758-0.5610657,22.2037964-2.7671814c3.7359619-1.1429443,5.2686768,0.0671997,5.6142578,3.7206726
		c0.4232178,4.4728394,0.8488159,8.953125,1.5269775,13.391449c0.4429932,2.8991089-0.6906128,4.4494019-3.3398438,5.1605835
		c-14.932373,4.0088501-29.9540405,6.5911865-45.3291626,2.5311279
		c-16.5291748-4.3647461-27.8667603-18.9463196-30.621582-38.7355499
		c-1.2026367-8.6391602-0.9737549-17.2777863-0.9924316-25.9282074
		c-0.0454102-20.9907761-0.1295776-41.9827957,0.0706787-62.9717484c0.0452881-4.7500763-1.4111938-6.6057549-6.2648315-6.3208923
		c-5.6444702,0.3312683-11.3255615-0.0179443-16.9873047,0.0973053c-3.3479004,0.0681458-4.9139404-1.2308769-4.8295288-4.6868706
		c0.1220703-4.9947815,0.1014404-9.9958496,0.0133057-14.9919739c-0.057373-3.2458191,1.5209961-4.4369583,4.5977173-4.4030533
		c5.99646,0.0660934,12.0010376-0.1701508,17.989502,0.0555267c4.2004395,0.1583023,5.5302124-1.5906754,5.4514771-5.6187668
		c-0.1856079-9.4921951,0.1418457-18.9963303-0.1364746-28.4839554c-0.1376953-4.6928406,1.6959839-6.1861496,6.1508179-5.9875412
		c5.6528931,0.2520142,11.3257446,0.0351181,16.9897461,0.0665436c6.4478149,0.0357742,6.8931885,0.450264,6.9212036,6.7388687
		c0.0408325,9.1624985,0.1662598,18.3289185-0.0506592,27.4864044c-0.1030273,4.3448639,1.5095825,5.8700104,5.8319092,5.8093033
		c13.1583252-0.1847763,26.3222656,0.0455856,39.4810181-0.1239014c4.2086182-0.0542145,6.1828003,1.2329712,5.9047241,5.7064667
		c-0.2681885,4.3148346-0.2364502,8.6685333-0.0102539,12.9880829c0.2184448,4.1717834-1.5476074,5.5301476-5.5953979,5.4797935
		c-12.9924927-0.1615906-25.9922485,0.1284332-38.9807739-0.148819c-4.9519653-0.1056786-6.7786865,1.3670044-6.6665649,6.5008545
		c0.2946777,13.4877014,0.0995483,26.986084,0.0995483,40.4802094
		C664.5585327,111.0009995,664.574585,111.0009995,664.5906982,111.0010147z"/>
	<path class="st1" d="M528.8942261,200.0437927c-12.0182495-0.3185425-26.35672-2.9452209-40.3362732-7.7614441
		c-3.5283203-1.2155762-4.7870483-3.0115662-3.87146-6.6640015c1.1739502-4.683197,2.1538086-9.4217834,3.0282593-14.1712646
		c0.6855469-3.7234802,2.2764282-4.5005646,5.9052734-3.0986023c13.3228149,5.1471863,27.087738,8.1885376,41.4868469,7.624054
		c6.380127-0.2501526,12.5871582-1.3379517,18.4573975-3.941803c13.9901733-6.2055054,16.085083-22.2504425,4.0728149-31.8820496
		c-7.7833862-6.2408295-17.1828003-9.432663-26.1995239-13.3109512
		c-11.3289185-4.8728333-22.4260559-9.8935547-31.9930725-18.1408997
		c-21.6671448-18.6784668-16.7391357-56.0316124,13.2915344-67.0537567
		c24.0714722-8.8349457,47.7786255-6.2214279,70.986145,3.8154907c2.9279785,1.2662811,3.4123535,3.2057648,2.7614746,6.0007477
		c-1.0957031,4.7047882-2.1174927,9.4291687-3.0460205,14.1696434c-0.5646362,2.8823547-1.6558838,4.0751801-4.7585449,2.6809387
		c-9.9741821-4.4820671-20.500061-6.8159294-31.3731079-7.8072166c-7.5998535-0.6928864-14.8757324,0.4666595-22.1218872,2.7349396
		c-11.5501099,3.615551-13.0130005,20.6872368-3.553833,27.1788445c8.3355713,5.7205811,17.6091309,9.422699,26.6676636,13.5840302
		c9.3890381,4.3131256,18.84375,8.3376465,27.3331299,14.4347687c31.3083496,22.4858322,20.8632202,61.0933914-9.0078735,74.407753
		C555.5513306,197.7780151,544.196167,200.0563049,528.8942261,200.0437927z"/>
	<path class="st1" d="M261.7607117,67.1212997c5.1890259-6.7818413,9.2273865-13.6847496,15.6597595-18.7282372
		c11.7758179-9.2332153,25.2239685-11.263237,39.6353149-9.3727875c3.5144043,0.4610138,4.7784424,2.3830185,4.6871643,5.7761383
		c-0.1298523,4.8274994-0.2165833,9.6707764,0.0290527,14.4894257c0.2177734,4.2710876-1.3156433,6.1534081-5.7321472,5.8484306
		c-6.1908569-0.4275208-12.2836609,0.5464478-18.3387451,1.8027191
		c-13.9925842,2.9031067-24.4443359,10.8227692-32.3518066,22.4965515c-1.728302,2.5515442-1.7565002,5.2884674-1.756012,8.128006
		c0.0055542,31.6518936,0.0088806,63.3037796-0.0022583,94.9556656c-0.0026245,7.5010376-0.0362549,7.5184937-7.4910889,7.5282593
		c-5.9971008,0.0078735-11.9949951-0.0699158-17.9910889,0.0058594c-3.1546631,0.0398254-4.5563965-1.3296204-4.5172729-4.4918213
		c0.0700684-5.6629639-0.0033569-11.3276062-0.0036316-16.9915466
		c-0.0020752-43.8128662-0.0054016-87.6257248,0.0037842-131.4385834c0.0014648-6.9393082,0.1215515-7.0467224,6.9165649-7.0701904
		c5.33078-0.0184174,10.6655579,0.1276703,15.9911804-0.0375748c3.8377991-0.1190796,5.4058838,1.3941956,5.3117065,5.2873917
		C261.635376,52.5759239,261.7607117,59.8501244,261.7607117,67.1212997z"/>
	<path class="st1" d="M936.6225586,66.2133102c4.7693481-5.8728142,8.3951416-11.8795128,13.7720337-16.5023766
		c12.274353-10.5528564,26.6073608-12.9293518,42.1253662-10.454628c2.994751,0.4775925,4.130127,2.3413544,4.0700684,5.2934494
		c-0.0950928,4.6638641,0.0090332,9.3314056-0.017334,13.9971466c-0.0354004,6.2916069-0.2440186,6.5290947-6.4362183,6.5396843
		c-12.1832275,0.0208435-23.8773804,1.9586334-34.4784546,8.4447479
		c-6.9884644,4.2757721-12.0444336,10.4111023-16.5980225,17.0454407c-1.6295166,2.3743134-1.3340454,5.0966034-1.335144,7.746048
		c-0.0125122,31.4951401-0.0020142,62.9902725-0.0145264,94.485405c-0.0028076,7.1873169-0.0536499,7.2213745-7.2623291,7.2359924
		c-5.8322754,0.0118408-11.6653442-0.0661621-17.4968262,0.0013123c-3.1571045,0.0365601-4.5327148-1.3588257-4.4963989-4.5173035
		c0.0727539-6.3313293-0.0023193-12.6642456-0.0026245-18.996521c-0.0021973-43.1600037-0.0056763-86.3200302,0.0045776-129.4800262
		c0.0016479-6.8360977,0.1519165-6.9684296,7.012146-6.9924469c5.3324585-0.0186768,10.6698608,0.142067,15.9959106-0.0419312
		c3.9464722-0.1363602,5.3001709,1.574852,5.2064209,5.3750916
		C936.500061,52.3288689,936.6225586,59.2725945,936.6225586,66.2133102z"/>
	<path class="st1" d="M108.2793274,38.9531517c33.8309021,0.0003738,67.6618042-0.0060501,101.4927063,0.0058975
		c6.6066132,0.0023346,6.7655945,0.1701508,6.7926941,6.6824112c0.0235748,5.6660461-0.056366,11.3328094,0.0014038,16.9983368
		c0.0316772,3.108242-1.2684479,4.6722221-4.4780273,4.5241051c-1.6626129-0.0767212-3.3322754,0.005722-4.998764,0.0057526
		c-59.162384,0.0010834-118.3263779-0.2145081-177.4855042,0.2247162
		c-9.2591553,0.0687256-15.1980639-3.4813652-20.0137672-10.413372c-2.8493843-4.1015625-5.5251694-8.3344879-8.0805588-12.6264954
		c-2.6163578-4.3944244-2.0198364-5.3690567,3.2772751-5.3783569c24.6648178-0.043335,49.3297539-0.0219193,73.9946518-0.0232849
		C88.6140671,38.9523201,98.446701,38.9527702,108.2793274,38.9531517z"/>
	<path class="st1" d="M129.6099548,82.0122147c26.8077698,0.0005798,53.6155548-0.009613,80.4233246,0.0081635
		c6.2468719,0.0041504,6.4953461,0.2702332,6.5305634,6.4422913c0.0313263,5.4945526-0.1854553,10.9979858,0.0609589,16.4815979
		c0.2072144,4.6110382-1.7527618,6.1075592-6.2032623,6.0831299c-23.1438751-0.1270599-46.2888336-0.055603-69.4334259-0.0546875
		c-22.9780884,0.0009155-45.96035-0.2460327-68.9318542,0.1429901c-7.3424759,0.1243439-12.4139862-2.8276215-16.7304153-8.0909119
		c-3.9181671-4.7776794-7.1833267-10.0041199-10.2684021-15.3421936c-2.826622-4.8908997-2.4351807-5.645874,3.130188-5.6549988
		c20.9799347-0.0344238,41.9599609-0.0151825,62.939949-0.0159149
		C117.2883759,82.0114517,123.4491577,82.0116348,129.6099548,82.0122147z"/>
	<path class="st1" d="M151.3569183,125.0814133c19.1594543-0.0023499,38.3189087-0.0111847,57.478363,0.0020447
		c7.5753174,0.0052185,7.7171478,0.1667786,7.7344513,7.9387589c0.0111237,4.9980927-0.2106323,10.0077972,0.0621185,14.990921
		c0.2484741,4.5392303-1.4377289,6.137207-6.0393372,6.1025543c-22.82341-0.1718597-45.648819-0.0768433-68.473526-0.0761719
		c-9.3298187,0.0002747-18.6737213-0.3116455-27.9845276,0.1090088c-6.2129669,0.2807007-10.4792633-2.5082092-14.2707672-6.7583923
		c-4.4618683-5.0016479-7.9462433-10.6883087-11.2609024-16.473053c-2.7183609-4.7441177-2.1421585-5.7998428,3.2765808-5.8135147
		C111.7051086,125.053566,131.5310516,125.0837784,151.3569183,125.0814133z"/>
	<path class="st1" d="M793.6296997,50.2468071c-0.0022583-8.4847641,0.1240845-16.9721832-0.0549316-25.4531708
		c-0.0914307-4.3292618,1.6812744-6.015419,5.9389648-5.8157806c4.4823608,0.2101898,8.9818115,0.1017456,13.4731445,0.0603485
		c3.1367188-0.0289154,4.5495605,1.4952011,4.5473022,4.5723114c-0.0131836,17.8010406-0.0145264,35.6021118,0.0046387,53.4031334
		c0.0032349,2.9867859-1.5203247,4.1199036-4.369751,4.0822296c-4.9899902-0.0660095-9.984314-0.1149292-14.9716187,0.0198212
		c-3.5545654,0.0960388-4.6219482-1.6809235-4.5923462-4.9157867
		C793.6843262,67.5495071,793.632019,58.8979301,793.6296997,50.2468071z"/>
</g>
</svg>
