<svg xmlns="http://www.w3.org/2000/svg" xmlns:xlink="http://www.w3.org/1999/xlink" viewBox="0 0 940.36 920.15"><defs><style>.cls-1{fill:#cfc7c7;}.cls-2{isolation:isolate;}.cls-3{fill:#e1e1e1;}.cls-4{fill:#eee;}.cls-5{clip-path:url(#clip-path);}.cls-6{clip-path:url(#clip-path-2);}.cls-7{fill:#cec7c7;}.cls-8{fill:#e8e6e6;}.cls-23,.cls-86,.cls-9{fill:#fff;}.cls-10{mix-blend-mode:multiply;}.cls-11,.cls-15{fill:#b7b8bb;}.cls-12,.cls-13,.cls-14,.cls-15{fill-rule:evenodd;}.cls-12{fill:url(#linear-gradient);}.cls-13{fill:#ccccd1;}.cls-14{fill:#e7e7e7;}.cls-16{fill:#00c8e3;}.cls-17{fill:#002bdc;}.cls-18{fill:#9197af;}.cls-19{fill:#f7f7f7;}.cls-20{fill:#b4bee1;}.cls-21{fill:#827c7b;}.cls-22{fill:#5342f1;}.cls-23,.cls-86,.cls-92{opacity:0.3;}.cls-24{opacity:0.6;}.cls-25{fill:#d7d5d9;}.cls-26{fill:#7e7d7f;}.cls-27{fill:#04adba;}.cls-28{fill:#021557;}.cls-29{fill:#f1eff3;}.cls-30{fill:#151d79;}.cls-31{fill:#c8c6ca;}.cls-32{fill:#d7d6d9;}.cls-33{fill:#7b7a7d;}.cls-34{fill:#f2b1b5;}.cls-35{fill:#f9f7f7;}.cls-36{fill:#3222eb;}.cls-37,.cls-92{fill:#cdcdd2;}.cls-38{fill:#2d1eec;}.cls-39{fill:#c3bab8;}.cls-40{fill:#beb5b3;}.cls-41{fill:#b9b0af;}.cls-42{fill:#b5acaa;}.cls-43{fill:#b0a7a6;}.cls-44{fill:#aba2a1;}.cls-45{fill:#a69e9c;}.cls-46{fill:#a19998;}.cls-47{fill:#9c9493;}.cls-48{fill:#97908f;}.cls-49{fill:#928b8a;}.cls-50{fill:#8e8785;}.cls-51{fill:#898281;}.cls-52{fill:#847d7c;}.cls-53{fill:#7f7978;}.cls-54{fill:#d2c8c6;}.cls-55{fill:#1e5d9d;}.cls-56{fill:#072742;}.cls-57{fill:#072641;}.cls-58{fill:#07253f;}.cls-59{fill:#07243d;}.cls-60{fill:#06233c;}.cls-61{fill:#06223a;}.cls-62{fill:#062138;}.cls-63{fill:#062037;}.cls-64{fill:#061f35;}.cls-65{fill:#061e33;}.cls-66{fill:#05192b;}.cls-67{fill:#051a2d;}.cls-68{fill:#051b2e;}.cls-69{fill:#051c30;}.cls-70{fill:#051d32;}.cls-71{fill:#12385f;}.cls-72{fill:#133a62;}.cls-73{fill:#143c66;}.cls-74{fill:#143f6a;}.cls-75{fill:#15416d;}.cls-76{fill:#164371;}.cls-77{fill:#164574;}.cls-78{fill:#174778;}.cls-79{fill:#18497c;}.cls-80{fill:#194c7f;}.cls-81{fill:#194e83;}.cls-82{fill:#1a5087;}.cls-83{fill:#1b528a;}.cls-84{fill:#1b548e;}.cls-85{fill:#1c5692;}.cls-86{mix-blend-mode:overlay;}.cls-87{fill:url(#Áĺçűě_ííűé_ăđŕäčĺíň_12);}.cls-88{fill:#8c8c8c;}.cls-89{fill:#151336;}.cls-90{fill:#155e7c;}.cls-91{fill:none;}</style><clipPath id="clip-path"><path class="cls-1" d="M938.79,480l-.21,72.9c0,12.23-8.07,24.44-24.12,33.76l.21-72.89C930.72,504.44,938.76,492.23,938.79,480Z"/></clipPath><clipPath id="clip-path-2"><path class="cls-1" d="M1.57,552.2l.2-72.9c0,12.39,8.15,24.8,24.53,34.26l-.21,72.9C9.71,577,1.53,564.59,1.57,552.2Z"/></clipPath><linearGradient id="linear-gradient" x1="931.48" y1="584.72" x2="943.04" y2="559.48" gradientTransform="matrix(1, 0.09, -0.09, 1, -385.51, 43.09)" gradientUnits="userSpaceOnUse"><stop offset="0" stop-color="#9c9c9c"/><stop offset="0.27" stop-color="#bdbdbd"/><stop offset="0.56" stop-color="#d9d9d9"/><stop offset="0.81" stop-color="#eaeaea"/><stop offset="1" stop-color="#f0f0f0"/></linearGradient><linearGradient id="Áĺçűě_ííűé_ăđŕäčĺíň_12" x1="539.2" y1="440.55" x2="582.07" y2="316.05" gradientUnits="userSpaceOnUse"><stop offset="0.11" stop-color="#f6c726"/><stop offset="0.39" stop-color="#f6c525"/><stop offset="0.54" stop-color="#f5bd23"/><stop offset="0.66" stop-color="#f3af1f"/><stop offset="0.77" stop-color="#f19c1a"/><stop offset="0.86" stop-color="#ef8313"/><stop offset="0.94" stop-color="#ec650b"/><stop offset="1" stop-color="#e94c04"/></linearGradient></defs><title>ic_rocket</title><g class="cls-2"><g id="Warstwa_2" data-name="Warstwa 2"><g id="Warstwa_44" data-name="Warstwa 44"><path class="cls-3" d="M912.84,617.83c33.78,19.24,34,50.44.41,69.67L532.59,905.73C499,925,444.44,925,410.66,905.72L27.52,687.51c-33.79-19.25-34-50.44-.41-69.68L407.77,399.61c33.56-19.24,88.14-19.24,121.94,0Z"/><path class="cls-4" d="M912.84,517.52c33.78,19.24,34,50.44.41,69.68L532.59,805.42c-33.56,19.24-88.15,19.23-121.93,0L27.52,587.2c-33.79-19.25-34-50.43-.41-69.67L407.77,299.31c33.56-19.24,88.14-19.24,121.94,0Z"/><path class="cls-1" d="M938.79,480l-.21,72.9c0,12.23-8.07,24.44-24.12,33.76l.21-72.89C930.72,504.44,938.76,492.23,938.79,480Z"/><g class="cls-5"><path class="cls-1" d="M938.79,480l-.21,72.9c0,12.23-8.07,24.44-24.12,33.76l.21-72.89c16.05-9.33,24.09-21.54,24.12-33.77"/></g><path class="cls-1" d="M1.57,552.2l.2-72.9c0,12.39,8.15,24.8,24.53,34.26l-.21,72.9C9.71,577,1.53,564.59,1.57,552.2Z"/><g class="cls-6"><path class="cls-1" d="M26.3,513.56l-.21,72.9c-8.12-4.69-14.22-10.1-18.31-15.88l.2-72.9c4.09,5.78,10.2,11.19,18.32,15.88"/><path class="cls-1" d="M8,497.68l-.2,72.9A31.48,31.48,0,0,1,1.57,552.2l.2-72.9A31.55,31.55,0,0,0,8,497.68"/></g><polygon class="cls-1" points="914.67 513.77 914.46 586.66 531.68 811.25 531.89 738.35 914.67 513.77"/><polygon class="cls-7" points="414.34 738.35 414.14 811.25 26.09 586.46 26.4 514.45 414.34 738.35"/><path class="cls-8" d="M471.72,748.94c-23.21,0-45.08-5.18-61.57-14.57L27,516.16c-16.73-9.53-26-22.27-26-35.86s9.06-26.14,25.57-35.6L407.26,226.48c16.38-9.39,38.18-14.57,61.38-14.57s45.08,5.18,61.57,14.58l383.14,218.2c16.73,9.53,26,22.27,26,35.87s-9.06,26.13-25.57,35.6L533.11,734.38C516.73,743.77,494.93,748.94,471.72,748.94Z"/><path class="cls-8" d="M468.64,212.94c22.07,0,44.17,4.81,61.07,14.44L912.84,445.59c33.78,19.24,34,50.43.41,69.67L532.59,733.49c-16.77,9.61-38.81,14.42-60.87,14.42s-44.17-4.81-61.06-14.43L27.52,515.27c-33.79-19.25-34-50.44-.41-69.68L407.77,227.37c16.78-9.62,38.81-14.43,60.87-14.43m0-2.06h0c-23.38,0-45.36,5.23-61.9,14.71L26.09,443.81C9.24,453.46,0,466.42,0,480.3s9.43,27,26.51,36.76l383.13,218.2c16.65,9.49,38.69,14.71,62.08,14.71s45.36-5.22,61.9-14.7L914.28,517.05c16.83-9.65,26.09-22.61,26.08-36.5s-9.44-27-26.5-36.75L530.72,225.59c-16.65-9.48-38.7-14.71-62.08-14.71Z"/><path class="cls-9" d="M471.72,740.71c-23.21,0-45.08-5.17-61.57-14.57L27,507.93c-16.73-9.53-26-22.26-26-35.86s9.06-26.13,25.57-35.6L407.26,218.25c16.38-9.39,38.18-14.56,61.38-14.56s45.08,5.17,61.57,14.57L913.35,436.47c16.73,9.53,26,22.26,26,35.86s-9.06,26.14-25.57,35.6L533.11,726.15C516.73,735.54,494.93,740.71,471.72,740.71Z"/><path class="cls-8" d="M468.64,204.71c22.07,0,44.17,4.82,61.07,14.44L912.84,437.36c33.78,19.24,34,50.44.41,69.68L532.59,725.26c-16.77,9.61-38.81,14.42-60.87,14.42s-44.17-4.81-61.06-14.43L27.52,507c-33.79-19.25-34-50.44-.41-69.68L407.77,219.14c16.78-9.62,38.81-14.43,60.87-14.43m0-2.05h0c-23.38,0-45.36,5.22-61.9,14.7L26.09,435.58C9.24,445.23,0,458.2,0,472.08s9.43,27,26.51,36.75L409.64,727c16.65,9.48,38.69,14.7,62.08,14.7s45.36-5.22,61.9-14.7L914.28,508.82c16.83-9.65,26.09-22.61,26.08-36.49s-9.44-27-26.5-36.76L530.72,217.36c-16.65-9.48-38.7-14.7-62.08-14.7Z"/><path class="cls-1" d="M531.78,738.36l-.2,72.9c-32.33,18.78-84.91,18.77-117.44,0l.2-71.84c33.93,16.36,85.64,16.36,117.44-1"/><g class="cls-10"><path class="cls-11" d="M279.59,431.94,516.4,569.88c20.63,11.34,54.07,10.91,74.68-.93l166-95.46c20.62-11.86,20.6-30.66,0-42L520.28,293.55c-20.62-11.34-54-10.91-74.67.94l-5.32,3.06L295.63,380.74l-16,9.21C259,401.81,259,420.61,279.59,431.94Z"/></g><polygon class="cls-12" points="489.34 712.4 498.54 679.85 510.45 686.82 489.34 712.4"/><polygon class="cls-13" points="499.53 676.33 515.88 618.53 525.36 691.43 499.53 676.33"/><path class="cls-14" d="M358.69,634.21,489.34,712.4l26.54-93.87L385.36,540.44Z"/><polygon class="cls-15" points="510.45 686.82 498.54 679.85 499.53 676.33 525.36 691.43 510.45 686.82"/><polygon class="cls-16" points="502.94 623.67 461.67 598.98 441.25 670.74 482.63 695.5 502.94 623.67"/><polygon class="cls-16" points="432.83 581.72 429.87 592.13 439.22 597.73 442.19 587.32 432.83 581.72"/><polygon class="cls-16" points="425.53 607.38 434.89 612.98 437.98 602.12 428.62 596.52 425.53 607.38"/><polygon class="cls-16" points="419.94 609.18 410.59 603.58 407.5 614.45 416.86 620.04 419.94 609.18"/><polygon class="cls-16" points="414.8 570.93 405.45 565.33 402.49 575.75 411.84 581.35 414.8 570.93"/><polygon class="cls-16" points="401.11 562.74 392.05 557.32 389.09 567.73 398.15 573.15 401.11 562.74"/><polygon class="cls-16" points="421.19 622.64 430.55 628.23 433.64 617.37 424.28 611.77 421.19 622.64"/><polygon class="cls-16" points="428.49 579.12 419.14 573.53 416.18 583.94 425.53 589.54 428.49 579.12"/><polygon class="cls-16" points="416.86 637.89 426.21 643.49 429.3 632.62 419.94 627.03 416.86 637.89"/><polygon class="cls-16" points="396.9 577.55 387.84 572.13 384.75 582.98 393.81 588.4 396.9 577.55"/><polygon class="cls-16" points="406.25 600.99 396.9 595.39 393.81 606.25 403.16 611.85 406.25 600.99"/><polygon class="cls-16" points="407.5 596.6 410.59 585.74 401.24 580.14 398.15 591 407.5 596.6"/><polygon class="cls-16" points="389.47 621.5 398.83 627.1 401.92 616.24 392.56 610.64 389.47 621.5"/><polygon class="cls-16" points="415.61 624.43 406.25 618.84 403.16 629.7 412.52 635.29 415.61 624.43"/><polygon class="cls-16" points="421.19 604.79 424.28 593.93 414.93 588.33 411.84 599.19 421.19 604.79"/><polygon class="cls-16" points="371.63 629.09 380.7 634.51 383.89 623.3 374.82 617.88 371.63 629.09"/><polygon class="cls-16" points="412.42 653.49 421.77 659.09 424.96 647.88 415.61 642.28 412.42 653.49"/><polygon class="cls-16" points="385.04 637.1 394.39 642.7 397.58 631.5 388.22 625.9 385.04 637.1"/><polygon class="cls-16" points="388.23 608.05 379.16 602.63 376.07 613.48 385.14 618.91 388.23 608.05"/><polygon class="cls-16" points="398.73 645.3 408.08 650.89 411.27 639.69 401.91 634.09 398.73 645.3"/><polygon class="cls-16" points="392.56 592.79 383.5 587.37 380.41 598.24 389.47 603.66 392.56 592.79"/><path class="cls-17" d="M422.27,652.54l-4.39,1.64-.18.06a1.1,1.1,0,0,1-1.43-.65.66.66,0,0,1-.06-.2l-2.52-14.68,4.84,14.09-1.67-.79,4.07-2.33a1.58,1.58,0,0,1,1.57,2.74Z"/><path class="cls-17" d="M426.52,583.67l-4.39,1.64-.18.07a1.11,1.11,0,0,1-1.43-.65.83.83,0,0,1-.06-.21l-2.52-14.67,4.84,14.08-1.66-.79,4.06-2.32a1.58,1.58,0,0,1,1.57,2.74Z"/><path class="cls-18" d="M389.77,458.3c-3.95,2.21-4.11,5.77-.35,8l50.26,29.27c3.76,2.19,10,2.18,14,0l40.69-22.67c4-2.2,4.11-5.76.35-8L444.44,435.6c-3.76-2.18-10-2.17-14,0Z"/><path class="cls-19" d="M770.07,449.72,477.18,279.08c-4.16-2.43-11.09-2.41-15.48,0L253.34,395.21c-4.39,2.45-4.57,6.39-.41,8.81l292.9,170.65c4.16,2.42,11.09,2.42,15.48,0l208.36-116.1C774.06,456.1,774.24,452.16,770.07,449.72ZM494.34,472.84l-40.69,22.67c-4,2.22-10.21,2.22-14,0l-50.26-29.28c-3.76-2.19-3.6-5.75.35-8l40.7-22.67c3.95-2.2,10.21-2.21,14,0l50.25,29.28C498.45,467.08,498.29,470.64,494.34,472.84Zm128.13,47.52L349.94,361.58,459,300.8,731.57,459.58Z"/><path class="cls-20" d="M250.11,400.9a4.09,4.09,0,0,0,.48,1l.11.17a5.49,5.49,0,0,0,.83.94,7.11,7.11,0,0,0,.74.55,5.24,5.24,0,0,0,.66.47l292.9,170.65a10.88,10.88,0,0,0,2.11.93l.82.25c.35.1.71.19,1.08.26s.88.17,1.33.23l.31,0c.61.06,1.23.09,1.85.1h.28c.61,0,1.22,0,1.82-.11l.28,0a17.2,17.2,0,0,0,1.77-.3l.32-.08c.53-.13,1-.28,1.54-.45l.27-.09a13.94,13.94,0,0,0,1.7-.78l208.36-116.1c2.21-1.22,3.35-2.84,3.41-4.45l-.51,14.19c-.06,1.61-1.2,3.22-3.41,4.46L560.8,588.83a11.25,11.25,0,0,1-1.61.75l-.09,0-.27.09-1,.33-.55.13-.32.08c-.1,0-.19,0-.29.06-.36.08-.72.14-1.09.19-.13,0-.26,0-.39,0l-.28,0-.4.05-1.08.06h-1.12c-.41,0-.82,0-1.21-.08H551l-.36-.05c-.32,0-.63-.07-.94-.13a2.79,2.79,0,0,1-.39-.1c-.37-.07-.73-.16-1.09-.26-.18,0-.39-.08-.57-.14s-.15-.08-.24-.11a10.88,10.88,0,0,1-2.11-.93L252.42,418.23a1,1,0,0,0-.13-.09c-.2-.12-.46-.35-.66-.48a4.67,4.67,0,0,1-1.52-1.53Z"/><polygon class="cls-18" points="343.79 357.94 627.36 523.16 740.88 459.9 457.31 294.69 343.79 357.94"/><polygon class="cls-21" points="477.43 242.12 490.19 234.96 497.81 52.89 485.05 60.04 477.43 242.12"/><path class="cls-22" d="M631.87,122c-1.57-.9-2.89-.17-3,1.62a5.89,5.89,0,0,0,2.68,4.88c1.55.9,2.89.18,3-1.62A5.94,5.94,0,0,0,631.87,122Z"/><path class="cls-19" d="M779.53,201.54,484.69,30.91c-4.21-2.43-7.77-.47-8,4.39l-9.64,230.32a16,16,0,0,0,7.23,13.19L769.16,449.44c4.2,2.43,7.76.47,8-4.38l9.64-230.34A15.93,15.93,0,0,0,779.53,201.54Zm-147.94-73a5.89,5.89,0,0,1-2.68-4.88c.07-1.79,1.39-2.52,3-1.62a5.94,5.94,0,0,1,2.68,4.88C634.48,128.67,633.14,129.39,631.59,128.49Z"/><path class="cls-16" d="M477.43,242.11c-.24,5.66,3.57,12.55,8.45,15.37l274,158.57c4.89,2.84,9,.55,9.3-5.11l7.6-182.06c.24-5.68-3.54-12.55-8.43-15.39l-274-158.57c-4.9-2.83-9.08-.55-9.3,5.12Z"/><path class="cls-20" d="M799.52,207.57c0-.49-.07-1.67-.08-1.75s-.07-.63-.11-.8-.11-.59-.18-.88c0-.09,0-.18-.07-.26s0-.11,0-.16-.25-.84-.34-1.09-.16-.45-.26-.68a0,0,0,0,0,0,0s-.18-.43-.27-.63-.5-1-.59-1.18l0-.05a.11.11,0,0,0,0-.06c-.12-.22-.65-1.09-.8-1.3s-.12-.18-.19-.28l-.1-.14-.19-.27c-.2-.26-.8-1-.89-1.07l-.25-.26c-.09-.11-.19-.22-.28-.31s-.44-.4-.67-.6l-.43-.39a12.08,12.08,0,0,0-1.42-1L497.44,23.76a14.63,14.63,0,0,0-1.41-.65c-.09,0-1.76-.39-1.82-.39a7.82,7.82,0,0,0-1,.06l-.1,0-.06,0-.28.05c-.15.05-.28.09-.42.15l-.4.19,0,0-12.75,7.16a3.66,3.66,0,0,1,1.13-.42l.06,0a4.76,4.76,0,0,1,1.26-.06h.11a6.62,6.62,0,0,1,1.26.27,15.11,15.11,0,0,1,1.69.74h0L779.53,201.54a13.19,13.19,0,0,1,1.43,1l.43.39a11.31,11.31,0,0,1,.94.9c.08.09.17.17.25.27.38.42.74.87,1.09,1.34l.09.14a14.37,14.37,0,0,1,1,1.63.13.13,0,0,1,0,0,17.06,17.06,0,0,1,.85,1.78v0a17.5,17.5,0,0,1,.61,1.81c0,.05,0,.1,0,.15a13.69,13.69,0,0,1,.33,1.67c0,.09,0,.18,0,.27a13,13,0,0,1,.07,1.75l-9.64,230.34h0c-.1,2.4-1,4.1-2.46,4.9l12.76-7.15c1.43-.8,2.36-2.5,2.46-4.91Z"/><polygon class="cls-23" points="695.16 252.5 733.29 274.82 737.1 216.34 698.97 194.02 695.16 252.5"/><polygon class="cls-23" points="742.71 284.92 761.63 295.99 762.64 280.52 743.72 269.44 742.71 284.92"/><path class="cls-23" d="M675,196.33l6.71,3.93c1.92,1.12,3.69-1.44,4-5.71h0c.28-4.27-1-8.65-3-9.77L676,180.86c-1.91-1.12-3.69,1.44-4,5.71h0C671.71,190.84,673,195.21,675,196.33Z"/><polygon class="cls-23" points="651.32 182.5 664.95 190.48 665.96 175 652.33 167.02 651.32 182.5"/><polygon class="cls-23" points="633.56 172.09 647.19 180.08 648.2 164.61 634.56 156.63 633.56 172.09"/><polygon class="cls-23" points="615.79 161.7 629.43 169.68 630.43 154.21 616.8 146.23 615.79 161.7"/><polygon class="cls-23" points="740.71 315.73 759.63 326.8 760.63 311.33 741.71 300.26 740.71 315.73"/><polygon class="cls-23" points="738.7 346.54 757.62 357.62 758.63 342.14 739.71 331.07 738.7 346.54"/><polygon class="cls-23" points="736.7 377.35 755.62 388.43 756.62 372.96 737.71 361.88 736.7 377.35"/><g class="cls-24"><polygon class="cls-19" points="522.56 189.03 505.51 178.73 506.33 166.97 523.38 177.28 522.56 189.03"/><polygon class="cls-19" points="521.21 208.46 504.15 198.16 504.97 186.41 522.02 196.71 521.21 208.46"/><polygon class="cls-19" points="519.85 227.89 502.79 217.59 503.61 205.84 520.67 216.14 519.85 227.89"/><polygon class="cls-19" points="518.49 247.33 501.44 237.02 502.26 225.26 519.31 235.57 518.49 247.33"/><polygon class="cls-19" points="502.65 177 499.47 175.09 500.29 163.33 503.47 165.25 502.65 177"/><polygon class="cls-19" points="501.3 196.43 498.12 194.51 498.94 182.76 502.11 184.68 501.3 196.43"/><polygon class="cls-19" points="499.94 215.87 496.76 213.94 497.58 202.19 500.76 204.11 499.94 215.87"/><polygon class="cls-19" points="498.58 235.29 495.4 233.38 496.23 221.62 499.4 223.54 498.58 235.29"/></g><g class="cls-24"><polygon class="cls-19" points="728.05 305.49 708.31 293.3 709.76 279.4 729.51 291.59 728.05 305.49"/><polygon class="cls-19" points="725.64 328.46 705.9 316.27 707.36 302.38 727.1 314.57 725.64 328.46"/><polygon class="cls-19" points="723.24 351.44 703.5 339.25 704.95 325.35 724.69 337.54 723.24 351.44"/><polygon class="cls-19" points="720.83 374.42 701.09 362.23 702.54 348.33 722.29 360.52 720.83 374.42"/><polygon class="cls-19" points="705 291.26 701.33 288.99 702.78 275.09 706.46 277.36 705 291.26"/><polygon class="cls-19" points="702.6 314.24 698.92 311.97 700.38 298.07 704.05 300.33 702.6 314.24"/><polygon class="cls-19" points="700.19 337.21 696.51 334.95 697.97 321.05 701.65 323.31 700.19 337.21"/><polygon class="cls-19" points="697.78 360.19 694.1 357.92 695.56 344.02 699.24 346.29 697.78 360.19"/></g><g class="cls-2"><polygon class="cls-25" points="198.56 248.28 206.1 241.84 209.16 247.05 201.62 253.49 198.56 248.28"/><polygon class="cls-26" points="193.55 250.96 201.09 244.53 206.1 241.84 198.56 248.28 193.55 250.96"/><polygon class="cls-9" points="198.56 248.28 201.62 253.49 196.6 256.18 193.55 250.96 198.56 248.28"/></g><g class="cls-2"><path class="cls-16" d="M207.39,241.51v-.13a.41.41,0,0,0,0-.11v-.05c0-.06,0-.11,0-.18a1,1,0,0,1,0-.18v0h0a2.76,2.76,0,0,0-.08-.27.94.94,0,0,1,0-.09.78.78,0,0,0-.05-.14.56.56,0,0,0,0-.12l0-.09c-.06-.14-.13-.28-.2-.42l0-.1-.06-.1-.26-.45c-.09-.15-.18-.29-.28-.43l-.1-.12a2.43,2.43,0,0,0-.2-.25s0,0-.05-.07a.13.13,0,0,1-.06-.05c-.11-.12-.24-.23-.36-.34v0h0l-.05,0-.2-.14,0,0,0,0-.11-.07-.13-.06h0l-.13,0-.11,0h0l-.06,0-.09,0h-.37l-.08,0a.24.24,0,0,0-.09,0h0l-5.68,3-.14.09-7.53,6.43.13-.09,5.68-3a.76.76,0,0,1,.21-.08h0a.86.86,0,0,1,.23,0l.26,0h0a1.45,1.45,0,0,1,.26.11h0l.24.14.05,0,.23.16.05,0,0,0a3,3,0,0,1,.37.35l.1.1.21.26.09.13a3.4,3.4,0,0,1,.28.42l.26.45a1.28,1.28,0,0,1,.11.2c.08.14.14.28.2.41s.06.15.08.22a.58.58,0,0,1,0,.14c0,.12.08.25.11.37v0a2.63,2.63,0,0,1,.06.39v0c0,.12,0,.24,0,.35h0a2.69,2.69,0,0,1,0,.32v0a1.45,1.45,0,0,1-.11.26h0a.55.55,0,0,1-.17.2h0l7.54-6.42a1.35,1.35,0,0,0,.16-.19v0h0l0-.06,0-.09,0-.08s0,0,0,0v0s0,0,0,0l0-.09a.38.38,0,0,1,0-.1s0,0,0-.09h0Z"/><path class="cls-27" d="M196.77,243.68a3.34,3.34,0,0,1,2.2,1.81l.26.45c.77,1.31.84,2.68.14,3.05l-5.68,3a.8.8,0,0,1-.46.09,3.33,3.33,0,0,1-2.19-1.79l-.26-.45c-.77-1.32-.84-2.68-.14-3.07l5.68-3A1,1,0,0,1,196.77,243.68Z"/></g><path class="cls-28" d="M269.75,311.85v-.14c0-.47,0-.95,0-1.44s0-.76,0-1.14,0-.47,0-.71,0-.29,0-.43c-.05-.57-.09-1.14-.15-1.71a.88.88,0,0,0,0-.16c0-.15,0-.3-.05-.45-.06-.51-.12-1-.2-1.52l-.08-.61c0-.17-.05-.34-.08-.51s-.09-.55-.14-.83-.09-.53-.14-.78c-.09-.48-.19-.94-.29-1.41-.05-.22-.09-.45-.14-.68l0-.14c-.05-.25-.12-.51-.18-.76-.11-.47-.22-.92-.35-1.4-.08-.31-.17-.64-.26-1s-.24-.88-.37-1.32c0-.09-.05-.19-.08-.28-.16-.53-.33-1.07-.5-1.61l-.07-.18c-.19-.61-.4-1.2-.61-1.8l-.19-.54c-.21-.57-.43-1.15-.66-1.73l-.09-.25a.3.3,0,0,0,0-.08l-.16-.4c-.27-.66-.53-1.32-.82-2-.12-.28-.24-.56-.37-.83-.23-.54-.47-1.07-.72-1.6-.14-.31-.29-.6-.43-.9-.25-.51-.51-1-.76-1.54l-.45-.87c-.28-.55-.58-1.09-.87-1.63-.11-.19-.2-.38-.31-.57a1.62,1.62,0,0,1-.1-.18l-.72-1.25-.53-.9c-.26-.44-.53-.87-.8-1.31-.17-.27-.33-.54-.5-.8-.32-.51-.65-1-1-1.51l-.38-.57c-.46-.69-.93-1.36-1.41-2-.1-.14-.21-.27-.31-.42-.39-.52-.77-1.05-1.16-1.56l-.55-.71-1-1.23-.64-.77c-.31-.37-.61-.75-.93-1.11s-.45-.53-.69-.79l-.91-1-.17-.19-.48-.51-1.09-1.16c-.24-.23-.47-.48-.71-.71s-.71-.71-1.07-1.06l-.74-.7-1.08-1-.75-.66c-.38-.34-.76-.66-1.15-1-.17-.15-.34-.3-.52-.44l-.28-.23-.38-.3-1.38-1.07-.22-.17c-.53-.39-1.05-.76-1.58-1.13l-.39-.27-.53-.36-.71-.45-.52-.34c-.55-.34-1.11-.69-1.67-1l-.76-.43-.86-.45-.48-.26c-.56-.28-1.12-.56-1.67-.81l-.08,0L229,247l-1.49-.63-.43-.17-.34-.14-1.26-.44-.23-.07-.76-.24-.81-.22-.14,0c-.36-.1-.72-.19-1.08-.26l-.31-.07-1-.18c-.19,0-.37-.08-.55-.1l-.27,0-.88-.1c-.2,0-.39-.06-.58-.07l-.51,0-1.05,0h-.22c-.47,0-.95,0-1.41,0h0a13.49,13.49,0,0,0-1.44.16h-.12l-.07,0c-.48.07-.94.16-1.4.27l-.12,0-.15,0-.45.12-.38.11-.44.14-.26.08-.1,0-.77.3-.12.05c-.29.12-.58.25-.86.39l-.06,0-.2.11-.55.29-.29.17-.51.32L207,247l-.51.36-.24.18c-.24.18-.48.38-.71.57l-9.29,7.94c.23-.21.47-.39.71-.58l.24-.17.51-.37c.1-.05.19-.12.29-.18a5.19,5.19,0,0,1,.5-.31l.29-.17.55-.3.26-.14.86-.38a.75.75,0,0,1,.13-.06c.25-.1.5-.21.76-.29l.37-.13.43-.13.39-.12.44-.11.27-.07c.46-.1.93-.2,1.4-.27l.2,0c.47-.07.94-.12,1.43-.15h.05c.46,0,.94,0,1.42,0H208c.35,0,.7,0,1.05,0s.72.06,1.09.1l.88.1.82.14c.32.06.65.11,1,.19s.92.2,1.4.32l.14,0c.51.14,1,.29,1.56.47l.23.07c.53.17,1.06.36,1.61.58a3.69,3.69,0,0,1,.42.17c.49.19,1,.4,1.49.62l.22.1c.58.26,1.17.54,1.75.85l.49.25,1.6.87c.57.33,1.13.67,1.69,1q.25.18.51.33c.42.27.83.55,1.24.83l.39.26c.53.37,1.06.74,1.58,1.13l.22.17c.47.35.93.71,1.39,1.07.12.11.25.2.37.3l.8.67c.39.32.77.65,1.15,1l.75.67c.36.32.73.65,1.08,1s.5.47.75.71.71.69,1.06,1,.48.47.71.72.73.76,1.09,1.15c.22.23.44.46.65.7s.61.68.91,1,.47.52.7.79l.92,1.11c.21.26.43.51.64.78s.64.8,1,1.22l.56.71c.38.51.77,1,1.14,1.55.11.15.22.29.32.44.48.67,1,1.35,1.42,2,.12.19.24.38.37.57.33.5.66,1,1,1.51.17.27.33.54.5.8.27.43.54.87.8,1.31l.53.9.72,1.25.41.75.87,1.62.45.89c.26.51.51,1,.76,1.53.14.3.29.6.43.91.25.52.49,1.05.72,1.58l.37.84c.29.66.56,1.31.82,2,.07.16.14.32.2.48s.07.17.1.26c.22.57.44,1.15.65,1.73.06.18.13.35.19.53.21.61.42,1.2.62,1.8l.06.19c.2.62.4,1.25.58,1.88.13.44.25.88.37,1.33s.19.64.27,1,.23.93.34,1.39c.07.31.15.61.21.91s.1.44.15.67c.09.47.19.94.28,1.4.05.27.09.53.14.8.08.44.15.88.22,1.33l.09.61c.07.5.14,1,.19,1.52,0,.15,0,.3.05.45.07.62.12,1.25.16,1.87,0,.14,0,.29,0,.43,0,.62.07,1.24.08,1.85s0,1.07,0,1.59c0,.7,0,1.39-.07,2.06,0,.15,0,.3,0,.46,0,.49-.08,1-.13,1.46,0,.21-.05.42-.07.63-.06.41-.11.81-.18,1.21,0,.2-.06.4-.11.61-.07.42-.16.83-.25,1.24,0,.15-.06.29-.1.44-.13.55-.28,1.09-.43,1.61l-.11.32c-.14.43-.28.86-.44,1.27l-.18.46c-.18.46-.37.91-.58,1.35a2.75,2.75,0,0,0-.14.3l-.21.39c-.12.24-.25.48-.38.71l-.24.42c-.13.19-.24.4-.37.58s-.29.43-.43.64l-.33.45c-.15.21-.32.42-.48.62l-.33.39-.58.63-.28.3c-.31.3-.61.58-.93.85l9.29-7.93c.32-.27.62-.56.92-.85l.29-.31c.2-.2.39-.41.58-.62l.32-.39.49-.62.32-.45.44-.63.12-.19.24-.41.25-.41c.13-.23.26-.47.38-.72s.14-.25.2-.38l0-.1a2.2,2.2,0,0,0,.09-.21c.21-.43.4-.88.59-1.34l.1-.24c0-.07.05-.15.08-.21.15-.42.3-.85.44-1.29a1.69,1.69,0,0,0,.08-.24l0-.07c.16-.53.31-1.06.44-1.62a.34.34,0,0,0,0-.08c0-.11,0-.24.07-.35.09-.41.17-.83.26-1.25,0-.08,0-.15,0-.23l.06-.38c.06-.4.12-.79.17-1.19l.06-.38c0-.08,0-.18,0-.26.05-.48.09-1,.13-1.47,0-.12,0-.23,0-.36a.28.28,0,0,0,0-.09C269.72,313.24,269.74,312.56,269.75,311.85Z"/><path class="cls-17" d="M209.05,252.1A34,34,0,0,1,223.74,257c19.76,11.38,36.2,38.79,36.71,61.23.38,16.46-7.91,25.68-20.14,24.95a34,34,0,0,1-14.7-4.89c-19.75-11.36-36.19-38.77-36.7-61.21C188.53,260.58,196.81,251.37,209.05,252.1Z"/><path class="cls-29" d="M241.65,335.74q-.5,0-1,0a28.42,28.42,0,0,1-12-4.07c-17.49-10.07-32.65-35.15-33.1-54.79-.14-6.07,1.14-10.84,3.69-13.79a10.69,10.69,0,0,1,8.5-3.56c.33,0,.65,0,1,0a28.32,28.32,0,0,1,12,4.07c17.49,10.06,32.65,35.15,33.11,54.79.13,6.07-1.14,10.83-3.7,13.78A10.66,10.66,0,0,1,241.65,335.74Z"/><path class="cls-16" d="M253.85,312.43c0-7.64-2.32-15.85-6.21-23.44-5.44-10.56-13.95-19.91-23.5-24.75l-.14-.07V297.3Z"/><path class="cls-27" d="M235.69,322.53l-9.84-23.18a1.94,1.94,0,0,0,.15-.8v-.16a4.12,4.12,0,0,0-2.06-3.35,1.31,1.31,0,0,0-2.07,1.26v.16a4.13,4.13,0,0,0,2.07,3.35,2.08,2.08,0,0,0,.39.15L234,322.79c.28.65.87,1.12,1.33,1S236,323.18,235.69,322.53Z"/><path class="cls-30" d="M225.28,294.74s0,0,0-.06v-13.8a2.27,2.27,0,0,0-1.13-1.83c-.63-.31-1.13,0-1.13.69v13.85c-1.18-.08-2,.76-2,2.26a6.29,6.29,0,0,0,3.15,5.11c1.74.88,3.15,0,3.15-1.92A6.31,6.31,0,0,0,225.28,294.74Zm-1.12,4.5a3.19,3.19,0,0,1-1.61-2.61,1,1,0,0,1,1.61-1,3.25,3.25,0,0,1,1.62,2.62A1,1,0,0,1,224.16,299.24Z"/><polygon class="cls-30" points="225.48 272.43 222.78 271.06 222.78 264.1 225.48 265.47 225.48 272.43"/><polygon class="cls-30" points="238.77 286.42 236.66 283.47 240.59 280.04 242.69 283 238.77 286.42"/><polygon class="cls-30" points="246.02 303.29 245.27 300.02 251.27 301.13 252.02 304.41 246.02 303.29"/><polygon class="cls-30" points="254.12 324.65 248.22 319.4 249.09 317 255 322.25 254.12 324.65"/><polygon class="cls-30" points="241.94 336.72 238.27 329.22 240.45 328.56 244.13 336.05 241.94 336.72"/><polygon class="cls-30" points="223.33 329.45 223.22 322.43 225.91 323.75 226.03 330.77 223.33 329.45"/><polygon class="cls-30" points="209.88 316.16 207.64 313.35 211.13 309.33 213.37 312.14 209.88 316.16"/><polygon class="cls-30" points="198.55 297.17 197.58 293.87 203.41 294.32 204.38 297.62 198.55 297.17"/><polygon class="cls-30" points="200.29 280.59 194.22 275.84 194.88 273.25 200.94 278 200.29 280.59"/><polygon class="cls-30" points="206.79 267.53 202.69 260.2 204.72 259.26 208.82 266.58 206.79 267.53"/><g class="cls-2"><polygon class="cls-31" points="218.71 244.91 225.94 238.74 237.36 245.32 230.13 251.49 218.71 244.91"/><polygon class="cls-11" points="230.13 251.49 237.36 245.32 237.54 253.08 230.31 259.26 230.13 251.49"/><polygon class="cls-9" points="218.71 244.91 230.13 251.49 230.31 259.26 218.89 252.68 218.71 244.91"/></g><g class="cls-2"><path class="cls-16" d="M241.08,245.1l0-1V244a1.64,1.64,0,0,0,0-.23v-.08l0-.2s0,0,0-.06l0-.14s0-.07,0-.12a.19.19,0,0,1,0-.08q0-.09-.06-.21a.3.3,0,0,1,0-.1l0-.05a4.34,4.34,0,0,0-.16-.47h0v0l-.16-.36-.07-.13c0-.09-.09-.18-.14-.27s0,0,0-.07,0,0,0,0a6.81,6.81,0,0,0-.41-.63l-.05-.07a5.4,5.4,0,0,0-.47-.58l0,0s0,0,0-.05l-.18-.19-.11-.11c-.07-.07-.14-.12-.21-.18l-.08-.07,0,0c-.12-.09-.23-.18-.36-.26l0,0L238,239l-12.67-7.29-.06,0-.25-.12h0a1.34,1.34,0,0,0-.18-.07s-.05,0-.08,0h-.06l0,0-.17-.05h-.15l-.15,0h-.4l-.13,0-.08,0h-.06l-.16.07h0a1.45,1.45,0,0,0-.26.17l-7.22,6.17a.82.82,0,0,1,.25-.16.67.67,0,0,1,.21-.1h0a1,1,0,0,1,.24,0h.33l.26,0h0l.26.07.05,0,.27.1,0,0a1.59,1.59,0,0,1,.32.16l12.68,7.29.27.17a4.22,4.22,0,0,1,.36.27.87.87,0,0,0,.1.08,1.8,1.8,0,0,1,.2.19l.12.11.18.18.08.09c.16.19.32.37.47.58l.05.07c.14.21.28.42.4.63l.06.11.14.27.06.13c.06.12.11.24.16.36a.05.05,0,0,0,0,0c.06.16.11.31.16.47s0,.1,0,.15,0,.15.06.21a1.42,1.42,0,0,1,0,.2l0,.14a2.51,2.51,0,0,1,0,.27.07.07,0,0,0,0,0c0,.12,0,.24,0,.35l0,1a3.38,3.38,0,0,1,0,.56v0a2.06,2.06,0,0,1-.12.46v0a1.84,1.84,0,0,1-.19.37,1.24,1.24,0,0,1-.28.32h0l7.23-6.17a1.24,1.24,0,0,0,.28-.32s0,0,0,0a.51.51,0,0,0,.09-.16,1,1,0,0,0,.07-.15.08.08,0,0,0,0,0,0,0,0,0,0,0,0l0-.09a.83.83,0,0,0,0-.15c0-.05,0-.09,0-.15a.17.17,0,0,0,0-.07s0,0,0,0v-.06a1.11,1.11,0,0,0,0-.17,1.34,1.34,0,0,0,0-.2Z"/><path class="cls-27" d="M216.86,237.48a2.88,2.88,0,0,1,1.22.41l12.68,7.29a6.74,6.74,0,0,1,3.07,5.12l0,1c0,1.38-.66,2.14-1.68,2.09a3.06,3.06,0,0,1-1.24-.41l-12.67-7.3a6.7,6.7,0,0,1-3.07-5.11l0-1C215.14,238.19,215.83,237.42,216.86,237.48Z"/></g><g class="cls-2"><polygon class="cls-32" points="250.14 273.63 259.43 265.7 265.93 276.31 256.64 284.24 250.14 273.63"/><polygon class="cls-33" points="246.57 275.83 255.86 267.9 259.43 265.7 250.14 273.63 246.57 275.83"/><polygon class="cls-9" points="250.14 273.63 256.64 284.24 253.08 286.44 246.57 275.83 250.14 273.63"/></g><g class="cls-2"><path class="cls-16" d="M270.21,277.21c0-.06,0-.11,0-.16v-.13a.13.13,0,0,1,0-.06,1.33,1.33,0,0,0,0-.21,1.91,1.91,0,0,0,0-.21v-.05c0-.1-.05-.2-.08-.31a.56.56,0,0,0,0-.12l-.05-.15s0-.09-.05-.14l-.06-.13c-.06-.13-.13-.27-.19-.41a.54.54,0,0,1-.07-.13,1.59,1.59,0,0,0-.13-.22l-7.18-11.71a3.52,3.52,0,0,0-.3-.45l-.11-.13a2.75,2.75,0,0,0-.22-.26s0,0,0,0l-.06-.05a4.27,4.27,0,0,0-.38-.36l-.06-.06-.06-.05-.13-.09-.12-.09-.09-.06-.08,0-.06,0-.19-.1,0,0h0l-.09,0a.44.44,0,0,0-.15-.05l-.05,0h-.08l-.11,0-.11,0h-.3l-.09,0h0l-.11,0-.12.05-.08.05-.47.3a.6.6,0,0,0-.13.09l-9.29,7.93.13-.1.47-.29A1.27,1.27,0,0,1,250,269h0a2.1,2.1,0,0,1,.36,0,1.14,1.14,0,0,1,.3.06h0l.3.1,0,0,.29.14.08.05.21.15.13.1a.58.58,0,0,1,.12.1,4.27,4.27,0,0,1,.38.36.76.76,0,0,1,.09.09l.22.26.1.14a4.91,4.91,0,0,1,.31.44l7.17,11.71c.08.12.13.24.2.36s.13.27.19.4.08.18.11.27a.88.88,0,0,1,.05.15,4.45,4.45,0,0,1,.13.45s0,0,0,0c0,.16.05.32.07.47v0a3.38,3.38,0,0,1,0,.45v0a2.38,2.38,0,0,1-.07.4h0a1.43,1.43,0,0,1-.14.34h0a1.18,1.18,0,0,1-.23.27l9.29-7.93a1.31,1.31,0,0,0,.22-.25v0h0l.06-.1a1.17,1.17,0,0,0,.05-.11.7.7,0,0,0,0-.12h0a.94.94,0,0,1,0-.09s0-.08,0-.12,0-.08,0-.12a.17.17,0,0,1,0-.07v-.07C270.2,277.3,270.21,277.26,270.21,277.21Z"/><path class="cls-27" d="M250.39,269a3.86,3.86,0,0,1,2.59,2l7.17,11.71c1,1.55,1,3.24.18,3.76l-.48.29a1.1,1.1,0,0,1-.67.16,3.82,3.82,0,0,1-2.59-2l-7.18-11.72c-.95-1.54-1-3.23-.17-3.76l.47-.29A1.12,1.12,0,0,1,250.39,269Z"/></g><path class="cls-34" d="M294.85,336.61a2.25,2.25,0,0,0-.3.42l-.47-.16a3.39,3.39,0,0,0-.36.5,6.07,6.07,0,0,1-2.06-1.52c-.13.58-.26,1.17-.42,1.76s-.35,1.41-.49,2.09c0,.34-1.12,5.73-.33,6.29-.05.39-.08.72-.09.9a.46.46,0,0,0,.87.25,5.43,5.43,0,0,0,.61-1.52.32.32,0,0,0,.55-.06,3.47,3.47,0,0,0,.36-.75.31.31,0,0,0,.52-.05c.66-1,.75-2.55,1.21-3.62.65-1.52,1.47-2.66,2.08-4.1A6.49,6.49,0,0,1,294.85,336.61Z"/><path class="cls-35" d="M296.83,338.34c-.47.61-.94,1.21-1.42,1.77-.12-.19-1.17-1.44-4.89-3.32.43-.72.86-1.5,1.33-2.3C295,336,296.34,337.58,296.83,338.34Z"/><path class="cls-9" d="M304.07,326.82c-.61,1-1.25,2.1-1.87,3.17.54-1,1.09-2.12,1.65-3.25Z"/><path class="cls-17" d="M315.53,302.3c-.16.51-6.36,13.92-11.68,24.44-.56,1.13-1.11,2.22-1.65,3.25a0,0,0,0,1,0,0,63.41,63.41,0,0,1-5.08,8.76s-.12-.21-.27-.43c-.49-.76-1.79-2.33-5-3.85a1.83,1.83,0,0,0-.28-.14c3.23-5.78,13.12-36,18.61-36C310.31,298.31,313.84,302,315.53,302.3Z"/><path class="cls-34" d="M383.84,307.4c.41.7-1.52,1.38-1.38,1.52.56.62-.1,1.59-3,1.61-.12,0-3.27.74-5.9,1.25a13.69,13.69,0,0,1-1.9-5.8v-.1a.82.82,0,0,1,0-.23,13.45,13.45,0,0,0,2.2-1.6c.46-.48.81-1.11,1.36-.41.25.24-.18,1.09-.7,1.76,1.81-.2,4.88-.3,5.13-.3a20.31,20.31,0,0,1,3.22,0,7.1,7.1,0,0,1,1.38,1.29A1.68,1.68,0,0,1,383.84,307.4Z"/><path class="cls-35" d="M373.74,312.11c-1.21.33-2.51.62-3.86.86a21.9,21.9,0,0,1-1.3-2.88,17,17,0,0,1-.86-4.95c1.31,0,2.61-.06,3.84-.19,0,.25,0,.47,0,.7a.82.82,0,0,0,0,.23v.1a13.69,13.69,0,0,0,1.9,5.8C373.64,312,373.72,312.07,373.74,312.11Z"/><path class="cls-9" d="M320.69,301.43c-2.55.93-6.19.17-6.39-1a2.87,2.87,0,0,1,.2-.5C316.31,300.39,318.64,301,320.69,301.43Z"/><path d="M332.2,409.29,326,409a38.84,38.84,0,0,1-.55,4c-.5,2.21-1.63,5.6-1.9,6.69-.44,1.83.64,2.78,2.48,3.22,1.59.37,5.29-1.59,5.79-3.63.34-1.36,1.95-6.31.38-7.84Z"/><path class="cls-34" d="M326,409s-.16,1.8-.39,3.13c.21.31,1-.15,2.24,0,1.56.22,3.09,1,3.63.51a4.86,4.86,0,0,0,.72-1.24c0-1.27,0-2.16,0-2.16Z"/><path d="M299,385.34s-1.07,1.3-1.94,2.15c-1.67,1.63-8.7,4.11-8.7,6.42,0,1.17,2.89,2.22,5.24,2.29a7.1,7.1,0,0,0,5.07-2c1-.91,4.72-1.48,5.24-2.21a2.76,2.76,0,0,0,.19-2.69l.51-2.53Z"/><path class="cls-34" d="M297.08,387.49a7.74,7.74,0,0,0,2.89,2.27c1.06.48,4.15-.42,4.15-.42l.51-2.53-5.78-1.71A9.88,9.88,0,0,1,297.08,387.49Z"/><path class="cls-30" d="M305,337.75c-.25,1.36-7.61,48.53-7.61,48.55,2.29,3.08,7.88,2.36,7.88,2.36s11.57-34.93,11.57-47.89C316.68,339.72,305.66,338.26,305,337.75Z"/><path class="cls-30" d="M315.51,347.59c.14,1.24,8.93,61.37,9,61.52,4.11,3.8,10.13,1,10.24.85s-4.65-58.59-4.92-61.46C327.79,349.77,316.81,348.6,315.51,347.59Z"/><path class="cls-17" d="M370,313.28c-25.4,2.92-40.38,1.55-40.38,1.55.45-1.65.41-12.53.31-12.61,3.27,1.29,31.12,3.25,37.73,2.65a1.18,1.18,0,0,0,0,.27,17,17,0,0,0,.86,4.95,21.9,21.9,0,0,0,1.3,2.88Z"/><path class="cls-35" d="M325.75,302.22c-.51.72-8.25,21.74-9.58,23.63l-9.34-6.09c0-1.85,1.17-6.54,1.32-8.33.12-2.1,2.65-10.41,3.2-12.34l1,.27c.54.14,1.28.35,2.14.55a2.87,2.87,0,0,0-.2.5c.2,1.19,3.84,1.95,6.39,1a3.63,3.63,0,0,0,1.83-1.17,4.53,4.53,0,0,1-.41-1.79c.6-.35,2.74,1.38,1.13,3.52A6.63,6.63,0,0,0,325.75,302.22Z"/><path class="cls-17" d="M309.8,299.08c.47-.4,2.59-.83,3.07-1.15-6.38-1.31-8.24,12.11-8.24,15.33,0,6.79-1.08,29.51-1.08,29.51a5.54,5.54,0,0,0,2.54,1.91l3.49-5.64s.15-3,.58-7.52c.18-2.08.41-4.13.59-6.2.05-.74.27-2.81.27-2.81a37.38,37.38,0,0,1-1.81-3.37c0-.11-.09-.22-.13-.32a38,38,0,0,1-1.8-5.75,29.38,29.38,0,0,1-.77-6.2,16.32,16.32,0,0,1,.52-3.65l2.54-1c.27-.43-.68-1.67-.63-2A2.66,2.66,0,0,1,309.8,299.08Z"/><path class="cls-17" d="M326.51,300.37h0c-.37-.17-.74-.31-1.1-.45l-.18-.07c-.36-.13-7.95,13-9.49,13.94a8.4,8.4,0,0,0-2.36,2,10.79,10.79,0,0,0-2.08,4.73c0,.07,0,.15,0,.26-.25,1.05-1.06,4.21-1.61,6.77a31.15,31.15,0,0,0-.56,3.07,69.52,69.52,0,0,0-.15,8.44l2.84,7c7.78,4.59,18.69,3.09,18.69,3.09a204.81,204.81,0,0,1,2.85-43.76C333.63,303.57,329.66,301.71,326.51,300.37Z"/><path class="cls-28" d="M311.34,297.92a17.73,17.73,0,0,0-1.54,1.16,2.66,2.66,0,0,0-.86,1.1c-.05.33.9,1.57.63,2l-2.54,1a16.32,16.32,0,0,0-.52,3.65,29.38,29.38,0,0,0,.77,6.2,38,38,0,0,0,1.8,5.75c0,.1.08.21.13.32a15.46,15.46,0,0,0,1.67,3.1c-.34-.87-1-2-1.25-2.95a10.2,10.2,0,0,1-.51-1.89,37.3,37.3,0,0,1-.18-6.43,3.94,3.94,0,0,1,.05-.6,31.82,31.82,0,0,1,1.33-7.3,8.62,8.62,0,0,1,1-2.16v0c.09-.16.2-.3.29-.44a50.37,50.37,0,0,1,5.29-3.94C316.38,296.34,311.45,298,311.34,297.92Z"/><path class="cls-28" d="M320.24,297.77c-.5.47,2.5,4.56,2.07,5.16a20.1,20.1,0,0,1-1.74,1.86c-8.88,9.95-9.7,16.83-9.69,17.4.16-.68,8-9.85,9.6-10.71.74-.42.2-2.54.45-3.2.48,0,1.66.93,2.22.25.07-.12,4.37-4.25,3.39-7.23C325.49,298.16,321.26,296.84,320.24,297.77Z"/><path class="cls-9" d="M315.45,297.77a20.91,20.91,0,0,1-.95,2.14c-.86-.2-1.6-.41-2.14-.55A20.39,20.39,0,0,1,315.45,297.77Z"/><path class="cls-34" d="M314.52,295.38c0,.3.83,3.47-.36,5,.27,1.55,6.34,2.34,8.36-.15-.65-.77-.61-4.94.35-6.77C322.32,293.73,316.06,295.62,314.52,295.38Z"/><path class="cls-34" d="M324,289.75a6.27,6.27,0,0,1-1.22,2.59l0,0c-.1.68-.16,1.22-.16,1.22-.46,3.27-6.9,7.24-9.55,6.76a2.11,2.11,0,0,1-1.25-.69c-2.18-2.51-3.87-7.2-3-10.27.52-1.81-.06-3.8.33-5.16,1.13-3.81,4.84-4.51,8.56-4s5.66,3.76,5.62,7.53A2.55,2.55,0,0,1,324,289.75Z"/><path d="M322.5,294a14.21,14.21,0,0,0,.29-1.63,6.27,6.27,0,0,0,1.22-2.59,2.23,2.23,0,0,0-1.53-2.43h-.06a6.17,6.17,0,0,0-.51-1c-12.86,1-13.68-2.38-13.46-3.72,1-6,11.69-9.38,16.67-3.54C328.9,283.5,326.66,291.17,322.5,294Z"/><path class="cls-34" d="M232,418.79c-.14-.68-.32-1.39-.49-2.08s-.29-1.19-.43-1.77a5.73,5.73,0,0,1-2,1.52,3.27,3.27,0,0,0-.36-.49l-.47.16a2.41,2.41,0,0,0-.31-.42,6.47,6.47,0,0,1-1.68.42c.61,1.45,1.43,2.58,2.08,4.1.46,1.08.55,2.63,1.21,3.63a.31.31,0,0,0,.52.05,3.63,3.63,0,0,0,.36.74.32.32,0,0,0,.55.06,5.43,5.43,0,0,0,.61,1.52.46.46,0,0,0,.86-.25,8.45,8.45,0,0,0-.08-.9C233.14,424.55,232.05,419.14,232,418.79Z"/><path class="cls-27" d="M212.6,377.41c-.14,0-3.68,3.72-5.37,4,.28.78,15.88,34.07,19.5,38.36.14-.22,1.13-2.38,5.53-4.42C229,409.54,218.08,377.41,212.6,377.41Z"/><path class="cls-30" d="M191.19,491.38h0S191.19,491.41,191.19,491.38Z"/><path class="cls-30" d="M205.43,492.23a73.88,73.88,0,0,1-5.69-5.94l-7.9.53a9.42,9.42,0,0,0-.79,3.58c.12.73.14.94.14,1l2.59,1.73.53-1.08.46,1.62s5.08,3.48,7.19,3.77,5.06-1.34,5.47-1.74C208.6,494.51,206.82,493.25,205.43,492.23Z"/><path class="cls-30" d="M218.11,488a74.59,74.59,0,0,1-5.55-5.48l-7.32.62a8.72,8.72,0,0,0-.67,3.34c.21,1.15.14,1.15.14,1.15l2.44,1.32.47-1,.45,1.49s4.9,3.22,6.85,3.46,4.67-1.33,5-1.72C220.83,490.26,219.42,488.86,218.11,488Z"/><path class="cls-36" d="M201.35,416.33l3.19,66.58a9.11,9.11,0,0,0,5.85,1.57c3.43-.29,3.51-.83,3.51-.83L217.18,421l-3-8.75Z"/><path class="cls-36" d="M190.36,486.74a10.4,10.4,0,0,0,5.06,1.74c2.77.11,6-2.08,6-2.08s6.31-56.73,7.37-65.42H191Z"/><path class="cls-16" d="M206.71,376.52c-2.23,0-7,2.13-8.62,1.85s-8.52,3.5-8.52,3.5l.54,45.42s9.42,3.74,17.71,0l2.43-11.1,1.54,9.45a6.86,6.86,0,0,0,5.79-.22s.7-31.06-1.27-41.92C215.8,380.64,215.45,376.52,206.71,376.52Z"/><path class="cls-34" d="M206.74,373.07,199.22,369s-.63,6.88-1.84,9.48c0,0,6.62,12,11.37,9.22,2.83-1.69.16-6.09-1.65-8.56C204.63,375.74,206.74,373.07,206.74,373.07Z"/><path class="cls-34" d="M222.89,414.3a30,30,0,0,1-3.88-.85,3.49,3.49,0,0,1-1.41-1.13l0-.08s-.33-.05.58-.45l.92-.4,2,1.32c.19.13,1.53-.46,1.53-.46L220.09,410a3.41,3.41,0,0,0-1.84-.57,21.6,21.6,0,0,0-4,1.37l-1.34.05.5,5.18a5,5,0,0,1,.85.6c0,.06,3.53,1.91,5.41,1.51s1.81-1,3.44-2.3S222.89,414.3,222.89,414.3Z"/><path class="cls-27" d="M197.38,408.12c0-2.92-1.73-16.87-2.83-19.93-1.33-3.74-3.76-7.26-5.44-6.15s-3.1,2.87-3.4,7.73,4.37,23.39,6.15,25.17,21.95,2.59,21.95,2.59l-.67-7.44Z"/><path class="cls-34" d="M210.19,356.45C207,354.8,199,356.37,197.08,362c-1.17,3.37.73,8.44.73,8.44l6.6,7.27s3.72,1.86,5.37,0,3.71-6.71,3.3-12.23S212.3,357.55,210.19,356.45Z"/><path d="M206.78,354.62a5.86,5.86,0,0,0-4,.54v-.05s-8.84-.68-7.34,9.23a20.93,20.93,0,0,0,3.52,9.23l.17-3.07a4.42,4.42,0,0,1-2-4c0-1.92,2.38-.16,2.38-.16s2.65-2.89,3.11-4.75h0a11.35,11.35,0,0,0,1.27,1c2.66,1.85,9.29,3.27,9.29,3.27S216.87,357,206.78,354.62Z"/><path class="cls-37" d="M228.75,411.68l-3.08-1.78a1.17,1.17,0,0,0-1.06,0l-3.8,2.3a.34.34,0,0,0,0,.63l3.09,1.78a1.12,1.12,0,0,0,1.05,0l3.81-2.3C229.06,412.14,229.05,411.86,228.75,411.68Z"/><path class="cls-19" d="M239.07,406.72l-15.76-9.13a1.33,1.33,0,0,0-1.17,0L200,411c-.32.18-.3.49,0,.69l15.77,9.12a1.24,1.24,0,0,0,1.17,0l22.16-13.42C239.42,407.23,239.4,406.92,239.07,406.72Zm-10.29,5.6-3.81,2.3a1.12,1.12,0,0,1-1.05,0l-3.09-1.78a.34.34,0,0,1,0-.63l3.8-2.3a1.17,1.17,0,0,1,1.06,0l3.08,1.78C229.05,411.86,229.06,412.14,228.78,412.32Zm-17.64,4.25-8.25-4.78L223.5,399.3l8.26,4.78Z"/><path class="cls-37" d="M239.32,407.16h0a.3.3,0,0,1,0,.08h0a.22.22,0,0,1-.06.07l-.06.05a.09.09,0,0,1-.05,0l-22.16,13.42a.48.48,0,0,1-.16.08h-.06l-.08,0h-.44a.32.32,0,0,1-.14,0h0a.35.35,0,0,1-.11,0h0a.52.52,0,0,1-.13-.06L200,411.71a.47.47,0,0,1-.26-.35l0,1.11a.43.43,0,0,0,.26.35L215.81,422l.12.06h0l.07,0h.09l.08,0h.56l0,0h0A.46.46,0,0,0,217,422l22.16-13.41h0l0,0,.06,0h0l.05-.06h0l0,0s0,0,0,0h0a.08.08,0,0,1,0,0v-.05h0l0-1.12A.25.25,0,0,1,239.32,407.16Z"/><polygon class="cls-11" points="202.18 411.81 210.77 416.79 232.23 403.8 223.64 398.82 202.18 411.81"/><path class="cls-38" d="M231.47,403.74h0l0,0-.74.44s0,0-.06,0h-.08l-.08,0h0a.07.07,0,0,1-.06,0l-2-1.14,0,0,.63-.39h0l0,0v0h0v0h0v-.28a.05.05,0,0,1,0,0h0l0,0-.73.45-.07,0h-.15l-.07,0-2-1.14,0,0,.63-.4h0v0h0v-.29s0,0,0,0h0l0,0-1,.63s0,0-.06,0h-.16l-.07,0-.78-.45,0,0,.95-.57h0l0,0v0h0v0h0v-.27l0,0h0l0,0-3.26,2a.15.15,0,0,1-.07,0H222l-.07,0-.78-.44,0,0,.43-.25h0l0,0v0h0v-.21l.08.05,0,0h.22l0,0,1-.59h0l0,0v0h0v0h0v-.17l.05,0,0,0h.26l1-.59h0l0,0v0h0v-.27a.11.11,0,0,1,0,0h0l0,0-1,.58-.06,0h-.16l-.07,0-.78-.44a.12.12,0,0,1-.06-.09V400a.09.09,0,0,0,.06.08l.68.4h0l-1,.59-.06,0h-.16l-.07,0-.78-.45a.12.12,0,0,1-.06-.09v.28s0,.06.06.08l.68.39,0,0-1,.59-.06,0h-.16l-.07,0-.78-.45a.12.12,0,0,1-.06-.09v.28a.11.11,0,0,0,.06.08l.67.39h0l0,0-1,.59-.06,0h-.16l-.07,0-.78-.46a.11.11,0,0,1-.06-.09v.29a.09.09,0,0,0,.06.08l.68.4,0,0-1,.58-.05,0h-.17l-.06,0-.79-.45s-.06-.06-.06-.08v.27a.11.11,0,0,0,.07.08l.67.4s0,0,0,0l-1,.58-.06,0h-.16l-.07,0-.78-.45s-.06-.05-.06-.09v.28a.12.12,0,0,0,.06.09l.68.39,0,0-1,.59-.07,0h-.16l-.06,0-.78-.46a.08.08,0,0,1-.06-.08V405s0,.06.07.09l.67.39,0,0-1,.59-.06,0a0,0,0,0,0,0,0h-.15s0,0-.07,0l-.78-.46a.09.09,0,0,1-.06-.08v.27a.1.1,0,0,0,.06.09l.68.39,0,0-1,.58a.09.09,0,0,1-.07,0H212l-.07,0-.77-.45a.13.13,0,0,1-.07-.08l0,.27a.11.11,0,0,0,.06.09l.67.39,0,0-1,.59-.06,0h-.17l-.06,0-.78-.46a.1.1,0,0,1,0,0,.07.07,0,0,1,0-.05v.29s0,.05.06.08l.68.4,0,0-1,.58-.06,0h-.16l-.07,0-.78-.45a.08.08,0,0,1,0,0,.08.08,0,0,1,0,0v.28a.1.1,0,0,0,.06.09l.68.39,0,0-1,.58-.06,0h-.16l-.07,0L207,409s-.06-.06-.06-.08v.27a.11.11,0,0,0,.06.09l.68.39s0,0,0,0l-1,.59-.06,0h-.16l-.06,0-.79-.46a.08.08,0,0,1-.06-.08V410a.12.12,0,0,0,.06.09l.68.39,0,0-1,.59-.06,0h0l-.07,0h0l-.08,0h0l-.07,0-.78-.45a.12.12,0,0,1-.06-.09v.28a.12.12,0,0,0,.06.09l.68.39,0,0-1,.58a.15.15,0,0,1-.07,0h-.16a.11.11,0,0,1-.07,0l-.77-.45a.15.15,0,0,1-.07-.07v.26a.09.09,0,0,0,.07.09l.78.46h.28l.51-.31v.19s0,0,.06.08l.76.44h0l0,0s0,0,0,0h.2l0,0,1-.58h0l0,0h0v0h0v-.22l.08.05h.28l.78-.48v.19a.11.11,0,0,0,.06.09l.66.39h0l0,0-2.12,1.28-.06,0h-.16l-.06,0-.78-.45a.18.18,0,0,1-.07-.09v.28s0,.06.07.08l.78.46,0,0h.22l0,0,.06,0v.19a.1.1,0,0,0,.06.09l.78.45,0,0h.21l.05,0,.05,0v.19s0,.05.06.08l.78.45h0l0,0h.19l0,0,.3-.18v.2a.12.12,0,0,0,.06.09l.78.44,0,0H210v.27s0,.06.07.08l.78.45,0,0h.21l0,0,.74-.45h0l0,0v0h0v-.22l.08.05h.25l0,0,1-.59h0l0,0h0v-.22l.08.05h.23a0,0,0,0,0,0,0h.05l1-.59h0a0,0,0,0,0,0,0h0v0h0v-.21l.08.05,0,0H215l.05,0,1-.58h0l0,0v0h0v0h0v-.22l.08,0,0,0h.21l0,0,1-.58h0l0,0h0v0h0v-.22l.08.05h.29l6.51-3.95h0l0,0h0v-.22l.08.05h.25l0,0,1-.58h0l0,0h0v0h0v-.21l.08,0h.25l0,0,1-.58h0l0,0h0v0h0v-.24l.09.05,0,0h.07a0,0,0,0,0,0,0h.17l1-.59h0l0,0v0h0v0h0v-.21l.08,0,0,0h.21l0,0,1-.58h0l0,0h0v-.28s0,0,0,0h0s0,0,0,0l-1,.59-.07,0h-.15l-.07,0-.78-.45a.11.11,0,0,1-.06-.09v.28s0,.06.07.09l.68.39,0,0-1,.58a.09.09,0,0,1-.06,0h-.16l-.07,0-.77-.45s0,0,0,0l.17-.1h0l0,0v0h0v0h0v-.27l.13.07,0,0H227l0,0,.55-.33h0l0,0h0v0h0v-.22l.08,0H228l.05,0,1.1-.67h0l0,0h0v0h0v0h0v-.18l1.25.72h0l0,0h.19l0,0,.73-.44h0l0,0,0,0h0v0h0l0-.29A.09.09,0,0,1,231.47,403.74Zm-5.05.21h0s0,0,0,0l-1.27.77-.06,0h-.16l-.07,0-.78-.45,0,0,.87-.53h0v0h0a0,0,0,0,0,0,0h0v0h0v-.27a.1.1,0,0,0,0,0h0l0,0L223,404.65l-.07,0h-.15l-.07,0-.78-.45h0l.42-.25h0l0,0h0v0h0a0,0,0,0,0,0,0v-.24l.36.21v-.27l-1.05-.61,0,0,.14-.09h0l0,0h0v0h0v-.23l.09.06,0,0h.21l.05,0,.84-.51v.19a.12.12,0,0,0,.07.09l.78.46h.28l.36-.22v.19a.15.15,0,0,0,.07.09l.78.45h.24l0,0,.06,0v.18a.15.15,0,0,0,.07.09l.64.38Z"/><path class="cls-38" d="M226.76,402.59h0v0h0v0l0,0h0l-.95.57v0l.79.45.06,0h.16l.06,0,1-.63,0,0-1.17-.67Z"/><path class="cls-38" d="M226,401.89v-.2l-.37.23-.05,0h-.2l0,0-.06,0v.18h0v0h0v0l0,0h0l-.66.4,0,0,.78.44.06,0h.17l.06,0,1-.63,0,0-.68-.39A.12.12,0,0,1,226,401.89Z"/><path class="cls-38" d="M224.48,401.38v-.19l-1.41.85,0,0,.78.44a.09.09,0,0,0,.07,0h.15a.09.09,0,0,0,.07,0l1-.63,0,0-.68-.39A.1.1,0,0,1,224.48,401.38Z"/><path class="cls-38" d="M224,404.5v-.18l-1,.61h-.29l-.08-.05v.21h0l0,0,.78.45a.1.1,0,0,0,.07,0h.16a.07.07,0,0,0,.06,0l1-.59s0,0,0,0h0l-.67-.39A.1.1,0,0,1,224,404.5Z"/><path class="cls-38" d="M222.85,406.62v-.21l-.52.32-.05,0h-.21l0,0-.08,0v.21h0v0h-.05l-.42.26,0,0,.78.45.07,0h.16l.06,0,1-.58,0,0-.68-.4S222.85,406.65,222.85,406.62Z"/><path class="cls-38" d="M221.47,407.45v-.2l-.52.32,0,0h-.25l-.08-.05v.21h0v0l0,0h0l-.41.25,0,0,.78.45.06,0h.16l.06,0,1-.58,0,0-.68-.39S221.47,407.49,221.47,407.45Z"/><path class="cls-38" d="M220.08,408.29v-.2l-.53.32h-.28l-.08-.05v.22h0v0h0l0,0h0l-.42.25,0,0,.78.46.07,0h.16l.06,0,1-.59s0,0,0,0l-.67-.4A.09.09,0,0,1,220.08,408.29Z"/><path class="cls-38" d="M218.7,409.13v-.2l-.52.31,0,0h-.22l0,0-.08-.05v.22h0v0h0a0,0,0,0,1,0,0l0,0h0l-.42.25,0,0,.78.46.06,0h.16l.07,0,1-.59,0,0-.68-.39A.12.12,0,0,1,218.7,409.13Z"/><path class="cls-38" d="M217.31,410v-.21l-.52.32,0,0h-.21l0,0-.09-.05v.22h0v0a0,0,0,0,0,0,0h0v0h0l-.41.25,0,0,.78.44.07,0H217l.06,0,1-.58,0,0-.67-.39S217.31,410,217.31,410Z"/><path class="cls-38" d="M215.92,410.81v-.2l-.52.31-.05,0h-.24l-.08,0v.21h0v0h0l0,0h0l-.42.26,0,0,.78.45a.09.09,0,0,0,.06,0h.16a.09.09,0,0,0,.06,0l1-.58s0,0,0,0l-.67-.39S215.92,410.84,215.92,410.81Z"/><path class="cls-38" d="M214.54,411.65v-.2l-.52.3s0,0,0,0h-.22l0,0-.09,0v.22h0v0h0l0,0,0,0h0l-.42.25,0,0,.78.46.07,0h.15l.07,0,1-.59,0,0-.68-.39A.11.11,0,0,1,214.54,411.65Z"/><path class="cls-38" d="M213.16,412.49v-.21l-.52.32,0,0h-.24l-.08-.05v.21h0v0l0,0h0l-.41.25,0,0,.78.45.07,0h.16l.06,0,1-.58,0,0-.68-.4A.09.09,0,0,1,213.16,412.49Z"/><path class="cls-38" d="M211.77,413.32v-.2l-.52.32H211l-.12-.06v.24h0v0h0v0l0,0h0l-.4.24,0,0,.78.45.07,0h.16l.06,0,1-.58,0,0-.67-.39A.11.11,0,0,1,211.77,413.32Z"/><path class="cls-38" d="M210.49,409.84v-.19l-.78.47,0,0h-.19l0,0,0,0-.09,0v.21h0v0h0s0,0,0,0l0,0h0l-.16.09,0,0,.77.44a.11.11,0,0,0,.07,0h.16l.06,0,1-.58,0,0-.67-.39S210.49,409.87,210.49,409.84Z"/><path class="cls-38" d="M211.88,409v-.19l-.77.47,0,0h-.25l-.08,0v.22h0v0h0l0,0h0l-.15.09,0,0,.78.45.06,0h.17l.06,0,1-.59s0,0,0,0l-.68-.39A.12.12,0,0,1,211.88,409Z"/><path class="cls-38" d="M213.27,408.16V408l-.78.47,0,0h-.18a0,0,0,0,0,0,0h-.06l-.07,0v.21h0v0h0v0h0l0,0h0l-.16.1,0,0,.78.45a.08.08,0,0,0,.07,0h.16a.07.07,0,0,0,.06,0l1-.59s0,0,0,0l-.68-.39A.11.11,0,0,1,213.27,408.16Z"/><path class="cls-38" d="M214.65,407.32v-.19l-.77.47,0,0h-.22l0,0-.08-.05v.22h0v0h0v0h0l-.15.1s0,0,0,0l.78.45.07,0h.15l.07,0,1-.58,0,0-.67-.39C214.67,407.38,214.65,407.36,214.65,407.32Z"/><path class="cls-38" d="M216,406.49v-.2l-.78.47,0,0s0,0,0,0H215l0,0-.08,0v.21h0v0h0l0,0h0l-.16.09,0,0,.78.46.06,0h.16l.06,0,1-.59,0,0-.68-.39S216,406.51,216,406.49Z"/><path class="cls-38" d="M217.42,405.64v-.19l-.78.48h-.29l-.08-.05v.22h0v0h0l0,0h0l-.15.09,0,0,.78.45s0,0,.07,0h.15a.08.08,0,0,0,.07,0l1-.59,0,0-.67-.39A.1.1,0,0,1,217.42,405.64Z"/><path class="cls-38" d="M218.81,404.8v-.18l-.77.47-.05,0h-.24l-.08,0v.21h0v0h0v0h0l-.16.09,0,0,.78.45a.11.11,0,0,0,.07,0h.16a.06.06,0,0,0,.06,0l1-.58a.08.08,0,0,0,0,0l-.68-.39A.1.1,0,0,1,218.81,404.8Z"/><path class="cls-38" d="M220.19,404v-.19l-.77.46s0,0,0,0h-.22l0,0-.08,0v.21h0v0h0v0h0s0,0,0,0,0,0,0,0h0l-.15.09,0,0,.78.44.06,0h.17l.06,0,1-.58,0,0-.67-.39S220.19,404,220.19,404Z"/><path class="cls-38" d="M221.59,403.12v-.18l-.79.47,0,0h-.24l-.08,0v.21h0v0h0l0,0h0l-.16.1,0,0,.79.45.06,0h.16l.06,0,1-.59,0,0h0l-.67-.38A.1.1,0,0,1,221.59,403.12Z"/><path class="cls-38" d="M221.84,404.39v-.19l-.51.3,0,0h-.21l0,0-.08,0v.22h0v0l0,0h0l-.43.26h0l.78.46.06,0h.16l.06,0,1-.59,0,0-.68-.4A.11.11,0,0,1,221.84,404.39Z"/><path class="cls-38" d="M221.19,406.19V406l0,0h0l-1,.58,0,0h-.22l0,0-.08-.05v.22h0s0,0,0,0h0l0,0,.78.45.07,0h.16l.06,0,1-.59,0,0-.68-.39A.18.18,0,0,1,221.19,406.19Z"/><path class="cls-38" d="M219.81,407v-.19a0,0,0,0,1,0,0h0l-1,.59,0,0h-.24l-.09-.05v.22h0l0,0,.78.45a.09.09,0,0,0,.07,0h.15a.09.09,0,0,0,.07,0l1-.58,0,0-.68-.39A.09.09,0,0,1,219.81,407Z"/><path class="cls-38" d="M218.42,407.86v-.19l0,0h0l-1,.59-.05,0h-.24l-.08,0v.21h0v0l0,0,.78.46.07,0h.16l.06,0,1-.59s0,0,0,0l-.67-.39A.1.1,0,0,1,218.42,407.86Z"/><path class="cls-38" d="M217,408.71v-.19h0l-1,.58-.05,0h-.21l0,0-.09-.05v.22h0v0h0l0,0,.78.45.06,0h.16l.06,0,1-.58,0,0-.68-.4A.09.09,0,0,1,217,408.71Z"/><path class="cls-38" d="M215.66,409.54v-.18h0l-1,.59h-.28l-.09,0v.22h0l0,0,.78.45.06,0h.17l.06,0,1-.58s0,0,0,0l-.68-.39S215.66,409.58,215.66,409.54Z"/><path class="cls-38" d="M214.27,410.38v-.19l0,0h0l-1,.59H213l-.09-.05V411h0v0l0,0,.78.45.07,0h.16l.06,0,1-.59s0,0,0,0l-.68-.39A.11.11,0,0,1,214.27,410.38Z"/><path class="cls-38" d="M212.88,411.22V411l0,0h0l-1,.58,0,0a0,0,0,0,1,0,0h-.2l0,0-.08-.05v.22h0v0h0l0,0,.78.45.07,0h.15a0,0,0,0,0,0,0l.06,0,1-.59,0,0-.67-.39S212.88,411.25,212.88,411.22Z"/><path class="cls-38" d="M212.14,410.26v-.19l-.51.3,0,0h-.21l0,0-.09,0v.21h0v0h0v0h0l-.42.26h0l.78.46.07,0h.16l.06,0,1-.59,0,0-.67-.39C212.16,410.32,212.14,410.29,212.14,410.26Z"/><path class="cls-38" d="M213.53,409.42v-.19l-.51.31,0,0h-.25l-.08,0v.21h0v0h0l0,0h0l-.42.25h0l.78.45a.11.11,0,0,0,.07,0h.16a.08.08,0,0,0,.06,0l1-.59a.08.08,0,0,0,0,0l-.68-.39A.09.09,0,0,1,213.53,409.42Z"/><path class="cls-38" d="M214.91,408.58v-.19l-.51.31h-.24s0,0,0,0h0l-.08-.05v.22h0l0,0h0l-.42.26,0,0,.78.45.06,0h.16l.07,0,1-.59,0,0-.67-.39A.18.18,0,0,1,214.91,408.58Z"/><path class="cls-38" d="M216.3,407.74v-.19l-.51.31,0,0h-.21l0,0-.07-.05V408h0v0h0a0,0,0,0,1,0,0h0l-.43.26,0,0,.78.45.06,0H216l.06,0,1-.59,0,0-.68-.39A.12.12,0,0,1,216.3,407.74Z"/><path class="cls-38" d="M217.68,406.9v-.18l-.51.3,0,0h-.24l-.08,0v.22h0s0,0,0,0h0l0,0h0l-.42.25h0l.78.46.07,0h.16l.06,0,1-.59a0,0,0,0,0,0,0l-.67-.39A.12.12,0,0,1,217.68,406.9Z"/><path class="cls-38" d="M219.07,406.07v-.19l-.51.31h-.19s0,0,0,0h0l0,0h0l-.09-.05v.21h0v0h0l0,0h0l-.42.25,0,0,.78.45.06,0h.17l.06,0,1-.58,0,0-.68-.39S219.07,406.1,219.07,406.07Z"/><path class="cls-38" d="M220.45,405.23V405l-.51.31,0,0h-.25l-.08-.05v.21h0v0l0,0h0l-.42.25,0,0,.78.45.07,0h.15l.07,0,1-.58,0,0-.67-.4S220.45,405.26,220.45,405.23Z"/><path class="cls-38" d="M210.75,411.1v-.19l-.51.31H210l-.08-.05v.21h0v0s0,0,0,0h0l-.41.25s0,0,0,0l.77.45.07,0h.16l.06,0,1-.58,0,0-.68-.39A.18.18,0,0,1,210.75,411.1Z"/><path class="cls-38" d="M211.49,412.06v-.19l0,0h0l-1,.58,0,0h-.22l0,0-.08-.05v.24h0l0,0,.78.44.07,0h.15a.09.09,0,0,0,.06,0l1-.58,0,0-.68-.4A.13.13,0,0,1,211.49,412.06Z"/><path class="cls-38" d="M222.58,405.35v-.19l0,0h0l-1,.58-.05,0h-.21l0,0-.07,0v.21h0v0h0l0,0,.78.45.06,0h0l.08,0h.08l.06,0,1-.59,0,0-.68-.39A.12.12,0,0,1,222.58,405.35Z"/><path class="cls-38" d="M221.06,402v-.18l-.5.31h-.24l0,0h0l-.1-.06v.24h0v0h0l0,0h0l-.41.25,0,0,.78.45.07,0h.15l.07,0,1-.59s0,0,0,0h0l-.67-.39A.1.1,0,0,1,221.06,402Z"/><path class="cls-38" d="M219.66,402.87v-.19l-.51.31,0,0h-.22l0,0-.08-.05v.22h0v0h0a0,0,0,0,1,0,0s0,0,0,0h0l-.42.26,0,0,.78.45.07,0h.16l.06,0,1-.59s0,0,0,0l-.68-.39A.11.11,0,0,1,219.66,402.87Z"/><path class="cls-38" d="M218.28,403.71v-.19l-.5.31-.05,0h-.21l0,0-.08-.05V404h0l0,0h0l-.42.26,0,0,.78.44.06,0H218s.05,0,.06,0l1-.58,0,0-.68-.39A.12.12,0,0,1,218.28,403.71Z"/><path class="cls-38" d="M216.89,404.54v-.18l-.51.31,0,0h-.24l-.08-.05v.22h0v0h0l0,0h0l-.42.26,0,0,.78.44a.11.11,0,0,0,.07,0h.16a.09.09,0,0,0,.06,0l1-.58s0,0,0,0l-.68-.39A.13.13,0,0,1,216.89,404.54Z"/><path class="cls-38" d="M215.51,405.39v-.19l-.51.3,0,0h0a0,0,0,0,1,0,0h-.18l0,0-.09,0v.21h0v0h0v0h0l0,0,0,0h0l-.42.26h0l.78.45s0,0,.07,0h.15l.07,0,1-.59,0,0-.68-.39A.09.09,0,0,1,215.51,405.39Z"/><path class="cls-38" d="M214.12,406.23V406l-.51.31,0,0h-.25l-.08-.05v.21h0v0h0v0h0a0,0,0,0,0,0,0l-.42.25,0,0,.79.45.06,0h.16l.06,0,1-.58s0,0,0,0l-.67-.39A.23.23,0,0,1,214.12,406.23Z"/><path class="cls-38" d="M212.74,407.06v-.18l-.5.3,0,0h-.24l-.09,0v.21h0l0,0h0l-.42.25,0,0,.79.45.06,0h.16l.06,0,1-.58,0,0-.68-.39A.1.1,0,0,1,212.74,407.06Z"/><path class="cls-38" d="M211.35,407.9v-.19l-.5.31,0,0h-.22l0,0-.08,0v.22h0v0h0v0l0,0h0l-.42.25h0l.78.46.07,0H211l.06,0,1-.59,0,0-.68-.39A.11.11,0,0,1,211.35,407.9Z"/><path class="cls-38" d="M210,408.74v-.19l-.51.31,0,0h-.22l0,0-.09-.05V409h0v0h0l0,0h0l-.42.25s0,0,0,0l.77.45.07,0h.16l.06,0,1-.59,0,0-.68-.39A.12.12,0,0,1,210,408.74Z"/><path class="cls-38" d="M208.58,409.58v-.19l-.51.31,0,0h-.24l-.08,0v.21h0v0h0l0,0h0l-.42.26s0,0,0,0l.78.44.07,0h.16l.06,0,1-.58,0,0-.67-.39C208.6,409.64,208.58,409.61,208.58,409.58Z"/><path class="cls-38" d="M205.81,411.26v-.19l-.51.3,0,0s0,0,0,0H205l0,0-.08,0v.21h0v0h0v0h0l-.42.26h0l.78.46.07,0h.15l.07,0,1-.59,0,0-.67-.4S205.81,411.29,205.81,411.26Z"/><path class="cls-38" d="M207.2,410.42v-.19l-.51.31,0,0h-.25l-.08-.05v.22h0v0h0v0a0,0,0,0,1,0,0h0l-.42.26h0l.78.45.06,0h.16a.07.07,0,0,0,.06,0l1-.58a.08.08,0,0,0,0,0l-.68-.39A.09.09,0,0,1,207.2,410.42Z"/><path class="cls-38" d="M209.11,410.68v-.19l-.77.47H208l-.08,0v.21h0v0l0,0h0l-.16.09,0,0,.78.45a.09.09,0,0,0,.06,0h.16l.07,0,1-.59,0,0-.68-.39A.09.09,0,0,1,209.11,410.68Z"/><path class="cls-38" d="M209.37,411.93v-.18l-.5.31h-.29l-.1-.07v.24h0v0h0v0l0,0h0l-.4.24,0,0,.78.45.07,0h.16l.06,0,1-.58,0,0-.68-.39A.1.1,0,0,1,209.37,411.93Z"/><path class="cls-38" d="M208,412.77v-.19l-1.58,1,0,0,.78.45.07,0h.16l.06,0,1.2-.73s0,0,0,0l-.68-.39A.11.11,0,0,1,208,412.77Z"/><path class="cls-38" d="M210.11,412.9v-.19h0l-1,.59-.05,0h-.24l-.08,0v.21h0v0h0a0,0,0,0,0,0,0l0,0h0l-1.11.67,0,0,.78.46.07,0h.22l2.12-1.29,0,0h0l-.66-.39C210.13,413,210.11,412.93,210.11,412.9Z"/><path class="cls-38" d="M210.39,414.16V414l-1.36.82,0,0,.78.45.06,0h.16l.06,0,1-.59,0,0-.68-.39A.11.11,0,0,1,210.39,414.16Z"/><path class="cls-38" d="M211.13,415.13v-.2l0,0h0l-1,.58,0,0H210a.12.12,0,0,0,0,.07l.79.46.06,0H211l.06,0,.76-.46,0,0-.68-.39A.12.12,0,0,1,211.13,415.13Z"/><path class="cls-38" d="M212.51,414.29v-.19h0l-1,.59,0,0h-.24l-.08-.05v.22h0s0,0,0,0l.78.46.07,0h.16l.06,0,1-.59s0,0,0,0l-.67-.4S212.51,414.32,212.51,414.29Z"/><path class="cls-38" d="M213.9,413.45v-.19l0,0h0l-1,.58,0,0h-.21l0,0-.08-.05V414h0v0h0l0,0,.78.44.07,0h.16l.06,0,1-.58,0,0-.67-.4C213.92,413.51,213.9,413.48,213.9,413.45Z"/><path class="cls-38" d="M215.29,412.62v-.2l0,0h0l-1,.58,0,0H214l0,0-.08,0v.22h0a0,0,0,0,0,0,0h0l0,0,.78.45.07,0H215l.06,0,1-.58,0,0-.68-.39S215.29,412.64,215.29,412.62Z"/><path class="cls-38" d="M216.67,411.77v-.19l0,0h0l-1,.59h-.23l0,0h0l-.09-.05v.22h0v0h0l0,0,.78.45.06,0h.17l.06,0,1-.59,0,0-.68-.39A.11.11,0,0,1,216.67,411.77Z"/><path class="cls-38" d="M223.6,407.59v-.2l0,0h0l-1,.58,0,0h-.21l0,0-.08-.05v.22h0v0h0l0,0h0l-1,.59h-.28l-.08-.05V409h0v0h0l0,0h0l-1,.59,0,0h-.25l-.08-.05v.22h0v0l0,0h0l-1,.58,0,0h-.2l0,0-.09-.05v.22h0v0h0v0l0,0h0l-1,.59h-.28l-.08-.05v.23h0l0,0,.78.45a.11.11,0,0,0,.07,0h.16a.09.09,0,0,0,.06,0l6.51-3.94,0,0-.68-.39S223.6,407.61,223.6,407.59Z"/><path class="cls-38" d="M225,406.74v-.19l-1,.6a.05.05,0,0,1,0,0h-.22l0,0-.09,0v.21h0v0h0l0,0,.78.45.07,0h.15l.07,0,1-.59,0,0-.67-.39C225,406.8,225,406.77,225,406.74Z"/><path class="cls-38" d="M226.38,405.89v-.18l-.36.22,0,0h-.24l-.1-.06v.24h0v0h0v0l0,0h0l-.56.34,0,0,.77.45a.1.1,0,0,0,.07,0h0l.07,0H226a.08.08,0,0,0,.07,0l1-.59s0,0,0,0h0l-.67-.39A.1.1,0,0,1,226.38,405.89Z"/><path class="cls-38" d="M225.91,404.76v-.2l-.8.48,0,0h-.22l0,0-.1-.06v.24h0v0h0v0h0s0,0,0,0h0l-1,.59,0,0h-.25l-.08,0v.21h0v0h0s0,0,0,0h0l-.41.24s0,0,0,0l.77.45s0,0,.07,0h.17l.06,0,1.58-1,0,0h0l-.67-.38s-.07-.06-.07-.09v-.28s0,.06.06.09l.78.45.07,0h.15l.07,0,.57-.35a.08.08,0,0,0,0,0h0a0,0,0,0,0,0,0l-.64-.38S225.91,404.8,225.91,404.76Z"/><path class="cls-38" d="M226.88,404.17V404l0,0,0,0h-.21l0,0-.12-.07v.26h0a0,0,0,0,1,0,0h0l0,0h0l-.45.27,0,0,.77.45.07,0H227l.06,0,.55-.33a.08.08,0,0,0,0,0l-.67-.39A.15.15,0,0,1,226.88,404.17Z"/><path class="cls-38" d="M228.38,403.27v-.2l-.06,0-.05,0h-.21l0,0-.08,0v.21h0a0,0,0,0,1,0,0h0l0,0h0l-1,.59,0,0,.78.45.06,0h.16a.06.06,0,0,0,.06,0l1.11-.67h0l-.68-.39A.12.12,0,0,1,228.38,403.27Z"/><path class="cls-22" d="M223.46,399a.3.3,0,0,0-.29,0l-1,.59c-.07,0-.07.12,0,.17l.78.44a.3.3,0,0,0,.29,0l1-.58c.09,0,.08-.12,0-.17Z"/><path class="cls-22" d="M222.1,399.82a.3.3,0,0,0-.29,0l-1,.59c-.08,0-.08.12,0,.17l.78.45a.37.37,0,0,0,.29,0l1-.59c.08,0,.07-.12,0-.17Z"/><path class="cls-22" d="M220.72,400.66a.3.3,0,0,0-.29,0l-1,.58c-.08.05-.07.13,0,.18l.78.44a.33.33,0,0,0,.29,0l1-.59a.09.09,0,0,0,0-.17Z"/><path class="cls-22" d="M219.32,401.5a.37.37,0,0,0-.29,0l-1,.59c-.07.05-.07.12,0,.17l.78.45a.33.33,0,0,0,.29,0l1-.59c.07-.05.07-.12,0-.17Z"/><path class="cls-22" d="M217.93,402.34a.28.28,0,0,0-.28,0l-1,.59c-.08.05-.08.12,0,.17l.79.45a.34.34,0,0,0,.28,0l1-.58c.08-.05.08-.12,0-.17Z"/><path class="cls-22" d="M216.55,403.18a.37.37,0,0,0-.29,0l-1,.58a.1.1,0,0,0,0,.18l.78.45a.3.3,0,0,0,.29,0l1-.58c.09-.05.08-.13,0-.18Z"/><path class="cls-22" d="M215.16,404a.34.34,0,0,0-.28,0l-1,.58a.09.09,0,0,0,0,.17l.78.46a.3.3,0,0,0,.29,0l1-.59c.08-.05.08-.12,0-.17Z"/><path class="cls-22" d="M213.78,404.85a.37.37,0,0,0-.29,0l-1,.6a.09.09,0,0,0,0,.16l.78.46a.37.37,0,0,0,.29,0l1-.59c.07-.05.07-.12,0-.17Z"/><path class="cls-22" d="M212.4,405.7a.3.3,0,0,0-.29,0l-1,.58c-.08,0-.07.13,0,.17l.77.45a.3.3,0,0,0,.29,0l1-.58a.09.09,0,0,0,0-.17Z"/><path class="cls-22" d="M211,406.54a.3.3,0,0,0-.29,0l-1,.58c-.07.05-.07.12,0,.17l.78.46a.37.37,0,0,0,.29,0l1-.59a.09.09,0,0,0,0-.17Z"/><path class="cls-22" d="M209.62,407.37a.31.31,0,0,0-.28,0l-1,.59c-.08.05-.07.12,0,.17l.77.45a.3.3,0,0,0,.29,0l1-.58c.08-.05.08-.12,0-.17Z"/><path class="cls-22" d="M208.24,408.21a.33.33,0,0,0-.29,0l-1,.59c-.07,0-.07.12,0,.17l.78.45a.3.3,0,0,0,.29,0l1-.58c.08,0,.08-.13,0-.17Z"/><path class="cls-22" d="M206.85,409.05a.37.37,0,0,0-.29,0l-1,.58c-.08.05-.08.13,0,.17l.79.46a.28.28,0,0,0,.28,0l1-.59c.08,0,.07-.12,0-.17Z"/><path class="cls-22" d="M205.47,409.89a.3.3,0,0,0-.29,0l-1,.59c-.09,0-.08.12,0,.17l.78.45a.3.3,0,0,0,.29,0l1-.59c.07-.05.07-.12,0-.17Z"/><path class="cls-22" d="M204.08,410.73a.28.28,0,0,0-.28,0l-1,.59c-.08,0-.07.12,0,.17l.77.44a.3.3,0,0,0,.29,0l1-.58c.08-.05.08-.12,0-.17Z"/><path class="cls-22" d="M224.65,399.69a.28.28,0,0,0-.28,0l-3.27,2c-.07.05-.07.12,0,.17l.78.44a.3.3,0,0,0,.29,0l3.26-2c.08,0,.07-.12,0-.17Z"/><path class="cls-22" d="M221,401.92a.34.34,0,0,0-.28,0l-1,.59c-.07,0-.07.12,0,.17l.78.45a.3.3,0,0,0,.29,0l1-.59c.08,0,.08-.12,0-.17Z"/><path class="cls-22" d="M219.58,402.76a.37.37,0,0,0-.29,0l-1,.59c-.08,0-.08.12,0,.17l.78.45a.3.3,0,0,0,.29,0l1-.59c.07-.05.07-.12,0-.17Z"/><path class="cls-22" d="M218.2,403.6a.3.3,0,0,0-.29,0l-1,.59c-.08.05-.07.12,0,.17l.78.44a.28.28,0,0,0,.28,0l1-.58c.08-.05.08-.12,0-.17Z"/><path class="cls-22" d="M216.81,404.44a.28.28,0,0,0-.28,0l-1,.58a.1.1,0,0,0,0,.18l.78.44a.3.3,0,0,0,.29,0l1-.58c.08,0,.07-.13,0-.17Z"/><path class="cls-22" d="M215.42,405.28a.28.28,0,0,0-.28,0l-1,.58c-.08.05-.07.12,0,.17l.78.45a.33.33,0,0,0,.29,0l1-.59c.08,0,.08-.13,0-.17Z"/><path class="cls-22" d="M214,406.11a.37.37,0,0,0-.29,0l-1,.59c-.08.05-.08.12,0,.17l.79.45a.28.28,0,0,0,.28,0l1-.58c.07-.05.07-.12,0-.17Z"/><path class="cls-22" d="M212.65,407a.3.3,0,0,0-.29,0l-1,.58c-.08,0-.08.13,0,.17l.79.45a.28.28,0,0,0,.28,0l1-.58a.09.09,0,0,0,0-.17Z"/><path class="cls-22" d="M211.27,407.8a.3.3,0,0,0-.29,0l-1,.58a.09.09,0,0,0,0,.16l.78.46a.3.3,0,0,0,.29,0l1-.59c.07,0,.07-.12,0-.17Z"/><path class="cls-22" d="M209.88,408.63a.28.28,0,0,0-.28,0l-1,.59c-.08,0-.07.12,0,.17l.77.45a.36.36,0,0,0,.29,0l1-.59c.08,0,.08-.12,0-.17Z"/><path class="cls-22" d="M208.5,409.47a.3.3,0,0,0-.29,0l-1,.59c-.07,0-.07.12,0,.17l.78.44a.3.3,0,0,0,.29,0l1-.58c.07,0,.07-.12,0-.17Z"/><path class="cls-22" d="M207.12,410.31a.3.3,0,0,0-.29,0l-1,.58c-.08.05-.08.13,0,.17l.78.45a.28.28,0,0,0,.28,0l1-.58c.08,0,.07-.13,0-.17Z"/><path class="cls-22" d="M205.73,411.15a.3.3,0,0,0-.29,0l-1,.58c-.08,0-.08.12,0,.17l.78.46a.37.37,0,0,0,.29,0l1-.59a.09.09,0,0,0,0-.17Z"/><path class="cls-22" d="M225.85,400.39a.31.31,0,0,0-.28,0l-1,.64a.09.09,0,0,0,0,.17l.78.45a.3.3,0,0,0,.29,0l1-.63c.08-.05.08-.12,0-.17Z"/><path class="cls-22" d="M224.41,401.26a.28.28,0,0,0-.28,0l-1,.63c-.08.05-.08.13,0,.18l.78.44a.3.3,0,0,0,.29,0l1-.63c.08,0,.08-.12,0-.17Z"/><path class="cls-22" d="M227.06,401.08a.3.3,0,0,0-.29,0l-.73.45c-.08,0-.08.12,0,.17l2,1.14a.37.37,0,0,0,.29,0l.73-.45c.08-.05.08-.12,0-.17Z"/><path class="cls-22" d="M225.91,401.78a.32.32,0,0,0-.3,0l-1,.64c-.08,0-.07.12,0,.17l.78.44a.3.3,0,0,0,.29,0l1-.63c.08,0,.07-.12,0-.17Z"/><path class="cls-22" d="M221.49,403a.37.37,0,0,0-.29,0l-1,.59c-.08,0-.08.12,0,.17l.79.45a.28.28,0,0,0,.28,0l1-.59c.08-.05.07-.12,0-.17Z"/><path class="cls-22" d="M224.37,403l-.28-.17-1.2-.69a.37.37,0,0,0-.29,0l-1,.59a.09.09,0,0,0,0,.17l1.05.61-.81.48a.09.09,0,0,0,0,.17l.78.45a.33.33,0,0,0,.29,0l1.91-1.16c.08-.05.08-.12,0-.17Z"/><path class="cls-22" d="M220.11,403.86a.3.3,0,0,0-.29,0l-1,.59c-.07.05-.07.12,0,.17l.78.44a.3.3,0,0,0,.29,0l1-.58c.07-.05.07-.12,0-.17Z"/><path class="cls-22" d="M218.72,404.7a.28.28,0,0,0-.28,0l-1,.58c-.08.05-.08.13,0,.17l.78.45a.3.3,0,0,0,.29,0l1-.58c.08-.05.07-.12,0-.17Z"/><path class="cls-22" d="M217.34,405.54a.3.3,0,0,0-.29,0l-1,.58c-.07.05-.07.12,0,.17l.78.45a.3.3,0,0,0,.29,0l1-.59c.07,0,.07-.12,0-.17Z"/><path class="cls-22" d="M216,406.37a.3.3,0,0,0-.29,0l-1,.59c-.08.05-.08.12,0,.17l.78.46a.34.34,0,0,0,.28,0l1-.59a.09.09,0,0,0,0-.17Z"/><path class="cls-22" d="M214.57,407.21a.3.3,0,0,0-.29,0l-1,.59c-.09,0-.08.12,0,.17l.78.45a.33.33,0,0,0,.29,0l1-.58a.09.09,0,0,0,0-.17Z"/><path class="cls-22" d="M213.18,408.06a.3.3,0,0,0-.29,0l-1,.57a.1.1,0,0,0,0,.18l.78.45a.3.3,0,0,0,.29,0l1-.59c.08,0,.07-.12,0-.17Z"/><path class="cls-22" d="M211.8,408.89a.3.3,0,0,0-.29,0l-1,.59c-.08,0-.07.12,0,.17l.78.45a.3.3,0,0,0,.29,0l1-.59c.08-.05.08-.12,0-.17Z"/><path class="cls-22" d="M210.41,409.73a.3.3,0,0,0-.29,0l-1,.59c-.08.05-.08.12,0,.17l.77.44a.3.3,0,0,0,.29,0l1-.58c.07,0,.07-.12,0-.17Z"/><path class="cls-22" d="M209,410.57a.3.3,0,0,0-.29,0l-1,.58a.09.09,0,0,0,0,.17l.78.45a.33.33,0,0,0,.29,0l1-.59a.09.09,0,0,0,0-.17Z"/><path class="cls-22" d="M207.62,411.41a.37.37,0,0,0-.29,0l-2.11,1.29c-.08.05-.07.12,0,.17l.78.45a.34.34,0,0,0,.28,0l2.12-1.28c.08-.05.07-.12,0-.17Z"/><path class="cls-22" d="M221.75,404.28a.28.28,0,0,0-.28,0l-1,.58c-.08.05-.08.12,0,.17l.78.46a.34.34,0,0,0,.28,0l1-.59c.08,0,.08-.13,0-.17Z"/><path class="cls-22" d="M220.37,405.11a.33.33,0,0,0-.29,0l-1,.59c-.08.05-.08.12,0,.17l.78.45a.3.3,0,0,0,.29,0l1-.58a.09.09,0,0,0,0-.17Z"/><path class="cls-22" d="M219,406a.33.33,0,0,0-.29,0l-1,.59a.09.09,0,0,0,0,.17l.78.45a.3.3,0,0,0,.29,0l1-.58c.08-.05.08-.13,0-.17Z"/><path class="cls-22" d="M217.6,406.79a.37.37,0,0,0-.29,0l-1,.58a.09.09,0,0,0,0,.17l.78.46a.3.3,0,0,0,.29,0l1-.59c.08,0,.07-.12,0-.17Z"/><path class="cls-22" d="M216.22,407.63a.37.37,0,0,0-.29,0l-1,.59c-.08,0-.07.12,0,.17l.78.45a.28.28,0,0,0,.28,0l1-.59c.08-.05.07-.12,0-.17Z"/><path class="cls-22" d="M214.83,408.47a.3.3,0,0,0-.29,0l-1,.59c-.08.05-.07.12,0,.17l.78.45a.37.37,0,0,0,.29,0l1-.59c.08,0,.08-.12,0-.17Z"/><path class="cls-22" d="M213.44,409.31a.3.3,0,0,0-.29,0l-1,.58c-.08.05-.08.13,0,.17l.78.45a.33.33,0,0,0,.29,0l1-.59a.09.09,0,0,0,0-.17Z"/><path class="cls-22" d="M212.06,410.15a.3.3,0,0,0-.29,0l-1,.58c-.08,0-.07.12,0,.17l.78.46a.33.33,0,0,0,.29,0l1-.59c.08,0,.08-.13,0-.17Z"/><path class="cls-22" d="M210.67,411a.28.28,0,0,0-.28,0l-1,.59c-.08.05-.08.13,0,.17l.77.45a.3.3,0,0,0,.29,0l1-.58c.08-.05.08-.12,0-.17Z"/><path class="cls-22" d="M209.29,411.82a.37.37,0,0,0-.29,0l-1,.59c-.08,0-.07.13,0,.17l.78.45a.3.3,0,0,0,.29,0l1-.58a.1.1,0,0,0,0-.18Z"/><path class="cls-22" d="M207.91,412.67a.3.3,0,0,0-.29,0l-1.21.72c-.07.05-.07.12,0,.17l.78.45a.3.3,0,0,0,.29,0l1.2-.73c.08,0,.08-.12,0-.17Z"/><path class="cls-22" d="M227.09,402.46a.37.37,0,0,0-.29,0l-1,.64c-.08,0-.08.12,0,.17l.79.45a.34.34,0,0,0,.28,0l1-.63c.08,0,.08-.12,0-.17Z"/><path class="cls-22" d="M225.59,403.37a.3.3,0,0,0-.29,0l-1.28.77a.09.09,0,0,0,0,.17l.78.45a.3.3,0,0,0,.29,0l1.27-.77c.08-.05.08-.12,0-.17Z"/><path class="cls-22" d="M223.88,404.41a.33.33,0,0,0-.29,0l-1,.59c-.07,0-.07.12,0,.17l.78.45a.3.3,0,0,0,.29,0l1-.59c.07,0,.07-.12,0-.17Z"/><path class="cls-22" d="M222.5,405.24a.37.37,0,0,0-.29,0l-1,.59c-.08,0-.07.12,0,.17l.78.45a.28.28,0,0,0,.28,0l1-.59c.08-.05.08-.12,0-.17Z"/><path class="cls-22" d="M221.11,406.08a.3.3,0,0,0-.29,0l-1,.59c-.08.05-.08.12,0,.17l.78.45a.37.37,0,0,0,.29,0l1-.59c.07,0,.07-.12,0-.17Z"/><path class="cls-22" d="M219.72,406.92a.28.28,0,0,0-.28,0l-1,.58a.09.09,0,0,0,0,.17l.78.45a.3.3,0,0,0,.29,0l1-.58a.09.09,0,0,0,0-.17Z"/><path class="cls-22" d="M218.34,407.76a.3.3,0,0,0-.29,0l-1,.58c-.07.05-.07.12,0,.17l.78.46a.37.37,0,0,0,.29,0l1-.59a.1.1,0,0,0,0-.18Z"/><path class="cls-22" d="M217,408.59a.3.3,0,0,0-.29,0l-1,.59c-.08.05-.07.12,0,.17l.78.45a.28.28,0,0,0,.28,0l1-.58a.09.09,0,0,0,0-.17Z"/><path class="cls-22" d="M215.57,409.44a.33.33,0,0,0-.29,0l-1,.59c-.08,0-.07.13,0,.17l.78.45a.3.3,0,0,0,.29,0l1-.58a.1.1,0,0,0,0-.18Z"/><path class="cls-22" d="M214.18,410.28a.28.28,0,0,0-.28,0l-1,.58c-.08,0-.08.12,0,.17l.78.45a.3.3,0,0,0,.29,0l1-.59c.08-.05.07-.12,0-.17Z"/><path class="cls-22" d="M212.8,411.11a.3.3,0,0,0-.29,0l-1,.59c-.07.05-.07.12,0,.17l.78.45a.37.37,0,0,0,.29,0l1-.59c.07,0,.07-.12,0-.17Z"/><path class="cls-22" d="M211.41,412a.3.3,0,0,0-.29,0l-1,.59c-.08,0-.08.12,0,.17l.78.44a.28.28,0,0,0,.28,0l1-.58c.08,0,.07-.12,0-.17Z"/><path class="cls-22" d="M210,412.8a.37.37,0,0,0-.29,0l-2.12,1.28c-.07.05-.07.12,0,.17l.78.46a.37.37,0,0,0,.29,0l2.12-1.29c.07-.05.07-.12,0-.17Z"/><path class="cls-22" d="M229.44,402.46a.37.37,0,0,0-.29,0l-.73.44a.1.1,0,0,0,0,.18l2,1.14a.28.28,0,0,0,.28,0l.74-.44c.07,0,.07-.12,0-.17Z"/><path class="cls-22" d="M228.32,403.15a.3.3,0,0,0-.29,0l-1.1.66c-.08.05-.08.13,0,.17l.78.45a.28.28,0,0,0,.28,0l1.11-.67c.08,0,.07-.12,0-.17Z"/><path class="cls-22" d="M226.79,404.06a.37.37,0,0,0-.29,0l-.54.34c-.08.05-.08.12,0,.17l.77.45a.33.33,0,0,0,.29,0l.55-.33c.08-.05.07-.12,0-.17Z"/><path class="cls-22" d="M225.79,404.68a.3.3,0,0,0-.29,0l-.58.34a.1.1,0,0,0,0,.18l.78.45a.3.3,0,0,0,.29,0l.57-.35c.08-.05.07-.12,0-.17Z"/><path class="cls-22" d="M224.77,405.29a.3.3,0,0,0-.29,0l-1.58,1c-.08.05-.07.12,0,.17l.77.45a.32.32,0,0,0,.3,0l1.58-1c.08,0,.07-.12,0-.17Z"/><path class="cls-22" d="M222.77,406.5a.3.3,0,0,0-.29,0l-1,.59c-.07.05-.07.12,0,.17l.78.45a.3.3,0,0,0,.29,0l1-.58a.09.09,0,0,0,0-.17Z"/><path class="cls-22" d="M221.39,407.34a.32.32,0,0,0-.3,0l-1,.59c-.08,0-.08.12,0,.17l.78.45a.34.34,0,0,0,.28,0l1-.58a.09.09,0,0,0,0-.17Z"/><path class="cls-22" d="M220,408.18a.3.3,0,0,0-.29,0l-1,.58c-.09.05-.08.13,0,.17l.78.46a.3.3,0,0,0,.29,0l1-.59c.07,0,.07-.12,0-.17Z"/><path class="cls-22" d="M218.61,409a.34.34,0,0,0-.28,0l-1,.58a.09.09,0,0,0,0,.17l.78.46a.3.3,0,0,0,.29,0l1-.59c.08-.05.08-.12,0-.17Z"/><path class="cls-22" d="M217.23,409.86a.3.3,0,0,0-.29,0l-1,.59c-.07,0-.07.12,0,.17l.78.44a.3.3,0,0,0,.29,0l1-.58c.08,0,.08-.12,0-.17Z"/><path class="cls-22" d="M215.84,410.7a.28.28,0,0,0-.28,0l-1,.58c-.08.05-.08.13,0,.17l.78.45a.28.28,0,0,0,.28,0l1-.58c.08,0,.07-.13,0-.17Z"/><path class="cls-22" d="M214.46,411.54a.3.3,0,0,0-.29,0l-1,.58c-.08.05-.07.12,0,.17l.78.46a.37.37,0,0,0,.29,0l1-.59c.07-.05.07-.12,0-.17Z"/><path class="cls-22" d="M213.08,412.37a.3.3,0,0,0-.29,0l-1,.59c-.08.05-.08.12,0,.17l.78.45a.33.33,0,0,0,.29,0l1-.58a.09.09,0,0,0,0-.17Z"/><path class="cls-22" d="M211.69,413.21a.37.37,0,0,0-.29,0l-1,.59c-.08,0-.07.13,0,.17l.78.45a.3.3,0,0,0,.29,0l1-.58a.1.1,0,0,0,0-.18Z"/><path class="cls-22" d="M210.3,414.06a.33.33,0,0,0-.29,0l-1,.59c-.08,0-.08.12,0,.17l.78.45a.28.28,0,0,0,.28,0l1-.59c.08-.05.08-.12,0-.17Z"/><path class="cls-22" d="M229.06,404.11a.28.28,0,0,0-.28,0l-1,.58c-.08.05-.07.13,0,.18l.78.45a.3.3,0,0,0,.29,0l1-.59c.08-.05.08-.12,0-.17Z"/><path class="cls-22" d="M227.68,405a.3.3,0,0,0-.29,0l-1,.59c-.08,0-.08.12,0,.17l.77.44a.3.3,0,0,0,.29,0l1-.58c.08-.05.07-.12,0-.17Z"/><path class="cls-22" d="M226.28,405.8a.28.28,0,0,0-.28,0l-1,.58c-.08.05-.07.12,0,.17l.77.45a.32.32,0,0,0,.3,0l1-.59c.08,0,.08-.12,0-.17Z"/><path class="cls-22" d="M224.9,406.63a.37.37,0,0,0-.29,0l-1,.59c-.07,0-.07.12,0,.17l.78.45a.3.3,0,0,0,.29,0l1-.59c.07,0,.07-.12,0-.17Z"/><path class="cls-22" d="M223.51,407.47a.3.3,0,0,0-.29,0l-6.5,3.94c-.08,0-.08.13,0,.17l.78.45a.3.3,0,0,0,.29,0l6.51-3.94c.08,0,.07-.12,0-.16Z"/><path class="cls-22" d="M216.59,411.67a.3.3,0,0,0-.29,0l-1,.58c-.08.05-.07.12,0,.17l.78.45a.3.3,0,0,0,.29,0l1-.59c.07,0,.07-.12,0-.17Z"/><path class="cls-22" d="M215.2,412.5a.3.3,0,0,0-.29,0l-1,.59c-.08.05-.08.12,0,.17l.78.45a.37.37,0,0,0,.29,0l1-.58c.08-.05.07-.13,0-.18Z"/><path class="cls-22" d="M213.82,413.34a.3.3,0,0,0-.29,0l-1,.59c-.07,0-.07.12,0,.17l.78.44a.28.28,0,0,0,.29,0l1-.58c.08-.05.08-.13,0-.17Z"/><path class="cls-22" d="M212.43,414.18a.3.3,0,0,0-.29,0l-1,.58c-.08.05-.08.12,0,.17l.78.46a.3.3,0,0,0,.29,0l1-.59c.08-.05.07-.12,0-.17Z"/><path class="cls-22" d="M211.05,415a.37.37,0,0,0-.29,0l-.75.46c-.08,0-.08.12,0,.17l.79.46a.34.34,0,0,0,.28,0l.76-.46c.07-.05.07-.12,0-.17Z"/><g class="cls-2"><g class="cls-2"><path class="cls-39" d="M220.51,395.33l1,.57a1.74,1.74,0,0,0,.22-.18l-1-.56A1.18,1.18,0,0,1,220.51,395.33Z"/><path class="cls-40" d="M220.73,395.16l1,.56.07-.08-1-.57Z"/><path class="cls-41" d="M220.81,395.07l1,.57a.35.35,0,0,0,0-.08l-1-.56Z"/><path class="cls-42" d="M220.86,395l1,.56s0,0,.05-.06l-1-.56Z"/><path class="cls-43" d="M220.9,394.94l1,.56,0-.06-1-.56Z"/><path class="cls-44" d="M220.94,394.88l1,.56,0-.06-1-.57Z"/><path class="cls-45" d="M221,394.81l1,.57,0-.06-1-.56Z"/><path class="cls-46" d="M221,394.76l1,.56,0-.06-1-.56Z"/><path class="cls-47" d="M221,394.7l1,.56,0-.06-1-.56A.14.14,0,0,1,221,394.7Z"/><path class="cls-48" d="M221.05,394.64l1,.56,0-.06-1-.56A.33.33,0,0,0,221.05,394.64Z"/><path class="cls-49" d="M221.08,394.58l1,.56a.19.19,0,0,1,0-.07l-1-.56A.64.64,0,0,0,221.08,394.58Z"/><path class="cls-50" d="M221.1,394.51l1,.56s0,0,0-.07l-1-.56S221.11,394.49,221.1,394.51Z"/><path class="cls-51" d="M221.12,394.44l1,.56s0-.06,0-.08l-1-.56A.19.19,0,0,0,221.12,394.44Z"/><path class="cls-52" d="M221.14,394.36l1,.56a.31.31,0,0,0,0-.1l-1-.56A.34.34,0,0,0,221.14,394.36Z"/><path class="cls-53" d="M221.15,394.26l1,.56v-.14l-1-.56Z"/></g></g><polygon class="cls-21" points="220.57 379.81 221.15 394.12 222.11 394.69 221.54 380.37 220.57 379.81"/><polygon class="cls-54" points="199.78 407.8 200.74 408.37 221.48 395.9 220.51 395.33 199.78 407.8"/><g class="cls-2"><g class="cls-2"><path class="cls-53" d="M209.62,384.66a.18.18,0,0,1,.07.15v0l1,.56v0a.18.18,0,0,0-.07-.15Z"/></g></g><polygon class="cls-55" points="199.13 391.87 200.1 392.44 220.83 379.97 219.87 379.4 199.13 391.87"/><g class="cls-2"><g class="cls-2"><path class="cls-53" d="M209.62,384.66a.18.18,0,0,1,.07.15v0l1,.56v0a.18.18,0,0,0-.07-.15Z"/></g></g><g class="cls-2"><g class="cls-2"><polygon class="cls-48" points="209.33 385.21 210.29 385.77 210.29 385.77 209.33 385.21 209.33 385.21"/><path class="cls-47" d="M209.33,385.21l1,.56h0l-1-.57Z"/><polygon class="cls-46" points="209.34 385.21 210.21 385.72 209.35 385.21 209.34 385.21"/><path class="cls-46" d="M210.31,385.78l-.1-.06.11.06Z"/><path class="cls-45" d="M209.35,385.21l1,.57h0l-1-.56S209.36,385.21,209.35,385.21Z"/><path class="cls-44" d="M209.36,385.22l1,.56h0l-1-.56Z"/><path class="cls-43" d="M209.38,385.22l1,.56h0l-1-.56Z"/><polygon class="cls-42" points="209.39 385.22 210.36 385.78 210.36 385.78 210.37 385.78 209.41 385.22 209.39 385.22"/><path class="cls-41" d="M209.41,385.22l1,.56h0l-1-.57Z"/><path class="cls-40" d="M209.43,385.21l1,.57h0l-1-.56Z"/><path class="cls-39" d="M209.48,385.19l0,0,1,.56,0,0s.05,0,.07-.06l-1-.56Z"/><path class="cls-40" d="M209.56,385.13l1,.56,0,0-1-.56Z"/><path class="cls-41" d="M209.58,385.11l1,.56,0,0-1-.57Z"/><path class="cls-42" d="M209.6,385.08l1,.57v0l-1-.56Z"/><path class="cls-43" d="M209.61,385.07l1,.56v0l-1-.57Z"/><path class="cls-44" d="M209.62,385l1,.57,0,0-1-.56S209.63,385,209.62,385Z"/><path class="cls-45" d="M209.63,385l1,.56v0l-1-.56Z"/><path class="cls-46" d="M209.64,385l1,.56h0l-1-.57Z"/><path class="cls-47" d="M209.65,385l1,.57v0l-1-.56Z"/><path class="cls-48" d="M209.66,385l1,.56h0l-1-.57A0,0,0,0,0,209.66,385Z"/><path class="cls-49" d="M209.67,385l1,.57a0,0,0,0,1,0,0l-1-.56Z"/><path class="cls-50" d="M209.67,384.93l1,.56v0l-1-.56Z"/><path class="cls-51" d="M209.68,384.91l1,.56v0l-1-.56Z"/><path class="cls-52" d="M209.68,384.88l1,.56s0,0,0,0l-1-.56S209.68,384.87,209.68,384.88Z"/><path class="cls-53" d="M209.62,384.66a.18.18,0,0,1,.07.15v0l1,.56v0a.18.18,0,0,0-.07-.15Z"/></g></g><g class="cls-2"><g class="cls-2"><path class="cls-56" d="M209.46,384.68l1,.56,0,0-1-.56Z"/><path class="cls-57" d="M209.49,384.66l1,.56h0l-1-.56Z"/><path class="cls-58" d="M209.52,384.65l1,.56h0l-1-.56Z"/><path class="cls-59" d="M209.54,384.65l1,.56h0l-1-.56Z"/><path class="cls-60" d="M209.56,384.65l1,.56h0l-1-.56Z"/><path class="cls-61" d="M209.57,384.65l1,.56h0l-1-.56Z"/><path class="cls-62" d="M209.58,384.65l1,.56h0l-1-.56Z"/><path class="cls-63" d="M209.6,384.65l1,.56h0l-1-.56Z"/><path class="cls-64" d="M209.6,384.66l1,.56h0l-1-.56Z"/><polygon class="cls-65" points="210.58 385.22 210.58 385.22 210.3 385.06 210.58 385.22"/><polygon class="cls-65" points="209.62 384.66 210.3 385.06 209.62 384.66 209.62 384.66"/></g></g><path class="cls-22" d="M210.43,385.24a.45.45,0,0,0-.2.39c0,.14.1.19.22.12a.43.43,0,0,0,.2-.38C210.64,385.23,210.55,385.17,210.43,385.24Z"/><g class="cls-2"><g class="cls-2"><path class="cls-66" d="M210.23,385.58l-1-.56v0a.18.18,0,0,0,.07.15l1,.56a.15.15,0,0,1-.07-.14Z"/><path class="cls-67" d="M209.26,385l1,.56v0l-1-.56A0,0,0,0,0,209.26,385Z"/><path class="cls-68" d="M209.27,385l1,.56v0l-1-.56Z"/><path class="cls-69" d="M209.27,385l1,.56h0l-1-.57Z"/><path class="cls-70" d="M209.28,384.94l1,.57v0l-1-.56Z"/><path class="cls-65" d="M209.28,384.92l1,.56h0l-1-.57S209.28,384.91,209.28,384.92Z"/><path class="cls-64" d="M209.29,384.9l1,.57a0,0,0,0,0,0,0l-1-.56Z"/><path class="cls-63" d="M209.3,384.88l1,.56h0l-1-.56Z"/><path class="cls-62" d="M209.31,384.87l1,.56v0l-1-.57A0,0,0,0,0,209.31,384.87Z"/><path class="cls-61" d="M209.32,384.84l1,.57v0l-1-.57Z"/><path class="cls-60" d="M209.33,384.82l1,.57v0l-1-.56Z"/><path class="cls-59" d="M209.34,384.81l1,.56,0,0-1-.56Z"/><path class="cls-58" d="M209.35,384.78l1,.56h0l-1-.57Z"/><path class="cls-57" d="M209.37,384.76l1,.57,0,0-1-.56Z"/><path class="cls-56" d="M209.39,384.74l1,.56.07-.06-1-.56A.19.19,0,0,0,209.39,384.74Z"/></g></g><g class="cls-2"><g class="cls-2"><path class="cls-71" d="M198.5,393.08l1,.56v-.13l-1-.56Z"/><path class="cls-72" d="M198.5,393l1,.56s0-.07,0-.1l-1-.56Z"/><path class="cls-73" d="M198.51,392.85l1,.56a.24.24,0,0,1,0-.08l-1-.56A.24.24,0,0,1,198.51,392.85Z"/><path class="cls-74" d="M198.53,392.77l1,.56s0-.05,0-.07l-1-.57Z"/><path class="cls-75" d="M198.55,392.69l1,.57a.19.19,0,0,0,0-.07l-1-.56Z"/><path class="cls-76" d="M198.57,392.63l1,.56,0-.06-1-.57A.14.14,0,0,1,198.57,392.63Z"/><path class="cls-77" d="M198.59,392.56l1,.57s0,0,0-.06l-1-.56Z"/><path class="cls-78" d="M198.62,392.51l1,.56,0-.06-1-.56Z"/><path class="cls-79" d="M198.64,392.45l1,.56,0-.06-1-.57Z"/><path class="cls-80" d="M198.68,392.38l1,.57,0-.06-1-.56Z"/><path class="cls-81" d="M198.71,392.33l1,.56,0-.06-1-.56Z"/><path class="cls-82" d="M198.74,392.27l1,.56,0-.06-1-.56S198.76,392.25,198.74,392.27Z"/><path class="cls-83" d="M198.79,392.21l1,.56.06-.07-1-.56Z"/><path class="cls-84" d="M198.84,392.14l1,.56a.27.27,0,0,1,.07-.08l-1-.57Z"/><path class="cls-85" d="M198.91,392.05l1,.57a.92.92,0,0,1,.22-.18l-1-.57Z"/></g></g><path class="cls-9" d="M221.57,378.08,199.26,391.5a1.24,1.24,0,0,0-.55,1l.73,18.11c0,.38.28.54.6.35l22.31-13.42a1.27,1.27,0,0,0,.55-1l-.73-18.11C222.15,378,221.88,377.89,221.57,378.08Zm-11.12,7.67c-.12.07-.22,0-.22-.12a.45.45,0,0,1,.2-.39c.12-.07.21,0,.22.13A.43.43,0,0,1,210.45,385.75Z"/><path class="cls-16" d="M220.83,380,200.1,392.44a1.46,1.46,0,0,0-.64,1.2L200,408c0,.45.33.62.7.41l20.74-12.47a1.45,1.45,0,0,0,.63-1.22l-.57-14.31C221.52,379.92,221.2,379.74,220.83,380Z"/><path class="cls-37" d="M221,377.48l0,0h-.13l-.14,0-.11,0-22.31,13.42s-.07.05-.11.07l0,0-.05,0,0,0h0l-.07.09v0h0v0a.3.3,0,0,0-.06.11h0a.63.63,0,0,0,0,.09l0,.06h0s0,0,0,.06a.26.26,0,0,0,0,.08h0s0,0,0,0,0,.05,0,.07,0,.05,0,.06,0,.1,0,.14l.73,18.11a.45.45,0,0,0,.19.39l1,.56a.43.43,0,0,1-.18-.39l-.73-18.11v-.14h0a.51.51,0,0,1,0-.13v0l0-.14h0l.06-.13h0a1,1,0,0,1,.08-.14h0l.08-.11,0,0,.07-.08,0,0,.11-.08,22.31-13.42.12-.06.1,0h.11a.2.2,0,0,1,.08,0l-1-.56Z"/><path class="cls-86" d="M696.82,527.75a24,24,0,1,1-12.38-31.57A24,24,0,0,1,696.82,527.75Z"/><path class="cls-86" d="M459.4,438A24,24,0,1,1,447,406.43,24,24,0,0,1,459.4,438Z"/><path class="cls-86" d="M610.69,483.46a24,24,0,1,1-12.38-31.58A24,24,0,0,1,610.69,483.46Z"/><path class="cls-86" d="M452.36,399.46a24,24,0,1,1-24-24A24,24,0,0,1,452.36,399.46Z"/><path class="cls-86" d="M688.1,470.35a50.14,50.14,0,1,1-25.89-66A50.13,50.13,0,0,1,688.1,470.35Z"/><path class="cls-86" d="M529.93,383a43.79,43.79,0,1,1-22.61-57.65A43.78,43.78,0,0,1,529.93,383Z"/><circle class="cls-86" cx="493.13" cy="414.23" r="43.79"/><path class="cls-86" d="M631.21,414.23a68.79,68.79,0,1,1-68.78-68.78A68.78,68.78,0,0,1,631.21,414.23Z"/><path class="cls-86" d="M651,523.61a18.16,18.16,0,1,1-9.38-23.92A18.17,18.17,0,0,1,651,523.61Z"/><path class="cls-86" d="M454.5,355.48a18.16,18.16,0,1,1-9.38-23.92A18.16,18.16,0,0,1,454.5,355.48Z"/><path class="cls-86" d="M711.24,474.76a18.17,18.17,0,1,1-9.38-23.92A18.17,18.17,0,0,1,711.24,474.76Z"/><path class="cls-86" d="M611.52,541.42a10,10,0,1,1-5.18-13.21A10,10,0,0,1,611.52,541.42Z"/><path class="cls-86" d="M391.13,377.83A10,10,0,1,1,386,364.62,10,10,0,0,1,391.13,377.83Z"/><path class="cls-87" d="M587.13,318.86c8.45,5.21,26.19,26.73,26.19,44.85S599,383.81,599,403.78c0,0-7.82-12.16-3.39-25.92,0,0-11.41,8.33-11.41,29.51s-16.31,35-25.81,39.79c0,0,17.28-14.39-1.22-38.89-13-17.24-26.73-23.3-24.38-47.81,0,0-9.6,18.53-2.22,31.48,0,0-20-22.12-5.1-53.81S571.05,309,587.13,318.86Z"/><path class="cls-17" d="M456.64,223.75a.81.81,0,0,1,.36-.1h.07a1.17,1.17,0,0,1,.39.12c2.42,1.4,5,12.39,5.16,13l1.85,12.88,2.84,19.77,2.19,15.27-7-1.39-8.31-47.49C454.65,227.61,455.57,224.33,456.64,223.75Z"/><path class="cls-28" d="M476.74,242.46h0l-1.84-12.89h0c-.19,0-2.75-11.53-5.14-12.91a.79.79,0,0,0-.85,0l-12.27,7.13h0a.8.8,0,0,1,.36-.09h.07a.84.84,0,0,1,.39.12c2.41,1.39,5,12.38,5.15,12.95h0l6.88,47.94,12.28-7.14Z"/><polygon class="cls-17" points="464.47 249.63 513.49 226.55 516.31 225.22 523.18 285.6 521.2 285.02 481.19 273.43 467.31 269.4 464.47 249.63"/><path class="cls-28" d="M600.89,321.13c0,7.53-16.3,13.64-36.4,13.64s-36.39-6.11-36.39-13.64,16.29-13.63,36.39-13.63S600.89,313.6,600.89,321.13Z"/><path class="cls-28" d="M579.81,266.93a141.7,141.7,0,0,1-19.2-4.64c-2.36-.74-4.79-1.56-7.27-2.48a173.17,173.17,0,0,1-32.18-16c-3.81-2.4-10.36,10.72-10.36,10.72,0,32.66,17.14,65.62,17.59,67.11,6.37,3.29,11.67.2,23.38,4.53,4.35,1.6,9.06,3.22,14.13,4.8s14.56-.6,14.56-.6l20.43-9.27s16.93-37.31,16.93-64.95C617.82,256.18,587.38,268.19,579.81,266.93Z"/><path class="cls-9" d="M590.45,48.59s-52.89-.36-54.39-1.39C520.78,88.93,502.84,157.33,509.57,236l1.19,17.76c3.91,2.88,107.47,0,107.47,0C625.81,178.08,611.71,102.88,590.45,48.59Z"/><path class="cls-88" d="M541,142.91h0a6.66,6.66,0,0,1,.26-.67h0C541.16,142.47,541.06,142.68,541,142.91Z"/><path class="cls-88" d="M541.57,141.42h0v0S541.58,141.42,541.57,141.42Z"/><path class="cls-88" d="M540.56,144.55c.05-.27.13-.5.19-.75h0C540.69,144.06,540.61,144.29,540.56,144.55Z"/><path class="cls-88" d="M562.6,180.3h0c-.13,0-.26-.07-.39-.1C562.34,180.23,562.47,180.28,562.6,180.3Z"/><path class="cls-88" d="M544.16,138h0c.17-.13.36-.24.54-.36h0C544.51,137.77,544.32,137.87,544.16,138Z"/><path class="cls-88" d="M543.18,138.94c.15-.16.31-.29.46-.43h0C543.49,138.66,543.32,138.78,543.18,138.94Z"/><path class="cls-89" d="M562.83,180.34l-.23,0h0Z"/><path class="cls-89" d="M545.92,136.93h0c.19-.09.37-.19.57-.27h0C546.31,136.73,546.12,136.84,545.92,136.93Z"/><path class="cls-89" d="M540.75,143.81h0c.08-.3.15-.61.24-.89h0C540.89,143.2,540.83,143.51,540.75,143.81Z"/><path class="cls-89" d="M541.24,142.25h0c.11-.28.2-.56.32-.82h0C541.45,141.68,541.35,142,541.24,142.25Z"/><path class="cls-89" d="M543.64,138.51h0c.18-.17.34-.35.52-.51h0C544,138.16,543.81,138.34,543.64,138.51Z"/><path class="cls-89" d="M544.68,137.64h0a4.6,4.6,0,0,1,.58-.4h0C545.07,137.36,544.88,137.51,544.68,137.64Z"/><path class="cls-90" d="M546.51,136.65h0Z"/><path class="cls-90" d="M545.28,137.24h0c.21-.12.44-.21.66-.32h0A6.31,6.31,0,0,0,545.28,137.24Z"/><path class="cls-91" d="M653.79,337.32h0Z"/><path class="cls-91" d="M653.14,337.49l0,0h0Z"/><path class="cls-28" d="M653.09,337.51h0c-2,1.12-3.84,6.57-4,6.92l-1.91,10.69-48.72-79.49,12.28-7.14,42.29,69h0Z"/><path class="cls-17" d="M649.15,344.43c.11-.35,1.94-5.8,4-6.92l0,0a1.28,1.28,0,0,1,.49-.16h.16a1.05,1.05,0,0,1,.58.15c1.41.81,2.69,4.89,3.22,15.76L649,391l-7-6.7,2.26-12.69,2.94-16.45Z"/><path class="cls-28" d="M666.66,330.33a1.26,1.26,0,0,0-1.32.05l-12.25,7.12h0l0,0a1.28,1.28,0,0,1,.49-.16h.16a1.05,1.05,0,0,1,.58.15c1.41.81,2.69,4.89,3.22,15.76L649,391l12.28-7.14,8.58-37.73C669.33,335.22,668.06,331.14,666.66,330.33Z"/><polygon class="cls-17" points="588.53 323.31 598.52 275.63 647.24 355.12 644.3 371.57 588.53 323.31"/><path class="cls-9" d="M618.23,253.71c0,11.13-24.06,20.14-53.74,20.14s-53.73-9-53.73-20.14,24-20.13,53.73-20.13S618.23,242.59,618.23,253.71Z"/><path class="cls-92" d="M522.73,197c.37-3.28.47-6.6,0,0Z"/><path class="cls-92" d="M544,210.17c.4,2.35,1.39,2.61-.15-2.73v.31c.13.57.26,1.14.39,1.69C544.6,211,544.38,210.93,544,210.17Z"/><path class="cls-92" d="M544.31,200.29c-.15.94-.26,1.9-.4,2.86,0,.28,0,.57,0,.86C545.12,198.88,544.71,198.81,544.31,200.29Z"/><path class="cls-92" d="M590.45,48.59s-15.71-.1-30.25-.37c.4,3.7,20.66,69.3,22.66,82.78,3.15,21.24,5.48,43,3.61,64.49-2.4,27.5-10.89,57.84-40.66,66.75-10.91,3.28-22.29,2-32.43-2.3,7,8.07,27.24,13.91,51.11,13.91,29.68,0,53.74-9,53.74-20.14C625.81,178.08,611.71,102.87,590.45,48.59Z"/><path class="cls-17" d="M524.68,108.72c-7.51,10.55-9.19,28.66-3.76,40.47s15.94,12.84,23.44,2.31,9.18-28.67,3.74-40.49S532.18,98.18,524.68,108.72Zm9.42.46c.19,0,.37-.05.55-.08a4.41,4.41,0,0,1,.62-.09,5.42,5.42,0,0,1,.57,0c.2,0,.4,0,.61,0s.41.07.62.11a5.12,5.12,0,0,1,.54.1h0c2.69.71,5.15,3,6.9,6.8a30.6,30.6,0,0,1,2.2,15.27,38.38,38.38,0,0,1-.6,4,35.15,35.15,0,0,1-1,3.85,29.35,29.35,0,0,1-1.46,3.55,22.17,22.17,0,0,1-1.87,3.15h0a13.11,13.11,0,0,1-5.65,4.81,7.81,7.81,0,0,1-2.38.54,8,8,0,0,1-6.47-2.84l-.15-.13a2.88,2.88,0,0,0-.22-.27,16.05,16.05,0,0,1-2.4-3.81,29.48,29.48,0,0,1-2.32-13.22,35.74,35.74,0,0,1,.73-6,32.67,32.67,0,0,1,1.7-5.67,24.87,24.87,0,0,1,2.66-4.89,16.55,16.55,0,0,1,2.17-2.51c.17-.16.34-.29.51-.44l.61-.52c.17-.12.35-.22.53-.34s.42-.29.63-.41h0A8.49,8.49,0,0,1,534.1,109.18Z"/><path class="cls-16" d="M534.1,109.18c.18,0,.36-.05.54-.08a4.55,4.55,0,0,1,.63-.09c.18,0,.36,0,.55,0s.42,0,.63,0,.41.07.61.11a5.3,5.3,0,0,1,.55.1h0c2.69.71,5.15,3,6.9,6.8a30.6,30.6,0,0,1,2.2,15.27,38.38,38.38,0,0,1-.6,4,35.15,35.15,0,0,1-1,3.85,29.35,29.35,0,0,1-1.46,3.55,22.17,22.17,0,0,1-1.87,3.15h0a13.11,13.11,0,0,1-5.65,4.81,7.81,7.81,0,0,1-2.38.54,8,8,0,0,1-6.47-2.84l-.15-.14c-.07-.08-.14-.18-.22-.26a16.05,16.05,0,0,1-2.4-3.81,29.48,29.48,0,0,1-2.32-13.22,35.74,35.74,0,0,1,.73-6,32.67,32.67,0,0,1,1.7-5.67,24.87,24.87,0,0,1,2.66-4.89,16.55,16.55,0,0,1,2.17-2.51c.16-.16.33-.28.5-.43l.62-.53.51-.33c.22-.14.43-.3.65-.42h0A8.49,8.49,0,0,1,534.1,109.18Z"/><path class="cls-17" d="M517.36,179.15c-6.25,11.33-5.85,29.52.9,40.64s17.31,10.93,23.56-.4,5.82-29.53-.93-40.64S523.6,167.82,517.36,179.15Zm9.41-.62a5.36,5.36,0,0,1,.54-.14c.2-.06.4-.13.6-.17l.56-.06.61-.06c.21,0,.42,0,.64,0s.36,0,.54,0h0c2.75.4,5.46,2.39,7.64,6a30.69,30.69,0,0,1,3.93,14.93,34,34,0,0,1-.14,4,31.41,31.41,0,0,1-.58,3.94,28.75,28.75,0,0,1-1,3.7,23.14,23.14,0,0,1-1.49,3.35h0a13.15,13.15,0,0,1-5.07,5.42,7.54,7.54,0,0,1-2.3.81,8.09,8.09,0,0,1-6.76-2.07,1.67,1.67,0,0,0-.16-.12l-.24-.25a16,16,0,0,1-2.83-3.5,29.66,29.66,0,0,1-3.82-12.87,36.18,36.18,0,0,1,0-6.07,32.29,32.29,0,0,1,1-5.83,24.11,24.11,0,0,1,2.08-5.16,17.14,17.14,0,0,1,1.86-2.75c.15-.18.31-.32.46-.49s.36-.4.55-.58.32-.27.48-.4a6.66,6.66,0,0,1,.59-.49,0,0,0,0,1,0,0A8.56,8.56,0,0,1,526.77,178.53Z"/><path class="cls-16" d="M526.77,178.53a5.18,5.18,0,0,1,.53-.14c.2-.06.41-.13.61-.17a4.93,4.93,0,0,1,.54-.05c.21,0,.42-.06.63-.07s.42,0,.62,0,.38,0,.56,0h0c2.75.4,5.46,2.39,7.64,6a30.69,30.69,0,0,1,3.93,14.93,34,34,0,0,1-.14,4,31.41,31.41,0,0,1-.58,3.94,28.75,28.75,0,0,1-1,3.7,23.14,23.14,0,0,1-1.49,3.35h0a13.15,13.15,0,0,1-5.07,5.42,7.54,7.54,0,0,1-2.3.81,8.09,8.09,0,0,1-6.76-2.07,1.67,1.67,0,0,0-.16-.12l-.24-.25a16,16,0,0,1-2.83-3.5,29.66,29.66,0,0,1-3.82-12.87,36.18,36.18,0,0,1,0-6.07,32.29,32.29,0,0,1,1-5.83,24.11,24.11,0,0,1,2.08-5.16,17.14,17.14,0,0,1,1.86-2.75c.15-.17.3-.31.46-.48s.36-.41.55-.59a5.71,5.71,0,0,1,.47-.39c.2-.17.39-.35.6-.5a0,0,0,0,1,0,0A8.56,8.56,0,0,1,526.77,178.53Z"/><path class="cls-27" d="M564.1,0s-18.16,20.11-28,47.2c25.77,11.46,54.39,1.39,54.39,1.39C585.09,29.3,564.16.15,564.1,0Z"/><path class="cls-16" d="M564.1,0s-10.9,12.22-15.62,21.05c.72,1.43,9.91,16.92,13,31.53,2,1.4,29.69-3.5,29-4C585.09,29.3,564.16.15,564.1,0Z"/></g></g></g></svg>