<svg width="680" height="710" viewBox="0 0 680 710" fill="none" xmlns="http://www.w3.org/2000/svg">
<path opacity="0.2" d="M344.896 678.202L42.5269 546.079L346.748 378.611C346.748 378.611 661.311 513.666 638.159 519.84C615.007 526.168 344.896 678.202 344.896 678.202Z" fill="#8180EE"/>
<path fill-rule="evenodd" clip-rule="evenodd" d="M103.738 196.892L117.859 189.315C118.692 188.871 119.667 188.775 120.571 189.047C121.475 189.32 122.234 189.94 122.682 190.771L130.258 204.893C130.705 205.726 130.802 206.701 130.529 207.606C130.256 208.511 129.636 209.27 128.803 209.717L114.681 217.294C113.848 217.738 112.873 217.834 111.969 217.561C111.065 217.289 110.306 216.669 109.858 215.838L102.282 201.717C102.06 201.304 101.923 200.852 101.876 200.386C101.83 199.92 101.875 199.45 102.011 199.002C102.146 198.554 102.368 198.137 102.664 197.775C102.961 197.413 103.326 197.113 103.738 196.892Z" fill="#002BDC"/>
<path opacity="0.8" fill-rule="evenodd" clip-rule="evenodd" d="M167.513 70.143L175.875 78.6999C176.12 78.9495 176.313 79.2451 176.443 79.5695C176.573 79.8939 176.638 80.2404 176.634 80.5899C176.63 80.9395 176.557 81.2846 176.419 81.6058C176.281 81.927 176.081 82.2179 175.83 82.4616L167.267 90.834C167.017 91.0791 166.722 91.2723 166.398 91.4027C166.073 91.5331 165.726 91.5983 165.377 91.594C165.027 91.5896 164.682 91.5162 164.361 91.3778C164.04 91.2394 163.749 91.0388 163.506 90.7876L155.142 82.2311C154.898 81.9813 154.705 81.6855 154.575 81.3612C154.445 81.0369 154.381 80.69 154.385 80.3407C154.389 79.9913 154.462 79.6461 154.599 79.3249C154.737 79.0038 154.937 78.7127 155.187 78.4687L163.753 70.0962C164.003 69.851 164.298 69.6574 164.622 69.5269C164.946 69.3964 165.293 69.3313 165.643 69.3357C165.992 69.34 166.338 69.4142 166.659 69.5527C166.979 69.6912 167.27 69.8917 167.513 70.143Z" fill="#002BDC"/>
<path opacity="0.1" fill-rule="evenodd" clip-rule="evenodd" d="M452.676 302.487L461.038 311.044C461.283 311.293 461.476 311.589 461.607 311.913C461.737 312.238 461.802 312.584 461.798 312.934C461.794 313.283 461.72 313.628 461.582 313.95C461.444 314.271 461.244 314.562 460.994 314.805L452.43 323.178C452.181 323.423 451.886 323.616 451.561 323.747C451.237 323.877 450.89 323.942 450.54 323.938C450.191 323.933 449.845 323.86 449.524 323.722C449.203 323.583 448.913 323.383 448.669 323.131L440.306 314.575C440.062 314.325 439.869 314.029 439.739 313.705C439.609 313.381 439.544 313.034 439.548 312.684C439.552 312.335 439.625 311.99 439.763 311.669C439.901 311.348 440.1 311.057 440.35 310.813L448.917 302.44C449.166 302.195 449.461 302.001 449.786 301.871C450.11 301.74 450.457 301.675 450.806 301.679C451.156 301.684 451.501 301.758 451.822 301.897C452.143 302.035 452.433 302.236 452.676 302.487Z" fill="#002BDC"/>
<path opacity="0.8" fill-rule="evenodd" clip-rule="evenodd" d="M475.957 138.082L480.901 143.141C481.045 143.289 481.16 143.463 481.237 143.655C481.314 143.847 481.352 144.052 481.35 144.258C481.347 144.465 481.304 144.669 481.222 144.859C481.141 145.049 481.022 145.221 480.874 145.365L475.811 150.315C475.664 150.46 475.489 150.574 475.297 150.651C475.106 150.728 474.901 150.767 474.694 150.764C474.487 150.762 474.283 150.718 474.093 150.636C473.903 150.555 473.732 150.436 473.588 150.287L468.643 145.229C468.499 145.081 468.385 144.906 468.308 144.714C468.231 144.523 468.193 144.318 468.195 144.111C468.198 143.905 468.241 143.7 468.322 143.511C468.404 143.321 468.522 143.149 468.669 143.004L473.734 138.054C473.882 137.909 474.056 137.795 474.248 137.718C474.439 137.641 474.645 137.602 474.851 137.605C475.058 137.607 475.262 137.651 475.452 137.733C475.642 137.815 475.813 137.933 475.957 138.082Z" fill="#002BDC"/>
<path opacity="0.8" fill-rule="evenodd" clip-rule="evenodd" d="M303.233 32.9905L308.177 38.0495C308.321 38.197 308.435 38.3718 308.512 38.5636C308.589 38.7554 308.628 38.9602 308.625 39.1669C308.623 39.3735 308.58 39.5776 308.498 39.7675C308.417 39.9574 308.298 40.1294 308.15 40.2735L303.087 45.2234C302.94 45.3683 302.765 45.4825 302.573 45.5596C302.382 45.6367 302.176 45.6752 301.97 45.6727C301.763 45.6701 301.559 45.6267 301.369 45.5449C301.179 45.463 301.008 45.3444 300.864 45.1959L295.919 40.1372C295.775 39.9895 295.661 39.8146 295.584 39.6229C295.507 39.4311 295.469 39.2261 295.471 39.0195C295.474 38.813 295.517 38.6089 295.598 38.419C295.679 38.2291 295.797 38.0571 295.945 37.9128L301.01 32.9628C301.157 32.8179 301.332 32.7034 301.524 32.6263C301.715 32.5491 301.92 32.5106 302.127 32.5132C302.334 32.5158 302.538 32.5596 302.728 32.6415C302.917 32.7234 303.089 32.8419 303.233 32.9905Z" fill="#002BDC"/>
<path opacity="0.8" fill-rule="evenodd" clip-rule="evenodd" d="M19.9937 245.781L24.9385 250.84C25.0831 250.987 25.1972 251.162 25.2742 251.354C25.3512 251.546 25.3895 251.751 25.387 251.957C25.3846 252.164 25.3414 252.368 25.2599 252.558C25.1784 252.748 25.0602 252.92 24.9121 253.064L19.8492 258.014C19.7018 258.159 19.527 258.273 19.3352 258.35C19.1433 258.427 18.9381 258.466 18.7314 258.463C18.5246 258.461 18.3204 258.417 18.1305 258.335C17.9406 258.254 17.7687 258.135 17.6249 257.986L12.681 252.928C12.5366 252.78 12.4227 252.605 12.3459 252.413C12.269 252.221 12.2307 252.016 12.2332 251.81C12.2356 251.603 12.2788 251.399 12.3601 251.209C12.4415 251.019 12.5594 250.847 12.7073 250.703L17.7721 245.753C17.9193 245.608 18.0938 245.494 18.2854 245.417C18.4771 245.34 18.6822 245.301 18.8888 245.304C19.0954 245.307 19.2994 245.35 19.489 245.432C19.6787 245.514 19.8502 245.632 19.9937 245.781Z" fill="#002BDC"/>
<path opacity="0.1" fill-rule="evenodd" clip-rule="evenodd" d="M370.969 248.513L369.71 230.35C369.636 229.28 369.991 228.224 370.695 227.415C371.399 226.606 372.396 226.11 373.466 226.035L391.627 224.783C392.697 224.709 393.753 225.064 394.563 225.768C395.372 226.472 395.869 227.469 395.944 228.539L397.194 246.697C397.232 247.227 397.164 247.759 396.996 248.263C396.827 248.767 396.561 249.233 396.212 249.634C395.863 250.035 395.438 250.363 394.962 250.599C394.486 250.835 393.968 250.976 393.438 251.012L375.276 252.265C374.747 252.302 374.215 252.234 373.712 252.066C373.209 251.897 372.744 251.631 372.344 251.282C371.944 250.934 371.617 250.51 371.381 250.035C371.144 249.56 371.005 249.043 370.969 248.513Z" fill="#002BDC"/>
<path opacity="0.1" fill-rule="evenodd" clip-rule="evenodd" d="M458.384 430.752L461.774 436.414C461.872 436.58 461.938 436.763 461.965 436.954C461.993 437.145 461.983 437.339 461.936 437.526C461.888 437.713 461.804 437.889 461.688 438.043C461.572 438.198 461.428 438.328 461.262 438.426L455.607 441.813C455.442 441.912 455.259 441.978 455.069 442.007C454.878 442.035 454.685 442.025 454.498 441.978C454.311 441.931 454.135 441.848 453.981 441.732C453.827 441.617 453.697 441.473 453.599 441.307L450.209 435.646C450.01 435.313 449.951 434.914 450.045 434.538C450.139 434.161 450.378 433.837 450.711 433.636L456.375 430.248C456.539 430.149 456.723 430.084 456.913 430.055C457.103 430.027 457.297 430.036 457.484 430.083C457.67 430.13 457.846 430.213 458 430.328C458.155 430.442 458.285 430.586 458.384 430.752Z" fill="#002BDC"/>
<path opacity="0.1" fill-rule="evenodd" clip-rule="evenodd" d="M95.5464 26.2127L98.9361 31.8752C99.035 32.0408 99.1003 32.2243 99.1281 32.4151C99.1559 32.606 99.1457 32.8005 99.0982 32.9874C99.0506 33.1743 98.9663 33.3499 98.8506 33.5042C98.735 33.6586 98.5904 33.7887 98.4243 33.8868L92.77 37.2741C92.6051 37.3735 92.422 37.4392 92.2315 37.4676C92.041 37.4959 91.8471 37.4864 91.6604 37.4393C91.4737 37.3923 91.2979 37.3087 91.1436 37.1934C90.9894 37.0782 90.8595 36.9336 90.7614 36.7679L87.3712 31.1072C87.1722 30.7739 87.1132 30.3753 87.2072 29.9986C87.3013 29.622 87.5408 29.298 87.8732 29.0974L93.5371 25.7091C93.7021 25.6101 93.8851 25.5446 94.0754 25.5163C94.2657 25.4881 94.4595 25.4975 94.6461 25.5443C94.8328 25.5911 95.0084 25.6742 95.1628 25.7889C95.3173 25.9035 95.4477 26.0476 95.5464 26.2127Z" fill="#002BDC"/>
<path opacity="0.1" fill-rule="evenodd" clip-rule="evenodd" d="M279.73 119.08L273.717 133.064C273.541 133.473 273.286 133.842 272.967 134.152C272.648 134.462 272.27 134.705 271.857 134.869C271.443 135.032 271.001 135.111 270.556 135.103C270.111 135.095 269.673 135 269.265 134.822L255.298 128.819C254.89 128.645 254.52 128.391 254.21 128.073C253.9 127.755 253.656 127.379 253.492 126.966C253.327 126.554 253.246 126.112 253.254 125.668C253.261 125.224 253.356 124.786 253.533 124.379L259.541 110.396C259.896 109.574 260.562 108.925 261.393 108.593C262.224 108.26 263.153 108.271 263.977 108.622L277.959 114.642C278.366 114.817 278.736 115.071 279.046 115.388C279.356 115.706 279.599 116.081 279.764 116.494C279.928 116.906 280.01 117.347 280.004 117.79C279.998 118.234 279.905 118.672 279.73 119.08Z" fill="#002BDC"/>
<path opacity="0.1" fill-rule="evenodd" clip-rule="evenodd" d="M463.514 59.6985L459.426 64.8798C459.307 65.0311 459.159 65.1573 458.99 65.2511C458.822 65.345 458.636 65.4046 458.445 65.4266C458.253 65.4486 458.059 65.4322 457.873 65.379C457.688 65.3258 457.515 65.2368 457.364 65.1165L452.188 61.0356C452.037 60.9168 451.91 60.769 451.816 60.6011C451.722 60.4332 451.662 60.2485 451.639 60.0573C451.617 59.866 451.633 59.672 451.685 59.4868C451.738 59.3017 451.827 59.129 451.947 58.9784L456.033 53.7973C456.274 53.4927 456.625 53.2959 457.011 53.2499C457.396 53.2039 457.784 53.3126 458.09 53.552L463.27 57.6415C463.422 57.7604 463.548 57.9082 463.642 58.0761C463.736 58.2439 463.796 58.4284 463.819 58.6194C463.841 58.8105 463.826 59.0042 463.774 59.1893C463.722 59.3745 463.633 59.5475 463.514 59.6985Z" fill="#002BDC"/>
<path opacity="0.1" fill-rule="evenodd" clip-rule="evenodd" d="M23.3251 131.561L19.2375 136.743C19.1179 136.894 18.9696 137.02 18.8011 137.114C18.6326 137.208 18.4472 137.267 18.2556 137.289C18.064 137.311 17.8699 137.295 17.6845 137.242C17.4991 137.189 17.3261 137.1 17.1753 136.979L11.9992 132.899C11.8477 132.78 11.7212 132.632 11.627 132.464C11.5328 132.296 11.4728 132.111 11.4504 131.92C11.428 131.729 11.4436 131.535 11.4965 131.35C11.5494 131.165 11.6384 130.992 11.7584 130.841L15.8442 125.66C16.0849 125.356 16.4365 125.159 16.822 125.113C17.2075 125.067 17.5955 125.176 17.9011 125.415L23.0815 129.504C23.2327 129.623 23.359 129.771 23.4531 129.939C23.5472 130.107 23.6072 130.291 23.6298 130.482C23.6525 130.673 23.6372 130.867 23.5849 131.052C23.5326 131.237 23.4444 131.41 23.3251 131.561Z" fill="#002BDC"/>
<path opacity="0.6" fill-rule="evenodd" clip-rule="evenodd" d="M611.022 191.31L610.079 205.524C610.022 206.361 609.635 207.142 609.003 207.694C608.372 208.247 607.547 208.526 606.71 208.472L592.49 207.524C591.653 207.467 590.873 207.081 590.32 206.45C589.768 205.819 589.487 204.995 589.541 204.158L590.494 189.943C590.521 189.528 590.63 189.123 590.814 188.75C590.998 188.377 591.254 188.044 591.567 187.771C591.88 187.497 592.243 187.288 592.637 187.155C593.031 187.022 593.448 186.968 593.862 186.996L608.073 187.94C608.488 187.968 608.894 188.077 609.267 188.261C609.639 188.445 609.972 188.701 610.246 189.014C610.52 189.327 610.73 189.691 610.863 190.085C610.996 190.479 611.05 190.895 611.022 191.31Z" fill="#00C6FF"/>
<path opacity="0.6" fill-rule="evenodd" clip-rule="evenodd" d="M67.724 353.406L66.781 367.62C66.7237 368.457 66.3368 369.237 65.7053 369.79C65.0738 370.342 64.2494 370.622 63.4121 370.567L49.1921 369.62C48.3553 369.563 47.5753 369.176 47.0226 368.545C46.47 367.914 46.1895 367.09 46.2429 366.253L47.1957 352.039C47.223 351.624 47.3319 351.219 47.516 350.846C47.7002 350.473 47.9559 350.14 48.2689 349.866C48.5818 349.593 48.9456 349.383 49.3395 349.25C49.7335 349.117 50.1498 349.063 50.5646 349.091L64.7756 350.036C65.1905 350.064 65.5959 350.172 65.9687 350.357C66.3414 350.541 66.6743 350.797 66.9481 351.11C67.2219 351.423 67.4317 351.787 67.5648 352.181C67.6979 352.575 67.7519 352.991 67.724 353.406Z" fill="#00C6FF"/>
<path d="M493.688 181.732L489.984 183.893C491.836 182.813 494.306 182.967 497.084 184.665L500.788 182.504C498.01 180.806 495.386 180.652 493.688 181.732Z" fill="#021759"/>
<path d="M507.426 204.576L511.13 202.415V197.476L507.426 199.637V204.576Z" fill="#FCBD25"/>
<path d="M536.598 221.4L540.302 219.239L511.13 202.415L507.426 204.576L536.598 221.4Z" fill="#FCBD25"/>
<path d="M536.598 216.461L540.302 214.3L511.13 197.476L507.426 199.637L536.598 216.461Z" fill="#F9FBFC"/>
<path d="M536.598 221.4L540.302 219.239V214.3L536.598 216.461V221.4Z" fill="#F9FBFC"/>
<path d="M554.04 237.144L557.744 234.983C559.596 233.902 560.676 231.741 560.676 228.5C560.676 222.172 556.2 214.3 550.644 211.059L546.939 213.219C552.496 216.461 556.972 224.178 556.972 230.661C556.972 233.902 555.737 236.063 554.04 237.144Z" fill="#021759"/>
<path d="M546.939 213.374C552.496 216.615 556.972 224.333 556.972 230.815C556.972 237.144 552.496 239.768 546.939 236.526L497.084 207.817C491.528 204.576 487.052 196.859 487.052 190.376C487.052 184.048 491.528 181.424 497.084 184.665L546.939 213.374ZM507.426 204.576L536.598 221.4V216.461L507.426 199.637V204.576Z" fill="#002BDC"/>
<path d="M507.426 199.637V204.576L536.598 221.4V216.461L507.426 199.637Z" fill="#F9FBFC"/>
<path d="M546.939 213.374L550.643 211.213L500.789 182.504L497.084 184.665L546.939 213.374Z" fill="#021759"/>
<path d="M484.119 198.248L480.878 209.052L481.341 217.541C481.341 217.541 482.421 219.702 483.039 219.085C483.656 218.467 487.978 212.448 488.132 212.139C488.287 211.83 488.595 199.482 488.595 199.482L484.119 198.248Z" fill="#EEBCC5"/>
<path d="M539.994 227.883C539.839 228.809 538.759 240.539 538.759 240.539L539.376 249.646L543.235 254.122L546.939 247.639C546.939 247.639 548.02 244.861 547.248 243.472C546.631 241.928 543.389 227.883 543.389 227.883H539.994Z" fill="#EEBCC5"/>
<path opacity="0.2" d="M531.041 435.173C563.008 435.173 588.922 421.698 588.922 405.075C588.922 388.452 563.008 374.977 531.041 374.977C499.075 374.977 473.161 388.452 473.161 405.075C473.161 421.698 499.075 435.173 531.041 435.173Z" fill="#8180EE"/>
<path d="M502.332 304.131C502.332 304.131 494.923 335.155 491.836 351.67C488.749 368.186 493.688 411.249 493.688 411.249C493.688 411.249 495.232 413.873 498.936 413.873C502.641 413.873 506.499 362.629 506.499 362.629C506.499 362.629 511.284 324.968 513.908 325.431C514.526 325.585 519.156 327.283 521.317 326.974C528.726 325.585 539.221 319.103 538.758 311.54C538.295 301.661 530.423 301.198 530.423 301.198C530.423 301.198 516.995 300.118 515.452 300.735C513.599 300.89 502.332 304.131 502.332 304.131Z" fill="#110FAB"/>
<path d="M487.052 203.187C489.524 203.187 491.528 201.183 491.528 198.711C491.528 196.239 489.524 194.234 487.052 194.234C484.58 194.234 482.576 196.239 482.576 198.711C482.576 201.183 484.58 203.187 487.052 203.187Z" fill="#EEBCC5"/>
<path d="M542.154 232.05C544.626 232.05 546.63 230.046 546.63 227.574C546.63 225.102 544.626 223.098 542.154 223.098C539.682 223.098 537.678 225.102 537.678 227.574C537.678 230.046 539.682 232.05 542.154 232.05Z" fill="#EEBCC5"/>
<path d="M519.465 315.244C519.465 315.244 516.996 349.201 520.546 355.838C524.25 362.629 544.47 383.003 544.47 383.003C544.47 383.003 550.49 383.775 548.792 379.607C547.248 375.44 533.202 350.59 533.202 350.59L538.45 311.231L527.028 297.185L519.465 315.244Z" fill="#110FAB"/>
<path d="M544.161 382.54C544.161 382.54 545.704 388.869 545.241 390.103C544.778 391.338 542.926 397.203 546.013 397.821C549.1 398.438 551.106 395.506 551.415 392.419C551.724 389.332 548.945 379.916 548.945 379.916L544.161 382.54Z" fill="#021759"/>
<path d="M497.747 401.303C496.203 400.994 494.351 400.531 492.499 400.222C493.116 407.014 493.579 411.644 493.579 411.644C494.043 415.812 495.277 415.503 498.827 414.423C499.908 414.114 501.143 408.866 502.223 401.612C500.679 401.612 498.982 401.612 497.747 401.303Z" fill="#EEBCC5"/>
<path d="M491.373 401.062C491.373 401.062 494.923 404.612 502.178 403.84C503.104 403.686 503.876 401.834 504.03 400.136C504.03 399.364 503.876 398.592 503.721 397.821C503.567 396.895 502.487 396.432 501.56 396.895C500.017 397.821 497.856 398.901 495.695 398.592C492.3 398.129 491.837 394.425 491.837 394.425H491.065C489.984 395.969 490.139 397.666 490.602 399.364C490.756 399.673 490.756 399.982 490.91 400.29L491.373 401.062Z" fill="#FBFEFF"/>
<path d="M548.946 379.762C548.637 378.681 547.402 376.521 545.859 373.588C544.624 375.44 543.235 377.138 542.772 377.447C542 378.064 541.074 378.527 540.302 378.836C542.772 381.46 544.47 383.158 544.47 383.158C544.47 383.158 550.489 383.929 548.946 379.762Z" fill="#EEBCC5"/>
<path d="M537.062 376.675L539.222 379.916C539.222 379.916 545.705 382.849 547.249 374.823L545.242 370.655L544.47 370.81C544.47 370.81 544.779 374.823 541.846 375.44C538.914 376.057 537.525 375.749 537.525 375.749L537.062 376.675Z" fill="#FBFEFF"/>
<path d="M499.825 419.584C499.979 417.423 500.134 415.108 500.288 412.947C500.288 412.638 500.288 412.175 500.134 411.866C499.671 412.329 499.053 412.329 498.436 412.484C496.892 412.638 495.195 412.484 493.651 412.175C493.497 414.645 491.799 416.497 490.255 418.195C488.558 419.892 486.705 421.59 485.779 423.751C485.625 424.214 485.471 424.677 485.625 424.986C485.934 425.449 486.551 425.603 487.014 425.603C489.329 425.603 491.799 424.832 493.805 423.751C495.966 422.516 497.973 420.973 499.825 419.584Z" fill="#021759"/>
<path d="M508.044 307.835C510.516 307.835 512.52 305.831 512.52 303.359C512.52 300.887 510.516 298.883 508.044 298.883C505.571 298.883 503.567 300.887 503.567 303.359C503.567 305.831 505.571 307.835 508.044 307.835Z" fill="#A04A58"/>
<path d="M538.913 262.148C536.906 260.141 506.345 248.72 501.715 248.72C497.084 248.72 493.997 254.431 493.997 254.431C493.997 254.431 496.158 255.511 499.554 257.209L502.486 304.131C502.486 304.131 507.734 316.016 513.908 317.096C520.082 318.177 537.215 316.016 538.758 311.385C538.913 310.15 540.919 264.309 538.913 262.148Z" fill="#ADCFF2"/>
<path d="M510.667 251.035C517.401 251.035 522.861 245.576 522.861 238.841C522.861 232.107 517.401 226.648 510.667 226.648C503.933 226.648 498.474 232.107 498.474 238.841C498.474 245.576 503.933 251.035 510.667 251.035Z" fill="#EEBCC5"/>
<path d="M506.654 242.546L510.821 255.048C513.291 257.055 516.687 257.518 519.465 255.974L520.854 255.202L517.458 241.62L506.654 242.546Z" fill="#EEBCC5"/>
<path d="M524.25 239.304C524.25 241.928 523.17 244.089 521.781 244.089C520.391 244.089 519.311 241.928 519.311 239.304C519.311 236.68 520.391 234.52 521.781 234.52C523.17 234.52 524.25 236.68 524.25 239.304Z" fill="#EEBCC5"/>
<path d="M510.667 226.648C505.574 226.648 501.098 229.889 499.4 234.365C501.561 235.6 504.956 236.063 507.117 236.063C508.043 236.063 516.841 234.828 516.378 233.285C516.841 235.137 517.613 236.989 518.539 238.687C518.539 236.835 519.928 235.137 521.78 234.828C521.935 234.828 521.935 234.828 522.089 234.828C520.546 230.043 516.07 226.648 510.667 226.648Z" fill="black"/>
<path d="M504.647 249.646C499.554 246.559 493.071 245.633 489.521 240.848C487.206 237.761 486.743 233.593 486.897 229.58C487.051 225.722 488.749 215.998 488.132 212.139C487.206 213.682 484.582 214.3 482.884 213.682C481.186 212.911 480.26 210.75 480.877 209.052C479.797 213.837 477.327 224.487 476.247 229.272C475.012 234.828 473.777 240.539 474.086 246.25C474.24 248.874 474.703 251.652 476.401 253.659C477.636 255.048 479.18 255.974 480.877 256.746C489.984 261.376 499.708 264.618 509.895 266.315C510.358 260.141 509.895 252.733 504.647 249.646Z" fill="#ADCFF2"/>
<path d="M538.759 240.539C538.759 240.539 538.913 247.794 541.691 248.102C545.55 248.565 546.476 239.15 546.476 239.15C546.476 239.15 554.811 267.705 554.811 271.255C554.811 274.805 555.12 279.281 553.267 280.207C551.261 281.133 525.639 277.274 525.948 275.113C526.256 272.798 522.089 255.202 527.337 256.9C532.43 258.444 539.222 264.618 539.067 262.148C538.759 259.678 538.759 240.539 538.759 240.539Z" fill="#ADCFF2"/>
<path d="M111.521 272.29L373.605 122.108C378.39 119.484 384.409 118.095 389.657 119.33C397.066 121.028 404.012 123.343 404.012 129.826L404.475 373.388L381.477 386.971C389.04 390.675 619.02 502.578 619.483 502.887L620.1 512.302C620.1 516.315 617.939 520.019 614.389 522.18C575.185 545.024 345.822 677.61 345.822 677.61C338.259 681.931 328.998 681.931 321.435 677.61L103.34 551.507C101.025 550.118 99.6358 547.802 99.6358 545.178L99.3271 293.281C99.3271 284.637 103.958 276.611 111.521 272.29Z" fill="#021759"/>
<path d="M106.89 544.406L404.629 374.468L405.246 131.369C405.246 124.423 397.683 119.947 391.509 123.497L116.923 280.779C110.903 284.174 107.199 290.503 107.199 297.448L106.89 544.406Z" fill="#C8DBFB"/>
<rect width="316.174" height="122.924" transform="matrix(0.866025 -0.5 2.20305e-08 1 120.781 295.881)" fill="#F9FBFC"/>
<path d="M189.466 424.015V426.793L146.866 451.334V448.71L189.466 424.015Z" fill="#0262CD"/>
<path d="M189.466 432.041V434.665L146.866 459.36V456.582L189.466 432.041Z" fill="#0262CD"/>
<path d="M277.445 381.26V383.884L234.845 408.58V405.801L277.445 381.26Z" fill="#0262CD"/>
<path d="M277.445 373.234V376.012L234.845 400.554V397.93L277.445 373.234Z" fill="#0262CD"/>
<path d="M120.318 419.075L394.287 260.868L394.596 360.732L120.627 518.939L120.318 419.075ZM287.015 396.54L286.86 336.499L225.275 371.999L225.429 432.041L287.015 396.54ZM199.036 447.321L198.881 387.28L137.296 422.934L137.451 482.976L199.036 447.321Z" fill="#002BDC"/>
<path d="M256.145 363.51C260.158 361.194 263.554 363.047 263.554 367.677C263.554 372.307 260.312 378.173 256.145 380.488C252.132 382.803 248.736 380.951 248.736 376.321C248.736 371.69 251.978 365.825 256.145 363.51Z" fill="#0262CD"/>
<path d="M225.275 371.999L286.86 336.344L287.014 396.386L225.429 432.041L225.275 371.999ZM256.145 363.51C252.132 365.825 248.736 371.536 248.736 376.321C248.736 380.951 252.132 382.958 256.145 380.488C260.158 378.173 263.553 372.462 263.553 367.677C263.553 363.047 260.158 361.04 256.145 363.51ZM277.445 376.012V373.388L234.845 397.929V400.553L277.445 376.012ZM277.445 383.884V381.26L234.845 405.801V408.425L277.445 383.884Z" fill="#F9FBFC"/>
<path d="M168.166 414.291C172.333 411.975 175.575 413.828 175.575 418.458C175.575 423.088 172.333 428.954 168.166 431.269C164.153 433.584 160.757 431.732 160.757 427.102C160.757 422.317 163.999 416.606 168.166 414.291Z" fill="#0262CD"/>
<path d="M137.296 422.78L198.881 387.125L199.035 447.167L137.45 482.821L137.296 422.78ZM168.166 414.291C164.153 416.606 160.757 422.317 160.757 427.102C160.757 431.732 164.153 433.739 168.166 431.269C172.333 428.954 175.574 423.243 175.574 418.458C175.574 413.828 172.179 411.821 168.166 414.291ZM189.466 426.793V424.169L146.866 448.71V451.334L189.466 426.793ZM189.466 434.665V432.041L146.866 456.582V459.206L189.466 434.665Z" fill="#F9FBFC"/>
<path d="M218.58 286.692C221.076 285.253 224.194 287.054 224.194 289.935C224.194 291.274 223.48 292.51 222.321 293.179L145.577 337.429C143.081 338.868 139.963 337.067 139.963 334.186C139.963 332.847 140.677 331.611 141.837 330.942L218.58 286.692Z" fill="#0262CD"/>
<path d="M259.638 244.661C262.133 243.22 265.252 245.021 265.252 247.902C265.252 249.24 264.539 250.475 263.38 251.144L143.065 320.601C140.57 322.042 137.451 320.241 137.451 317.36C137.451 316.022 138.165 314.787 139.323 314.118L259.638 244.661Z" fill="#0262CD"/>
<path d="M107.199 544.252L404.783 372.616L615.315 494.243C621.335 497.793 621.335 506.591 615.315 509.987L341.192 668.503C335.172 671.899 327.918 671.899 321.898 668.503L107.199 544.252Z" fill="#F9FAFF"/>
<path d="M189.467 549.654C183.602 553.05 180.515 554.748 174.65 558.144C168.63 554.748 165.697 553.05 159.678 549.654C165.543 546.259 168.63 544.561 174.495 541.165C180.515 544.561 183.602 546.259 189.467 549.654Z" fill="#B6BCCD"/>
<path d="M211.384 536.998C205.519 540.393 202.432 542.091 196.567 545.487C190.547 542.091 187.614 540.393 181.595 536.998C187.46 533.602 190.547 531.904 196.412 528.508C202.432 531.904 205.364 533.602 211.384 536.998Z" fill="#B6BCCD"/>
<path d="M233.302 524.495C227.437 527.891 224.35 529.589 218.485 532.984C212.465 529.589 209.532 527.891 203.513 524.495C209.378 521.1 212.465 519.402 218.33 516.006C224.35 519.402 227.282 521.1 233.302 524.495Z" fill="#B6BCCD"/>
<path d="M255.065 511.993C249.2 515.389 246.113 517.087 240.248 520.482C234.228 517.087 231.295 515.389 225.276 511.993C231.141 508.598 234.228 506.9 240.093 503.504C246.113 506.9 249.2 508.598 255.065 511.993Z" fill="#B6BCCD"/>
<path d="M276.982 499.337C271.117 502.732 268.03 504.43 262.165 507.826C256.145 504.43 253.212 502.732 247.193 499.337C253.058 495.941 256.145 494.243 262.01 490.847C268.03 494.243 270.963 495.941 276.982 499.337Z" fill="#B6BCCD"/>
<path d="M298.901 486.834C293.035 490.23 289.948 491.928 284.083 495.323C278.064 491.928 275.131 490.23 269.111 486.834C274.977 483.439 278.064 481.741 283.929 478.345C289.948 481.741 292.881 483.439 298.901 486.834Z" fill="#B6BCCD"/>
<path d="M320.818 474.178C314.952 477.573 311.865 479.271 306 482.667C299.981 479.271 297.048 477.573 291.028 474.178C296.894 470.782 299.981 469.084 305.846 465.689C311.711 469.239 314.798 470.936 320.818 474.178Z" fill="#B6BCCD"/>
<path d="M342.58 461.675C336.715 465.071 333.628 466.769 327.763 470.165C321.743 466.769 318.811 465.071 312.791 461.675C318.656 458.28 321.743 456.582 327.609 453.186C333.628 456.582 336.561 458.28 342.58 461.675Z" fill="#B6BCCD"/>
<path d="M364.499 449.173C358.634 452.569 355.547 454.267 349.681 457.662C343.662 454.267 340.729 452.569 334.709 449.173C340.575 445.778 343.662 444.08 349.527 440.684C355.547 444.08 358.479 445.778 364.499 449.173Z" fill="#B6BCCD"/>
<path d="M386.417 436.517C380.552 439.912 377.465 441.61 371.599 445.006C365.58 441.61 362.647 439.912 356.627 436.517C362.493 433.121 365.58 431.423 371.445 428.027C377.31 431.423 380.397 433.121 386.417 436.517Z" fill="#B6BCCD"/>
<path d="M408.179 424.014C402.314 427.41 399.227 429.108 393.362 432.504C387.342 429.108 384.41 427.41 378.39 424.014C384.255 420.619 387.342 418.921 393.208 415.525C399.227 418.921 402.314 420.619 408.179 424.014Z" fill="#B6BCCD"/>
<path d="M430.097 411.512C424.232 414.908 421.145 416.606 415.279 420.001C409.26 416.606 406.327 414.908 400.308 411.512C406.173 408.116 409.26 406.419 415.125 403.023C421.145 406.419 424.077 408.116 430.097 411.512Z" fill="#B6BCCD"/>
<path d="M210.613 561.539C204.748 564.935 201.661 566.633 195.796 570.028C189.776 566.633 186.843 564.935 180.824 561.539C186.689 558.143 189.776 556.446 195.641 553.05C201.506 556.446 204.593 558.143 210.613 561.539Z" fill="#B6BCCD"/>
<path d="M232.376 548.883C226.51 552.278 223.424 553.976 217.558 557.372C211.539 553.976 208.606 552.278 202.586 548.883C208.452 545.487 211.539 543.789 217.404 540.393C223.424 543.789 226.356 545.487 232.376 548.883Z" fill="#B6BCCD"/>
<path d="M254.293 536.38C248.428 539.776 245.341 541.474 239.476 544.87C233.456 541.474 230.524 539.776 224.504 536.38C230.369 532.985 233.456 531.287 239.321 527.891C245.341 531.287 248.274 532.985 254.293 536.38Z" fill="#B6BCCD"/>
<path d="M276.211 523.878C270.346 527.274 267.259 528.972 261.394 532.367C255.374 528.972 252.441 527.274 246.422 523.878C252.287 520.482 255.374 518.785 261.239 515.389C267.105 518.785 270.192 520.482 276.211 523.878Z" fill="#B6BCCD"/>
<path d="M297.974 511.221C292.109 514.617 289.022 516.315 283.156 519.711C277.137 516.315 274.204 514.617 268.185 511.221C274.05 507.826 277.137 506.128 283.002 502.732C289.022 506.128 292.109 507.826 297.974 511.221Z" fill="#B6BCCD"/>
<path d="M319.892 498.719C314.027 502.115 310.94 503.813 305.075 507.208C299.055 503.813 296.123 502.115 290.103 498.719C295.968 495.324 299.055 493.626 304.921 490.23C310.94 493.626 313.873 495.324 319.892 498.719Z" fill="#B6BCCD"/>
<path d="M341.809 486.063C335.944 489.458 332.857 491.156 326.992 494.552C320.972 491.156 318.04 489.458 312.02 486.063C317.885 482.667 320.972 480.969 326.838 477.573C332.857 481.123 335.79 482.821 341.809 486.063Z" fill="#B6BCCD"/>
<path d="M363.726 473.56C357.861 476.956 354.774 478.654 348.909 482.05C342.889 478.654 339.957 476.956 333.937 473.56C339.802 470.165 342.889 468.467 348.755 465.071C354.62 468.467 357.707 470.165 363.726 473.56Z" fill="#B6BCCD"/>
<path d="M385.491 461.058C379.625 464.454 376.538 466.152 370.673 469.547C364.653 466.152 361.721 464.454 355.701 461.058C361.566 457.662 364.653 455.964 370.519 452.569C376.538 455.964 379.471 457.662 385.491 461.058Z" fill="#B6BCCD"/>
<path d="M407.407 448.401C401.542 451.797 398.455 453.495 392.59 456.891C386.57 453.495 383.638 451.797 377.618 448.401C383.483 445.006 386.57 443.308 392.436 439.912C398.455 443.308 401.388 445.006 407.407 448.401Z" fill="#B6BCCD"/>
<path d="M429.324 435.899C423.459 439.295 420.372 440.993 414.507 444.388C408.487 440.993 405.555 439.295 399.535 435.899C405.4 432.503 408.487 430.806 414.353 427.41C420.218 430.806 423.305 432.503 429.324 435.899Z" fill="#B6BCCD"/>
<path d="M451.089 423.397C441.21 429.108 436.117 431.886 426.238 437.597C420.219 434.201 417.286 432.504 411.267 429.108C421.145 423.397 426.238 420.619 436.117 414.908C442.136 418.304 445.069 420.001 451.089 423.397Z" fill="#B6BCCD"/>
<path d="M241.329 567.713C231.45 573.424 226.511 576.202 216.787 581.913C210.768 578.518 207.835 576.82 201.815 573.424C211.694 567.713 216.633 564.935 226.357 559.224C232.377 562.62 235.309 564.317 241.329 567.713Z" fill="#B6BCCD"/>
<path d="M253.522 560.767C247.656 564.163 244.57 565.861 238.704 569.257C232.685 565.861 229.752 564.163 223.732 560.767C229.598 557.372 232.685 555.674 238.55 552.278C244.415 555.674 247.502 557.372 253.522 560.767Z" fill="#B6BCCD"/>
<path d="M275.285 548.265C269.42 551.661 266.333 553.359 260.467 556.754C254.448 553.359 251.515 551.661 245.496 548.265C251.361 544.869 254.448 543.172 260.313 539.776C266.333 543.172 269.265 544.869 275.285 548.265Z" fill="#B6BCCD"/>
<path d="M297.203 535.763C291.338 539.159 288.251 540.857 282.385 544.252C276.366 540.857 273.433 539.159 267.414 535.763C273.279 532.367 276.366 530.67 282.231 527.274C288.251 530.67 291.183 532.367 297.203 535.763Z" fill="#B6BCCD"/>
<path d="M319.12 523.106C313.255 526.502 310.168 528.2 304.302 531.595C298.283 528.2 295.35 526.502 289.331 523.106C295.196 519.711 298.283 518.013 304.148 514.617C310.013 518.013 313.1 519.711 319.12 523.106Z" fill="#B6BCCD"/>
<path d="M340.883 510.604C335.018 514 331.931 515.698 326.066 519.093C320.046 515.698 317.113 514 311.094 510.604C316.959 507.208 320.046 505.511 325.911 502.115C331.931 505.511 335.018 507.208 340.883 510.604Z" fill="#B6BCCD"/>
<path d="M362.801 498.102C356.936 501.497 353.849 503.195 347.984 506.591C341.964 503.195 339.031 501.497 333.012 498.102C338.877 494.706 341.964 493.008 347.829 489.613C353.849 493.008 356.781 494.706 362.801 498.102Z" fill="#B6BCCD"/>
<path d="M384.718 485.445C378.853 488.841 375.766 490.539 369.901 493.934C363.881 490.539 360.948 488.841 354.929 485.445C360.794 482.05 363.881 480.352 369.746 476.956C375.766 480.352 378.698 482.05 384.718 485.445Z" fill="#B6BCCD"/>
<path d="M406.481 472.943C400.616 476.339 397.529 478.036 391.664 481.432C385.644 478.036 382.712 476.339 376.692 472.943C382.557 469.547 385.644 467.849 391.509 464.454C397.529 467.849 400.616 469.547 406.481 472.943Z" fill="#B6BCCD"/>
<path d="M428.399 460.286C422.534 463.682 419.447 465.38 413.582 468.776C407.562 465.38 404.629 463.682 398.61 460.286C404.475 456.891 407.562 455.193 413.427 451.797C419.447 455.193 422.38 456.891 428.399 460.286Z" fill="#B6BCCD"/>
<path d="M450.317 447.784C444.451 451.18 441.364 452.878 435.499 456.273C429.48 452.878 426.547 451.18 420.527 447.784C426.393 444.388 429.48 442.691 435.345 439.295C441.364 442.691 444.297 444.388 450.317 447.784Z" fill="#B6BCCD"/>
<path d="M472.235 435.282C466.369 438.677 463.282 440.375 457.417 443.771C451.398 440.375 448.465 438.677 442.445 435.282C448.311 431.886 451.398 430.188 457.263 426.793C463.128 430.188 466.215 431.886 472.235 435.282Z" fill="#B6BCCD"/>
<path d="M252.595 585.309C246.73 588.705 243.643 590.402 237.778 593.798C231.758 590.402 228.826 588.705 222.806 585.309C228.671 581.913 231.758 580.215 237.624 576.82C243.643 580.215 246.576 581.913 252.595 585.309Z" fill="#B6BCCD"/>
<path d="M274.513 572.652C268.648 576.048 265.561 577.746 259.696 581.142C253.676 577.746 250.744 576.048 244.724 572.652C250.589 569.257 253.676 567.559 259.542 564.163C265.561 567.559 268.494 569.257 274.513 572.652Z" fill="#B6BCCD"/>
<path d="M296.277 560.15C290.411 563.546 287.324 565.244 281.459 568.639C275.44 565.244 272.507 563.546 266.487 560.15C272.353 556.754 275.44 555.057 281.305 551.661C287.324 555.057 290.411 556.754 296.277 560.15Z" fill="#B6BCCD"/>
<path d="M318.194 547.648C312.328 551.043 309.241 552.741 303.376 556.137C297.357 552.741 294.424 551.043 288.404 547.648C294.27 544.252 297.357 542.554 303.222 539.159C309.241 542.554 312.174 544.252 318.194 547.648Z" fill="#B6BCCD"/>
<path d="M340.112 534.991C334.246 538.387 331.159 540.085 325.294 543.48C319.275 540.085 316.342 538.387 310.322 534.991C316.188 531.595 319.275 529.898 325.14 526.502C331.159 529.898 334.092 531.595 340.112 534.991Z" fill="#B6BCCD"/>
<path d="M362.029 522.489C356.164 525.885 353.077 527.583 347.212 530.978C341.192 527.583 338.259 525.885 332.24 522.489C338.105 519.093 341.192 517.396 347.057 514C352.922 517.396 356.009 519.093 362.029 522.489Z" fill="#B6BCCD"/>
<path d="M383.792 509.987C377.927 513.382 374.84 515.08 368.974 518.476C362.955 515.08 360.022 513.382 354.002 509.987C359.868 506.591 362.955 504.893 368.82 501.498C374.84 504.893 377.772 506.591 383.792 509.987Z" fill="#B6BCCD"/>
<path d="M405.71 497.33C399.845 500.726 396.758 502.423 390.893 505.819C384.873 502.423 381.941 500.726 375.921 497.33C381.786 493.934 384.873 492.236 390.738 488.841C396.758 492.236 399.691 493.934 405.71 497.33Z" fill="#B6BCCD"/>
<path d="M427.627 484.828C421.762 488.224 418.675 489.921 412.81 493.317C406.79 489.921 403.857 488.224 397.838 484.828C403.703 481.432 406.79 479.734 412.655 476.339C418.521 479.734 421.608 481.432 427.627 484.828Z" fill="#B6BCCD"/>
<path d="M449.391 472.171C443.526 475.567 440.439 477.265 434.573 480.66C428.554 477.265 425.621 475.567 419.602 472.171C425.467 468.775 428.554 467.078 434.419 463.682C440.439 467.078 443.526 468.775 449.391 472.171Z" fill="#B6BCCD"/>
<path d="M480.724 454.267C471 459.823 466.215 462.602 456.491 468.158C450.471 464.762 447.539 463.065 441.519 459.669C451.243 454.112 456.028 451.334 465.752 445.778C471.771 449.173 474.704 450.871 480.724 454.267Z" fill="#B6BCCD"/>
<path d="M493.225 447.167C487.36 450.562 484.273 452.26 478.408 455.656C472.388 452.26 469.456 450.562 463.436 447.167C469.301 443.771 472.388 442.073 478.254 438.677C484.273 442.073 487.206 443.771 493.225 447.167Z" fill="#B6BCCD"/>
<path d="M276.52 598.737C270.655 602.133 267.568 603.831 261.702 607.226C255.683 603.831 252.75 602.133 246.73 598.737C252.596 595.341 255.683 593.644 261.548 590.248C267.568 593.644 270.5 595.341 276.52 598.737Z" fill="#B6BCCD"/>
<path d="M298.438 586.235C292.573 589.63 289.486 591.328 283.62 594.724C277.601 591.328 274.668 589.63 268.648 586.235C274.514 582.839 277.601 581.141 283.466 577.746C289.486 581.141 292.418 582.839 298.438 586.235Z" fill="#B6BCCD"/>
<path d="M320.355 573.733C314.489 577.128 311.403 578.826 305.537 582.222C299.518 578.826 296.585 577.128 290.565 573.733C296.431 570.337 299.518 568.639 305.383 565.244C311.248 568.639 314.335 570.337 320.355 573.733Z" fill="#B6BCCD"/>
<path d="M451.551 498.256C410.186 522.026 368.82 545.796 327.3 569.565C321.281 566.17 318.348 564.472 312.329 561.076C353.694 537.307 395.06 513.537 436.579 489.767C442.599 493.317 445.532 494.861 451.551 498.256Z" fill="#B6BCCD"/>
<path d="M473.315 485.754C467.45 489.149 464.363 490.847 458.498 494.243C452.478 490.847 449.545 489.149 443.526 485.754C449.391 482.358 452.478 480.66 458.343 477.265C464.363 480.66 467.45 482.358 473.315 485.754Z" fill="#B6BCCD"/>
<path d="M495.232 473.252C489.367 476.647 486.28 478.345 480.415 481.741C474.395 478.345 471.462 476.647 465.443 473.252C471.308 469.856 474.395 468.158 480.26 464.762C486.28 468.158 489.213 469.856 495.232 473.252Z" fill="#B6BCCD"/>
<path d="M517.15 460.595C511.284 463.991 508.197 465.689 502.332 469.084C496.313 465.689 493.38 463.991 487.36 460.595C493.226 457.199 496.313 455.502 502.178 452.106C508.197 455.502 511.13 457.199 517.15 460.595Z" fill="#B6BCCD"/>
<path d="M349.99 575.739L452.169 516.778L510.513 552.741L408.488 611.702L349.99 575.739Z" fill="#B6BCCD"/>
<path opacity="0.2" d="M392.515 121.491L117.929 278.772C111.909 282.168 108.205 288.496 108.205 295.442L107.742 542.4L116.694 537.307C170.099 458.434 371.215 161.004 397.609 120.41C396.065 120.102 394.213 120.41 392.515 121.491Z" fill="#FFF9FF"/>
<path d="M228.671 329.528L231.912 331.38C230.214 330.454 228.053 330.608 225.584 331.997L222.342 330.145C224.812 328.756 227.127 328.602 228.671 329.528Z" fill="#021759"/>
<path d="M216.477 349.747L213.236 347.895V343.419L216.477 345.426V349.747Z" fill="#FCBD25"/>
<path d="M190.546 364.719L187.305 362.713L213.236 347.895L216.477 349.747L190.546 364.719Z" fill="#FCBD25"/>
<path d="M190.546 360.398L187.305 358.391L213.236 343.419L216.477 345.426L190.546 360.398Z" fill="#F9FBFC"/>
<path d="M190.546 364.719L187.305 362.713V358.391L190.546 360.397V364.719Z" fill="#F9FBFC"/>
<path d="M175.112 378.611L171.871 376.759C170.327 375.832 169.247 373.826 169.247 371.048C169.247 365.337 173.26 358.545 178.199 355.613L181.44 357.465C176.501 360.243 172.488 367.189 172.488 372.9C172.488 375.832 173.568 377.685 175.112 378.611Z" fill="#021759"/>
<path d="M225.584 331.997C230.523 329.219 234.537 331.38 234.537 337.091C234.537 342.802 230.523 349.747 225.584 352.526L181.441 377.993C176.501 380.772 172.488 378.611 172.488 372.9C172.488 367.189 176.501 360.398 181.441 357.465L225.584 331.997ZM216.478 349.747V345.426L190.547 360.398V364.719L216.478 349.747Z" fill="#002BDC"/>
<path d="M216.478 345.426V349.747L190.548 364.719V360.397L216.478 345.426Z" fill="#F9FBFC"/>
<path d="M181.44 357.465L178.199 355.613L222.342 330.145L225.584 331.997L181.44 357.465Z" fill="#021759"/>
<path d="M387.188 342.647L383.946 340.178V337.554L387.188 339.869V342.647Z" fill="#F9FBFC"/>
<path d="M344.587 352.68L341.346 350.21L383.946 332.152L387.187 334.621L344.587 352.68Z" fill="#F9FBFC"/>
<path d="M344.587 349.902L341.346 347.587L383.946 329.528L387.187 331.997L344.587 349.902Z" fill="#0262CD"/>
<path d="M387.188 334.621L383.946 332.152V329.528L387.188 331.997V334.621Z" fill="#F9FBFC"/>
<path d="M370.056 321.81C370.056 319.495 369.284 317.643 367.895 316.717L371.136 319.186C372.526 320.112 373.297 321.964 373.297 324.28C373.297 328.91 370.056 334.158 365.889 336.01C363.882 336.936 362.03 336.628 360.641 335.702L357.399 333.232C358.789 334.158 360.641 334.467 362.647 333.541C366.66 331.688 370.056 326.595 370.056 321.81Z" fill="#F9FBFC"/>
<path d="M344.587 360.552L341.346 358.237L383.946 340.178L387.187 342.647L344.587 360.552Z" fill="#F9FBFC"/>
<path d="M387.187 339.869V342.647L344.587 360.552V357.928L387.187 339.869Z" fill="#0262CD"/>
<path d="M344.587 357.928L341.346 355.613L383.946 337.554L387.187 339.869L344.587 357.928Z" fill="#0262CD"/>
<path d="M344.587 360.552L341.346 358.237V355.613L344.587 357.928V360.552Z" fill="#0262CD"/>
<path d="M367.894 316.717L371.135 319.186C369.746 318.26 367.894 317.952 365.887 318.878L362.646 316.408C364.653 315.636 366.505 315.791 367.894 316.717Z" fill="#0262CD"/>
<path d="M387.187 331.997V334.621L344.587 352.68V349.902L387.187 331.997Z" fill="#0262CD"/>
<path d="M344.587 352.68L341.346 350.21V347.586L344.587 349.902V352.68Z" fill="#0262CD"/>
<path d="M360.64 335.547L357.399 333.078C356.01 332.152 355.238 330.299 355.238 327.984C355.238 323.354 358.48 318.106 362.647 316.408L365.888 318.878C361.875 320.575 358.48 325.823 358.48 330.454C358.48 332.769 359.251 334.621 360.64 335.547Z" fill="#0262CD"/>
<path d="M365.887 318.878C370.054 317.18 373.296 319.495 373.296 324.28C373.296 328.91 370.054 334.158 365.887 336.01C361.874 337.708 358.478 335.393 358.478 330.608C358.478 325.823 361.719 320.576 365.887 318.878Z" fill="#0262CD"/>
<path d="M335.018 322.582L396.603 296.497L396.757 356.693L335.172 382.778L335.018 322.582ZM365.887 318.878C361.874 320.576 358.479 325.823 358.479 330.454C358.479 335.084 361.874 337.554 365.887 335.856C370.055 334.158 373.296 328.91 373.296 324.126C373.296 319.495 369.9 317.18 365.887 318.878ZM387.187 342.647V340.023L344.587 358.082V360.706L387.187 342.647ZM387.187 334.621V331.997L344.587 350.056V352.68L387.187 334.621Z" fill="#F9FBFC"/>
<path d="M335.172 382.778L331.93 380.308L331.776 320.267L335.017 322.582L335.172 382.778Z" fill="#92CDF9"/>
<path d="M335.018 322.582L331.776 320.267L393.362 294.027L396.603 296.497L335.018 322.582Z" fill="#92CDF9"/>
<path opacity="0.2" d="M537.061 679.745C569.028 679.745 594.942 666.27 594.942 649.647C594.942 633.024 569.028 619.549 537.061 619.549C505.095 619.549 479.181 633.024 479.181 649.647C479.181 666.27 505.095 679.745 537.061 679.745Z" fill="#8180EE"/>
<path d="M537.062 637.299C537.062 637.299 535.364 641.466 535.364 643.936C535.364 646.406 536.599 647.332 536.599 647.332C536.599 647.332 541.075 648.567 542.464 648.567C543.853 648.567 548.33 652.271 551.571 652.425C554.812 652.58 558.98 653.66 559.443 651.036C559.906 648.412 543.39 638.225 543.39 638.225L537.062 637.299Z" fill="#021759"/>
<path d="M555.892 500.855L559.287 504.713C559.287 504.713 568.24 537.435 568.085 540.214C567.777 542.992 564.227 543.609 562.066 542.683C559.905 541.757 553.731 521.692 553.731 521.692L555.892 500.855Z" fill="#0B0B82"/>
<path d="M537.678 629.427L537.061 638.38C537.061 638.38 536.907 640.54 539.685 640.695C542.618 640.849 543.389 638.38 543.389 638.38L545.396 625.106L537.678 629.427Z" fill="#EEBCC5"/>
<path d="M518.385 637.454L516.688 645.48C516.688 645.48 517.151 648.258 519.774 647.949C522.398 647.641 523.17 644.091 523.17 644.091L524.714 635.601L518.385 637.454Z" fill="#EEBCC5"/>
<path d="M516.996 644.09C516.996 644.09 517.304 646.406 519.311 646.251C521.318 646.097 523.17 643.936 523.17 643.936L522.707 652.117C522.707 652.117 521.472 664.464 517.922 665.699C514.372 666.934 513.6 660.143 513.6 660.143L516.996 644.09Z" fill="#021759"/>
<path d="M523.787 552.099C523.787 552.099 524.405 565.064 525.177 567.379C525.794 569.694 523.787 601.336 523.787 601.336C523.787 601.336 516.687 638.688 516.996 640.849C517.305 642.856 523.17 641.93 524.405 639.769C525.794 637.762 534.283 606.738 535.672 597.94C537.061 589.142 541.075 568.768 541.075 568.768C541.075 568.768 541.383 593.618 541.383 595.625C541.383 597.631 536.907 634.675 536.907 634.675C536.907 634.675 537.061 635.756 540.457 636.219C541.538 636.373 543.544 636.064 544.316 634.675C546.322 631.28 546.94 624.025 546.94 624.025C546.94 624.025 556.818 581.888 556.046 577.412C555.429 572.936 557.436 543.455 557.436 543.455L552.033 541.448L523.787 552.099Z" fill="#C8DBFB"/>
<path d="M536.753 501.935C536.753 501.935 548.021 498.231 552.651 499.466C557.282 500.7 558.825 503.787 559.134 505.331C559.442 506.874 557.59 544.227 557.59 544.227C557.59 544.227 537.525 560.896 529.036 556.575C522.862 553.488 522.399 550.092 522.553 548.394C522.707 547.314 522.707 546.388 522.707 545.307L521.627 512.277L536.753 501.935Z" fill="#002BDC"/>
<path d="M555.738 530.027L532.277 534.657L527.338 509.961L526.72 508.727L521.627 512.277L522.707 545.307C522.707 546.388 522.707 547.314 522.553 548.394C522.399 549.783 522.707 552.407 526.412 555.031C534.129 551.018 549.873 542.375 556.047 536.046C559.905 532.342 555.738 530.027 555.738 530.027Z" fill="#0B0B82"/>
<path d="M533.049 523.39C533.049 523.39 539.531 503.17 536.753 501.935C536.753 501.935 521.009 507.183 519.157 511.35C517.305 515.518 517.614 519.376 515.916 525.859C515.916 525.859 511.903 539.905 512.52 543.609C513.138 547.314 516.996 549.166 526.103 545.461C535.209 541.757 557.744 532.959 557.744 532.959L557.59 528.946L531.042 531.879L533.049 523.39Z" fill="#002BDC"/>
<path d="M540.148 501.935C540.148 501.935 535.981 503.016 535.672 504.096C535.364 505.022 538.296 509.498 541.692 511.814C544.933 514.283 547.094 514.901 547.094 514.901C547.094 514.901 550.798 510.424 550.798 504.096C550.49 497.922 540.148 501.935 540.148 501.935Z" fill="#F7F7FB"/>
<path d="M559.443 493.6C557.436 499.466 550.954 502.553 545.088 500.546C539.223 498.539 536.136 492.057 538.143 486.192C540.149 480.326 546.632 477.239 552.497 479.246C558.208 481.252 561.449 487.735 559.443 493.6Z" fill="#EEBCC5"/>
<path d="M551.261 492.828L547.402 504.405C545.087 506.257 542 506.72 539.376 505.176C538.605 504.713 538.296 503.942 538.45 503.17L541.229 491.902L551.261 492.828Z" fill="#EEBCC5"/>
<path d="M558.207 490.359C558.825 490.359 559.442 490.205 559.905 489.896C559.905 485.265 556.972 480.944 552.342 479.246C546.477 477.239 539.994 480.326 537.987 486.192C537.833 486.655 537.679 487.118 537.679 487.581C538.142 487.889 538.605 488.044 539.068 488.044C540.148 488.198 544.007 486.655 543.698 485.111C543.853 485.883 544.007 486.655 544.161 487.426C544.933 487.118 545.705 486.346 545.859 485.42C549.101 488.661 553.731 490.513 558.207 490.359Z" fill="black"/>
<path d="M564.845 546.388C561.758 546.388 559.288 543.918 559.288 540.831C559.288 537.744 561.758 535.274 564.845 535.274C567.932 535.274 570.401 537.744 570.401 540.831C570.556 543.918 567.932 546.388 564.845 546.388Z" fill="#0B0B82"/>
<path d="M542.464 488.044C541.846 489.896 539.84 490.822 538.142 490.205C536.29 489.587 535.364 487.581 535.981 485.883C536.598 484.031 538.605 483.105 540.303 483.722C542.155 484.339 543.081 486.346 542.464 488.044Z" fill="#EEBCC5"/>
<path d="M572.562 541.911C572.562 544.227 570.71 546.079 568.395 546.079C566.08 546.079 564.228 544.227 564.228 541.911C564.228 539.596 566.08 537.744 568.395 537.744C570.71 537.744 572.562 539.596 572.562 541.911Z" fill="#EEBCC5"/>
<path d="M564.381 530.49C564.381 532.805 562.529 534.657 560.214 534.657C557.899 534.657 556.046 532.805 556.046 530.49C556.046 528.174 557.899 526.322 560.214 526.322C562.529 526.322 564.381 528.174 564.381 530.49Z" fill="#EEBCC5"/>
<path d="M567.005 534.194L564.073 529.564C563.764 529.101 562.992 528.946 562.529 529.255C562.066 529.564 561.912 530.335 562.221 530.798L565.153 535.429C565.462 535.892 566.234 536.046 566.697 535.738C567.16 535.583 567.314 534.811 567.005 534.194Z" fill="#EEBCC5"/>
<path d="M574.723 532.033L561.14 540.214L557.59 544.381L571.327 536.355L574.723 532.033Z" fill="#E0E4ED"/>
<path d="M574.723 532.033L575.34 532.805L572.099 537.281L558.053 545.153L557.59 544.381L571.327 536.355L574.723 532.033Z" fill="#110FAB"/>
<path d="M626.429 412.876C597.103 412.876 573.487 436.646 573.487 465.818C573.487 495.144 597.257 518.759 626.429 518.759C655.755 518.759 679.371 494.989 679.371 465.818C679.371 436.646 655.601 412.876 626.429 412.876Z" fill="#002BDC"/>
<path d="M599.649 504.718L575.825 529.987L576.836 530.94L600.66 505.671L599.649 504.718Z" fill="#110FAB"/>
<path d="M626.429 416.734C599.264 416.734 577.192 438.806 577.192 465.972C577.192 493.137 599.264 515.209 626.429 515.209C653.595 515.209 675.666 493.137 675.666 465.972C675.666 438.652 653.595 416.734 626.429 416.734Z" fill="#F9FAFF"/>
<path d="M644.334 500.279H607.444C605.901 500.279 604.666 499.044 604.666 497.5V433.446C604.666 431.902 605.901 430.667 607.444 430.667H644.334C645.877 430.667 647.112 431.902 647.112 433.446V497.5C647.112 499.044 645.877 500.279 644.334 500.279Z" fill="#110FAB"/>
<path d="M643.244 496.574V434.372H608.206V496.574H643.244Z" fill="#FFF9FF"/>
<rect opacity="0.5" x="611.225" y="435.743" width="29.3266" height="15.4525" rx="4.63047" fill="#C7DAFA"/>
<path d="M643.278 496.454V471.759H608.241V496.454H643.278Z" fill="#C7DAFA"/>
<path d="M636.308 453.82H614.544C613.862 453.82 613.31 454.373 613.31 455.055C613.31 455.737 613.862 456.289 614.544 456.289H636.308C636.99 456.289 637.542 455.737 637.542 455.055C637.542 454.373 636.99 453.82 636.308 453.82Z" fill="#B6BCCD"/>
<path d="M636.308 458.45H614.544C613.862 458.45 613.31 459.003 613.31 459.685C613.31 460.367 613.862 460.92 614.544 460.92H636.308C636.99 460.92 637.542 460.367 637.542 459.685C637.542 459.003 636.99 458.45 636.308 458.45Z" fill="#B6BCCD"/>
<path d="M630.134 463.853H620.564C619.021 463.853 617.786 465.087 617.786 466.631C617.786 468.174 619.021 469.409 620.564 469.409H630.134C631.678 469.409 632.912 468.174 632.912 466.631C632.912 465.087 631.678 463.853 630.134 463.853Z" fill="#002BDC"/>
<path d="M635.073 475.892H615.779C614.927 475.892 614.236 476.583 614.236 477.435V491.481C614.236 492.333 614.927 493.024 615.779 493.024H635.073C635.925 493.024 636.616 492.333 636.616 491.481V477.435C636.616 476.583 635.925 475.892 635.073 475.892Z" fill="#FFF9FF"/>
<path d="M625.349 485.461C627.31 485.461 628.899 483.872 628.899 481.911C628.899 479.951 627.31 478.361 625.349 478.361C623.389 478.361 621.799 479.951 621.799 481.911C621.799 483.872 623.389 485.461 625.349 485.461Z" fill="#B6BCCD"/>
<path d="M633.529 488.24H617.323C616.641 488.24 616.088 488.792 616.088 489.474C616.088 490.156 616.641 490.709 617.323 490.709H633.529C634.211 490.709 634.764 490.156 634.764 489.474C634.764 488.792 634.211 488.24 633.529 488.24Z" fill="#B6BCCD"/>
<path opacity="0.2" d="M239.168 570.469C265.082 570.469 286.09 559.55 286.09 546.082C286.09 532.613 265.082 521.694 239.168 521.694C213.253 521.694 192.246 532.613 192.246 546.082C192.246 559.55 213.253 570.469 239.168 570.469Z" fill="#8180EE"/>
<path opacity="0.2" d="M408.95 474.77C434.865 474.77 455.872 463.851 455.872 450.383C455.872 436.914 434.865 425.996 408.95 425.996C383.036 425.996 362.028 436.914 362.028 450.383C362.028 463.851 383.036 474.77 408.95 474.77Z" fill="#8180EE"/>
<path opacity="0.2" d="M162.147 710C200.251 710 231.141 697.354 231.141 681.754C231.141 666.154 200.251 653.508 162.147 653.508C124.042 653.508 93.1528 666.154 93.1528 681.754C93.1528 697.354 124.042 710 162.147 710Z" fill="#8180EE"/>
<path d="M199.499 570.16L135.907 591.46V671.567C135.907 687.774 157.516 700.893 184.064 700.893C210.612 700.893 232.221 687.774 232.221 671.567V591.46L199.499 570.16Z" fill="#DCDEEF"/>
<path d="M184.065 620.786C210.661 620.786 232.221 607.656 232.221 591.46C232.221 575.263 210.661 562.134 184.065 562.134C157.468 562.134 135.908 575.263 135.908 591.46C135.908 607.656 157.468 620.786 184.065 620.786Z" fill="#DCDEEF"/>
<path d="M143.007 606.895C151.496 615.23 166.623 620.786 184.064 620.786C201.351 620.786 216.632 615.23 225.121 606.895C225.738 605.197 226.047 603.499 226.047 601.647C226.047 587.601 207.216 576.179 184.064 576.179C160.912 576.179 142.081 587.601 142.081 601.647C142.235 603.345 142.544 605.197 143.007 606.895Z" fill="#472918"/>
<path d="M213.853 583.588C206.29 578.958 195.794 576.025 184.064 576.025C180.051 576.025 176.346 576.334 172.642 576.951C173.414 578.032 174.957 578.958 176.346 579.421C182.057 581.273 189.003 581.736 192.244 586.829C191.781 588.064 190.238 588.527 188.849 588.836C178.97 590.379 168.629 590.534 159.368 594.238C156.281 595.473 152.885 597.634 152.885 601.03C152.885 603.962 155.355 606.123 157.361 608.284C159.368 610.445 161.22 613.532 159.677 616.001C159.522 616.156 159.368 616.464 159.214 616.619C166.468 619.243 174.957 620.786 184.064 620.786C186.225 620.786 188.385 620.632 190.392 620.477C188.385 618.625 186.225 617.082 183.755 615.538C181.44 614.149 178.507 611.988 179.433 609.364C180.205 607.358 182.675 606.895 184.681 606.586C189.62 605.969 194.714 605.351 199.653 604.888C201.196 604.734 202.894 604.425 204.129 603.499C205.364 602.573 206.136 600.566 205.21 599.332C204.746 598.56 203.666 598.251 203.357 597.325C202.894 595.936 204.283 594.701 205.673 594.238C207.062 593.775 208.76 593.775 209.84 592.849C212.001 590.843 210.149 587.292 208.142 585.132C210.149 584.823 212.001 584.206 213.853 583.588ZM172.488 597.943C169.092 598.406 165.542 598.714 162.146 597.788C161.837 597.634 161.374 597.479 161.374 597.171C161.374 596.862 161.529 596.708 161.683 596.399C163.844 594.393 169.092 593.775 171.87 593.775C173.105 593.775 176.038 594.238 176.809 595.319C178.044 597.171 173.568 597.788 172.488 597.943Z" fill="#A0694A"/>
<path d="M184.065 565.529C208.297 565.529 228.826 577.414 228.826 591.46C228.826 605.506 208.297 617.391 184.065 617.391C159.832 617.391 139.303 605.506 139.303 591.46C139.303 577.414 159.832 565.529 184.065 565.529ZM184.065 562.134C157.517 562.134 135.908 575.253 135.908 591.46C135.908 607.667 157.517 620.786 184.065 620.786C210.613 620.786 232.221 607.667 232.221 591.46C232.221 575.253 210.613 562.134 184.065 562.134Z" fill="#FFF9FF"/>
<path d="M225.122 623.873L223.424 622.793V630.973C231.604 636.53 236.543 645.791 236.543 655.669C236.543 658.756 235.463 661.689 233.611 664.004C232.993 664.158 232.376 664.158 231.759 664.158V671.104C235.154 671.104 238.704 670.178 241.791 668.326C248.12 664.621 251.824 658.139 251.824 650.884C243.489 642.55 236.543 630.356 225.122 623.873Z" fill="#DCDEEF"/>
<path opacity="0.2" d="M216.786 628.504L215.088 627.423V635.604C223.269 641.16 228.208 650.421 228.208 660.3C228.208 665.084 225.738 669.252 221.571 671.721C219.565 672.956 217.249 673.574 214.934 673.574V680.519C218.33 680.519 221.88 679.593 224.967 677.741C231.295 674.037 234.999 667.554 234.999 660.3C235.308 647.334 228.208 634.986 216.786 628.504Z" fill="#110FAB"/>
<path d="M397.838 459.952L412.193 469.676C412.193 469.676 418.212 475.85 420.373 477.857C422.534 479.863 423.923 477.703 422.689 475.233C421.762 473.535 418.83 468.287 416.823 464.892C415.743 463.039 413.891 461.805 411.884 461.65L409.878 461.496L406.791 459.489C406.791 459.489 405.401 458.563 405.093 458.409C404.784 458.409 402.315 457.792 401.851 457.792C401.388 457.946 397.838 459.952 397.838 459.952Z" fill="#EEBCC5"/>
<path d="M410.186 466.59C410.804 467.979 411.884 469.059 412.964 470.294C414.045 471.374 415.125 472.609 416.206 473.69C417.286 474.77 418.212 475.85 419.293 476.931C419.756 477.548 420.373 478.011 420.991 478.32C421.608 478.629 422.38 478.783 422.997 478.32C423.46 478.011 423.46 477.24 423.306 476.622C423.151 476.005 422.843 475.387 422.534 474.924C420.682 471.683 418.83 468.442 416.978 465.046C416.515 464.274 416.206 463.657 415.588 463.04C414.662 462.113 411.73 460.879 410.649 461.496C409.26 462.268 409.723 465.2 410.186 466.59Z" fill="#021759"/>
<path d="M430.561 442.511L436.58 446.215L444.915 449.611C444.915 449.611 450.935 454.705 453.095 456.248C455.256 457.792 456.646 455.476 455.411 453.161C454.485 451.618 451.552 446.987 449.545 443.9C448.465 442.202 446.613 441.276 444.606 441.585L442.6 441.894L439.513 440.505C439.513 440.505 438.124 439.887 437.815 439.887C437.506 439.887 435.037 439.733 434.574 439.887C434.111 439.887 430.561 442.511 430.561 442.511Z" fill="#EEBCC5"/>
<path d="M397.839 404.078L406.637 397.287L411.421 426.922L441.365 441.276C441.365 441.276 438.124 439.578 436.735 442.357C434.882 445.752 436.735 446.215 436.735 446.215L403.087 435.72C401.697 435.257 400.463 434.022 400.154 432.633L393.826 406.702L397.839 404.078Z" fill="#0B2386"/>
<path d="M379.934 397.133C379.471 406.239 377.156 433.868 377.773 436.491C378.391 440.196 393.98 457.483 402.778 463.657C402.778 463.503 402.932 463.503 402.932 463.348C404.321 461.187 407.1 460.107 409.415 461.033H409.569C404.63 450.074 400 444.826 391.51 436.337C392.591 432.17 392.282 415.654 393.208 411.487C397.53 410.87 407.408 404.696 407.408 404.696C407.408 404.696 408.489 398.676 406.791 394.663C402.006 393.737 397.067 392.965 392.282 392.039C387.652 391.422 382.713 393.737 379.934 397.133Z" fill="#0F2DA9"/>
<path d="M379.934 342.647C379.934 348.821 384.873 353.76 391.047 353.76C397.221 353.76 402.16 348.821 402.16 342.647C402.16 336.473 397.221 331.534 391.047 331.534C384.873 331.534 379.934 336.473 379.934 342.647Z" fill="#EEBCC5"/>
<path d="M408.334 367.806C408.334 367.806 413.119 355.304 408.026 351.754C404.167 351.291 399.536 353.606 399.536 353.606C399.536 353.606 389.504 360.089 382.867 363.33C379.471 365.028 381.941 373.054 381.941 381.08C382.095 388.952 379.934 396.978 379.934 396.978C379.934 396.978 390.275 401.454 395.832 400.991C401.389 400.683 408.026 398.059 407.254 395.435C406.482 392.811 403.241 383.241 404.63 379.845C406.173 376.758 408.334 367.806 408.334 367.806Z" fill="#FBFEFF"/>
<path d="M382.867 363.484C384.719 362.558 386.725 361.478 388.732 360.398C390.43 361.015 391.665 361.632 391.665 361.632L392.745 372.745C392.745 372.745 392.128 390.496 390.893 400.683C385.645 399.602 379.934 397.133 379.934 397.133C379.934 397.133 382.249 388.489 382.095 380.617C381.941 372.591 379.471 365.182 382.867 363.484Z" fill="#D7DAFF"/>
<path d="M350.145 367.652C350.145 370.276 352.305 372.437 354.929 372.437C357.553 372.437 359.714 370.276 359.714 367.652C359.714 365.028 357.553 362.867 354.929 362.867C352.305 362.867 350.145 365.028 350.145 367.652Z" fill="#EEBCC5"/>
<path d="M394.597 357.002L382.866 363.484C382.866 363.484 379.471 364.719 376.229 372.745C372.834 380.772 368.049 388.643 365.888 389.261C363.727 390.032 356.936 372.591 355.547 371.511C354.003 370.43 351.534 367.961 351.842 372.745C352.151 377.53 355.238 398.985 360.023 400.837C364.808 402.689 396.449 377.685 396.758 371.048C397.067 364.256 394.597 357.002 394.597 357.002Z" fill="#FBFEFF"/>
<path d="M355.701 370.584C357.245 371.665 363.727 390.032 365.888 389.261C366.043 389.261 366.197 389.106 366.351 389.106C366.351 389.106 366.506 389.106 366.506 388.952C366.66 388.952 366.66 388.798 366.814 388.643C366.814 388.643 366.969 388.643 366.969 388.489C367.123 388.335 367.277 388.18 367.432 388.026L367.586 387.872C367.74 387.717 367.895 387.563 367.895 387.408C367.895 387.254 368.049 387.254 368.049 387.1C368.203 386.945 368.358 386.791 368.358 386.637C368.512 386.482 368.666 386.328 368.666 386.174C368.821 386.019 368.821 385.865 368.975 385.711C369.13 385.556 369.129 385.402 369.284 385.248C369.284 385.093 369.438 385.093 369.438 384.939C369.901 384.322 370.364 383.55 370.827 382.778C370.827 382.778 370.827 382.778 370.827 382.624C371.445 381.543 372.216 380.308 372.834 378.919C374.377 381.235 377.464 385.248 380.706 387.717C371.908 394.972 362.029 401.3 359.56 400.374C354.775 398.522 351.842 377.067 351.379 372.282C351.534 367.961 354.158 369.504 355.701 370.584Z" fill="#EEBCC5"/>
<path d="M398.147 345.426L399.845 357.31C398.61 359.934 395.986 361.632 393.054 361.632H391.664L389.041 349.13L398.147 345.426Z" fill="#E2A1D0"/>
<path d="M383.793 345.889C383.793 344.191 385.954 343.11 387.343 344.036C388.269 344.808 388.423 346.043 388.115 347.278C387.806 348.358 387.034 349.284 386.262 350.21C389.812 352.526 393.517 354.532 397.53 355.921C399.228 353.452 400.771 351.137 402.469 348.667C403.241 347.586 404.012 346.506 404.321 345.271C405.093 342.339 404.012 337.245 402.006 334.93C399.228 331.689 395.678 330.299 391.356 329.991C388.115 329.682 384.101 331.997 382.095 334.467C379.317 337.862 382.404 342.184 383.793 345.889Z" fill="black"/>
<path d="M408.488 351.291C408.642 351.6 408.642 351.908 408.642 352.371C408.642 352.68 408.334 352.989 408.179 353.297C407.099 354.687 405.71 355.921 404.321 357.156C403.086 358.082 401.851 358.854 400.462 359.471C395.832 361.324 390.738 360.706 385.799 359.934C386.108 356.693 386.262 353.452 386.108 350.21C388.114 349.439 389.658 347.432 389.812 345.117C389.812 343.573 389.349 342.03 389.658 340.641C390.584 336.319 396.603 335.547 399.999 336.01C403.549 336.473 404.629 339.56 405.71 342.493C406.79 345.271 407.716 348.204 408.488 351.291Z" fill="black"/>
<path d="M384.874 348.513C384.874 349.13 385.337 349.747 386.108 349.747C386.726 349.747 387.343 349.284 387.343 348.513C387.343 347.895 386.88 347.278 386.108 347.278C385.491 347.432 384.874 347.895 384.874 348.513Z" fill="#00C9E4"/>
<path d="M443.063 446.833C443.68 448.068 444.761 448.994 445.841 449.92C446.921 450.846 448.002 451.772 449.082 452.698C450.163 453.624 451.089 454.396 452.169 455.322C452.632 455.785 453.25 456.248 453.867 456.403C454.485 456.557 455.256 456.557 455.874 456.094C456.337 455.631 456.337 455.013 456.182 454.396C456.028 453.779 455.719 453.316 455.411 452.698C453.558 449.766 451.706 446.833 449.854 443.9C449.391 443.283 449.082 442.665 448.465 442.202C447.539 441.431 444.606 440.659 443.526 441.585C441.982 442.665 442.445 445.598 443.063 446.833Z" fill="#021759"/>
<path d="M211.23 362.404C211.847 364.256 214.008 365.337 215.86 364.565C217.712 363.947 218.793 361.787 218.021 359.934C217.403 358.082 215.243 357.002 213.39 357.774C211.538 358.545 210.612 360.552 211.23 362.404Z" fill="#EEBCC5"/>
<path d="M216.478 362.867C216.478 362.867 226.51 383.704 227.436 387.254C228.208 390.033 222.96 394.046 220.799 391.885C218.793 389.724 213.236 363.793 213.236 363.793L216.478 362.867Z" fill="#EEBCC5"/>
<path d="M235.926 399.293C231.759 394.354 229.289 388.335 226.356 382.469C226.048 381.698 225.585 380.926 224.813 380.772C224.195 380.617 223.578 380.926 222.961 381.08C220.645 382.006 218.021 383.55 218.021 386.019C218.021 386.791 218.33 387.563 218.639 388.18C223.269 398.985 228.517 409.635 234.537 419.667C235.463 421.211 236.698 423.063 238.55 423.217C240.556 423.372 242.1 421.674 243.18 419.976C244.878 417.198 248.12 411.641 246.422 408.246C244.724 405.004 238.704 402.38 235.926 399.293Z" fill="#0F38DE"/>
<path d="M185.917 375.215C186.534 377.067 188.695 378.148 190.547 377.376C192.399 376.758 193.48 374.598 192.708 372.745C192.091 370.893 189.93 369.813 188.077 370.585C186.225 371.356 185.299 373.363 185.917 375.215Z" fill="#EEBCC5"/>
<path d="M244.26 450.691C244.26 450.691 248.428 482.333 248.736 497.613C249.045 512.894 255.065 513.357 259.387 523.235C263.708 533.114 266.487 543.146 266.487 543.146L264.171 544.381C264.171 544.381 243.797 519.377 241.482 517.061C239.012 514.592 230.986 472.918 230.986 472.918L244.26 450.691Z" fill="#0B2386"/>
<path d="M264.171 544.535C264.171 544.535 265.097 547.314 265.869 549.629C266.64 551.79 265.869 556.729 267.104 558.736C268.338 560.742 271.888 559.044 271.734 557.346C271.58 555.649 270.654 549.012 270.19 547.931C269.727 546.851 266.486 543.301 266.486 543.301L264.171 544.535Z" fill="#021759"/>
<path d="M217.25 397.287C217.25 403.461 222.189 408.4 228.363 408.4C234.537 408.4 239.476 403.461 239.476 397.287C239.476 391.113 234.537 386.174 228.363 386.174C222.189 386.174 217.25 391.267 217.25 397.287Z" fill="#EEBCC5"/>
<path d="M223.732 546.696C223.732 546.696 223.578 551.173 223.423 551.636C223.423 552.099 221.417 553.025 218.639 552.407C215.86 551.79 207.834 549.166 206.445 547.777C205.056 546.388 209.378 546.696 212.156 547.005C214.78 547.314 220.028 546.696 220.028 546.696H223.732Z" fill="#021759"/>
<path d="M245.649 462.113L233.456 472.146C233.456 472.146 226.356 496.688 225.584 502.553C224.812 508.418 223.732 540.06 223.732 546.697C223.732 550.864 220.799 548.857 219.719 548.086C218.638 547.314 213.854 507.492 213.854 496.996C213.854 486.501 218.484 450.074 218.484 450.074L244.26 450.229L245.649 462.113Z" fill="#0F2DA9"/>
<path d="M242.099 434.794C243.643 431.398 245.803 422.6 245.803 422.6C248.273 415.037 247.501 411.024 246.421 408.709C242.562 406.702 235.771 409.943 235.771 409.943C235.771 409.943 226.047 413.339 220.336 418.124C218.329 419.822 219.564 428.465 220.027 437.418C220.336 443.437 217.403 451.618 217.403 451.618C217.403 451.618 227.745 456.094 233.301 455.631C238.858 455.322 245.495 452.698 244.723 450.074C243.951 447.759 240.556 438.035 242.099 434.794Z" fill="#396AFC"/>
<path d="M191.165 375.678C191.165 375.678 201.197 396.515 202.123 400.065C202.895 402.843 197.647 406.856 195.486 404.695C193.48 402.535 187.923 376.604 187.923 376.604L191.165 375.678Z" fill="#EEBCC5"/>
<path d="M220.336 418.278C222.034 417.198 221.571 420.439 223.577 419.359C225.275 419.976 226.047 419.822 226.047 419.822L227.282 427.539C227.282 427.539 229.597 445.135 228.362 455.322C223.114 454.241 217.403 451.772 217.403 451.772C217.403 451.772 217.866 448.222 219.101 443.746C221.571 434.794 217.866 419.976 220.336 418.278Z" fill="#0F38DE"/>
<path d="M235.462 400.065L237.16 411.95C235.925 414.574 233.301 416.272 230.369 416.272H228.979L226.355 403.77L235.462 400.065Z" fill="#EEBCC5"/>
<path d="M221.108 400.528C221.108 398.83 223.269 397.75 224.658 398.676C225.584 399.448 225.739 400.682 225.43 401.917C225.121 402.998 224.35 403.924 223.578 404.85C227.128 407.165 230.832 409.172 234.845 410.561C236.543 408.091 238.087 405.776 239.784 403.306C240.556 402.226 241.328 401.145 241.637 399.911C242.408 396.978 241.328 391.885 239.321 389.569C236.543 386.328 232.993 384.939 228.671 384.63C225.43 384.321 221.417 386.637 219.41 389.106C216.632 392.502 219.719 396.978 221.108 400.528Z" fill="black"/>
<path d="M228.208 388.643C228.208 393.274 231.913 396.978 236.543 396.978C241.174 396.978 244.878 393.274 244.878 388.643C244.878 384.013 241.174 380.308 236.543 380.308C231.913 380.308 228.208 384.013 228.208 388.643Z" fill="#002BDC"/>
<path d="M228.979 387.254C228.979 392.193 232.993 396.206 237.932 396.206C242.871 396.206 246.884 392.193 246.884 387.254C246.884 382.315 242.871 378.302 237.932 378.302C232.993 378.302 228.979 382.315 228.979 387.254Z" fill="black"/>
<path d="M222.034 417.506C223.115 418.278 224.195 419.05 225.275 419.822C226.356 420.593 227.591 421.365 228.362 422.6C229.134 423.68 229.597 425.224 229.134 426.459C228.517 428.157 226.356 428.928 224.504 429.391C221.88 430.009 219.102 430.317 216.478 430.317C213.854 429.237 211.23 428.157 208.76 426.613C203.821 423.372 200.58 418.124 198.11 412.722C196.721 409.943 195.641 407.165 194.56 404.387C196.258 404.541 197.801 404.078 199.345 403.461C201.043 402.843 202.432 401.3 202.432 399.602C204.438 403.461 206.291 407.165 208.297 411.024C208.915 412.413 209.686 413.802 210.612 414.883C212.928 417.506 218.484 417.969 222.034 417.506Z" fill="#396AFC"/>
<circle r="46.4555" transform="matrix(0.866025 -0.5 2.20305e-08 1 340.907 234.754)" fill="#C7DAFA"/>
<line x1="371.033" y1="185.614" x2="315.506" y2="285.318" stroke="#002BDC" stroke-width="0.771744"/>
<line x1="316.037" y1="214.302" x2="368.543" y2="252.508" stroke="#002BDC" stroke-width="0.771744"/>
</svg>
