<svg xmlns="http://www.w3.org/2000/svg" viewBox="0 0 43.39 33.45"><defs><style>.cls-1{opacity:0.12;}.cls-2{fill:#002bdb;}</style></defs><title>Speach</title><g id="Warstwa_2" data-name="Warstwa 2"><g id="Warstwa_1-2" data-name="Warstwa 1"><g class="cls-1"><path class="cls-2" d="M9.79,0c6.36,0,10.6,5.47,10.6,13.79,0,6.85-4.08,15.17-9.79,19.66L1.47,31.81C5.79,27.73,9,22.6,9,19.58c-5.22,0-9-4.08-9-9.79A9.56,9.56,0,0,1,9.79,0Zm23,0c6.36,0,10.6,5.47,10.6,13.79,0,6.85-4.08,15.17-9.79,19.66l-9.13-1.64C28.79,27.73,32,22.6,32,19.58c-5.22,0-9-4.08-9-9.79A9.56,9.56,0,0,1,32.79,0Z"/></g></g></g></svg>