<svg xmlns="http://www.w3.org/2000/svg" viewBox="0 0 43.92 32.54"><defs><style>.cls-1{fill:#04afbc;}.cls-2{fill:#00c9e4;}.cls-3{fill:#021759;}.cls-4{fill:#002bdc;}</style></defs><title>svg</title><g id="Warstwa_2" data-name="Warstwa 2"><g id="Graphics"><path class="cls-1" d="M43.92,18l-12.86-.11-.55-.26a5.64,5.64,0,0,0-4.29,0l-.63.25-15.92,0v6a1.5,1.5,0,0,0,.92,1.33l14.11,6.86a5.6,5.6,0,0,0,4.29,0l14.3-6.85a1,1,0,0,0,.64-.91Z"/><path class="cls-2" d="M29,10.21a5.6,5.6,0,0,0-4.29,0L10.55,16.92c-1.18.56-1.18,1.49,0,2l14.15,6.8a5.6,5.6,0,0,0,4.29,0L43,19c1.18-.57,1.18-1.49,0-2.06Z"/><path class="cls-3" d="M21.21,5.07l-8,0-.34-.16a3.52,3.52,0,0,0-2.65,0L9.88,5,0,5,0,8.74a.92.92,0,0,0,.57.82L9.33,13.8a3.48,3.48,0,0,0,2.65,0l8.84-3.9a.64.64,0,0,0,.39-.56Z"/><path class="cls-4" d="M12,.26a3.5,3.5,0,0,0-2.66,0L.59,4.42c-.73.34-.74.91,0,1.26L9.33,9.89a3.48,3.48,0,0,0,2.65,0l8.68-4.18c.73-.35.73-.92,0-1.27Z"/></g></g></svg>