<svg xmlns="http://www.w3.org/2000/svg" viewBox="0 0 140.78 114.73"><defs><style>.cls-1{fill:#00c8e3;}.cls-2{fill:#002bdc;}.cls-3{fill:#1e243a;}</style></defs><title>web_development</title><g id="Warstwa_2" data-name="Warstwa 2"><g id="NETWORK"><path class="cls-1" d="M124.38,36.25h-3.8A1.65,1.65,0,0,1,119,35.07a17.68,17.68,0,0,0-1-2.47,1.64,1.64,0,0,1,.3-1.9L121,28a1.3,1.3,0,0,0,0-1.83l-3.77-3.76a1.3,1.3,0,0,0-1.83,0L113,24.88a1.65,1.65,0,0,1-2,.26,17.21,17.21,0,0,0-2.72-1.25,1.66,1.66,0,0,1-1.12-1.55V19a1.29,1.29,0,0,0-1.27-1.31h-5.3A1.28,1.28,0,0,0,99.29,19v2.9a1.64,1.64,0,0,1-1.24,1.57,18,18,0,0,0-3.2,1.18A1.64,1.64,0,0,1,93,24.33L91,22.41a1.3,1.3,0,0,0-1.83,0l-3.76,3.77a1.29,1.29,0,0,0,0,1.83l1.68,1.67a1.65,1.65,0,0,1,.26,2,17.78,17.78,0,0,0-1.46,3.41,1.66,1.66,0,0,1-1.57,1.18H82a1.29,1.29,0,0,0-1.32,1.26v5.42A1.29,1.29,0,0,0,82,44.19h2.35a1.65,1.65,0,0,1,1.56,1.15,18.8,18.8,0,0,0,1.48,3.43,1.65,1.65,0,0,1-.28,2L85.46,52.4a1.31,1.31,0,0,0,0,1.84L89.21,58A1.3,1.3,0,0,0,91,58L93,56.07a1.66,1.66,0,0,1,1.9-.31A17.33,17.33,0,0,0,98.05,57a1.64,1.64,0,0,1,1.24,1.57v2.94a1.28,1.28,0,0,0,1.27,1.3h5.3a1.28,1.28,0,0,0,1.27-1.3V58.07a1.66,1.66,0,0,1,1.12-1.55A17.67,17.67,0,0,0,111,55.28a1.66,1.66,0,0,1,2,.25L115.41,58a1.29,1.29,0,0,0,1.83,0L121,54.22a1.29,1.29,0,0,0,0-1.83l-2.67-2.67a1.64,1.64,0,0,1-.31-1.9,16.92,16.92,0,0,0,1-2.45,1.65,1.65,0,0,1,1.57-1.18h3.8a1.29,1.29,0,0,0,1.33-1.26V37.51A1.3,1.3,0,0,0,124.38,36.25ZM111.89,48.86a12.25,12.25,0,1,1,0-17.32A12.25,12.25,0,0,1,111.89,48.86Z"/><polygon class="cls-2" points="90.9 86.86 71.77 98.26 90.9 109.66 90.9 103.08 113.44 103.08 113.44 93.7 90.9 93.7 90.9 86.86"/><path class="cls-1" d="M44.2,72.39H41.57a1,1,0,0,1-1-.76,12.43,12.43,0,0,0-.85-2.29,1,1,0,0,1,.19-1.17l1.78-1.77a1,1,0,0,0,0-1.44l-2.64-2.64a1,1,0,0,0-1.44,0l-1.54,1.54a1,1,0,0,1-1.24.15,13,13,0,0,0-2.49-1.14,1,1,0,0,1-.7-1v-2a1,1,0,0,0-1-1H26.9a1,1,0,0,0-1,1v1.81a1,1,0,0,1-.76,1,12.79,12.79,0,0,0-2.76,1.09,1,1,0,0,1-1.2-.17l-1.25-1.25a1,1,0,0,0-1.43,0L15.78,65a1,1,0,0,0,0,1.44L17,67.72a1,1,0,0,1,.19,1.18,13.33,13.33,0,0,0-1.1,2.77,1,1,0,0,1-1,.74h-1.8a1,1,0,0,0-1,1v3.74a1,1,0,0,0,1,1h2a1,1,0,0,1,1,.7,12.17,12.17,0,0,0,1.14,2.49,1,1,0,0,1-.15,1.25l-1.57,1.56a1,1,0,0,0,0,1.43l2.65,2.65a1,1,0,0,0,1.43,0l1.8-1.8a1,1,0,0,1,1.16-.19,12.9,12.9,0,0,0,2.29.85,1,1,0,0,1,.76,1V90.7a1,1,0,0,0,1,1h3.76a1,1,0,0,0,1-1V87.88a1,1,0,0,1,.7-1,11.56,11.56,0,0,0,2-.85,1,1,0,0,1,1.2.17l2,2a1,1,0,0,0,1.44,0l2.7-2.71a1,1,0,0,0,0-1.43l-2-2a1,1,0,0,1-.17-1.2,11.57,11.57,0,0,0,.86-2,1,1,0,0,1,1-.7H44.2a1,1,0,0,0,1-1V73.4A1,1,0,0,0,44.2,72.39ZM33.4,79.91a6.55,6.55,0,1,1,0-9.26A6.54,6.54,0,0,1,33.4,79.91Z"/><path class="cls-3" d="M121,114.73a.66.66,0,0,1-.34-.08.68.68,0,0,1-.34-.59v-6H98.43a.68.68,0,0,1-.68-.67v-4.1a.68.68,0,0,1,1.36,0v3.42H121a.67.67,0,0,1,.67.68v5.51l17.13-10.21L121.65,92.45V98a.68.68,0,0,1-.67.68h-7.17a.68.68,0,1,1,0-1.36h6.49v-6a.67.67,0,0,1,1-.58l19.13,11.4a.67.67,0,0,1,0,1.16l-19.13,11.4A.69.69,0,0,1,121,114.73Z"/><path class="cls-3" d="M91,110.33a.73.73,0,0,1-.35-.09L71.47,98.84a.67.67,0,0,1,0-1.16L90.6,86.28a.66.66,0,0,1,.68,0,.68.68,0,0,1,.34.59V93h21.87a.69.69,0,0,1,.68.68V103a.69.69,0,0,1-.68.68H91.62v6a.67.67,0,0,1-.34.58A.66.66,0,0,1,91,110.33ZM73.14,98.26l17.13,10.21V103a.68.68,0,0,1,.68-.68h21.86v-8H91a.68.68,0,0,1-.68-.68v-5.6Z"/><path class="cls-3" d="M74.13,100.64H3.63A3.68,3.68,0,0,1,0,97V3.36A3.44,3.44,0,0,1,3.5,0H128.88a3.3,3.3,0,0,1,3.32,3.34V97a.68.68,0,1,1-1.35,0V3.34a1.94,1.94,0,0,0-2-2H3.5a2.08,2.08,0,0,0-2.15,2V97a2.35,2.35,0,0,0,2.28,2.29h70.5a.68.68,0,0,1,0,1.35Z"/><path class="cls-3" d="M118.59,13.89H.9a.68.68,0,0,1,0-1.36H118.59a.68.68,0,0,1,0,1.36Z"/><path class="cls-3" d="M23.85,12.85a.67.67,0,0,1-.67-.68V1.44a.68.68,0,0,1,1.35,0V12.17A.67.67,0,0,1,23.85,12.85Z"/><path class="cls-3" d="M7.82,9.63a2.91,2.91,0,1,1,2.91-2.91A2.91,2.91,0,0,1,7.82,9.63Zm0-4.47A1.56,1.56,0,1,0,9.37,6.72,1.56,1.56,0,0,0,7.82,5.16Z"/><path class="cls-3" d="M16.8,9.63a2.91,2.91,0,1,1,2.91-2.91A2.91,2.91,0,0,1,16.8,9.63Zm0-4.47a1.56,1.56,0,1,0,1.56,1.56A1.56,1.56,0,0,0,16.8,5.16Z"/><path class="cls-3" d="M98.57,5.41H28.86a.68.68,0,1,1,0-1.35H98.57a.68.68,0,0,1,0,1.35Z"/><path class="cls-3" d="M66.28,9.83H28.86a.68.68,0,1,1,0-1.35H66.28a.68.68,0,1,1,0,1.35Z"/><path class="cls-3" d="M131.57,13.89h-4.15a.68.68,0,0,1,0-1.36h4.15a.68.68,0,1,1,0,1.36Z"/><path class="cls-3" d="M28.77,82.5a7.23,7.23,0,0,1-5.11-12.33h0A7.23,7.23,0,1,1,28.77,82.5Zm0-13.09a5.82,5.82,0,0,0-4.15,1.72h0a5.87,5.87,0,1,0,4.15-1.72Zm-4.63,1.24Z"/><path class="cls-3" d="M30.65,92.39H26.89A1.69,1.69,0,0,1,25.2,90.7V88.09a.35.35,0,0,0-.26-.33,12.78,12.78,0,0,1-2.42-.9.36.36,0,0,0-.39.07l-1.79,1.8a1.73,1.73,0,0,1-1.2.49A1.71,1.71,0,0,1,18,88.73L15.3,86.08a1.66,1.66,0,0,1-.49-1.19,1.69,1.69,0,0,1,.49-1.2l1.57-1.56a.35.35,0,0,0,.05-.42,13.16,13.16,0,0,1-1.2-2.62.34.34,0,0,0-.33-.24h-2a1.69,1.69,0,0,1-1.2-.49,1.67,1.67,0,0,1-.49-1.2V73.42a1.7,1.7,0,0,1,.5-1.2,1.66,1.66,0,0,1,1.19-.49h1.82a.33.33,0,0,0,.32-.24,14.09,14.09,0,0,1,1.15-2.91.32.32,0,0,0-.07-.38L15.3,66.94a1.69,1.69,0,0,1-.49-1.2,1.65,1.65,0,0,1,.49-1.19L18,61.84a1.7,1.7,0,0,1,2.39,0l1.25,1.25a.34.34,0,0,0,.4.06A12.89,12.89,0,0,1,25,62a.35.35,0,0,0,.26-.33V59.86a1.69,1.69,0,0,1,1.69-1.69h3.75a1.69,1.69,0,0,1,1.69,1.69v2a.34.34,0,0,0,.23.32,12.91,12.91,0,0,1,2.62,1.2.35.35,0,0,0,.42,0l1.55-1.54a1.65,1.65,0,0,1,1.19-.49,1.69,1.69,0,0,1,1.2.49l2.64,2.64a1.69,1.69,0,0,1,0,2.39l-1.78,1.78a.33.33,0,0,0-.06.39,13.47,13.47,0,0,1,.89,2.42.34.34,0,0,0,.33.26H44.2a1.71,1.71,0,0,1,1.69,1.69v3.76a1.71,1.71,0,0,1-1.69,1.69H41.35a.35.35,0,0,0-.33.23,13,13,0,0,1-.9,2.13.33.33,0,0,0,.05.4l2,2a1.69,1.69,0,0,1,0,2.39l-2.71,2.71a1.71,1.71,0,0,1-1.19.49,1.73,1.73,0,0,1-1.2-.49l-2-2a.35.35,0,0,0-.41-.06,12.65,12.65,0,0,1-2.1.9.35.35,0,0,0-.24.32V90.7a1.71,1.71,0,0,1-1.69,1.69Zm-8.28-6.91a1.68,1.68,0,0,1,.75.17,11.42,11.42,0,0,0,2.16.81,1.68,1.68,0,0,1,1.27,1.63V90.7a.34.34,0,0,0,.34.34h3.76a.34.34,0,0,0,.24-.1A.39.39,0,0,0,31,90.7V87.88a1.69,1.69,0,0,1,1.17-1.61A11.71,11.71,0,0,0,34,85.46a1.68,1.68,0,0,1,2,.29l2,2a.34.34,0,0,0,.48,0l2.7-2.71a.33.33,0,0,0,0-.47l-2-2a1.68,1.68,0,0,1-.28-2,12,12,0,0,0,.81-1.91,1.69,1.69,0,0,1,1.61-1.17H44.2a.33.33,0,0,0,.23-.09.34.34,0,0,0,.1-.24V73.4a.34.34,0,0,0-.33-.33H41.57a1.7,1.7,0,0,1-1.64-1.27,10.75,10.75,0,0,0-.8-2.16,1.72,1.72,0,0,1,.32-2l1.78-1.77a.34.34,0,0,0,0-.48L38.59,62.8a.34.34,0,0,0-.48,0l-1.54,1.54a1.69,1.69,0,0,1-2.07.25,12.26,12.26,0,0,0-2.36-1.08A1.7,1.7,0,0,1,31,61.9v-2a.38.38,0,0,0-.1-.24.34.34,0,0,0-.24-.1H26.9a.36.36,0,0,0-.24.1.34.34,0,0,0-.1.24v1.81A1.7,1.7,0,0,1,25.3,63.3a11.68,11.68,0,0,0-2.6,1,1.68,1.68,0,0,1-2-.29L19.44,62.8a.31.31,0,0,0-.24-.1.3.3,0,0,0-.23.1l-2.71,2.7a.34.34,0,0,0,0,.48l1.26,1.26a1.67,1.67,0,0,1,.3,2,13,13,0,0,0-1,2.62,1.68,1.68,0,0,1-1.62,1.25H13.34a.29.29,0,0,0-.23.1.34.34,0,0,0-.1.24v3.74a.34.34,0,0,0,.34.34h2A1.69,1.69,0,0,1,17,78.66,11.94,11.94,0,0,0,18.08,81a1.69,1.69,0,0,1-.25,2.06l-1.57,1.57a.32.32,0,0,0-.1.24.33.33,0,0,0,.1.24l2.64,2.64a.34.34,0,0,0,.48,0l1.8-1.8A1.68,1.68,0,0,1,22.37,85.48Z"/><path class="cls-3" d="M103.23,53.12a12.92,12.92,0,0,1-9.14-22.06h0a12.93,12.93,0,1,1,9.14,22.06Zm0-24.49A11.46,11.46,0,0,0,95.05,32h0a11.56,11.56,0,1,0,8.18-3.39Zm-8.66,2.91Z"/><path class="cls-3" d="M105.86,63.43h-5.3a2,2,0,0,1-2-2V58.52a1,1,0,0,0-.72-.92,18.08,18.08,0,0,1-3.32-1.23,1,1,0,0,0-1.12.18l-1.91,1.92a1.94,1.94,0,0,1-1.39.57h0a1.94,1.94,0,0,1-1.39-.57L85,54.72a2,2,0,0,1-.58-1.4A1.91,1.91,0,0,1,85,51.93l1.68-1.68a1,1,0,0,0,.17-1.14,19.43,19.43,0,0,1-1.54-3.55,1,1,0,0,0-.91-.66H82a2,2,0,0,1-2-2V37.51a2,2,0,0,1,2-2h2.33a.94.94,0,0,0,.92-.69,18,18,0,0,1,1.52-3.52,1,1,0,0,0-.15-1.17L85,28.49a2,2,0,0,1-.58-1.4A2,2,0,0,1,85,25.7l3.76-3.76a1.93,1.93,0,0,1,1.4-.58h0a1.93,1.93,0,0,1,1.39.58l1.91,1.91a1,1,0,0,0,1.12.18,18.84,18.84,0,0,1,3.32-1.23,1,1,0,0,0,.72-.91V19a2,2,0,0,1,2-2h5.3a2,2,0,0,1,2,2v3.35a1,1,0,0,0,.66.91,17.84,17.84,0,0,1,2.81,1.3,1,1,0,0,0,1.18-.15L115,21.93a1.94,1.94,0,0,1,1.39-.57h0a1.94,1.94,0,0,1,1.39.57l3.77,3.76a2,2,0,0,1,.57,1.4,1.93,1.93,0,0,1-.58,1.39l-2.69,2.69a1,1,0,0,0-.18,1.13,17,17,0,0,1,1,2.55,1,1,0,0,0,.93.69h3.8a2,2,0,0,1,2,2v5.42a2,2,0,0,1-2,2h-3.8a1,1,0,0,0-.93.7,17.44,17.44,0,0,1-1,2.52,1,1,0,0,0,.18,1.12l2.67,2.67a2,2,0,0,1,.58,1.39,2,2,0,0,1-.58,1.4l-3.77,3.76a2,2,0,0,1-2.78,0L112.48,56a1,1,0,0,0-1.17-.15,17.53,17.53,0,0,1-2.82,1.3,1,1,0,0,0-.66.91v3.39A2,2,0,0,1,105.86,63.43ZM94.12,54.91a2.39,2.39,0,0,1,1,.24,16.86,16.86,0,0,0,3.07,1.15,2.31,2.31,0,0,1,1.72,2.22v2.94a.62.62,0,0,0,.62.62h5.3a.62.62,0,0,0,.62-.62V58.07A2.32,2.32,0,0,1,108,55.88a16,16,0,0,0,2.6-1.19,2.34,2.34,0,0,1,2.8.36l2.45,2.45a.62.62,0,0,0,.87,0l3.77-3.76a.6.6,0,0,0,.18-.44.58.58,0,0,0-.18-.43l-2.67-2.67a2.31,2.31,0,0,1-.43-2.68,17.14,17.14,0,0,0,.93-2.33,2.33,2.33,0,0,1,2.22-1.64h3.8a.62.62,0,0,0,.62-.62V37.51a.61.61,0,0,0-.62-.61h-3.8a2.32,2.32,0,0,1-2.22-1.65,16.28,16.28,0,0,0-1-2.35,2.34,2.34,0,0,1,.43-2.68l2.7-2.7a.58.58,0,0,0,.18-.43.6.6,0,0,0-.18-.44l-3.76-3.76a.62.62,0,0,0-.44-.18h0a.6.6,0,0,0-.44.18l-2.47,2.47a2.33,2.33,0,0,1-2.8.37,15.26,15.26,0,0,0-2.6-1.2,2.33,2.33,0,0,1-1.55-2.19V19a.62.62,0,0,0-.62-.62h-5.3a.62.62,0,0,0-.62.62v2.9a2.31,2.31,0,0,1-1.73,2.22,16.64,16.64,0,0,0-3.07,1.14,2.33,2.33,0,0,1-2.66-.44l-1.92-1.92a.62.62,0,0,0-.43-.18h0a.6.6,0,0,0-.44.18l-3.76,3.76a.62.62,0,0,0-.18.44.6.6,0,0,0,.18.44l1.68,1.67A2.34,2.34,0,0,1,88,32a16.78,16.78,0,0,0-1.4,3.26,2.32,2.32,0,0,1-2.22,1.65H82a.61.61,0,0,0-.62.61v5.42a.62.62,0,0,0,.62.62h2.35a2.3,2.3,0,0,1,2.2,1.6A18.34,18.34,0,0,0,88,48.45a2.29,2.29,0,0,1-.39,2.76l-1.68,1.67a.67.67,0,0,0-.18.44.65.65,0,0,0,.18.44l3.76,3.75a.6.6,0,0,0,.44.18h0a.58.58,0,0,0,.43-.18l1.92-1.92A2.32,2.32,0,0,1,94.12,54.91Z"/><path class="cls-3" d="M103.23,46.67a6.47,6.47,0,0,1-4.58-11.05h0a6.48,6.48,0,1,1,4.58,11.05ZM99.6,36.57a5.13,5.13,0,0,0,3.63,8.75,5.13,5.13,0,0,0,0-10.25,5.14,5.14,0,0,0-3.63,1.5Z"/><path class="cls-3" d="M98.88,36.55a.69.69,0,0,1-.48-.2L94.07,32a.68.68,0,1,1,1-1l4.34,4.34a.68.68,0,0,1,0,1A.71.71,0,0,1,98.88,36.55Z"/><path class="cls-3" d="M111.85,49.53a.67.67,0,0,1-.47-.2L107,44.94a.68.68,0,0,1,1-.95l4.38,4.38a.68.68,0,0,1-.48,1.16Z"/><path class="cls-3" d="M107.31,36.76a.68.68,0,0,1-.47-1.16l4.54-4.54a.68.68,0,0,1,1,1l-4.54,4.54A.67.67,0,0,1,107.31,36.76Z"/><path class="cls-3" d="M94.55,49.53a.68.68,0,0,1-.48-1.16l4.3-4.3a.68.68,0,0,1,1,1L95,49.33A.67.67,0,0,1,94.55,49.53Z"/><path class="cls-3" d="M57,30.57H19a.68.68,0,1,1,0-1.35H57a.68.68,0,1,1,0,1.35Z"/><path class="cls-3" d="M63.76,40.94H47.43a.68.68,0,0,1,0-1.35H63.76a.68.68,0,0,1,0,1.35Z"/><path class="cls-3" d="M113.26,84.23H88a.68.68,0,0,1,0-1.36h25.25a.68.68,0,1,1,0,1.36Z"/><path class="cls-3" d="M85.94,73.86H70.61a.68.68,0,0,1,0-1.36H85.94a.68.68,0,0,1,0,1.36Z"/><path class="cls-3" d="M99.74,73.86H94.51a.68.68,0,1,1,0-1.36h5.23a.68.68,0,0,1,0,1.36Z"/></g></g></svg>